<?xml version="1.0" encoding="utf-8" standalone="no"?>
<!DOCTYPE svg PUBLIC "-//W3C//DTD SVG 1.1//EN"
  "http://www.w3.org/Graphics/SVG/1.1/DTD/svg11.dtd">
<svg xmlns:xlink="http://www.w3.org/1999/xlink" width="1189.790391pt" height="415.126406pt" viewBox="0 0 1189.790391 415.126406" xmlns="http://www.w3.org/2000/svg" version="1.1">
 <metadata>
  <rdf:RDF xmlns:dc="http://purl.org/dc/elements/1.1/" xmlns:cc="http://creativecommons.org/ns#" xmlns:rdf="http://www.w3.org/1999/02/22-rdf-syntax-ns#">
   <cc:Work>
    <dc:type rdf:resource="http://purl.org/dc/dcmitype/StillImage"/>
    <dc:date>2025-03-01T00:06:28.008752</dc:date>
    <dc:format>image/svg+xml</dc:format>
    <dc:creator>
     <cc:Agent>
      <dc:title>Matplotlib v3.10.1, https://matplotlib.org/</dc:title>
     </cc:Agent>
    </dc:creator>
   </cc:Work>
  </rdf:RDF>
 </metadata>
 <defs>
  <style type="text/css">*{stroke-linejoin: round; stroke-linecap: butt}</style>
 </defs>
 <g id="figure_1">
  <g id="patch_1">
   <path d="M 0 415.126406 
L 1189.790391 415.126406 
L 1189.790391 0 
L 0 0 
z
" style="fill: #ffffff"/>
  </g>
  <g id="axes_1">
   <g id="patch_2">
    <path d="M 66.590391 339.84 
L 1182.590391 339.84 
L 1182.590391 7.2 
L 66.590391 7.2 
z
" style="fill: #ffffff"/>
   </g>
   <g id="matplotlib.axis_1">
    <g id="xtick_1">
     <g id="line2d_1">
      <path d="M 66.590391 339.84 
L 66.590391 7.2 
" clip-path="url(#p5f327ff957)" style="fill: none; stroke: #cccccc; stroke-width: 1.5; stroke-linecap: round"/>
     </g>
     <g id="text_1">
      <!-- Oct -->
      <g style="fill: #262626" transform="translate(53.960156 364.715) scale(0.165 -0.165)">
       <defs>
        <path id="FiraSans-Regular-4f" d="M 2214 4486 
Q 2771 4486 3190 4220 
Q 3610 3955 3843 3443 
Q 4077 2931 4077 2202 
Q 4077 1485 3843 973 
Q 3610 461 3190 192 
Q 2771 -77 2214 -77 
Q 1658 -77 1238 185 
Q 819 448 585 960 
Q 352 1472 352 2195 
Q 352 2906 585 3424 
Q 819 3942 1241 4214 
Q 1664 4486 2214 4486 
z
M 2214 3987 
Q 1638 3987 1318 3552 
Q 998 3117 998 2195 
Q 998 1280 1321 851 
Q 1645 422 2214 422 
Q 3430 422 3430 2202 
Q 3430 3987 2214 3987 
z
" transform="scale(0.015625)"/>
        <path id="FiraSans-Regular-63" d="M 1837 3450 
Q 2138 3450 2387 3363 
Q 2637 3277 2867 3085 
L 2586 2714 
Q 2406 2842 2236 2902 
Q 2067 2963 1862 2963 
Q 1453 2963 1225 2636 
Q 998 2310 998 1670 
Q 998 1030 1222 726 
Q 1446 422 1862 422 
Q 2061 422 2227 483 
Q 2394 544 2598 678 
L 2867 294 
Q 2406 -77 1837 -77 
Q 1152 -77 758 384 
Q 365 845 365 1658 
Q 365 2195 544 2598 
Q 723 3002 1052 3226 
Q 1382 3450 1837 3450 
z
" transform="scale(0.015625)"/>
        <path id="FiraSans-Regular-74" d="M 2310 154 
Q 1978 -77 1555 -77 
Q 1126 -77 886 169 
Q 646 416 646 883 
L 646 2918 
L 58 2918 
L 58 3373 
L 646 3373 
L 646 4134 
L 1235 4205 
L 1235 3373 
L 2035 3373 
L 1971 2918 
L 1235 2918 
L 1235 909 
Q 1235 646 1328 528 
Q 1421 410 1638 410 
Q 1837 410 2086 544 
L 2310 154 
z
" transform="scale(0.015625)"/>
       </defs>
       <use xlink:href="#FiraSans-Regular-4f"/>
       <use xlink:href="#FiraSans-Regular-63" transform="translate(69.199982 0)"/>
       <use xlink:href="#FiraSans-Regular-74" transform="translate(116.999969 0)"/>
      </g>
      <!-- 2013 -->
      <g style="fill: #262626" transform="translate(50.214141 383.078984) scale(0.165 -0.165)">
       <defs>
        <path id="FiraSans-Regular-32" d="M 1459 4346 
Q 1843 4346 2134 4192 
Q 2426 4038 2586 3772 
Q 2746 3507 2746 3174 
Q 2746 2784 2570 2425 
Q 2394 2067 2029 1651 
Q 1664 1235 922 493 
L 2848 493 
L 2778 0 
L 250 0 
L 250 467 
Q 1107 1357 1465 1769 
Q 1824 2182 1977 2489 
Q 2131 2797 2131 3149 
Q 2131 3482 1939 3670 
Q 1747 3859 1427 3859 
Q 1165 3859 966 3750 
Q 768 3642 544 3392 
L 160 3699 
Q 422 4026 742 4186 
Q 1062 4346 1459 4346 
z
" transform="scale(0.015625)"/>
        <path id="FiraSans-Regular-30" d="M 1786 4346 
Q 2496 4346 2857 3779 
Q 3219 3213 3219 2138 
Q 3219 1062 2857 492 
Q 2496 -77 1786 -77 
Q 1075 -77 713 492 
Q 352 1062 352 2138 
Q 352 3213 713 3779 
Q 1075 4346 1786 4346 
z
M 1786 3878 
Q 1370 3878 1168 3468 
Q 966 3059 966 2138 
Q 966 1216 1168 803 
Q 1370 390 1786 390 
Q 2195 390 2400 803 
Q 2605 1216 2605 2138 
Q 2605 3053 2400 3465 
Q 2195 3878 1786 3878 
z
" transform="scale(0.015625)"/>
        <path id="FiraSans-Regular-31" d="M 2067 4282 
L 2067 0 
L 1478 0 
L 1478 3654 
L 480 3046 
L 224 3462 
L 1549 4282 
L 2067 4282 
z
" transform="scale(0.015625)"/>
        <path id="FiraSans-Regular-33" d="M 1440 4346 
Q 1837 4346 2121 4198 
Q 2406 4051 2556 3801 
Q 2707 3552 2707 3258 
Q 2707 2867 2480 2614 
Q 2253 2362 1875 2272 
Q 2304 2234 2573 1965 
Q 2842 1696 2842 1235 
Q 2842 864 2662 563 
Q 2483 262 2150 92 
Q 1818 -77 1382 -77 
Q 992 -77 665 67 
Q 339 211 96 499 
L 448 826 
Q 659 608 880 505 
Q 1101 403 1363 403 
Q 1766 403 1996 630 
Q 2227 858 2227 1242 
Q 2227 1664 2009 1837 
Q 1792 2010 1376 2010 
L 1056 2010 
L 1126 2464 
L 1344 2464 
Q 1677 2464 1897 2662 
Q 2118 2861 2118 3219 
Q 2118 3520 1926 3696 
Q 1734 3872 1408 3872 
Q 1158 3872 950 3782 
Q 742 3693 525 3488 
L 218 3840 
Q 762 4346 1440 4346 
z
" transform="scale(0.015625)"/>
       </defs>
       <use xlink:href="#FiraSans-Regular-32"/>
       <use xlink:href="#FiraSans-Regular-30" transform="translate(49.499985 0)"/>
       <use xlink:href="#FiraSans-Regular-31" transform="translate(105.299973 0)"/>
       <use xlink:href="#FiraSans-Regular-33" transform="translate(148.59996 0)"/>
      </g>
     </g>
    </g>
    <g id="xtick_2">
     <g id="line2d_2">
      <path d="M 113.579864 339.84 
L 113.579864 7.2 
" clip-path="url(#p5f327ff957)" style="fill: none; stroke: #cccccc; stroke-width: 1.5; stroke-linecap: round"/>
     </g>
     <g id="text_2">
      <!-- Feb -->
      <g style="fill: #262626" transform="translate(100.132364 364.715) scale(0.165 -0.165)">
       <defs>
        <path id="FiraSans-Regular-46" d="M 640 0 
L 640 4410 
L 2982 4410 
L 2912 3923 
L 1248 3923 
L 1248 2419 
L 2688 2419 
L 2688 1939 
L 1248 1939 
L 1248 0 
L 640 0 
z
" transform="scale(0.015625)"/>
        <path id="FiraSans-Regular-65" d="M 3155 1786 
Q 3155 1638 3142 1485 
L 992 1485 
Q 1030 928 1273 665 
Q 1517 403 1901 403 
Q 2144 403 2349 473 
Q 2554 544 2778 698 
L 3034 346 
Q 2496 -77 1856 -77 
Q 1152 -77 758 384 
Q 365 845 365 1651 
Q 365 2176 534 2582 
Q 704 2989 1021 3219 
Q 1338 3450 1766 3450 
Q 2438 3450 2796 3008 
Q 3155 2566 3155 1786 
z
M 2573 1958 
Q 2573 2458 2374 2720 
Q 2176 2982 1779 2982 
Q 1056 2982 992 1920 
L 2573 1920 
L 2573 1958 
z
" transform="scale(0.015625)"/>
        <path id="FiraSans-Regular-62" d="M 2150 3450 
Q 2726 3450 3065 2986 
Q 3405 2522 3405 1690 
Q 3405 1165 3245 765 
Q 3085 365 2784 144 
Q 2483 -77 2080 -77 
Q 1549 -77 1184 371 
L 1126 0 
L 608 0 
L 608 4730 
L 1197 4800 
L 1197 2950 
Q 1562 3450 2150 3450 
z
M 1939 390 
Q 2330 390 2550 707 
Q 2771 1024 2771 1690 
Q 2771 2374 2566 2678 
Q 2362 2982 1984 2982 
Q 1536 2982 1197 2458 
L 1197 845 
Q 1331 634 1526 512 
Q 1722 390 1939 390 
z
" transform="scale(0.015625)"/>
       </defs>
       <use xlink:href="#FiraSans-Regular-46"/>
       <use xlink:href="#FiraSans-Regular-65" transform="translate(49.099991 0)"/>
       <use xlink:href="#FiraSans-Regular-62" transform="translate(103.599976 0)"/>
      </g>
      <!-- 2014 -->
      <g style="fill: #262626" transform="translate(96.931622 383.078984) scale(0.165 -0.165)">
       <defs>
        <path id="FiraSans-Regular-34" d="M 3213 1523 
L 3213 1056 
L 2656 1056 
L 2656 0 
L 2086 0 
L 2086 1056 
L 256 1056 
L 256 1478 
L 1542 4346 
L 2035 4141 
L 877 1523 
L 2093 1523 
L 2144 2675 
L 2656 2675 
L 2656 1523 
L 3213 1523 
z
" transform="scale(0.015625)"/>
       </defs>
       <use xlink:href="#FiraSans-Regular-32"/>
       <use xlink:href="#FiraSans-Regular-30" transform="translate(49.499985 0)"/>
       <use xlink:href="#FiraSans-Regular-31" transform="translate(105.299973 0)"/>
       <use xlink:href="#FiraSans-Regular-34" transform="translate(148.59996 0)"/>
      </g>
     </g>
    </g>
    <g id="xtick_3">
     <g id="line2d_3">
      <path d="M 160.569338 339.84 
L 160.569338 7.2 
" clip-path="url(#p5f327ff957)" style="fill: none; stroke: #cccccc; stroke-width: 1.5; stroke-linecap: round"/>
     </g>
     <g id="text_3">
      <!-- Jun -->
      <g style="fill: #262626" transform="translate(148.417346 364.715) scale(0.165 -0.165)">
       <defs>
        <path id="FiraSans-Regular-4a" d="M 1344 614 
Q 1344 -38 1059 -364 
Q 774 -691 192 -877 
L 32 -435 
Q 326 -320 473 -185 
Q 621 -51 678 141 
Q 736 333 736 640 
L 736 4410 
L 1344 4410 
L 1344 614 
z
" transform="scale(0.015625)"/>
        <path id="FiraSans-Regular-75" d="M 3117 0 
L 2611 0 
L 2566 525 
Q 2374 211 2124 67 
Q 1875 -77 1517 -77 
Q 1075 -77 825 192 
Q 576 461 576 954 
L 576 3373 
L 1165 3373 
L 1165 1018 
Q 1165 672 1286 528 
Q 1408 384 1683 384 
Q 2176 384 2528 966 
L 2528 3373 
L 3117 3373 
L 3117 0 
z
" transform="scale(0.015625)"/>
        <path id="FiraSans-Regular-6e" d="M 2195 3450 
Q 2656 3450 2915 3174 
Q 3174 2899 3174 2419 
L 3174 0 
L 2586 0 
L 2586 2336 
Q 2586 2694 2451 2841 
Q 2317 2989 2054 2989 
Q 1786 2989 1581 2835 
Q 1376 2682 1197 2394 
L 1197 0 
L 608 0 
L 608 3373 
L 1114 3373 
L 1165 2874 
Q 1344 3142 1609 3296 
Q 1875 3450 2195 3450 
z
" transform="scale(0.015625)"/>
       </defs>
       <use xlink:href="#FiraSans-Regular-4a"/>
       <use xlink:href="#FiraSans-Regular-75" transform="translate(30.499985 0)"/>
       <use xlink:href="#FiraSans-Regular-6e" transform="translate(88.699982 0)"/>
      </g>
      <!-- 2014 -->
      <g style="fill: #262626" transform="translate(143.921096 383.078984) scale(0.165 -0.165)">
       <use xlink:href="#FiraSans-Regular-32"/>
       <use xlink:href="#FiraSans-Regular-30" transform="translate(49.499985 0)"/>
       <use xlink:href="#FiraSans-Regular-31" transform="translate(105.299973 0)"/>
       <use xlink:href="#FiraSans-Regular-34" transform="translate(148.59996 0)"/>
      </g>
     </g>
    </g>
    <g id="xtick_4">
     <g id="line2d_4">
      <path d="M 207.558812 339.84 
L 207.558812 7.2 
" clip-path="url(#p5f327ff957)" style="fill: none; stroke: #cccccc; stroke-width: 1.5; stroke-linecap: round"/>
     </g>
     <g id="text_4">
      <!-- Oct -->
      <g style="fill: #262626" transform="translate(194.928577 364.715) scale(0.165 -0.165)">
       <use xlink:href="#FiraSans-Regular-4f"/>
       <use xlink:href="#FiraSans-Regular-63" transform="translate(69.199982 0)"/>
       <use xlink:href="#FiraSans-Regular-74" transform="translate(116.999969 0)"/>
      </g>
      <!-- 2014 -->
      <g style="fill: #262626" transform="translate(190.910569 383.078984) scale(0.165 -0.165)">
       <use xlink:href="#FiraSans-Regular-32"/>
       <use xlink:href="#FiraSans-Regular-30" transform="translate(49.499985 0)"/>
       <use xlink:href="#FiraSans-Regular-31" transform="translate(105.299973 0)"/>
       <use xlink:href="#FiraSans-Regular-34" transform="translate(148.59996 0)"/>
      </g>
     </g>
    </g>
    <g id="xtick_5">
     <g id="line2d_5">
      <path d="M 254.548285 339.84 
L 254.548285 7.2 
" clip-path="url(#p5f327ff957)" style="fill: none; stroke: #cccccc; stroke-width: 1.5; stroke-linecap: round"/>
     </g>
     <g id="text_5">
      <!-- Feb -->
      <g style="fill: #262626" transform="translate(241.100785 364.715) scale(0.165 -0.165)">
       <use xlink:href="#FiraSans-Regular-46"/>
       <use xlink:href="#FiraSans-Regular-65" transform="translate(49.099991 0)"/>
       <use xlink:href="#FiraSans-Regular-62" transform="translate(103.599976 0)"/>
      </g>
      <!-- 2015 -->
      <g style="fill: #262626" transform="translate(238.156567 383.078984) scale(0.165 -0.165)">
       <defs>
        <path id="FiraSans-Regular-35" d="M 2688 3821 
L 1018 3821 
L 1018 2560 
Q 1344 2726 1702 2726 
Q 2253 2726 2585 2364 
Q 2918 2003 2918 1370 
Q 2918 947 2732 617 
Q 2547 288 2211 105 
Q 1875 -77 1434 -77 
Q 1043 -77 736 60 
Q 429 198 166 467 
L 512 806 
Q 717 602 934 502 
Q 1152 403 1427 403 
Q 1837 403 2070 659 
Q 2304 915 2304 1382 
Q 2304 1850 2093 2061 
Q 1882 2272 1523 2272 
Q 1357 2272 1216 2237 
Q 1075 2202 915 2125 
L 454 2125 
L 454 4282 
L 2771 4282 
L 2688 3821 
z
" transform="scale(0.015625)"/>
       </defs>
       <use xlink:href="#FiraSans-Regular-32"/>
       <use xlink:href="#FiraSans-Regular-30" transform="translate(49.499985 0)"/>
       <use xlink:href="#FiraSans-Regular-31" transform="translate(105.299973 0)"/>
       <use xlink:href="#FiraSans-Regular-35" transform="translate(148.59996 0)"/>
      </g>
     </g>
    </g>
    <g id="xtick_6">
     <g id="line2d_6">
      <path d="M 301.537759 339.84 
L 301.537759 7.2 
" clip-path="url(#p5f327ff957)" style="fill: none; stroke: #cccccc; stroke-width: 1.5; stroke-linecap: round"/>
     </g>
     <g id="text_6">
      <!-- Jun -->
      <g style="fill: #262626" transform="translate(289.385767 364.715) scale(0.165 -0.165)">
       <use xlink:href="#FiraSans-Regular-4a"/>
       <use xlink:href="#FiraSans-Regular-75" transform="translate(30.499985 0)"/>
       <use xlink:href="#FiraSans-Regular-6e" transform="translate(88.699982 0)"/>
      </g>
      <!-- 2015 -->
      <g style="fill: #262626" transform="translate(285.14604 383.078984) scale(0.165 -0.165)">
       <use xlink:href="#FiraSans-Regular-32"/>
       <use xlink:href="#FiraSans-Regular-30" transform="translate(49.499985 0)"/>
       <use xlink:href="#FiraSans-Regular-31" transform="translate(105.299973 0)"/>
       <use xlink:href="#FiraSans-Regular-35" transform="translate(148.59996 0)"/>
      </g>
     </g>
    </g>
    <g id="xtick_7">
     <g id="line2d_7">
      <path d="M 348.527233 339.84 
L 348.527233 7.2 
" clip-path="url(#p5f327ff957)" style="fill: none; stroke: #cccccc; stroke-width: 1.5; stroke-linecap: round"/>
     </g>
     <g id="text_7">
      <!-- Oct -->
      <g style="fill: #262626" transform="translate(335.896998 364.715) scale(0.165 -0.165)">
       <use xlink:href="#FiraSans-Regular-4f"/>
       <use xlink:href="#FiraSans-Regular-63" transform="translate(69.199982 0)"/>
       <use xlink:href="#FiraSans-Regular-74" transform="translate(116.999969 0)"/>
      </g>
      <!-- 2015 -->
      <g style="fill: #262626" transform="translate(332.135514 383.078984) scale(0.165 -0.165)">
       <use xlink:href="#FiraSans-Regular-32"/>
       <use xlink:href="#FiraSans-Regular-30" transform="translate(49.499985 0)"/>
       <use xlink:href="#FiraSans-Regular-31" transform="translate(105.299973 0)"/>
       <use xlink:href="#FiraSans-Regular-35" transform="translate(148.59996 0)"/>
      </g>
     </g>
    </g>
    <g id="xtick_8">
     <g id="line2d_8">
      <path d="M 395.516706 339.84 
L 395.516706 7.2 
" clip-path="url(#p5f327ff957)" style="fill: none; stroke: #cccccc; stroke-width: 1.5; stroke-linecap: round"/>
     </g>
     <g id="text_8">
      <!-- Feb -->
      <g style="fill: #262626" transform="translate(382.069206 364.715) scale(0.165 -0.165)">
       <use xlink:href="#FiraSans-Regular-46"/>
       <use xlink:href="#FiraSans-Regular-65" transform="translate(49.099991 0)"/>
       <use xlink:href="#FiraSans-Regular-62" transform="translate(103.599976 0)"/>
      </g>
      <!-- 2016 -->
      <g style="fill: #262626" transform="translate(378.86073 383.078984) scale(0.165 -0.165)">
       <defs>
        <path id="FiraSans-Regular-36" d="M 1971 2816 
Q 2298 2816 2566 2662 
Q 2835 2509 2995 2201 
Q 3155 1894 3155 1453 
Q 3155 998 2972 649 
Q 2790 301 2480 112 
Q 2170 -77 1792 -77 
Q 1043 -77 697 476 
Q 352 1030 352 2010 
Q 352 2707 547 3235 
Q 742 3763 1107 4054 
Q 1472 4346 1971 4346 
Q 2458 4346 2854 4083 
L 2624 3693 
Q 2323 3878 1965 3878 
Q 1504 3878 1235 3436 
Q 966 2995 941 2253 
Q 1338 2816 1971 2816 
z
M 1792 390 
Q 2163 390 2361 672 
Q 2560 954 2560 1434 
Q 2560 2349 1869 2349 
Q 1587 2349 1350 2192 
Q 1114 2035 947 1760 
Q 966 1056 1168 723 
Q 1370 390 1792 390 
z
" transform="scale(0.015625)"/>
       </defs>
       <use xlink:href="#FiraSans-Regular-32"/>
       <use xlink:href="#FiraSans-Regular-30" transform="translate(49.499985 0)"/>
       <use xlink:href="#FiraSans-Regular-31" transform="translate(105.299973 0)"/>
       <use xlink:href="#FiraSans-Regular-36" transform="translate(148.59996 0)"/>
      </g>
     </g>
    </g>
    <g id="xtick_9">
     <g id="line2d_9">
      <path d="M 442.50618 339.84 
L 442.50618 7.2 
" clip-path="url(#p5f327ff957)" style="fill: none; stroke: #cccccc; stroke-width: 1.5; stroke-linecap: round"/>
     </g>
     <g id="text_9">
      <!-- Jun -->
      <g style="fill: #262626" transform="translate(430.354188 364.715) scale(0.165 -0.165)">
       <use xlink:href="#FiraSans-Regular-4a"/>
       <use xlink:href="#FiraSans-Regular-75" transform="translate(30.499985 0)"/>
       <use xlink:href="#FiraSans-Regular-6e" transform="translate(88.699982 0)"/>
      </g>
      <!-- 2016 -->
      <g style="fill: #262626" transform="translate(425.850204 383.078984) scale(0.165 -0.165)">
       <use xlink:href="#FiraSans-Regular-32"/>
       <use xlink:href="#FiraSans-Regular-30" transform="translate(49.499985 0)"/>
       <use xlink:href="#FiraSans-Regular-31" transform="translate(105.299973 0)"/>
       <use xlink:href="#FiraSans-Regular-36" transform="translate(148.59996 0)"/>
      </g>
     </g>
    </g>
    <g id="xtick_10">
     <g id="line2d_10">
      <path d="M 489.495654 339.84 
L 489.495654 7.2 
" clip-path="url(#p5f327ff957)" style="fill: none; stroke: #cccccc; stroke-width: 1.5; stroke-linecap: round"/>
     </g>
     <g id="text_10">
      <!-- Oct -->
      <g style="fill: #262626" transform="translate(476.865419 364.715) scale(0.165 -0.165)">
       <use xlink:href="#FiraSans-Regular-4f"/>
       <use xlink:href="#FiraSans-Regular-63" transform="translate(69.199982 0)"/>
       <use xlink:href="#FiraSans-Regular-74" transform="translate(116.999969 0)"/>
      </g>
      <!-- 2016 -->
      <g style="fill: #262626" transform="translate(472.839677 383.078984) scale(0.165 -0.165)">
       <use xlink:href="#FiraSans-Regular-32"/>
       <use xlink:href="#FiraSans-Regular-30" transform="translate(49.499985 0)"/>
       <use xlink:href="#FiraSans-Regular-31" transform="translate(105.299973 0)"/>
       <use xlink:href="#FiraSans-Regular-36" transform="translate(148.59996 0)"/>
      </g>
     </g>
    </g>
    <g id="xtick_11">
     <g id="line2d_11">
      <path d="M 536.485127 339.84 
L 536.485127 7.2 
" clip-path="url(#p5f327ff957)" style="fill: none; stroke: #cccccc; stroke-width: 1.5; stroke-linecap: round"/>
     </g>
     <g id="text_11">
      <!-- Feb -->
      <g style="fill: #262626" transform="translate(523.037627 364.715) scale(0.165 -0.165)">
       <use xlink:href="#FiraSans-Regular-46"/>
       <use xlink:href="#FiraSans-Regular-65" transform="translate(49.099991 0)"/>
       <use xlink:href="#FiraSans-Regular-62" transform="translate(103.599976 0)"/>
      </g>
      <!-- 2017 -->
      <g style="fill: #262626" transform="translate(520.562627 383.078984) scale(0.165 -0.165)">
       <defs>
        <path id="FiraSans-Regular-37" d="M 2650 4282 
L 2650 3840 
L 1050 -64 
L 512 115 
L 2054 3802 
L 160 3802 
L 160 4282 
L 2650 4282 
z
" transform="scale(0.015625)"/>
       </defs>
       <use xlink:href="#FiraSans-Regular-32"/>
       <use xlink:href="#FiraSans-Regular-30" transform="translate(49.499985 0)"/>
       <use xlink:href="#FiraSans-Regular-31" transform="translate(105.299973 0)"/>
       <use xlink:href="#FiraSans-Regular-37" transform="translate(148.59996 0)"/>
      </g>
     </g>
    </g>
    <g id="xtick_12">
     <g id="line2d_12">
      <path d="M 583.474601 339.84 
L 583.474601 7.2 
" clip-path="url(#p5f327ff957)" style="fill: none; stroke: #cccccc; stroke-width: 1.5; stroke-linecap: round"/>
     </g>
     <g id="text_12">
      <!-- Jun -->
      <g style="fill: #262626" transform="translate(571.322609 364.715) scale(0.165 -0.165)">
       <use xlink:href="#FiraSans-Regular-4a"/>
       <use xlink:href="#FiraSans-Regular-75" transform="translate(30.499985 0)"/>
       <use xlink:href="#FiraSans-Regular-6e" transform="translate(88.699982 0)"/>
      </g>
      <!-- 2017 -->
      <g style="fill: #262626" transform="translate(567.552101 383.078984) scale(0.165 -0.165)">
       <use xlink:href="#FiraSans-Regular-32"/>
       <use xlink:href="#FiraSans-Regular-30" transform="translate(49.499985 0)"/>
       <use xlink:href="#FiraSans-Regular-31" transform="translate(105.299973 0)"/>
       <use xlink:href="#FiraSans-Regular-37" transform="translate(148.59996 0)"/>
      </g>
     </g>
    </g>
    <g id="xtick_13">
     <g id="line2d_13">
      <path d="M 630.464075 339.84 
L 630.464075 7.2 
" clip-path="url(#p5f327ff957)" style="fill: none; stroke: #cccccc; stroke-width: 1.5; stroke-linecap: round"/>
     </g>
     <g id="text_13">
      <!-- Oct -->
      <g style="fill: #262626" transform="translate(617.83384 364.715) scale(0.165 -0.165)">
       <use xlink:href="#FiraSans-Regular-4f"/>
       <use xlink:href="#FiraSans-Regular-63" transform="translate(69.199982 0)"/>
       <use xlink:href="#FiraSans-Regular-74" transform="translate(116.999969 0)"/>
      </g>
      <!-- 2017 -->
      <g style="fill: #262626" transform="translate(614.541575 383.078984) scale(0.165 -0.165)">
       <use xlink:href="#FiraSans-Regular-32"/>
       <use xlink:href="#FiraSans-Regular-30" transform="translate(49.499985 0)"/>
       <use xlink:href="#FiraSans-Regular-31" transform="translate(105.299973 0)"/>
       <use xlink:href="#FiraSans-Regular-37" transform="translate(148.59996 0)"/>
      </g>
     </g>
    </g>
    <g id="xtick_14">
     <g id="line2d_14">
      <path d="M 677.453549 339.84 
L 677.453549 7.2 
" clip-path="url(#p5f327ff957)" style="fill: none; stroke: #cccccc; stroke-width: 1.5; stroke-linecap: round"/>
     </g>
     <g id="text_14">
      <!-- Feb -->
      <g style="fill: #262626" transform="translate(664.006049 364.715) scale(0.165 -0.165)">
       <use xlink:href="#FiraSans-Regular-46"/>
       <use xlink:href="#FiraSans-Regular-65" transform="translate(49.099991 0)"/>
       <use xlink:href="#FiraSans-Regular-62" transform="translate(103.599976 0)"/>
      </g>
      <!-- 2018 -->
      <g style="fill: #262626" transform="translate(660.64933 383.078984) scale(0.165 -0.165)">
       <defs>
        <path id="FiraSans-Regular-38" d="M 2336 2298 
Q 3238 1933 3238 1146 
Q 3238 794 3049 515 
Q 2861 237 2521 80 
Q 2182 -77 1754 -77 
Q 1318 -77 985 76 
Q 653 230 470 505 
Q 288 781 288 1133 
Q 288 1530 502 1798 
Q 717 2067 1133 2246 
Q 794 2419 630 2665 
Q 467 2912 467 3245 
Q 467 3590 649 3840 
Q 832 4090 1129 4218 
Q 1427 4346 1766 4346 
Q 2099 4346 2396 4224 
Q 2694 4102 2880 3856 
Q 3066 3610 3066 3264 
Q 3066 2944 2886 2713 
Q 2707 2483 2336 2298 
z
M 1766 3904 
Q 1434 3904 1238 3731 
Q 1043 3558 1043 3238 
Q 1043 2931 1232 2771 
Q 1421 2611 1837 2477 
L 1946 2438 
Q 2234 2605 2362 2790 
Q 2490 2976 2490 3245 
Q 2490 3546 2301 3725 
Q 2112 3904 1766 3904 
z
M 1760 390 
Q 2157 390 2390 595 
Q 2624 800 2624 1139 
Q 2624 1370 2534 1526 
Q 2445 1683 2246 1801 
Q 2048 1920 1690 2042 
L 1530 2099 
Q 1210 1946 1056 1712 
Q 902 1478 902 1133 
Q 902 781 1132 585 
Q 1363 390 1760 390 
z
" transform="scale(0.015625)"/>
       </defs>
       <use xlink:href="#FiraSans-Regular-32"/>
       <use xlink:href="#FiraSans-Regular-30" transform="translate(49.499985 0)"/>
       <use xlink:href="#FiraSans-Regular-31" transform="translate(105.299973 0)"/>
       <use xlink:href="#FiraSans-Regular-38" transform="translate(148.59996 0)"/>
      </g>
     </g>
    </g>
    <g id="xtick_15">
     <g id="line2d_15">
      <path d="M 724.443022 339.84 
L 724.443022 7.2 
" clip-path="url(#p5f327ff957)" style="fill: none; stroke: #cccccc; stroke-width: 1.5; stroke-linecap: round"/>
     </g>
     <g id="text_15">
      <!-- Jun -->
      <g style="fill: #262626" transform="translate(712.29103 364.715) scale(0.165 -0.165)">
       <use xlink:href="#FiraSans-Regular-4a"/>
       <use xlink:href="#FiraSans-Regular-75" transform="translate(30.499985 0)"/>
       <use xlink:href="#FiraSans-Regular-6e" transform="translate(88.699982 0)"/>
      </g>
      <!-- 2018 -->
      <g style="fill: #262626" transform="translate(707.638803 383.078984) scale(0.165 -0.165)">
       <use xlink:href="#FiraSans-Regular-32"/>
       <use xlink:href="#FiraSans-Regular-30" transform="translate(49.499985 0)"/>
       <use xlink:href="#FiraSans-Regular-31" transform="translate(105.299973 0)"/>
       <use xlink:href="#FiraSans-Regular-38" transform="translate(148.59996 0)"/>
      </g>
     </g>
    </g>
    <g id="xtick_16">
     <g id="line2d_16">
      <path d="M 771.432496 339.84 
L 771.432496 7.2 
" clip-path="url(#p5f327ff957)" style="fill: none; stroke: #cccccc; stroke-width: 1.5; stroke-linecap: round"/>
     </g>
     <g id="text_16">
      <!-- Oct -->
      <g style="fill: #262626" transform="translate(758.802262 364.715) scale(0.165 -0.165)">
       <use xlink:href="#FiraSans-Regular-4f"/>
       <use xlink:href="#FiraSans-Regular-63" transform="translate(69.199982 0)"/>
       <use xlink:href="#FiraSans-Regular-74" transform="translate(116.999969 0)"/>
      </g>
      <!-- 2018 -->
      <g style="fill: #262626" transform="translate(754.628277 383.078984) scale(0.165 -0.165)">
       <use xlink:href="#FiraSans-Regular-32"/>
       <use xlink:href="#FiraSans-Regular-30" transform="translate(49.499985 0)"/>
       <use xlink:href="#FiraSans-Regular-31" transform="translate(105.299973 0)"/>
       <use xlink:href="#FiraSans-Regular-38" transform="translate(148.59996 0)"/>
      </g>
     </g>
    </g>
    <g id="xtick_17">
     <g id="line2d_17">
      <path d="M 818.42197 339.84 
L 818.42197 7.2 
" clip-path="url(#p5f327ff957)" style="fill: none; stroke: #cccccc; stroke-width: 1.5; stroke-linecap: round"/>
     </g>
     <g id="text_17">
      <!-- Feb -->
      <g style="fill: #262626" transform="translate(804.97447 364.715) scale(0.165 -0.165)">
       <use xlink:href="#FiraSans-Regular-46"/>
       <use xlink:href="#FiraSans-Regular-65" transform="translate(49.099991 0)"/>
       <use xlink:href="#FiraSans-Regular-62" transform="translate(103.599976 0)"/>
      </g>
      <!-- 2019 -->
      <g style="fill: #262626" transform="translate(801.831735 383.078984) scale(0.165 -0.165)">
       <defs>
        <path id="FiraSans-Regular-39" d="M 1658 4346 
Q 2336 4346 2688 3901 
Q 3040 3456 3040 2682 
Q 3040 1805 2803 1270 
Q 2566 736 2080 419 
Q 1594 102 762 -141 
L 627 301 
Q 1485 544 1942 960 
Q 2400 1376 2432 2067 
Q 2285 1837 2035 1696 
Q 1786 1555 1472 1555 
Q 1139 1555 870 1724 
Q 602 1894 445 2204 
Q 288 2515 288 2931 
Q 288 3366 473 3686 
Q 659 4006 969 4176 
Q 1280 4346 1658 4346 
z
M 1594 2016 
Q 2099 2016 2445 2547 
Q 2458 3258 2269 3568 
Q 2080 3878 1670 3878 
Q 1293 3878 1088 3628 
Q 883 3379 883 2918 
Q 883 2470 1075 2243 
Q 1267 2016 1594 2016 
z
" transform="scale(0.015625)"/>
       </defs>
       <use xlink:href="#FiraSans-Regular-32"/>
       <use xlink:href="#FiraSans-Regular-30" transform="translate(49.499985 0)"/>
       <use xlink:href="#FiraSans-Regular-31" transform="translate(105.299973 0)"/>
       <use xlink:href="#FiraSans-Regular-39" transform="translate(148.59996 0)"/>
      </g>
     </g>
    </g>
    <g id="xtick_18">
     <g id="line2d_18">
      <path d="M 865.411443 339.84 
L 865.411443 7.2 
" clip-path="url(#p5f327ff957)" style="fill: none; stroke: #cccccc; stroke-width: 1.5; stroke-linecap: round"/>
     </g>
     <g id="text_18">
      <!-- Jun -->
      <g style="fill: #262626" transform="translate(853.259451 364.715) scale(0.165 -0.165)">
       <use xlink:href="#FiraSans-Regular-4a"/>
       <use xlink:href="#FiraSans-Regular-75" transform="translate(30.499985 0)"/>
       <use xlink:href="#FiraSans-Regular-6e" transform="translate(88.699982 0)"/>
      </g>
      <!-- 2019 -->
      <g style="fill: #262626" transform="translate(848.821209 383.078984) scale(0.165 -0.165)">
       <use xlink:href="#FiraSans-Regular-32"/>
       <use xlink:href="#FiraSans-Regular-30" transform="translate(49.499985 0)"/>
       <use xlink:href="#FiraSans-Regular-31" transform="translate(105.299973 0)"/>
       <use xlink:href="#FiraSans-Regular-39" transform="translate(148.59996 0)"/>
      </g>
     </g>
    </g>
    <g id="xtick_19">
     <g id="line2d_19">
      <path d="M 912.400917 339.84 
L 912.400917 7.2 
" clip-path="url(#p5f327ff957)" style="fill: none; stroke: #cccccc; stroke-width: 1.5; stroke-linecap: round"/>
     </g>
     <g id="text_19">
      <!-- Oct -->
      <g style="fill: #262626" transform="translate(899.770683 364.715) scale(0.165 -0.165)">
       <use xlink:href="#FiraSans-Regular-4f"/>
       <use xlink:href="#FiraSans-Regular-63" transform="translate(69.199982 0)"/>
       <use xlink:href="#FiraSans-Regular-74" transform="translate(116.999969 0)"/>
      </g>
      <!-- 2019 -->
      <g style="fill: #262626" transform="translate(895.810683 383.078984) scale(0.165 -0.165)">
       <use xlink:href="#FiraSans-Regular-32"/>
       <use xlink:href="#FiraSans-Regular-30" transform="translate(49.499985 0)"/>
       <use xlink:href="#FiraSans-Regular-31" transform="translate(105.299973 0)"/>
       <use xlink:href="#FiraSans-Regular-39" transform="translate(148.59996 0)"/>
      </g>
     </g>
    </g>
    <g id="xtick_20">
     <g id="line2d_20">
      <path d="M 959.390391 339.84 
L 959.390391 7.2 
" clip-path="url(#p5f327ff957)" style="fill: none; stroke: #cccccc; stroke-width: 1.5; stroke-linecap: round"/>
     </g>
     <g id="text_20">
      <!-- Feb -->
      <g style="fill: #262626" transform="translate(945.942891 364.715) scale(0.165 -0.165)">
       <use xlink:href="#FiraSans-Regular-46"/>
       <use xlink:href="#FiraSans-Regular-65" transform="translate(49.099991 0)"/>
       <use xlink:href="#FiraSans-Regular-62" transform="translate(103.599976 0)"/>
      </g>
      <!-- 2020 -->
      <g style="fill: #262626" transform="translate(942.016406 383.078984) scale(0.165 -0.165)">
       <use xlink:href="#FiraSans-Regular-32"/>
       <use xlink:href="#FiraSans-Regular-30" transform="translate(49.499985 0)"/>
       <use xlink:href="#FiraSans-Regular-32" transform="translate(105.299973 0)"/>
       <use xlink:href="#FiraSans-Regular-30" transform="translate(154.799957 0)"/>
      </g>
     </g>
    </g>
    <g id="xtick_21">
     <g id="line2d_21">
      <path d="M 1006.379864 339.84 
L 1006.379864 7.2 
" clip-path="url(#p5f327ff957)" style="fill: none; stroke: #cccccc; stroke-width: 1.5; stroke-linecap: round"/>
     </g>
     <g id="text_21">
      <!-- Jun -->
      <g style="fill: #262626" transform="translate(994.227872 364.715) scale(0.165 -0.165)">
       <use xlink:href="#FiraSans-Regular-4a"/>
       <use xlink:href="#FiraSans-Regular-75" transform="translate(30.499985 0)"/>
       <use xlink:href="#FiraSans-Regular-6e" transform="translate(88.699982 0)"/>
      </g>
      <!-- 2020 -->
      <g style="fill: #262626" transform="translate(989.00588 383.078984) scale(0.165 -0.165)">
       <use xlink:href="#FiraSans-Regular-32"/>
       <use xlink:href="#FiraSans-Regular-30" transform="translate(49.499985 0)"/>
       <use xlink:href="#FiraSans-Regular-32" transform="translate(105.299973 0)"/>
       <use xlink:href="#FiraSans-Regular-30" transform="translate(154.799957 0)"/>
      </g>
     </g>
    </g>
    <g id="xtick_22">
     <g id="line2d_22">
      <path d="M 1053.369338 339.84 
L 1053.369338 7.2 
" clip-path="url(#p5f327ff957)" style="fill: none; stroke: #cccccc; stroke-width: 1.5; stroke-linecap: round"/>
     </g>
     <g id="text_22">
      <!-- Oct -->
      <g style="fill: #262626" transform="translate(1040.739104 364.715) scale(0.165 -0.165)">
       <use xlink:href="#FiraSans-Regular-4f"/>
       <use xlink:href="#FiraSans-Regular-63" transform="translate(69.199982 0)"/>
       <use xlink:href="#FiraSans-Regular-74" transform="translate(116.999969 0)"/>
      </g>
      <!-- 2020 -->
      <g style="fill: #262626" transform="translate(1035.995354 383.078984) scale(0.165 -0.165)">
       <use xlink:href="#FiraSans-Regular-32"/>
       <use xlink:href="#FiraSans-Regular-30" transform="translate(49.499985 0)"/>
       <use xlink:href="#FiraSans-Regular-32" transform="translate(105.299973 0)"/>
       <use xlink:href="#FiraSans-Regular-30" transform="translate(154.799957 0)"/>
      </g>
     </g>
    </g>
    <g id="xtick_23">
     <g id="line2d_23">
      <path d="M 1100.358812 339.84 
L 1100.358812 7.2 
" clip-path="url(#p5f327ff957)" style="fill: none; stroke: #cccccc; stroke-width: 1.5; stroke-linecap: round"/>
     </g>
     <g id="text_23">
      <!-- Feb -->
      <g style="fill: #262626" transform="translate(1086.911312 364.715) scale(0.165 -0.165)">
       <use xlink:href="#FiraSans-Regular-46"/>
       <use xlink:href="#FiraSans-Regular-65" transform="translate(49.099991 0)"/>
       <use xlink:href="#FiraSans-Regular-62" transform="translate(103.599976 0)"/>
      </g>
      <!-- 2021 -->
      <g style="fill: #262626" transform="translate(1084.016077 383.078984) scale(0.165 -0.165)">
       <use xlink:href="#FiraSans-Regular-32"/>
       <use xlink:href="#FiraSans-Regular-30" transform="translate(49.499985 0)"/>
       <use xlink:href="#FiraSans-Regular-32" transform="translate(105.299973 0)"/>
       <use xlink:href="#FiraSans-Regular-31" transform="translate(154.799957 0)"/>
      </g>
     </g>
    </g>
    <g id="xtick_24">
     <g id="line2d_24">
      <path d="M 1147.348285 339.84 
L 1147.348285 7.2 
" clip-path="url(#p5f327ff957)" style="fill: none; stroke: #cccccc; stroke-width: 1.5; stroke-linecap: round"/>
     </g>
     <g id="text_24">
      <!-- Jun -->
      <g style="fill: #262626" transform="translate(1135.196293 364.715) scale(0.165 -0.165)">
       <use xlink:href="#FiraSans-Regular-4a"/>
       <use xlink:href="#FiraSans-Regular-75" transform="translate(30.499985 0)"/>
       <use xlink:href="#FiraSans-Regular-6e" transform="translate(88.699982 0)"/>
      </g>
      <!-- 2021 -->
      <g style="fill: #262626" transform="translate(1131.005551 383.078984) scale(0.165 -0.165)">
       <use xlink:href="#FiraSans-Regular-32"/>
       <use xlink:href="#FiraSans-Regular-30" transform="translate(49.499985 0)"/>
       <use xlink:href="#FiraSans-Regular-32" transform="translate(105.299973 0)"/>
       <use xlink:href="#FiraSans-Regular-31" transform="translate(154.799957 0)"/>
      </g>
     </g>
    </g>
    <g id="xtick_25"/>
    <g id="xtick_26"/>
    <g id="xtick_27"/>
    <g id="xtick_28"/>
    <g id="xtick_29"/>
    <g id="xtick_30"/>
    <g id="xtick_31"/>
    <g id="xtick_32"/>
    <g id="xtick_33"/>
    <g id="xtick_34"/>
    <g id="xtick_35"/>
    <g id="xtick_36"/>
    <g id="xtick_37"/>
    <g id="xtick_38"/>
    <g id="xtick_39"/>
    <g id="xtick_40"/>
    <g id="xtick_41"/>
    <g id="xtick_42"/>
    <g id="xtick_43"/>
    <g id="xtick_44"/>
    <g id="xtick_45"/>
    <g id="xtick_46"/>
    <g id="xtick_47"/>
    <g id="xtick_48"/>
    <g id="text_25">
     <!-- Time -->
     <g style="fill: #262626" transform="translate(604.780547 404.092969) scale(0.18 -0.18)">
      <defs>
       <path id="FiraSans-Regular-54" d="M 3245 4410 
L 3181 3891 
L 1958 3891 
L 1958 0 
L 1350 0 
L 1350 3891 
L 96 3891 
L 96 4410 
L 3245 4410 
z
" transform="scale(0.015625)"/>
       <path id="FiraSans-Regular-69" d="M 1197 3373 
L 1197 0 
L 608 0 
L 608 3373 
L 1197 3373 
z
M 896 4992 
Q 1082 4992 1197 4877 
Q 1312 4762 1312 4589 
Q 1312 4416 1197 4304 
Q 1082 4192 896 4192 
Q 717 4192 601 4304 
Q 486 4416 486 4589 
Q 486 4762 601 4877 
Q 717 4992 896 4992 
z
" transform="scale(0.015625)"/>
       <path id="FiraSans-Regular-6d" d="M 3994 3450 
Q 4410 3450 4659 3171 
Q 4909 2893 4909 2419 
L 4909 0 
L 4320 0 
L 4320 2336 
Q 4320 2989 3846 2989 
Q 3597 2989 3424 2845 
Q 3251 2701 3053 2394 
L 3053 0 
L 2464 0 
L 2464 2336 
Q 2464 2989 1990 2989 
Q 1734 2989 1561 2841 
Q 1389 2694 1197 2394 
L 1197 0 
L 608 0 
L 608 3373 
L 1114 3373 
L 1165 2880 
Q 1542 3450 2138 3450 
Q 2451 3450 2672 3290 
Q 2893 3130 2989 2842 
Q 3187 3136 3427 3293 
Q 3667 3450 3994 3450 
z
" transform="scale(0.015625)"/>
      </defs>
      <use xlink:href="#FiraSans-Regular-54"/>
      <use xlink:href="#FiraSans-Regular-69" transform="translate(51.699997 0)"/>
      <use xlink:href="#FiraSans-Regular-6d" transform="translate(79.899994 0)"/>
      <use xlink:href="#FiraSans-Regular-65" transform="translate(165.599976 0)"/>
     </g>
    </g>
   </g>
   <g id="matplotlib.axis_2">
    <g id="ytick_1">
     <g id="line2d_25">
      <path d="M 66.590391 324.72 
L 1182.590391 324.72 
" clip-path="url(#p5f327ff957)" style="fill: none; stroke: #cccccc; stroke-width: 1.5; stroke-linecap: round"/>
     </g>
     <g id="text_26">
      <!-- 0 -->
      <g style="fill: #262626" transform="translate(44.883906 330.9075) scale(0.165 -0.165)">
       <use xlink:href="#FiraSans-Regular-30"/>
      </g>
     </g>
    </g>
    <g id="ytick_2">
     <g id="line2d_26">
      <path d="M 66.590391 274.32 
L 1182.590391 274.32 
" clip-path="url(#p5f327ff957)" style="fill: none; stroke: #cccccc; stroke-width: 1.5; stroke-linecap: round"/>
     </g>
     <g id="text_27">
      <!-- 20 -->
      <g style="fill: #262626" transform="translate(36.716406 280.5075) scale(0.165 -0.165)">
       <use xlink:href="#FiraSans-Regular-32"/>
       <use xlink:href="#FiraSans-Regular-30" transform="translate(49.499985 0)"/>
      </g>
     </g>
    </g>
    <g id="ytick_3">
     <g id="line2d_27">
      <path d="M 66.590391 223.92 
L 1182.590391 223.92 
" clip-path="url(#p5f327ff957)" style="fill: none; stroke: #cccccc; stroke-width: 1.5; stroke-linecap: round"/>
     </g>
     <g id="text_28">
      <!-- 40 -->
      <g style="fill: #262626" transform="translate(36.105391 230.1075) scale(0.165 -0.165)">
       <use xlink:href="#FiraSans-Regular-34"/>
       <use xlink:href="#FiraSans-Regular-30" transform="translate(53.199997 0)"/>
      </g>
     </g>
    </g>
    <g id="ytick_4">
     <g id="line2d_28">
      <path d="M 66.590391 173.52 
L 1182.590391 173.52 
" clip-path="url(#p5f327ff957)" style="fill: none; stroke: #cccccc; stroke-width: 1.5; stroke-linecap: round"/>
     </g>
     <g id="text_29">
      <!-- 60 -->
      <g style="fill: #262626" transform="translate(36.089922 179.7075) scale(0.165 -0.165)">
       <use xlink:href="#FiraSans-Regular-36"/>
       <use xlink:href="#FiraSans-Regular-30" transform="translate(53.299988 0)"/>
      </g>
     </g>
    </g>
    <g id="ytick_5">
     <g id="line2d_29">
      <path d="M 66.590391 123.12 
L 1182.590391 123.12 
" clip-path="url(#p5f327ff957)" style="fill: none; stroke: #cccccc; stroke-width: 1.5; stroke-linecap: round"/>
     </g>
     <g id="text_30">
      <!-- 80 -->
      <g style="fill: #262626" transform="translate(35.793438 129.3075) scale(0.165 -0.165)">
       <use xlink:href="#FiraSans-Regular-38"/>
       <use xlink:href="#FiraSans-Regular-30" transform="translate(55.099991 0)"/>
      </g>
     </g>
    </g>
    <g id="ytick_6">
     <g id="line2d_30">
      <path d="M 66.590391 72.72 
L 1182.590391 72.72 
" clip-path="url(#p5f327ff957)" style="fill: none; stroke: #cccccc; stroke-width: 1.5; stroke-linecap: round"/>
     </g>
     <g id="text_31">
      <!-- 100 -->
      <g style="fill: #262626" transform="translate(28.533438 78.9075) scale(0.165 -0.165)">
       <use xlink:href="#FiraSans-Regular-31"/>
       <use xlink:href="#FiraSans-Regular-30" transform="translate(43.299988 0)"/>
       <use xlink:href="#FiraSans-Regular-30" transform="translate(99.099976 0)"/>
      </g>
     </g>
    </g>
    <g id="ytick_7">
     <g id="line2d_31">
      <path d="M 66.590391 22.32 
L 1182.590391 22.32 
" clip-path="url(#p5f327ff957)" style="fill: none; stroke: #cccccc; stroke-width: 1.5; stroke-linecap: round"/>
     </g>
     <g id="text_32">
      <!-- 120 -->
      <g style="fill: #262626" transform="translate(29.572422 28.5075) scale(0.165 -0.165)">
       <use xlink:href="#FiraSans-Regular-31"/>
       <use xlink:href="#FiraSans-Regular-32" transform="translate(43.299988 0)"/>
       <use xlink:href="#FiraSans-Regular-30" transform="translate(92.799973 0)"/>
      </g>
     </g>
    </g>
    <g id="text_33">
     <!-- Interactions -->
     <g style="fill: #262626" transform="translate(20.7 222.793594) rotate(-90) scale(0.18 -0.18)">
      <defs>
       <path id="FiraSans-Regular-49" d="M 1248 4410 
L 1248 0 
L 640 0 
L 640 4410 
L 1248 4410 
z
" transform="scale(0.015625)"/>
       <path id="FiraSans-Regular-72" d="M 2074 3450 
Q 2253 3450 2406 3411 
L 2298 2835 
Q 2144 2874 2003 2874 
Q 1690 2874 1498 2643 
Q 1306 2413 1197 1926 
L 1197 0 
L 608 0 
L 608 3373 
L 1114 3373 
L 1171 2688 
Q 1306 3066 1536 3258 
Q 1766 3450 2074 3450 
z
" transform="scale(0.015625)"/>
       <path id="FiraSans-Regular-61" d="M 2880 787 
Q 2880 582 2950 483 
Q 3021 384 3162 333 
L 3027 -77 
Q 2765 -45 2605 70 
Q 2445 186 2368 429 
Q 2029 -77 1363 -77 
Q 864 -77 576 204 
Q 288 486 288 941 
Q 288 1478 675 1766 
Q 1062 2054 1773 2054 
L 2291 2054 
L 2291 2304 
Q 2291 2662 2118 2816 
Q 1946 2970 1587 2970 
Q 1216 2970 678 2790 
L 531 3219 
Q 1158 3450 1696 3450 
Q 2291 3450 2585 3158 
Q 2880 2867 2880 2330 
L 2880 787 
z
M 1498 365 
Q 2003 365 2291 890 
L 2291 1664 
L 1850 1664 
Q 915 1664 915 973 
Q 915 672 1062 518 
Q 1210 365 1498 365 
z
" transform="scale(0.015625)"/>
       <path id="FiraSans-Regular-6f" d="M 1875 3450 
Q 2586 3450 2979 2976 
Q 3373 2502 3373 1690 
Q 3373 1165 3193 765 
Q 3014 365 2675 144 
Q 2336 -77 1869 -77 
Q 1158 -77 761 396 
Q 365 870 365 1683 
Q 365 2208 544 2608 
Q 723 3008 1062 3229 
Q 1402 3450 1875 3450 
z
M 1875 2976 
Q 998 2976 998 1683 
Q 998 397 1869 397 
Q 2739 397 2739 1690 
Q 2739 2976 1875 2976 
z
" transform="scale(0.015625)"/>
       <path id="FiraSans-Regular-73" d="M 1523 3450 
Q 1869 3450 2144 3354 
Q 2419 3258 2669 3066 
L 2419 2694 
Q 2189 2842 1981 2912 
Q 1773 2982 1542 2982 
Q 1254 2982 1088 2864 
Q 922 2746 922 2541 
Q 922 2336 1078 2221 
Q 1235 2106 1645 1997 
Q 2208 1856 2486 1613 
Q 2765 1370 2765 947 
Q 2765 448 2377 185 
Q 1990 -77 1434 -77 
Q 666 -77 160 365 
L 474 723 
Q 902 397 1421 397 
Q 1754 397 1949 534 
Q 2144 672 2144 909 
Q 2144 1082 2073 1187 
Q 2003 1293 1830 1373 
Q 1658 1453 1325 1542 
Q 787 1683 547 1920 
Q 307 2157 307 2522 
Q 307 2784 464 2998 
Q 621 3213 899 3331 
Q 1178 3450 1523 3450 
z
" transform="scale(0.015625)"/>
      </defs>
      <use xlink:href="#FiraSans-Regular-49"/>
      <use xlink:href="#FiraSans-Regular-6e" transform="translate(29.499985 0)"/>
      <use xlink:href="#FiraSans-Regular-74" transform="translate(88.099976 0)"/>
      <use xlink:href="#FiraSans-Regular-65" transform="translate(124.199966 0)"/>
      <use xlink:href="#FiraSans-Regular-72" transform="translate(178.699951 0)"/>
      <use xlink:href="#FiraSans-Regular-61" transform="translate(217.299942 0)"/>
      <use xlink:href="#FiraSans-Regular-63" transform="translate(271.699936 0)"/>
      <use xlink:href="#FiraSans-Regular-74" transform="translate(319.499924 0)"/>
      <use xlink:href="#FiraSans-Regular-69" transform="translate(355.599915 0)"/>
      <use xlink:href="#FiraSans-Regular-6f" transform="translate(383.799911 0)"/>
      <use xlink:href="#FiraSans-Regular-6e" transform="translate(442.199905 0)"/>
      <use xlink:href="#FiraSans-Regular-73" transform="translate(500.799896 0)"/>
     </g>
    </g>
   </g>
   <g id="FillBetweenPolyCollection_1">
    <defs>
     <path id="m7077f2f543" d="M 66.590391 -92.926406 
L 66.590391 -90.406406 
L 78.337759 -90.406406 
L 90.085127 -90.406406 
L 101.832496 -90.406406 
L 113.579864 -90.406406 
L 125.327233 -90.406406 
L 137.074601 -90.406406 
L 148.82197 -90.406406 
L 160.569338 -90.406406 
L 172.316706 -90.406406 
L 184.064075 -90.406406 
L 195.811443 -90.406406 
L 207.558812 -90.406406 
L 219.30618 -90.406406 
L 231.053549 -90.406406 
L 242.800917 -90.406406 
L 254.548285 -90.406406 
L 266.295654 -90.406406 
L 278.043022 -90.406406 
L 289.790391 -90.406406 
L 301.537759 -90.406406 
L 313.285127 -90.406406 
L 325.032496 -90.406406 
L 336.779864 -90.406406 
L 348.527233 -90.406406 
L 360.274601 -90.406406 
L 372.02197 -90.406406 
L 383.769338 -90.406406 
L 395.516706 -90.406406 
L 407.264075 -90.406406 
L 419.011443 -90.406406 
L 430.758812 -90.406406 
L 442.50618 -90.406406 
L 454.253549 -90.406406 
L 466.000917 -90.406406 
L 477.748285 -90.406406 
L 489.495654 -90.406406 
L 501.243022 -90.406406 
L 512.990391 -90.406406 
L 524.737759 -90.406406 
L 536.485127 -90.406406 
L 548.232496 -90.406406 
L 559.979864 -90.406406 
L 571.727233 -90.406406 
L 583.474601 -90.406406 
L 595.22197 -90.406406 
L 606.969338 -90.406406 
L 618.716706 -90.406406 
L 630.464075 -90.406406 
L 642.211443 -90.406406 
L 653.958812 -90.406406 
L 665.70618 -90.406406 
L 677.453549 -90.406406 
L 689.200917 -90.406406 
L 700.948285 -90.406406 
L 712.695654 -90.406406 
L 724.443022 -90.406406 
L 736.190391 -90.406406 
L 747.937759 -90.406406 
L 759.685127 -90.406406 
L 771.432496 -90.406406 
L 783.179864 -90.406406 
L 794.927233 -90.406406 
L 806.674601 -90.406406 
L 818.42197 -90.406406 
L 830.169338 -90.406406 
L 841.916706 -90.406406 
L 853.664075 -90.406406 
L 865.411443 -90.406406 
L 877.158812 -90.406406 
L 888.90618 -90.406406 
L 900.653549 -90.406406 
L 912.400917 -90.406406 
L 924.148285 -90.406406 
L 935.895654 -90.406406 
L 947.643022 -90.406406 
L 959.390391 -90.406406 
L 971.137759 -90.406406 
L 982.885127 -90.406406 
L 994.632496 -90.406406 
L 1006.379864 -90.406406 
L 1018.127233 -90.406406 
L 1029.874601 -90.406406 
L 1041.62197 -90.406406 
L 1053.369338 -90.406406 
L 1065.116706 -90.406406 
L 1076.864075 -90.406406 
L 1088.611443 -90.406406 
L 1100.358812 -90.406406 
L 1112.10618 -90.406406 
L 1123.853549 -90.406406 
L 1135.600917 -90.406406 
L 1147.348285 -90.406406 
L 1159.095654 -90.406406 
L 1170.843022 -90.406406 
L 1182.590391 -90.406406 
L 1182.590391 -113.086406 
L 1182.590391 -113.086406 
L 1170.843022 -97.966406 
L 1159.095654 -92.926406 
L 1147.348285 -135.766406 
L 1135.600917 -95.446406 
L 1123.853549 -168.526406 
L 1112.10618 -193.726406 
L 1100.358812 -173.566406 
L 1088.611443 -128.206406 
L 1076.864075 -105.526406 
L 1065.116706 -95.446406 
L 1053.369338 -113.086406 
L 1041.62197 -133.246406 
L 1029.874601 -213.886406 
L 1018.127233 -125.686406 
L 1006.379864 -103.006406 
L 994.632496 -110.566406 
L 982.885127 -324.766406 
L 971.137759 -160.966406 
L 959.390391 -113.086406 
L 947.643022 -120.646406 
L 935.895654 -279.406406 
L 924.148285 -259.246406 
L 912.400917 -153.406406 
L 900.653549 -110.566406 
L 888.90618 -90.406406 
L 877.158812 -90.406406 
L 865.411443 -92.926406 
L 853.664075 -95.446406 
L 841.916706 -108.046406 
L 830.169338 -198.766406 
L 818.42197 -163.486406 
L 806.674601 -138.286406 
L 794.927233 -140.806406 
L 783.179864 -173.566406 
L 771.432496 -221.446406 
L 759.685127 -140.806406 
L 747.937759 -95.446406 
L 736.190391 -365.086406 
L 724.443022 -186.166406 
L 712.695654 -118.126406 
L 700.948285 -150.886406 
L 689.200917 -138.286406 
L 677.453549 -108.046406 
L 665.70618 -128.206406 
L 653.958812 -105.526406 
L 642.211443 -118.126406 
L 630.464075 -105.526406 
L 618.716706 -183.646406 
L 606.969338 -95.446406 
L 595.22197 -95.446406 
L 583.474601 -92.926406 
L 571.727233 -115.606406 
L 559.979864 -97.966406 
L 548.232496 -186.166406 
L 536.485127 -339.886406 
L 524.737759 -392.806406 
L 512.990391 -360.046406 
L 501.243022 -279.406406 
L 489.495654 -138.286406 
L 477.748285 -90.406406 
L 466.000917 -90.406406 
L 454.253549 -97.966406 
L 442.50618 -95.446406 
L 430.758812 -118.126406 
L 419.011443 -120.646406 
L 407.264075 -95.446406 
L 395.516706 -105.526406 
L 383.769338 -110.566406 
L 372.02197 -123.166406 
L 360.274601 -90.406406 
L 348.527233 -145.846406 
L 336.779864 -113.086406 
L 325.032496 -143.326406 
L 313.285127 -160.966406 
L 301.537759 -168.526406 
L 289.790391 -110.566406 
L 278.043022 -90.406406 
L 266.295654 -90.406406 
L 254.548285 -90.406406 
L 242.800917 -90.406406 
L 231.053549 -90.406406 
L 219.30618 -90.406406 
L 207.558812 -90.406406 
L 195.811443 -90.406406 
L 184.064075 -90.406406 
L 172.316706 -90.406406 
L 160.569338 -90.406406 
L 148.82197 -90.406406 
L 137.074601 -90.406406 
L 125.327233 -90.406406 
L 113.579864 -90.406406 
L 101.832496 -90.406406 
L 90.085127 -90.406406 
L 78.337759 -90.406406 
L 66.590391 -92.926406 
z
" style="stroke: #1f77b4; stroke-width: 1.5"/>
    </defs>
    <g clip-path="url(#p5f327ff957)">
     <use xlink:href="#m7077f2f543" x="0" y="415.126406" style="fill: #1f77b4; stroke: #1f77b4; stroke-width: 1.5"/>
    </g>
   </g>
   <g id="line2d_32">
    <path d="M 66.590391 322.2 
L 78.337759 324.72 
L 90.085127 324.72 
L 101.832496 324.72 
L 113.579864 324.72 
L 125.327233 324.72 
L 137.074601 324.72 
L 148.82197 324.72 
L 160.569338 324.72 
L 172.316706 324.72 
L 184.064075 324.72 
L 195.811443 324.72 
L 207.558812 324.72 
L 219.30618 324.72 
L 231.053549 324.72 
L 242.800917 324.72 
L 254.548285 324.72 
L 266.295654 324.72 
L 278.043022 324.72 
L 289.790391 304.56 
L 301.537759 246.6 
L 313.285127 254.16 
L 325.032496 271.8 
L 336.779864 302.04 
L 348.527233 269.28 
L 360.274601 324.72 
L 372.02197 291.96 
L 383.769338 304.56 
L 395.516706 309.6 
L 407.264075 319.68 
L 419.011443 294.48 
L 430.758812 297 
L 442.50618 319.68 
L 454.253549 317.16 
L 466.000917 324.72 
L 477.748285 324.72 
L 489.495654 276.84 
L 501.243022 135.72 
L 512.990391 55.08 
L 524.737759 22.32 
L 536.485127 75.24 
L 548.232496 228.96 
L 559.979864 317.16 
L 571.727233 299.52 
L 583.474601 322.2 
L 595.22197 319.68 
L 606.969338 319.68 
L 618.716706 231.48 
L 630.464075 309.6 
L 642.211443 297 
L 653.958812 309.6 
L 665.70618 286.92 
L 677.453549 307.08 
L 689.200917 276.84 
L 700.948285 264.24 
L 712.695654 297 
L 724.443022 228.96 
L 736.190391 50.04 
L 747.937759 319.68 
L 759.685127 274.32 
L 771.432496 193.68 
L 783.179864 241.56 
L 794.927233 274.32 
L 806.674601 276.84 
L 818.42197 251.64 
L 830.169338 216.36 
L 841.916706 307.08 
L 853.664075 319.68 
L 865.411443 322.2 
L 877.158812 324.72 
L 888.90618 324.72 
L 900.653549 304.56 
L 912.400917 261.72 
L 924.148285 155.88 
L 935.895654 135.72 
L 947.643022 294.48 
L 959.390391 302.04 
L 971.137759 254.16 
L 982.885127 90.36 
L 994.632496 304.56 
L 1006.379864 312.12 
L 1018.127233 289.44 
L 1029.874601 201.24 
L 1041.62197 281.88 
L 1053.369338 302.04 
L 1065.116706 319.68 
L 1076.864075 309.6 
L 1088.611443 286.92 
L 1100.358812 241.56 
L 1112.10618 221.4 
L 1123.853549 246.6 
L 1135.600917 319.68 
L 1147.348285 279.36 
L 1159.095654 322.2 
L 1170.843022 317.16 
L 1182.590391 302.04 
" clip-path="url(#p5f327ff957)" style="fill: none; stroke: #1f77b4; stroke-width: 2.25; stroke-linecap: round"/>
   </g>
   <g id="patch_3">
    <path d="M 66.590391 339.84 
L 66.590391 7.2 
" style="fill: none; stroke: #cccccc; stroke-width: 1.875; stroke-linejoin: miter; stroke-linecap: square"/>
   </g>
   <g id="patch_4">
    <path d="M 1182.590391 339.84 
L 1182.590391 7.2 
" style="fill: none; stroke: #cccccc; stroke-width: 1.875; stroke-linejoin: miter; stroke-linecap: square"/>
   </g>
   <g id="patch_5">
    <path d="M 66.590391 339.84 
L 1182.590391 339.84 
" style="fill: none; stroke: #cccccc; stroke-width: 1.875; stroke-linejoin: miter; stroke-linecap: square"/>
   </g>
   <g id="patch_6">
    <path d="M 66.590391 7.2 
L 1182.590391 7.2 
" style="fill: none; stroke: #cccccc; stroke-width: 1.875; stroke-linejoin: miter; stroke-linecap: square"/>
   </g>
  </g>
 </g>
 <defs>
  <clipPath id="p5f327ff957">
   <rect x="66.590391" y="7.2" width="1116" height="332.64"/>
  </clipPath>
 </defs>
</svg>
