<?xml version="1.0" encoding="utf-8" standalone="no"?>
<!DOCTYPE svg PUBLIC "-//W3C//DTD SVG 1.1//EN"
  "http://www.w3.org/Graphics/SVG/1.1/DTD/svg11.dtd">
<svg xmlns:xlink="http://www.w3.org/1999/xlink" width="608.944764pt" height="328.285313pt" viewBox="0 0 608.944764 328.285313" xmlns="http://www.w3.org/2000/svg" version="1.1">
 <metadata>
  <rdf:RDF xmlns:dc="http://purl.org/dc/elements/1.1/" xmlns:cc="http://creativecommons.org/ns#" xmlns:rdf="http://www.w3.org/1999/02/22-rdf-syntax-ns#">
   <cc:Work>
    <dc:type rdf:resource="http://purl.org/dc/dcmitype/StillImage"/>
    <dc:date>2025-03-01T00:06:19.761827</dc:date>
    <dc:format>image/svg+xml</dc:format>
    <dc:creator>
     <cc:Agent>
      <dc:title>Matplotlib v3.10.1, https://matplotlib.org/</dc:title>
     </cc:Agent>
    </dc:creator>
   </cc:Work>
  </rdf:RDF>
 </metadata>
 <defs>
  <style type="text/css">*{stroke-linejoin: round; stroke-linecap: butt}</style>
 </defs>
 <g id="figure_1">
  <g id="patch_1">
   <path d="M 0 328.285313 
L 608.944764 328.285313 
L 608.944764 0 
L 0 0 
z
" style="fill: #ffffff"/>
  </g>
  <g id="axes_1">
   <g id="patch_2">
    <path d="M 34.31125 284.4 
L 592.31125 284.4 
L 592.31125 7.2 
L 34.31125 7.2 
z
" style="fill: #ffffff"/>
   </g>
   <g id="matplotlib.axis_1">
    <g id="xtick_1">
     <g id="line2d_1">
      <path d="M 34.31125 284.4 
L 34.31125 7.2 
" clip-path="url(#p8ff189c92c)" style="fill: none; stroke: #cccccc; stroke-width: 2; stroke-linecap: round"/>
     </g>
     <g id="text_1">
      <!-- 0 -->
      <g style="fill: #262626" transform="translate(28.173594 316.4) scale(0.22 -0.22)">
       <defs>
        <path id="FiraSans-Regular-30" d="M 1786 4346 
Q 2496 4346 2857 3779 
Q 3219 3213 3219 2138 
Q 3219 1062 2857 492 
Q 2496 -77 1786 -77 
Q 1075 -77 713 492 
Q 352 1062 352 2138 
Q 352 3213 713 3779 
Q 1075 4346 1786 4346 
z
M 1786 3878 
Q 1370 3878 1168 3468 
Q 966 3059 966 2138 
Q 966 1216 1168 803 
Q 1370 390 1786 390 
Q 2195 390 2400 803 
Q 2605 1216 2605 2138 
Q 2605 3053 2400 3465 
Q 2195 3878 1786 3878 
z
" transform="scale(0.015625)"/>
       </defs>
       <use xlink:href="#FiraSans-Regular-30"/>
      </g>
     </g>
    </g>
    <g id="xtick_2">
     <g id="line2d_2">
      <path d="M 112.924944 284.4 
L 112.924944 7.2 
" clip-path="url(#p8ff189c92c)" style="fill: none; stroke: #cccccc; stroke-width: 2; stroke-linecap: round"/>
     </g>
     <g id="text_2">
      <!-- 50 -->
      <g style="fill: #262626" transform="translate(101.276975 316.4) scale(0.22 -0.22)">
       <defs>
        <path id="FiraSans-Regular-35" d="M 2688 3821 
L 1018 3821 
L 1018 2560 
Q 1344 2726 1702 2726 
Q 2253 2726 2585 2364 
Q 2918 2003 2918 1370 
Q 2918 947 2732 617 
Q 2547 288 2211 105 
Q 1875 -77 1434 -77 
Q 1043 -77 736 60 
Q 429 198 166 467 
L 512 806 
Q 717 602 934 502 
Q 1152 403 1427 403 
Q 1837 403 2070 659 
Q 2304 915 2304 1382 
Q 2304 1850 2093 2061 
Q 1882 2272 1523 2272 
Q 1357 2272 1216 2237 
Q 1075 2202 915 2125 
L 454 2125 
L 454 4282 
L 2771 4282 
L 2688 3821 
z
" transform="scale(0.015625)"/>
       </defs>
       <use xlink:href="#FiraSans-Regular-35"/>
       <use xlink:href="#FiraSans-Regular-30" transform="translate(50.099991 0)"/>
      </g>
     </g>
    </g>
    <g id="xtick_3">
     <g id="line2d_3">
      <path d="M 191.538638 284.4 
L 191.538638 7.2 
" clip-path="url(#p8ff189c92c)" style="fill: none; stroke: #cccccc; stroke-width: 2; stroke-linecap: round"/>
     </g>
     <g id="text_3">
      <!-- 100 -->
      <g style="fill: #262626" transform="translate(174.500669 316.4) scale(0.22 -0.22)">
       <defs>
        <path id="FiraSans-Regular-31" d="M 2067 4282 
L 2067 0 
L 1478 0 
L 1478 3654 
L 480 3046 
L 224 3462 
L 1549 4282 
L 2067 4282 
z
" transform="scale(0.015625)"/>
       </defs>
       <use xlink:href="#FiraSans-Regular-31"/>
       <use xlink:href="#FiraSans-Regular-30" transform="translate(43.299988 0)"/>
       <use xlink:href="#FiraSans-Regular-30" transform="translate(99.099976 0)"/>
      </g>
     </g>
    </g>
    <g id="xtick_4">
     <g id="line2d_4">
      <path d="M 270.152332 284.4 
L 270.152332 7.2 
" clip-path="url(#p8ff189c92c)" style="fill: none; stroke: #cccccc; stroke-width: 2; stroke-linecap: round"/>
     </g>
     <g id="text_4">
      <!-- 150 -->
      <g style="fill: #262626" transform="translate(253.741707 316.4) scale(0.22 -0.22)">
       <use xlink:href="#FiraSans-Regular-31"/>
       <use xlink:href="#FiraSans-Regular-35" transform="translate(43.299988 0)"/>
       <use xlink:href="#FiraSans-Regular-30" transform="translate(93.399979 0)"/>
      </g>
     </g>
    </g>
    <g id="xtick_5">
     <g id="line2d_5">
      <path d="M 348.766026 284.4 
L 348.766026 7.2 
" clip-path="url(#p8ff189c92c)" style="fill: none; stroke: #cccccc; stroke-width: 2; stroke-linecap: round"/>
     </g>
     <g id="text_5">
      <!-- 200 -->
      <g style="fill: #262626" transform="translate(331.045713 316.4) scale(0.22 -0.22)">
       <defs>
        <path id="FiraSans-Regular-32" d="M 1459 4346 
Q 1843 4346 2134 4192 
Q 2426 4038 2586 3772 
Q 2746 3507 2746 3174 
Q 2746 2784 2570 2425 
Q 2394 2067 2029 1651 
Q 1664 1235 922 493 
L 2848 493 
L 2778 0 
L 250 0 
L 250 467 
Q 1107 1357 1465 1769 
Q 1824 2182 1977 2489 
Q 2131 2797 2131 3149 
Q 2131 3482 1939 3670 
Q 1747 3859 1427 3859 
Q 1165 3859 966 3750 
Q 768 3642 544 3392 
L 160 3699 
Q 422 4026 742 4186 
Q 1062 4346 1459 4346 
z
" transform="scale(0.015625)"/>
       </defs>
       <use xlink:href="#FiraSans-Regular-32"/>
       <use xlink:href="#FiraSans-Regular-30" transform="translate(49.499985 0)"/>
       <use xlink:href="#FiraSans-Regular-30" transform="translate(105.299973 0)"/>
      </g>
     </g>
    </g>
    <g id="xtick_6">
     <g id="line2d_6">
      <path d="M 427.37972 284.4 
L 427.37972 7.2 
" clip-path="url(#p8ff189c92c)" style="fill: none; stroke: #cccccc; stroke-width: 2; stroke-linecap: round"/>
     </g>
     <g id="text_6">
      <!-- 250 -->
      <g style="fill: #262626" transform="translate(410.286751 316.4) scale(0.22 -0.22)">
       <use xlink:href="#FiraSans-Regular-32"/>
       <use xlink:href="#FiraSans-Regular-35" transform="translate(49.499985 0)"/>
       <use xlink:href="#FiraSans-Regular-30" transform="translate(99.599976 0)"/>
      </g>
     </g>
    </g>
    <g id="xtick_7">
     <g id="line2d_7">
      <path d="M 505.993414 284.4 
L 505.993414 7.2 
" clip-path="url(#p8ff189c92c)" style="fill: none; stroke: #cccccc; stroke-width: 2; stroke-linecap: round"/>
     </g>
     <g id="text_7">
      <!-- 300 -->
      <g style="fill: #262626" transform="translate(488.228414 316.4) scale(0.22 -0.22)">
       <defs>
        <path id="FiraSans-Regular-33" d="M 1440 4346 
Q 1837 4346 2121 4198 
Q 2406 4051 2556 3801 
Q 2707 3552 2707 3258 
Q 2707 2867 2480 2614 
Q 2253 2362 1875 2272 
Q 2304 2234 2573 1965 
Q 2842 1696 2842 1235 
Q 2842 864 2662 563 
Q 2483 262 2150 92 
Q 1818 -77 1382 -77 
Q 992 -77 665 67 
Q 339 211 96 499 
L 448 826 
Q 659 608 880 505 
Q 1101 403 1363 403 
Q 1766 403 1996 630 
Q 2227 858 2227 1242 
Q 2227 1664 2009 1837 
Q 1792 2010 1376 2010 
L 1056 2010 
L 1126 2464 
L 1344 2464 
Q 1677 2464 1897 2662 
Q 2118 2861 2118 3219 
Q 2118 3520 1926 3696 
Q 1734 3872 1408 3872 
Q 1158 3872 950 3782 
Q 742 3693 525 3488 
L 218 3840 
Q 762 4346 1440 4346 
z
" transform="scale(0.015625)"/>
       </defs>
       <use xlink:href="#FiraSans-Regular-33"/>
       <use xlink:href="#FiraSans-Regular-30" transform="translate(49.899994 0)"/>
       <use xlink:href="#FiraSans-Regular-30" transform="translate(105.699982 0)"/>
      </g>
     </g>
    </g>
    <g id="xtick_8">
     <g id="line2d_8">
      <path d="M 584.607108 284.4 
L 584.607108 7.2 
" clip-path="url(#p8ff189c92c)" style="fill: none; stroke: #cccccc; stroke-width: 2; stroke-linecap: round"/>
     </g>
     <g id="text_8">
      <!-- 350 -->
      <g style="fill: #262626" transform="translate(567.469452 316.4) scale(0.22 -0.22)">
       <use xlink:href="#FiraSans-Regular-33"/>
       <use xlink:href="#FiraSans-Regular-35" transform="translate(49.899994 0)"/>
       <use xlink:href="#FiraSans-Regular-30" transform="translate(99.999985 0)"/>
      </g>
     </g>
    </g>
   </g>
   <g id="matplotlib.axis_2">
    <g id="text_9">
     <!-- Unnamed: 0 -->
     <g style="fill: #262626" transform="translate(25.2 211.09125) rotate(-90) scale(0.24 -0.24)">
      <defs>
       <path id="FiraSans-Regular-55" d="M 3661 1414 
Q 3661 973 3478 637 
Q 3296 301 2947 112 
Q 2598 -77 2112 -77 
Q 1376 -77 976 329 
Q 576 736 576 1414 
L 576 4410 
L 1184 4410 
L 1184 1459 
Q 1184 947 1414 691 
Q 1645 435 2112 435 
Q 2586 435 2816 688 
Q 3046 941 3046 1459 
L 3046 4410 
L 3661 4410 
L 3661 1414 
z
" transform="scale(0.015625)"/>
       <path id="FiraSans-Regular-6e" d="M 2195 3450 
Q 2656 3450 2915 3174 
Q 3174 2899 3174 2419 
L 3174 0 
L 2586 0 
L 2586 2336 
Q 2586 2694 2451 2841 
Q 2317 2989 2054 2989 
Q 1786 2989 1581 2835 
Q 1376 2682 1197 2394 
L 1197 0 
L 608 0 
L 608 3373 
L 1114 3373 
L 1165 2874 
Q 1344 3142 1609 3296 
Q 1875 3450 2195 3450 
z
" transform="scale(0.015625)"/>
       <path id="FiraSans-Regular-61" d="M 2880 787 
Q 2880 582 2950 483 
Q 3021 384 3162 333 
L 3027 -77 
Q 2765 -45 2605 70 
Q 2445 186 2368 429 
Q 2029 -77 1363 -77 
Q 864 -77 576 204 
Q 288 486 288 941 
Q 288 1478 675 1766 
Q 1062 2054 1773 2054 
L 2291 2054 
L 2291 2304 
Q 2291 2662 2118 2816 
Q 1946 2970 1587 2970 
Q 1216 2970 678 2790 
L 531 3219 
Q 1158 3450 1696 3450 
Q 2291 3450 2585 3158 
Q 2880 2867 2880 2330 
L 2880 787 
z
M 1498 365 
Q 2003 365 2291 890 
L 2291 1664 
L 1850 1664 
Q 915 1664 915 973 
Q 915 672 1062 518 
Q 1210 365 1498 365 
z
" transform="scale(0.015625)"/>
       <path id="FiraSans-Regular-6d" d="M 3994 3450 
Q 4410 3450 4659 3171 
Q 4909 2893 4909 2419 
L 4909 0 
L 4320 0 
L 4320 2336 
Q 4320 2989 3846 2989 
Q 3597 2989 3424 2845 
Q 3251 2701 3053 2394 
L 3053 0 
L 2464 0 
L 2464 2336 
Q 2464 2989 1990 2989 
Q 1734 2989 1561 2841 
Q 1389 2694 1197 2394 
L 1197 0 
L 608 0 
L 608 3373 
L 1114 3373 
L 1165 2880 
Q 1542 3450 2138 3450 
Q 2451 3450 2672 3290 
Q 2893 3130 2989 2842 
Q 3187 3136 3427 3293 
Q 3667 3450 3994 3450 
z
" transform="scale(0.015625)"/>
       <path id="FiraSans-Regular-65" d="M 3155 1786 
Q 3155 1638 3142 1485 
L 992 1485 
Q 1030 928 1273 665 
Q 1517 403 1901 403 
Q 2144 403 2349 473 
Q 2554 544 2778 698 
L 3034 346 
Q 2496 -77 1856 -77 
Q 1152 -77 758 384 
Q 365 845 365 1651 
Q 365 2176 534 2582 
Q 704 2989 1021 3219 
Q 1338 3450 1766 3450 
Q 2438 3450 2796 3008 
Q 3155 2566 3155 1786 
z
M 2573 1958 
Q 2573 2458 2374 2720 
Q 2176 2982 1779 2982 
Q 1056 2982 992 1920 
L 2573 1920 
L 2573 1958 
z
" transform="scale(0.015625)"/>
       <path id="FiraSans-Regular-64" d="M 3219 4730 
L 3219 0 
L 2701 0 
L 2643 467 
Q 2477 211 2227 67 
Q 1978 -77 1670 -77 
Q 1069 -77 733 396 
Q 397 870 397 1670 
Q 397 2189 557 2592 
Q 717 2995 1017 3222 
Q 1318 3450 1722 3450 
Q 2240 3450 2630 3034 
L 2630 4800 
L 3219 4730 
z
M 1798 390 
Q 2067 390 2259 515 
Q 2451 640 2630 890 
L 2630 2541 
Q 2464 2758 2275 2870 
Q 2086 2982 1850 2982 
Q 1459 2982 1244 2656 
Q 1030 2330 1030 1683 
Q 1030 1030 1228 710 
Q 1427 390 1798 390 
z
" transform="scale(0.015625)"/>
       <path id="FiraSans-Regular-3a" d="M 762 813 
Q 954 813 1082 685 
Q 1210 557 1210 371 
Q 1210 186 1082 54 
Q 954 -77 762 -77 
Q 576 -77 448 54 
Q 320 186 320 371 
Q 320 557 448 685 
Q 576 813 762 813 
z
M 762 3181 
Q 954 3181 1082 3053 
Q 1210 2925 1210 2739 
Q 1210 2554 1082 2422 
Q 954 2291 762 2291 
Q 576 2291 448 2422 
Q 320 2554 320 2739 
Q 320 2925 448 3053 
Q 576 3181 762 3181 
z
" transform="scale(0.015625)"/>
       <path id="FiraSans-Regular-20" transform="scale(0.015625)"/>
      </defs>
      <use xlink:href="#FiraSans-Regular-55"/>
      <use xlink:href="#FiraSans-Regular-6e" transform="translate(66.199997 0)"/>
      <use xlink:href="#FiraSans-Regular-6e" transform="translate(124.799988 0)"/>
      <use xlink:href="#FiraSans-Regular-61" transform="translate(183.399979 0)"/>
      <use xlink:href="#FiraSans-Regular-6d" transform="translate(237.799973 0)"/>
      <use xlink:href="#FiraSans-Regular-65" transform="translate(323.499954 0)"/>
      <use xlink:href="#FiraSans-Regular-64" transform="translate(377.999939 0)"/>
      <use xlink:href="#FiraSans-Regular-3a" transform="translate(437.799927 0)"/>
      <use xlink:href="#FiraSans-Regular-20" transform="translate(461.799911 0)"/>
      <use xlink:href="#FiraSans-Regular-30" transform="translate(488.299896 0)"/>
     </g>
    </g>
   </g>
   <g id="patch_3">
    <path d="M 34.31125 277.47 
L 61.039906 277.47 
L 61.039906 263.61 
L 34.31125 263.61 
z
" clip-path="url(#p8ff189c92c)" style="fill: #1f77b4; stroke: #ffffff; stroke-width: 2; stroke-linejoin: miter"/>
   </g>
   <g id="patch_4">
    <path d="M 34.31125 249.75 
L 65.756728 249.75 
L 65.756728 235.89 
L 34.31125 235.89 
z
" clip-path="url(#p8ff189c92c)" style="fill: #1f77b4; stroke: #ffffff; stroke-width: 2; stroke-linejoin: miter"/>
   </g>
   <g id="patch_5">
    <path d="M 34.31125 222.03 
L 68.901275 222.03 
L 68.901275 208.17 
L 34.31125 208.17 
z
" clip-path="url(#p8ff189c92c)" style="fill: #1f77b4; stroke: #ffffff; stroke-width: 2; stroke-linejoin: miter"/>
   </g>
   <g id="patch_6">
    <path d="M 34.31125 194.31 
L 86.196288 194.31 
L 86.196288 180.45 
L 34.31125 180.45 
z
" clip-path="url(#p8ff189c92c)" style="fill: #1f77b4; stroke: #ffffff; stroke-width: 2; stroke-linejoin: miter"/>
   </g>
   <g id="patch_7">
    <path d="M 34.31125 166.59 
L 191.538638 166.59 
L 191.538638 152.73 
L 34.31125 152.73 
z
" clip-path="url(#p8ff189c92c)" style="fill: #1f77b4; stroke: #ffffff; stroke-width: 2; stroke-linejoin: miter"/>
   </g>
   <g id="patch_8">
    <path d="M 34.31125 138.87 
L 292.164166 138.87 
L 292.164166 125.01 
L 34.31125 125.01 
z
" clip-path="url(#p8ff189c92c)" style="fill: #1f77b4; stroke: #ffffff; stroke-width: 2; stroke-linejoin: miter"/>
   </g>
   <g id="patch_9">
    <path d="M 34.31125 111.15 
L 314.176001 111.15 
L 314.176001 97.29 
L 34.31125 97.29 
z
" clip-path="url(#p8ff189c92c)" style="fill: #1f77b4; stroke: #ffffff; stroke-width: 2; stroke-linejoin: miter"/>
   </g>
   <g id="patch_10">
    <path d="M 34.31125 83.43 
L 322.03737 83.43 
L 322.03737 69.57 
L 34.31125 69.57 
z
" clip-path="url(#p8ff189c92c)" style="fill: #1f77b4; stroke: #ffffff; stroke-width: 2; stroke-linejoin: miter"/>
   </g>
   <g id="patch_11">
    <path d="M 34.31125 55.71 
L 488.698401 55.71 
L 488.698401 41.85 
L 34.31125 41.85 
z
" clip-path="url(#p8ff189c92c)" style="fill: #1f77b4; stroke: #ffffff; stroke-width: 2; stroke-linejoin: miter"/>
   </g>
   <g id="patch_12">
    <path d="M 34.31125 27.99 
L 565.739821 27.99 
L 565.739821 14.13 
L 34.31125 14.13 
z
" clip-path="url(#p8ff189c92c)" style="fill: #1f77b4; stroke: #ffffff; stroke-width: 2; stroke-linejoin: miter"/>
   </g>
   <g id="patch_13">
    <path d="M 34.31125 284.4 
L 34.31125 7.2 
" style="fill: none; stroke: #cccccc; stroke-width: 2.5; stroke-linejoin: miter; stroke-linecap: square"/>
   </g>
   <g id="patch_14">
    <path d="M 592.31125 284.4 
L 592.31125 7.2 
" style="fill: none; stroke: #cccccc; stroke-width: 2.5; stroke-linejoin: miter; stroke-linecap: square"/>
   </g>
   <g id="patch_15">
    <path d="M 34.31125 284.4 
L 592.31125 284.4 
" style="fill: none; stroke: #cccccc; stroke-width: 2.5; stroke-linejoin: miter; stroke-linecap: square"/>
   </g>
   <g id="patch_16">
    <path d="M 34.31125 7.2 
L 592.31125 7.2 
" style="fill: none; stroke: #cccccc; stroke-width: 2.5; stroke-linejoin: miter; stroke-linecap: square"/>
   </g>
  </g>
 </g>
 <defs>
  <clipPath id="p8ff189c92c">
   <rect x="34.31125" y="7.2" width="558" height="277.2"/>
  </clipPath>
 </defs>
</svg>
