<?xml version="1.0" encoding="utf-8" standalone="no"?>
<!DOCTYPE svg PUBLIC "-//W3C//DTD SVG 1.1//EN"
  "http://www.w3.org/Graphics/SVG/1.1/DTD/svg11.dtd">
<svg xmlns:xlink="http://www.w3.org/1999/xlink" width="1188.770937pt" height="765.195312pt" viewBox="0 0 1188.770937 765.195312" xmlns="http://www.w3.org/2000/svg" version="1.1">
 <metadata>
  <rdf:RDF xmlns:dc="http://purl.org/dc/elements/1.1/" xmlns:cc="http://creativecommons.org/ns#" xmlns:rdf="http://www.w3.org/1999/02/22-rdf-syntax-ns#">
   <cc:Work>
    <dc:type rdf:resource="http://purl.org/dc/dcmitype/StillImage"/>
    <dc:date>2025-02-28T23:36:24.377441</dc:date>
    <dc:format>image/svg+xml</dc:format>
    <dc:creator>
     <cc:Agent>
      <dc:title>Matplotlib v3.10.1, https://matplotlib.org/</dc:title>
     </cc:Agent>
    </dc:creator>
   </cc:Work>
  </rdf:RDF>
 </metadata>
 <defs>
  <style type="text/css">*{stroke-linejoin: round; stroke-linecap: butt}</style>
 </defs>
 <g id="figure_1">
  <g id="patch_1">
   <path d="M 0 765.195312 
L 1188.770937 765.195312 
L 1188.770937 0 
L 0 0 
z
" style="fill: #ffffff"/>
  </g>
  <g id="axes_1">
   <g id="patch_2">
    <path d="M 7.2 228.55 
L 233.673907 228.55 
L 233.673907 31.2 
L 7.2 31.2 
z
" clip-path="url(#pa8675da698)" style="fill: #dcd0fc; stroke: #ffffff; stroke-width: 2; stroke-linejoin: miter"/>
   </g>
   <g id="patch_3">
    <path d="M 233.673907 228.55 
L 440.036232 228.55 
L 440.036232 103.115678 
L 233.673907 103.115678 
z
" clip-path="url(#pa8675da698)" style="fill: #decf7a; stroke: #ffffff; stroke-width: 2; stroke-linejoin: miter"/>
   </g>
   <g id="patch_4">
    <path d="M 233.673907 103.115678 
L 351.252441 103.115678 
L 351.252441 31.2 
L 233.673907 31.2 
z
" clip-path="url(#pa8675da698)" style="fill: #ffb6a6; stroke: #ffffff; stroke-width: 2; stroke-linejoin: miter"/>
   </g>
   <g id="patch_5">
    <path d="M 351.252441 103.115678 
L 440.036232 103.115678 
L 440.036232 48.693003 
L 351.252441 48.693003 
z
" clip-path="url(#pa8675da698)" style="fill: #6fedce; stroke: #ffffff; stroke-width: 2; stroke-linejoin: miter"/>
   </g>
   <g id="patch_6">
    <path d="M 351.252441 48.693003 
L 420.306501 48.693003 
L 420.306501 31.2 
L 351.252441 31.2 
z
" clip-path="url(#pa8675da698)" style="fill: #94e1f0; stroke: #ffffff; stroke-width: 2; stroke-linejoin: miter"/>
   </g>
   <g id="patch_7">
    <path d="M 420.306501 48.693003 
L 440.036232 48.693003 
L 440.036232 31.2 
L 420.306501 31.2 
z
" clip-path="url(#pa8675da698)" style="fill: #c0c0c0; stroke: #ffffff; stroke-width: 2; stroke-linejoin: miter"/>
   </g>
   <g id="text_1">
    <!-- 52.32% -->
    <g style="fill: #262626" transform="translate(92.933516 134.708281) scale(0.18 -0.18)">
     <defs>
      <path id="FiraSans-Regular-35" d="M 2688 3821 
L 1018 3821 
L 1018 2560 
Q 1344 2726 1702 2726 
Q 2253 2726 2585 2364 
Q 2918 2003 2918 1370 
Q 2918 947 2732 617 
Q 2547 288 2211 105 
Q 1875 -77 1434 -77 
Q 1043 -77 736 60 
Q 429 198 166 467 
L 512 806 
Q 717 602 934 502 
Q 1152 403 1427 403 
Q 1837 403 2070 659 
Q 2304 915 2304 1382 
Q 2304 1850 2093 2061 
Q 1882 2272 1523 2272 
Q 1357 2272 1216 2237 
Q 1075 2202 915 2125 
L 454 2125 
L 454 4282 
L 2771 4282 
L 2688 3821 
z
" transform="scale(0.015625)"/>
      <path id="FiraSans-Regular-32" d="M 1459 4346 
Q 1843 4346 2134 4192 
Q 2426 4038 2586 3772 
Q 2746 3507 2746 3174 
Q 2746 2784 2570 2425 
Q 2394 2067 2029 1651 
Q 1664 1235 922 493 
L 2848 493 
L 2778 0 
L 250 0 
L 250 467 
Q 1107 1357 1465 1769 
Q 1824 2182 1977 2489 
Q 2131 2797 2131 3149 
Q 2131 3482 1939 3670 
Q 1747 3859 1427 3859 
Q 1165 3859 966 3750 
Q 768 3642 544 3392 
L 160 3699 
Q 422 4026 742 4186 
Q 1062 4346 1459 4346 
z
" transform="scale(0.015625)"/>
      <path id="FiraSans-Regular-2e" d="M 762 813 
Q 954 813 1082 685 
Q 1210 557 1210 371 
Q 1210 186 1082 54 
Q 954 -77 762 -77 
Q 576 -77 448 54 
Q 320 186 320 371 
Q 320 557 448 685 
Q 576 813 762 813 
z
" transform="scale(0.015625)"/>
      <path id="FiraSans-Regular-33" d="M 1440 4346 
Q 1837 4346 2121 4198 
Q 2406 4051 2556 3801 
Q 2707 3552 2707 3258 
Q 2707 2867 2480 2614 
Q 2253 2362 1875 2272 
Q 2304 2234 2573 1965 
Q 2842 1696 2842 1235 
Q 2842 864 2662 563 
Q 2483 262 2150 92 
Q 1818 -77 1382 -77 
Q 992 -77 665 67 
Q 339 211 96 499 
L 448 826 
Q 659 608 880 505 
Q 1101 403 1363 403 
Q 1766 403 1996 630 
Q 2227 858 2227 1242 
Q 2227 1664 2009 1837 
Q 1792 2010 1376 2010 
L 1056 2010 
L 1126 2464 
L 1344 2464 
Q 1677 2464 1897 2662 
Q 2118 2861 2118 3219 
Q 2118 3520 1926 3696 
Q 1734 3872 1408 3872 
Q 1158 3872 950 3782 
Q 742 3693 525 3488 
L 218 3840 
Q 762 4346 1440 4346 
z
" transform="scale(0.015625)"/>
      <path id="FiraSans-Regular-25" d="M 3923 4550 
L 4333 4282 
L 1370 -198 
L 960 70 
L 3923 4550 
z
M 1325 4346 
Q 1786 4346 2077 4051 
Q 2368 3757 2368 3264 
Q 2368 2771 2077 2476 
Q 1786 2182 1325 2182 
Q 870 2182 579 2476 
Q 288 2771 288 3264 
Q 288 3757 579 4051 
Q 870 4346 1325 4346 
z
M 1325 3949 
Q 1043 3949 924 3757 
Q 806 3565 806 3264 
Q 806 2970 924 2774 
Q 1043 2579 1325 2579 
Q 1843 2579 1843 3264 
Q 1843 3558 1728 3753 
Q 1613 3949 1325 3949 
z
M 3962 2086 
Q 4422 2086 4710 1792 
Q 4998 1498 4998 1005 
Q 4998 512 4710 217 
Q 4422 -77 3962 -77 
Q 3501 -77 3209 217 
Q 2918 512 2918 1005 
Q 2918 1498 3209 1792 
Q 3501 2086 3962 2086 
z
M 3962 1683 
Q 3680 1683 3561 1494 
Q 3443 1306 3443 1005 
Q 3443 710 3561 515 
Q 3680 320 3962 320 
Q 4480 320 4480 1005 
Q 4480 1299 4365 1491 
Q 4250 1683 3962 1683 
z
" transform="scale(0.015625)"/>
     </defs>
     <use xlink:href="#FiraSans-Regular-35"/>
     <use xlink:href="#FiraSans-Regular-32" transform="translate(50.099991 0)"/>
     <use xlink:href="#FiraSans-Regular-2e" transform="translate(99.599976 0)"/>
     <use xlink:href="#FiraSans-Regular-33" transform="translate(123.59996 0)"/>
     <use xlink:href="#FiraSans-Regular-32" transform="translate(173.499954 0)"/>
     <use xlink:href="#FiraSans-Regular-25" transform="translate(222.999939 0)"/>
    </g>
   </g>
   <g id="text_2">
    <!-- 30.30% -->
    <g style="fill: #262626" transform="translate(308.23507 170.66612) scale(0.18 -0.18)">
     <defs>
      <path id="FiraSans-Regular-30" d="M 1786 4346 
Q 2496 4346 2857 3779 
Q 3219 3213 3219 2138 
Q 3219 1062 2857 492 
Q 2496 -77 1786 -77 
Q 1075 -77 713 492 
Q 352 1062 352 2138 
Q 352 3213 713 3779 
Q 1075 4346 1786 4346 
z
M 1786 3878 
Q 1370 3878 1168 3468 
Q 966 3059 966 2138 
Q 966 1216 1168 803 
Q 1370 390 1786 390 
Q 2195 390 2400 803 
Q 2605 1216 2605 2138 
Q 2605 3053 2400 3465 
Q 2195 3878 1786 3878 
z
" transform="scale(0.015625)"/>
     </defs>
     <use xlink:href="#FiraSans-Regular-33"/>
     <use xlink:href="#FiraSans-Regular-30" transform="translate(49.899994 0)"/>
     <use xlink:href="#FiraSans-Regular-2e" transform="translate(105.699982 0)"/>
     <use xlink:href="#FiraSans-Regular-33" transform="translate(129.699966 0)"/>
     <use xlink:href="#FiraSans-Regular-30" transform="translate(179.59996 0)"/>
     <use xlink:href="#FiraSans-Regular-25" transform="translate(235.399948 0)"/>
    </g>
   </g>
   <g id="text_3">
    <!-- 9.90% -->
    <g style="fill: #262626" transform="translate(268.398018 71.99112) scale(0.18 -0.18)">
     <defs>
      <path id="FiraSans-Regular-39" d="M 1658 4346 
Q 2336 4346 2688 3901 
Q 3040 3456 3040 2682 
Q 3040 1805 2803 1270 
Q 2566 736 2080 419 
Q 1594 102 762 -141 
L 627 301 
Q 1485 544 1942 960 
Q 2400 1376 2432 2067 
Q 2285 1837 2035 1696 
Q 1786 1555 1472 1555 
Q 1139 1555 870 1724 
Q 602 1894 445 2204 
Q 288 2515 288 2931 
Q 288 3366 473 3686 
Q 659 4006 969 4176 
Q 1280 4346 1658 4346 
z
M 1594 2016 
Q 2099 2016 2445 2547 
Q 2458 3258 2269 3568 
Q 2080 3878 1670 3878 
Q 1293 3878 1088 3628 
Q 883 3379 883 2918 
Q 883 2470 1075 2243 
Q 1267 2016 1594 2016 
z
" transform="scale(0.015625)"/>
     </defs>
     <use xlink:href="#FiraSans-Regular-39"/>
     <use xlink:href="#FiraSans-Regular-2e" transform="translate(52.499985 0)"/>
     <use xlink:href="#FiraSans-Regular-39" transform="translate(76.499969 0)"/>
     <use xlink:href="#FiraSans-Regular-30" transform="translate(128.999954 0)"/>
     <use xlink:href="#FiraSans-Regular-25" transform="translate(184.799942 0)"/>
    </g>
   </g>
   <g id="text_4">
    <!-- 5.66% -->
    <g style="fill: #262626" transform="translate(371.949024 80.737622) scale(0.18 -0.18)">
     <defs>
      <path id="FiraSans-Regular-36" d="M 1971 2816 
Q 2298 2816 2566 2662 
Q 2835 2509 2995 2201 
Q 3155 1894 3155 1453 
Q 3155 998 2972 649 
Q 2790 301 2480 112 
Q 2170 -77 1792 -77 
Q 1043 -77 697 476 
Q 352 1030 352 2010 
Q 352 2707 547 3235 
Q 742 3763 1107 4054 
Q 1472 4346 1971 4346 
Q 2458 4346 2854 4083 
L 2624 3693 
Q 2323 3878 1965 3878 
Q 1504 3878 1235 3436 
Q 966 2995 941 2253 
Q 1338 2816 1971 2816 
z
M 1792 390 
Q 2163 390 2361 672 
Q 2560 954 2560 1434 
Q 2560 2349 1869 2349 
Q 1587 2349 1350 2192 
Q 1114 2035 947 1760 
Q 966 1056 1168 723 
Q 1370 390 1792 390 
z
" transform="scale(0.015625)"/>
     </defs>
     <use xlink:href="#FiraSans-Regular-35"/>
     <use xlink:href="#FiraSans-Regular-2e" transform="translate(50.099991 0)"/>
     <use xlink:href="#FiraSans-Regular-36" transform="translate(74.099976 0)"/>
     <use xlink:href="#FiraSans-Regular-36" transform="translate(127.399963 0)"/>
     <use xlink:href="#FiraSans-Regular-25" transform="translate(180.699951 0)"/>
    </g>
   </g>
   <g id="text_5">
    <!-- 1.41% -->
    <g style="fill: #262626" transform="translate(363.604315 44.779783) scale(0.18 -0.18)">
     <defs>
      <path id="FiraSans-Regular-31" d="M 2067 4282 
L 2067 0 
L 1478 0 
L 1478 3654 
L 480 3046 
L 224 3462 
L 1549 4282 
L 2067 4282 
z
" transform="scale(0.015625)"/>
      <path id="FiraSans-Regular-34" d="M 3213 1523 
L 3213 1056 
L 2656 1056 
L 2656 0 
L 2086 0 
L 2086 1056 
L 256 1056 
L 256 1478 
L 1542 4346 
L 2035 4141 
L 877 1523 
L 2093 1523 
L 2144 2675 
L 2656 2675 
L 2656 1523 
L 3213 1523 
z
" transform="scale(0.015625)"/>
     </defs>
     <use xlink:href="#FiraSans-Regular-31"/>
     <use xlink:href="#FiraSans-Regular-2e" transform="translate(43.299988 0)"/>
     <use xlink:href="#FiraSans-Regular-34" transform="translate(67.299973 0)"/>
     <use xlink:href="#FiraSans-Regular-31" transform="translate(120.499969 0)"/>
     <use xlink:href="#FiraSans-Regular-25" transform="translate(163.799957 0)"/>
    </g>
   </g>
   <g id="text_6">
    <!-- 0.40% -->
    <g style="fill: #262626" transform="translate(405.74621 44.779783) scale(0.18 -0.18)">
     <use xlink:href="#FiraSans-Regular-30"/>
     <use xlink:href="#FiraSans-Regular-2e" transform="translate(55.799988 0)"/>
     <use xlink:href="#FiraSans-Regular-34" transform="translate(79.799973 0)"/>
     <use xlink:href="#FiraSans-Regular-30" transform="translate(132.999969 0)"/>
     <use xlink:href="#FiraSans-Regular-25" transform="translate(188.799957 0)"/>
    </g>
   </g>
   <g id="text_7">
    <!-- username -->
    <g style="fill: #262626" transform="translate(169.473741 25.2) scale(0.24 -0.24)">
     <defs>
      <path id="FiraSans-Regular-75" d="M 3117 0 
L 2611 0 
L 2566 525 
Q 2374 211 2124 67 
Q 1875 -77 1517 -77 
Q 1075 -77 825 192 
Q 576 461 576 954 
L 576 3373 
L 1165 3373 
L 1165 1018 
Q 1165 672 1286 528 
Q 1408 384 1683 384 
Q 2176 384 2528 966 
L 2528 3373 
L 3117 3373 
L 3117 0 
z
" transform="scale(0.015625)"/>
      <path id="FiraSans-Regular-73" d="M 1523 3450 
Q 1869 3450 2144 3354 
Q 2419 3258 2669 3066 
L 2419 2694 
Q 2189 2842 1981 2912 
Q 1773 2982 1542 2982 
Q 1254 2982 1088 2864 
Q 922 2746 922 2541 
Q 922 2336 1078 2221 
Q 1235 2106 1645 1997 
Q 2208 1856 2486 1613 
Q 2765 1370 2765 947 
Q 2765 448 2377 185 
Q 1990 -77 1434 -77 
Q 666 -77 160 365 
L 474 723 
Q 902 397 1421 397 
Q 1754 397 1949 534 
Q 2144 672 2144 909 
Q 2144 1082 2073 1187 
Q 2003 1293 1830 1373 
Q 1658 1453 1325 1542 
Q 787 1683 547 1920 
Q 307 2157 307 2522 
Q 307 2784 464 2998 
Q 621 3213 899 3331 
Q 1178 3450 1523 3450 
z
" transform="scale(0.015625)"/>
      <path id="FiraSans-Regular-65" d="M 3155 1786 
Q 3155 1638 3142 1485 
L 992 1485 
Q 1030 928 1273 665 
Q 1517 403 1901 403 
Q 2144 403 2349 473 
Q 2554 544 2778 698 
L 3034 346 
Q 2496 -77 1856 -77 
Q 1152 -77 758 384 
Q 365 845 365 1651 
Q 365 2176 534 2582 
Q 704 2989 1021 3219 
Q 1338 3450 1766 3450 
Q 2438 3450 2796 3008 
Q 3155 2566 3155 1786 
z
M 2573 1958 
Q 2573 2458 2374 2720 
Q 2176 2982 1779 2982 
Q 1056 2982 992 1920 
L 2573 1920 
L 2573 1958 
z
" transform="scale(0.015625)"/>
      <path id="FiraSans-Regular-72" d="M 2074 3450 
Q 2253 3450 2406 3411 
L 2298 2835 
Q 2144 2874 2003 2874 
Q 1690 2874 1498 2643 
Q 1306 2413 1197 1926 
L 1197 0 
L 608 0 
L 608 3373 
L 1114 3373 
L 1171 2688 
Q 1306 3066 1536 3258 
Q 1766 3450 2074 3450 
z
" transform="scale(0.015625)"/>
      <path id="FiraSans-Regular-6e" d="M 2195 3450 
Q 2656 3450 2915 3174 
Q 3174 2899 3174 2419 
L 3174 0 
L 2586 0 
L 2586 2336 
Q 2586 2694 2451 2841 
Q 2317 2989 2054 2989 
Q 1786 2989 1581 2835 
Q 1376 2682 1197 2394 
L 1197 0 
L 608 0 
L 608 3373 
L 1114 3373 
L 1165 2874 
Q 1344 3142 1609 3296 
Q 1875 3450 2195 3450 
z
" transform="scale(0.015625)"/>
      <path id="FiraSans-Regular-61" d="M 2880 787 
Q 2880 582 2950 483 
Q 3021 384 3162 333 
L 3027 -77 
Q 2765 -45 2605 70 
Q 2445 186 2368 429 
Q 2029 -77 1363 -77 
Q 864 -77 576 204 
Q 288 486 288 941 
Q 288 1478 675 1766 
Q 1062 2054 1773 2054 
L 2291 2054 
L 2291 2304 
Q 2291 2662 2118 2816 
Q 1946 2970 1587 2970 
Q 1216 2970 678 2790 
L 531 3219 
Q 1158 3450 1696 3450 
Q 2291 3450 2585 3158 
Q 2880 2867 2880 2330 
L 2880 787 
z
M 1498 365 
Q 2003 365 2291 890 
L 2291 1664 
L 1850 1664 
Q 915 1664 915 973 
Q 915 672 1062 518 
Q 1210 365 1498 365 
z
" transform="scale(0.015625)"/>
      <path id="FiraSans-Regular-6d" d="M 3994 3450 
Q 4410 3450 4659 3171 
Q 4909 2893 4909 2419 
L 4909 0 
L 4320 0 
L 4320 2336 
Q 4320 2989 3846 2989 
Q 3597 2989 3424 2845 
Q 3251 2701 3053 2394 
L 3053 0 
L 2464 0 
L 2464 2336 
Q 2464 2989 1990 2989 
Q 1734 2989 1561 2841 
Q 1389 2694 1197 2394 
L 1197 0 
L 608 0 
L 608 3373 
L 1114 3373 
L 1165 2880 
Q 1542 3450 2138 3450 
Q 2451 3450 2672 3290 
Q 2893 3130 2989 2842 
Q 3187 3136 3427 3293 
Q 3667 3450 3994 3450 
z
" transform="scale(0.015625)"/>
     </defs>
     <use xlink:href="#FiraSans-Regular-75"/>
     <use xlink:href="#FiraSans-Regular-73" transform="translate(58.199997 0)"/>
     <use xlink:href="#FiraSans-Regular-65" transform="translate(104.899994 0)"/>
     <use xlink:href="#FiraSans-Regular-72" transform="translate(159.399979 0)"/>
     <use xlink:href="#FiraSans-Regular-6e" transform="translate(197.999969 0)"/>
     <use xlink:href="#FiraSans-Regular-61" transform="translate(256.59996 0)"/>
     <use xlink:href="#FiraSans-Regular-6d" transform="translate(310.999954 0)"/>
     <use xlink:href="#FiraSans-Regular-65" transform="translate(396.699936 0)"/>
    </g>
   </g>
  </g>
  <g id="axes_2">
   <g id="patch_8">
    <path d="M 484.861884 228.55 
L 829.301984 228.55 
L 829.301984 31.2 
L 484.861884 31.2 
z
" clip-path="url(#p3e41d4769b)" style="fill: #dcd0fc; stroke: #ffffff; stroke-width: 2; stroke-linejoin: miter"/>
   </g>
   <g id="patch_9">
    <path d="M 829.301984 228.55 
L 917.698116 228.55 
L 917.698116 119.667241 
L 829.301984 119.667241 
z
" clip-path="url(#p3e41d4769b)" style="fill: #ffb6a6; stroke: #ffffff; stroke-width: 2; stroke-linejoin: miter"/>
   </g>
   <g id="patch_10">
    <path d="M 829.301984 119.667241 
L 917.698116 119.667241 
L 917.698116 72.031034 
L 829.301984 72.031034 
z
" clip-path="url(#p3e41d4769b)" style="fill: #6fedce; stroke: #ffffff; stroke-width: 2; stroke-linejoin: miter"/>
   </g>
   <g id="patch_11">
    <path d="M 829.301984 72.031034 
L 917.698116 72.031034 
L 917.698116 44.810345 
L 829.301984 44.810345 
z
" clip-path="url(#p3e41d4769b)" style="fill: #decf7a; stroke: #ffffff; stroke-width: 2; stroke-linejoin: miter"/>
   </g>
   <g id="patch_12">
    <path d="M 829.301984 44.810345 
L 873.50005 44.810345 
L 873.50005 31.2 
L 829.301984 31.2 
z
" clip-path="url(#p3e41d4769b)" style="fill: #c0c0c0; stroke: #ffffff; stroke-width: 2; stroke-linejoin: miter"/>
   </g>
   <g id="patch_13">
    <path d="M 873.50005 44.810345 
L 917.698116 44.810345 
L 917.698116 31.2 
L 873.50005 31.2 
z
" clip-path="url(#p3e41d4769b)" style="fill: #94e1f0; stroke: #ffffff; stroke-width: 2; stroke-linejoin: miter"/>
   </g>
   <g id="text_8">
    <!-- 79.58% -->
    <g style="fill: #262626" transform="translate(629.300059 134.708281) scale(0.18 -0.18)">
     <defs>
      <path id="FiraSans-Regular-37" d="M 2650 4282 
L 2650 3840 
L 1050 -64 
L 512 115 
L 2054 3802 
L 160 3802 
L 160 4282 
L 2650 4282 
z
" transform="scale(0.015625)"/>
      <path id="FiraSans-Regular-38" d="M 2336 2298 
Q 3238 1933 3238 1146 
Q 3238 794 3049 515 
Q 2861 237 2521 80 
Q 2182 -77 1754 -77 
Q 1318 -77 985 76 
Q 653 230 470 505 
Q 288 781 288 1133 
Q 288 1530 502 1798 
Q 717 2067 1133 2246 
Q 794 2419 630 2665 
Q 467 2912 467 3245 
Q 467 3590 649 3840 
Q 832 4090 1129 4218 
Q 1427 4346 1766 4346 
Q 2099 4346 2396 4224 
Q 2694 4102 2880 3856 
Q 3066 3610 3066 3264 
Q 3066 2944 2886 2713 
Q 2707 2483 2336 2298 
z
M 1766 3904 
Q 1434 3904 1238 3731 
Q 1043 3558 1043 3238 
Q 1043 2931 1232 2771 
Q 1421 2611 1837 2477 
L 1946 2438 
Q 2234 2605 2362 2790 
Q 2490 2976 2490 3245 
Q 2490 3546 2301 3725 
Q 2112 3904 1766 3904 
z
M 1760 390 
Q 2157 390 2390 595 
Q 2624 800 2624 1139 
Q 2624 1370 2534 1526 
Q 2445 1683 2246 1801 
Q 2048 1920 1690 2042 
L 1530 2099 
Q 1210 1946 1056 1712 
Q 902 1478 902 1133 
Q 902 781 1132 585 
Q 1363 390 1760 390 
z
" transform="scale(0.015625)"/>
     </defs>
     <use xlink:href="#FiraSans-Regular-37"/>
     <use xlink:href="#FiraSans-Regular-39" transform="translate(44.399994 0)"/>
     <use xlink:href="#FiraSans-Regular-2e" transform="translate(96.899979 0)"/>
     <use xlink:href="#FiraSans-Regular-35" transform="translate(120.899963 0)"/>
     <use xlink:href="#FiraSans-Regular-38" transform="translate(170.999954 0)"/>
     <use xlink:href="#FiraSans-Regular-25" transform="translate(226.099945 0)"/>
    </g>
   </g>
   <g id="text_9">
    <!-- 11.27% -->
    <g style="fill: #262626" transform="translate(847.661613 178.941902) scale(0.18 -0.18)">
     <use xlink:href="#FiraSans-Regular-31"/>
     <use xlink:href="#FiraSans-Regular-31" transform="translate(43.299988 0)"/>
     <use xlink:href="#FiraSans-Regular-2e" transform="translate(86.599976 0)"/>
     <use xlink:href="#FiraSans-Regular-32" transform="translate(110.59996 0)"/>
     <use xlink:href="#FiraSans-Regular-37" transform="translate(160.099945 0)"/>
     <use xlink:href="#FiraSans-Regular-25" transform="translate(204.499939 0)"/>
    </g>
   </g>
   <g id="text_10">
    <!-- 4.93% -->
    <g style="fill: #262626" transform="translate(849.901769 100.682419) scale(0.18 -0.18)">
     <use xlink:href="#FiraSans-Regular-34"/>
     <use xlink:href="#FiraSans-Regular-2e" transform="translate(53.199997 0)"/>
     <use xlink:href="#FiraSans-Regular-39" transform="translate(77.199982 0)"/>
     <use xlink:href="#FiraSans-Regular-33" transform="translate(129.699966 0)"/>
     <use xlink:href="#FiraSans-Regular-25" transform="translate(179.59996 0)"/>
    </g>
   </g>
   <g id="text_11">
    <!-- 2.82% -->
    <g style="fill: #262626" transform="translate(850.038175 63.253971) scale(0.18 -0.18)">
     <use xlink:href="#FiraSans-Regular-32"/>
     <use xlink:href="#FiraSans-Regular-2e" transform="translate(49.499985 0)"/>
     <use xlink:href="#FiraSans-Regular-38" transform="translate(73.499969 0)"/>
     <use xlink:href="#FiraSans-Regular-32" transform="translate(128.59996 0)"/>
     <use xlink:href="#FiraSans-Regular-25" transform="translate(178.099945 0)"/>
    </g>
   </g>
   <g id="text_12">
    <!-- 0.70% -->
    <g style="fill: #262626" transform="translate(827.76758 42.838454) scale(0.18 -0.18)">
     <use xlink:href="#FiraSans-Regular-30"/>
     <use xlink:href="#FiraSans-Regular-2e" transform="translate(55.799988 0)"/>
     <use xlink:href="#FiraSans-Regular-37" transform="translate(79.799973 0)"/>
     <use xlink:href="#FiraSans-Regular-30" transform="translate(124.199966 0)"/>
     <use xlink:href="#FiraSans-Regular-25" transform="translate(179.999954 0)"/>
    </g>
   </g>
   <g id="text_13">
    <!-- 0.70% -->
    <g style="fill: #262626" transform="translate(871.965646 42.838454) scale(0.18 -0.18)">
     <use xlink:href="#FiraSans-Regular-30"/>
     <use xlink:href="#FiraSans-Regular-2e" transform="translate(55.799988 0)"/>
     <use xlink:href="#FiraSans-Regular-37" transform="translate(79.799973 0)"/>
     <use xlink:href="#FiraSans-Regular-30" transform="translate(124.199966 0)"/>
     <use xlink:href="#FiraSans-Regular-25" transform="translate(179.999954 0)"/>
    </g>
   </g>
   <g id="text_14">
    <!-- username -->
    <g style="fill: #262626" transform="translate(647.135625 25.2) scale(0.24 -0.24)">
     <use xlink:href="#FiraSans-Regular-75"/>
     <use xlink:href="#FiraSans-Regular-73" transform="translate(58.199997 0)"/>
     <use xlink:href="#FiraSans-Regular-65" transform="translate(104.899994 0)"/>
     <use xlink:href="#FiraSans-Regular-72" transform="translate(159.399979 0)"/>
     <use xlink:href="#FiraSans-Regular-6e" transform="translate(197.999969 0)"/>
     <use xlink:href="#FiraSans-Regular-61" transform="translate(256.59996 0)"/>
     <use xlink:href="#FiraSans-Regular-6d" transform="translate(310.999954 0)"/>
     <use xlink:href="#FiraSans-Regular-65" transform="translate(396.699936 0)"/>
    </g>
   </g>
  </g>
  <g id="legend_1">
   <g id="patch_14">
    <path d="M 225.389063 757.995312 
L 1177.170937 757.995312 
Q 1181.570937 757.995312 1181.570937 753.595312 
L 1181.570937 723.61 
Q 1181.570937 719.21 1177.170937 719.21 
L 225.389063 719.21 
Q 220.989063 719.21 220.989063 723.61 
L 220.989063 753.595312 
Q 220.989063 757.995312 225.389063 757.995312 
z
" style="fill: #ffffff; opacity: 0.8; stroke: #cccccc; stroke-width: 2; stroke-linejoin: miter"/>
   </g>
   <g id="patch_15">
    <path d="M 229.789063 744.51 
L 273.789063 744.51 
L 273.789063 729.11 
L 229.789063 729.11 
z
" style="fill: #dcd0fc; stroke: #dcd0fc; stroke-width: 2; stroke-linejoin: miter"/>
   </g>
   <g id="text_15">
    <!-- C02 -->
    <g style="fill: #262626" transform="translate(291.389063 744.51) scale(0.22 -0.22)">
     <defs>
      <path id="FiraSans-Regular-43" d="M 2182 4486 
Q 2579 4486 2851 4384 
Q 3123 4282 3405 4051 
L 3072 3661 
Q 2669 3987 2221 3987 
Q 1670 3987 1334 3564 
Q 998 3142 998 2208 
Q 998 1299 1331 867 
Q 1664 435 2214 435 
Q 2496 435 2707 531 
Q 2918 627 3155 800 
L 3456 416 
Q 3251 205 2931 64 
Q 2611 -77 2195 -77 
Q 1658 -77 1238 188 
Q 819 454 585 969 
Q 352 1485 352 2208 
Q 352 2931 595 3446 
Q 838 3962 1254 4224 
Q 1670 4486 2182 4486 
z
" transform="scale(0.015625)"/>
     </defs>
     <use xlink:href="#FiraSans-Regular-43"/>
     <use xlink:href="#FiraSans-Regular-30" transform="translate(55.999985 0)"/>
     <use xlink:href="#FiraSans-Regular-32" transform="translate(111.799973 0)"/>
    </g>
   </g>
   <g id="patch_16">
    <path d="M 370.874375 744.51 
L 414.874375 744.51 
L 414.874375 729.11 
L 370.874375 729.11 
z
" style="fill: #decf7a; stroke: #decf7a; stroke-width: 2; stroke-linejoin: miter"/>
   </g>
   <g id="text_16">
    <!-- C01 -->
    <g style="fill: #262626" transform="translate(432.474375 744.51) scale(0.22 -0.22)">
     <use xlink:href="#FiraSans-Regular-43"/>
     <use xlink:href="#FiraSans-Regular-30" transform="translate(55.999985 0)"/>
     <use xlink:href="#FiraSans-Regular-31" transform="translate(111.799973 0)"/>
    </g>
   </g>
   <g id="patch_17">
    <path d="M 510.595 744.51 
L 554.595 744.51 
L 554.595 729.11 
L 510.595 729.11 
z
" style="fill: #ffb6a6; stroke: #ffb6a6; stroke-width: 2; stroke-linejoin: miter"/>
   </g>
   <g id="text_17">
    <!-- C04 -->
    <g style="fill: #262626" transform="translate(572.195 744.51) scale(0.22 -0.22)">
     <use xlink:href="#FiraSans-Regular-43"/>
     <use xlink:href="#FiraSans-Regular-30" transform="translate(55.999985 0)"/>
     <use xlink:href="#FiraSans-Regular-34" transform="translate(111.799973 0)"/>
    </g>
   </g>
   <g id="patch_18">
    <path d="M 652.495 744.51 
L 696.495 744.51 
L 696.495 729.11 
L 652.495 729.11 
z
" style="fill: #6fedce; stroke: #6fedce; stroke-width: 2; stroke-linejoin: miter"/>
   </g>
   <g id="text_18">
    <!-- C03 -->
    <g style="fill: #262626" transform="translate(714.095 744.51) scale(0.22 -0.22)">
     <use xlink:href="#FiraSans-Regular-43"/>
     <use xlink:href="#FiraSans-Regular-30" transform="translate(55.999985 0)"/>
     <use xlink:href="#FiraSans-Regular-33" transform="translate(111.799973 0)"/>
    </g>
   </g>
   <g id="patch_19">
    <path d="M 793.669688 744.51 
L 837.669688 744.51 
L 837.669688 729.11 
L 793.669688 729.11 
z
" style="fill: #94e1f0; stroke: #94e1f0; stroke-width: 2; stroke-linejoin: miter"/>
   </g>
   <g id="text_19">
    <!-- C06 -->
    <g style="fill: #262626" transform="translate(855.269688 744.51) scale(0.22 -0.22)">
     <use xlink:href="#FiraSans-Regular-43"/>
     <use xlink:href="#FiraSans-Regular-30" transform="translate(55.999985 0)"/>
     <use xlink:href="#FiraSans-Regular-36" transform="translate(111.799973 0)"/>
    </g>
   </g>
   <g id="patch_20">
    <path d="M 935.590312 744.51 
L 979.590312 744.51 
L 979.590312 729.11 
L 935.590312 729.11 
z
" style="fill: #c0c0c0; stroke: #c0c0c0; stroke-width: 2; stroke-linejoin: miter"/>
   </g>
   <g id="text_20">
    <!-- C07 -->
    <g style="fill: #262626" transform="translate(997.190313 744.51) scale(0.22 -0.22)">
     <use xlink:href="#FiraSans-Regular-43"/>
     <use xlink:href="#FiraSans-Regular-30" transform="translate(55.999985 0)"/>
     <use xlink:href="#FiraSans-Regular-37" transform="translate(111.799973 0)"/>
    </g>
   </g>
   <g id="patch_21">
    <path d="M 1075.555 744.51 
L 1119.555 744.51 
L 1119.555 729.11 
L 1075.555 729.11 
z
" style="fill: #ffbcd9; stroke: #ffbcd9; stroke-width: 2; stroke-linejoin: miter"/>
   </g>
   <g id="text_21">
    <!-- C05 -->
    <g style="fill: #262626" transform="translate(1137.155 744.51) scale(0.22 -0.22)">
     <use xlink:href="#FiraSans-Regular-43"/>
     <use xlink:href="#FiraSans-Regular-30" transform="translate(55.999985 0)"/>
     <use xlink:href="#FiraSans-Regular-35" transform="translate(111.799973 0)"/>
    </g>
   </g>
  </g>
 </g>
 <defs>
  <clipPath id="pa8675da698">
   <rect x="7.2" y="31.2" width="432.836232" height="197.35"/>
  </clipPath>
  <clipPath id="p3e41d4769b">
   <rect x="484.861884" y="31.2" width="432.836232" height="197.35"/>
  </clipPath>
 </defs>
</svg>
