<?xml version="1.0" encoding="utf-8" standalone="no"?>
<!DOCTYPE svg PUBLIC "-//W3C//DTD SVG 1.1//EN"
  "http://www.w3.org/Graphics/SVG/1.1/DTD/svg11.dtd">
<svg xmlns:xlink="http://www.w3.org/1999/xlink" width="1090.37875pt" height="348.172813pt" viewBox="0 0 1090.37875 348.172813" xmlns="http://www.w3.org/2000/svg" version="1.1">
 <metadata>
  <rdf:RDF xmlns:dc="http://purl.org/dc/elements/1.1/" xmlns:cc="http://creativecommons.org/ns#" xmlns:rdf="http://www.w3.org/1999/02/22-rdf-syntax-ns#">
   <cc:Work>
    <dc:type rdf:resource="http://purl.org/dc/dcmitype/StillImage"/>
    <dc:date>2025-03-01T00:24:04.721518</dc:date>
    <dc:format>image/svg+xml</dc:format>
    <dc:creator>
     <cc:Agent>
      <dc:title>Matplotlib v3.10.1, https://matplotlib.org/</dc:title>
     </cc:Agent>
    </dc:creator>
   </cc:Work>
  </rdf:RDF>
 </metadata>
 <defs>
  <style type="text/css">*{stroke-linejoin: round; stroke-linecap: butt}</style>
 </defs>
 <g id="figure_1">
  <g id="patch_1">
   <path d="M 0 348.172813 
L 1090.37875 348.172813 
L 1090.37875 0 
L 0 0 
z
" style="fill: #ffffff"/>
  </g>
  <g id="axes_1">
   <g id="patch_2">
    <path d="M 78.77875 284.4 
L 1083.17875 284.4 
L 1083.17875 7.2 
L 78.77875 7.2 
z
" style="fill: #ffffff"/>
   </g>
   <g id="matplotlib.axis_1">
    <g id="xtick_1">
     <g id="line2d_1">
      <path d="M 123.573511 284.4 
L 123.573511 7.2 
" clip-path="url(#p2666eb229c)" style="fill: none; stroke: #cccccc; stroke-width: 2; stroke-linecap: round"/>
     </g>
     <g id="text_1">
      <!-- 0 -->
      <g style="fill: #262626" transform="translate(117.435855 316.4) scale(0.22 -0.22)">
       <defs>
        <path id="FiraSans-Regular-30" d="M 1786 4346 
Q 2496 4346 2857 3779 
Q 3219 3213 3219 2138 
Q 3219 1062 2857 492 
Q 2496 -77 1786 -77 
Q 1075 -77 713 492 
Q 352 1062 352 2138 
Q 352 3213 713 3779 
Q 1075 4346 1786 4346 
z
M 1786 3878 
Q 1370 3878 1168 3468 
Q 966 3059 966 2138 
Q 966 1216 1168 803 
Q 1370 390 1786 390 
Q 2195 390 2400 803 
Q 2605 1216 2605 2138 
Q 2605 3053 2400 3465 
Q 2195 3878 1786 3878 
z
" transform="scale(0.015625)"/>
       </defs>
       <use xlink:href="#FiraSans-Regular-30"/>
      </g>
     </g>
    </g>
    <g id="xtick_2">
     <g id="line2d_2">
      <path d="M 295.530368 284.4 
L 295.530368 7.2 
" clip-path="url(#p2666eb229c)" style="fill: none; stroke: #cccccc; stroke-width: 2; stroke-linecap: round"/>
     </g>
     <g id="text_2">
      <!-- 200 -->
      <g style="fill: #262626" transform="translate(277.810055 316.4) scale(0.22 -0.22)">
       <defs>
        <path id="FiraSans-Regular-32" d="M 1459 4346 
Q 1843 4346 2134 4192 
Q 2426 4038 2586 3772 
Q 2746 3507 2746 3174 
Q 2746 2784 2570 2425 
Q 2394 2067 2029 1651 
Q 1664 1235 922 493 
L 2848 493 
L 2778 0 
L 250 0 
L 250 467 
Q 1107 1357 1465 1769 
Q 1824 2182 1977 2489 
Q 2131 2797 2131 3149 
Q 2131 3482 1939 3670 
Q 1747 3859 1427 3859 
Q 1165 3859 966 3750 
Q 768 3642 544 3392 
L 160 3699 
Q 422 4026 742 4186 
Q 1062 4346 1459 4346 
z
" transform="scale(0.015625)"/>
       </defs>
       <use xlink:href="#FiraSans-Regular-32"/>
       <use xlink:href="#FiraSans-Regular-30" transform="translate(49.499985 0)"/>
       <use xlink:href="#FiraSans-Regular-30" transform="translate(105.299973 0)"/>
      </g>
     </g>
    </g>
    <g id="xtick_3">
     <g id="line2d_3">
      <path d="M 467.487225 284.4 
L 467.487225 7.2 
" clip-path="url(#p2666eb229c)" style="fill: none; stroke: #cccccc; stroke-width: 2; stroke-linecap: round"/>
     </g>
     <g id="text_3">
      <!-- 400 -->
      <g style="fill: #262626" transform="translate(449.359568 316.4) scale(0.22 -0.22)">
       <defs>
        <path id="FiraSans-Regular-34" d="M 3213 1523 
L 3213 1056 
L 2656 1056 
L 2656 0 
L 2086 0 
L 2086 1056 
L 256 1056 
L 256 1478 
L 1542 4346 
L 2035 4141 
L 877 1523 
L 2093 1523 
L 2144 2675 
L 2656 2675 
L 2656 1523 
L 3213 1523 
z
" transform="scale(0.015625)"/>
       </defs>
       <use xlink:href="#FiraSans-Regular-34"/>
       <use xlink:href="#FiraSans-Regular-30" transform="translate(53.199997 0)"/>
       <use xlink:href="#FiraSans-Regular-30" transform="translate(108.999985 0)"/>
      </g>
     </g>
    </g>
    <g id="xtick_4">
     <g id="line2d_4">
      <path d="M 639.444081 284.4 
L 639.444081 7.2 
" clip-path="url(#p2666eb229c)" style="fill: none; stroke: #cccccc; stroke-width: 2; stroke-linecap: round"/>
     </g>
     <g id="text_4">
      <!-- 600 -->
      <g style="fill: #262626" transform="translate(621.306113 316.4) scale(0.22 -0.22)">
       <defs>
        <path id="FiraSans-Regular-36" d="M 1971 2816 
Q 2298 2816 2566 2662 
Q 2835 2509 2995 2201 
Q 3155 1894 3155 1453 
Q 3155 998 2972 649 
Q 2790 301 2480 112 
Q 2170 -77 1792 -77 
Q 1043 -77 697 476 
Q 352 1030 352 2010 
Q 352 2707 547 3235 
Q 742 3763 1107 4054 
Q 1472 4346 1971 4346 
Q 2458 4346 2854 4083 
L 2624 3693 
Q 2323 3878 1965 3878 
Q 1504 3878 1235 3436 
Q 966 2995 941 2253 
Q 1338 2816 1971 2816 
z
M 1792 390 
Q 2163 390 2361 672 
Q 2560 954 2560 1434 
Q 2560 2349 1869 2349 
Q 1587 2349 1350 2192 
Q 1114 2035 947 1760 
Q 966 1056 1168 723 
Q 1370 390 1792 390 
z
" transform="scale(0.015625)"/>
       </defs>
       <use xlink:href="#FiraSans-Regular-36"/>
       <use xlink:href="#FiraSans-Regular-30" transform="translate(53.299988 0)"/>
       <use xlink:href="#FiraSans-Regular-30" transform="translate(109.099976 0)"/>
      </g>
     </g>
    </g>
    <g id="xtick_5">
     <g id="line2d_5">
      <path d="M 811.400938 284.4 
L 811.400938 7.2 
" clip-path="url(#p2666eb229c)" style="fill: none; stroke: #cccccc; stroke-width: 2; stroke-linecap: round"/>
     </g>
     <g id="text_5">
      <!-- 800 -->
      <g style="fill: #262626" transform="translate(793.065313 316.4) scale(0.22 -0.22)">
       <defs>
        <path id="FiraSans-Regular-38" d="M 2336 2298 
Q 3238 1933 3238 1146 
Q 3238 794 3049 515 
Q 2861 237 2521 80 
Q 2182 -77 1754 -77 
Q 1318 -77 985 76 
Q 653 230 470 505 
Q 288 781 288 1133 
Q 288 1530 502 1798 
Q 717 2067 1133 2246 
Q 794 2419 630 2665 
Q 467 2912 467 3245 
Q 467 3590 649 3840 
Q 832 4090 1129 4218 
Q 1427 4346 1766 4346 
Q 2099 4346 2396 4224 
Q 2694 4102 2880 3856 
Q 3066 3610 3066 3264 
Q 3066 2944 2886 2713 
Q 2707 2483 2336 2298 
z
M 1766 3904 
Q 1434 3904 1238 3731 
Q 1043 3558 1043 3238 
Q 1043 2931 1232 2771 
Q 1421 2611 1837 2477 
L 1946 2438 
Q 2234 2605 2362 2790 
Q 2490 2976 2490 3245 
Q 2490 3546 2301 3725 
Q 2112 3904 1766 3904 
z
M 1760 390 
Q 2157 390 2390 595 
Q 2624 800 2624 1139 
Q 2624 1370 2534 1526 
Q 2445 1683 2246 1801 
Q 2048 1920 1690 2042 
L 1530 2099 
Q 1210 1946 1056 1712 
Q 902 1478 902 1133 
Q 902 781 1132 585 
Q 1363 390 1760 390 
z
" transform="scale(0.015625)"/>
       </defs>
       <use xlink:href="#FiraSans-Regular-38"/>
       <use xlink:href="#FiraSans-Regular-30" transform="translate(55.099991 0)"/>
       <use xlink:href="#FiraSans-Regular-30" transform="translate(110.899979 0)"/>
      </g>
     </g>
    </g>
    <g id="xtick_6">
     <g id="line2d_6">
      <path d="M 983.357795 284.4 
L 983.357795 7.2 
" clip-path="url(#p2666eb229c)" style="fill: none; stroke: #cccccc; stroke-width: 2; stroke-linecap: round"/>
     </g>
     <g id="text_6">
      <!-- 1000 -->
      <g style="fill: #262626" transform="translate(960.18217 316.4) scale(0.22 -0.22)">
       <defs>
        <path id="FiraSans-Regular-31" d="M 2067 4282 
L 2067 0 
L 1478 0 
L 1478 3654 
L 480 3046 
L 224 3462 
L 1549 4282 
L 2067 4282 
z
" transform="scale(0.015625)"/>
       </defs>
       <use xlink:href="#FiraSans-Regular-31"/>
       <use xlink:href="#FiraSans-Regular-30" transform="translate(43.299988 0)"/>
       <use xlink:href="#FiraSans-Regular-30" transform="translate(99.099976 0)"/>
       <use xlink:href="#FiraSans-Regular-30" transform="translate(154.899963 0)"/>
      </g>
     </g>
    </g>
    <g id="text_7">
     <!-- Modularity Class -->
     <g style="fill: #262626" transform="translate(521.01 337.565313) scale(0.16 -0.16)">
      <defs>
       <path id="FiraSans-Regular-4d" d="M 4582 0 
L 3994 0 
L 3840 1990 
Q 3744 3162 3731 3789 
L 2778 499 
L 2208 499 
L 1203 3795 
Q 1203 2995 1120 1946 
L 973 0 
L 397 0 
L 762 4410 
L 1581 4410 
L 2509 1203 
L 3392 4410 
L 4218 4410 
L 4582 0 
z
" transform="scale(0.015625)"/>
       <path id="FiraSans-Regular-6f" d="M 1875 3450 
Q 2586 3450 2979 2976 
Q 3373 2502 3373 1690 
Q 3373 1165 3193 765 
Q 3014 365 2675 144 
Q 2336 -77 1869 -77 
Q 1158 -77 761 396 
Q 365 870 365 1683 
Q 365 2208 544 2608 
Q 723 3008 1062 3229 
Q 1402 3450 1875 3450 
z
M 1875 2976 
Q 998 2976 998 1683 
Q 998 397 1869 397 
Q 2739 397 2739 1690 
Q 2739 2976 1875 2976 
z
" transform="scale(0.015625)"/>
       <path id="FiraSans-Regular-64" d="M 3219 4730 
L 3219 0 
L 2701 0 
L 2643 467 
Q 2477 211 2227 67 
Q 1978 -77 1670 -77 
Q 1069 -77 733 396 
Q 397 870 397 1670 
Q 397 2189 557 2592 
Q 717 2995 1017 3222 
Q 1318 3450 1722 3450 
Q 2240 3450 2630 3034 
L 2630 4800 
L 3219 4730 
z
M 1798 390 
Q 2067 390 2259 515 
Q 2451 640 2630 890 
L 2630 2541 
Q 2464 2758 2275 2870 
Q 2086 2982 1850 2982 
Q 1459 2982 1244 2656 
Q 1030 2330 1030 1683 
Q 1030 1030 1228 710 
Q 1427 390 1798 390 
z
" transform="scale(0.015625)"/>
       <path id="FiraSans-Regular-75" d="M 3117 0 
L 2611 0 
L 2566 525 
Q 2374 211 2124 67 
Q 1875 -77 1517 -77 
Q 1075 -77 825 192 
Q 576 461 576 954 
L 576 3373 
L 1165 3373 
L 1165 1018 
Q 1165 672 1286 528 
Q 1408 384 1683 384 
Q 2176 384 2528 966 
L 2528 3373 
L 3117 3373 
L 3117 0 
z
" transform="scale(0.015625)"/>
       <path id="FiraSans-Regular-6c" d="M 1280 -77 
Q 954 -77 765 118 
Q 576 314 576 666 
L 576 4730 
L 1165 4800 
L 1165 678 
Q 1165 538 1213 474 
Q 1261 410 1376 410 
Q 1498 410 1594 448 
L 1747 38 
Q 1536 -77 1280 -77 
z
" transform="scale(0.015625)"/>
       <path id="FiraSans-Regular-61" d="M 2880 787 
Q 2880 582 2950 483 
Q 3021 384 3162 333 
L 3027 -77 
Q 2765 -45 2605 70 
Q 2445 186 2368 429 
Q 2029 -77 1363 -77 
Q 864 -77 576 204 
Q 288 486 288 941 
Q 288 1478 675 1766 
Q 1062 2054 1773 2054 
L 2291 2054 
L 2291 2304 
Q 2291 2662 2118 2816 
Q 1946 2970 1587 2970 
Q 1216 2970 678 2790 
L 531 3219 
Q 1158 3450 1696 3450 
Q 2291 3450 2585 3158 
Q 2880 2867 2880 2330 
L 2880 787 
z
M 1498 365 
Q 2003 365 2291 890 
L 2291 1664 
L 1850 1664 
Q 915 1664 915 973 
Q 915 672 1062 518 
Q 1210 365 1498 365 
z
" transform="scale(0.015625)"/>
       <path id="FiraSans-Regular-72" d="M 2074 3450 
Q 2253 3450 2406 3411 
L 2298 2835 
Q 2144 2874 2003 2874 
Q 1690 2874 1498 2643 
Q 1306 2413 1197 1926 
L 1197 0 
L 608 0 
L 608 3373 
L 1114 3373 
L 1171 2688 
Q 1306 3066 1536 3258 
Q 1766 3450 2074 3450 
z
" transform="scale(0.015625)"/>
       <path id="FiraSans-Regular-69" d="M 1197 3373 
L 1197 0 
L 608 0 
L 608 3373 
L 1197 3373 
z
M 896 4992 
Q 1082 4992 1197 4877 
Q 1312 4762 1312 4589 
Q 1312 4416 1197 4304 
Q 1082 4192 896 4192 
Q 717 4192 601 4304 
Q 486 4416 486 4589 
Q 486 4762 601 4877 
Q 717 4992 896 4992 
z
" transform="scale(0.015625)"/>
       <path id="FiraSans-Regular-74" d="M 2310 154 
Q 1978 -77 1555 -77 
Q 1126 -77 886 169 
Q 646 416 646 883 
L 646 2918 
L 58 2918 
L 58 3373 
L 646 3373 
L 646 4134 
L 1235 4205 
L 1235 3373 
L 2035 3373 
L 1971 2918 
L 1235 2918 
L 1235 909 
Q 1235 646 1328 528 
Q 1421 410 1638 410 
Q 1837 410 2086 544 
L 2310 154 
z
" transform="scale(0.015625)"/>
       <path id="FiraSans-Regular-79" d="M 1958 -19 
Q 1760 -608 1405 -950 
Q 1050 -1293 390 -1363 
L 326 -902 
Q 659 -845 857 -736 
Q 1056 -627 1174 -457 
Q 1293 -288 1395 0 
L 1197 0 
L 64 3373 
L 691 3373 
L 1594 429 
L 2477 3373 
L 3085 3373 
L 1958 -19 
z
" transform="scale(0.015625)"/>
       <path id="FiraSans-Regular-20" transform="scale(0.015625)"/>
       <path id="FiraSans-Regular-43" d="M 2182 4486 
Q 2579 4486 2851 4384 
Q 3123 4282 3405 4051 
L 3072 3661 
Q 2669 3987 2221 3987 
Q 1670 3987 1334 3564 
Q 998 3142 998 2208 
Q 998 1299 1331 867 
Q 1664 435 2214 435 
Q 2496 435 2707 531 
Q 2918 627 3155 800 
L 3456 416 
Q 3251 205 2931 64 
Q 2611 -77 2195 -77 
Q 1658 -77 1238 188 
Q 819 454 585 969 
Q 352 1485 352 2208 
Q 352 2931 595 3446 
Q 838 3962 1254 4224 
Q 1670 4486 2182 4486 
z
" transform="scale(0.015625)"/>
       <path id="FiraSans-Regular-73" d="M 1523 3450 
Q 1869 3450 2144 3354 
Q 2419 3258 2669 3066 
L 2419 2694 
Q 2189 2842 1981 2912 
Q 1773 2982 1542 2982 
Q 1254 2982 1088 2864 
Q 922 2746 922 2541 
Q 922 2336 1078 2221 
Q 1235 2106 1645 1997 
Q 2208 1856 2486 1613 
Q 2765 1370 2765 947 
Q 2765 448 2377 185 
Q 1990 -77 1434 -77 
Q 666 -77 160 365 
L 474 723 
Q 902 397 1421 397 
Q 1754 397 1949 534 
Q 2144 672 2144 909 
Q 2144 1082 2073 1187 
Q 2003 1293 1830 1373 
Q 1658 1453 1325 1542 
Q 787 1683 547 1920 
Q 307 2157 307 2522 
Q 307 2784 464 2998 
Q 621 3213 899 3331 
Q 1178 3450 1523 3450 
z
" transform="scale(0.015625)"/>
      </defs>
      <use xlink:href="#FiraSans-Regular-4d"/>
      <use xlink:href="#FiraSans-Regular-6f" transform="translate(77.799988 0)"/>
      <use xlink:href="#FiraSans-Regular-64" transform="translate(136.199982 0)"/>
      <use xlink:href="#FiraSans-Regular-75" transform="translate(195.999969 0)"/>
      <use xlink:href="#FiraSans-Regular-6c" transform="translate(254.199966 0)"/>
      <use xlink:href="#FiraSans-Regular-61" transform="translate(283.499954 0)"/>
      <use xlink:href="#FiraSans-Regular-72" transform="translate(337.899948 0)"/>
      <use xlink:href="#FiraSans-Regular-69" transform="translate(376.499939 0)"/>
      <use xlink:href="#FiraSans-Regular-74" transform="translate(404.699936 0)"/>
      <use xlink:href="#FiraSans-Regular-79" transform="translate(440.799927 0)"/>
      <use xlink:href="#FiraSans-Regular-20" transform="translate(489.999924 0)"/>
      <use xlink:href="#FiraSans-Regular-43" transform="translate(516.499908 0)"/>
      <use xlink:href="#FiraSans-Regular-6c" transform="translate(572.499893 0)"/>
      <use xlink:href="#FiraSans-Regular-61" transform="translate(601.799881 0)"/>
      <use xlink:href="#FiraSans-Regular-73" transform="translate(656.199875 0)"/>
      <use xlink:href="#FiraSans-Regular-73" transform="translate(702.899872 0)"/>
     </g>
    </g>
   </g>
   <g id="matplotlib.axis_2">
    <g id="ytick_1">
     <g id="line2d_7">
      <path d="M 78.77875 284.4 
L 1083.17875 284.4 
" clip-path="url(#p2666eb229c)" style="fill: none; stroke: #cccccc; stroke-width: 2; stroke-linecap: round"/>
     </g>
     <g id="text_8">
      <!-- 0 -->
      <g style="fill: #262626" transform="translate(51.003438 292.65) scale(0.22 -0.22)">
       <use xlink:href="#FiraSans-Regular-30"/>
      </g>
     </g>
    </g>
    <g id="ytick_2">
     <g id="line2d_8">
      <path d="M 78.77875 226.121854 
L 1083.17875 226.121854 
" clip-path="url(#p2666eb229c)" style="fill: none; stroke: #cccccc; stroke-width: 2; stroke-linecap: round"/>
     </g>
     <g id="text_9">
      <!-- 200 -->
      <g style="fill: #262626" transform="translate(27.838125 234.371854) scale(0.22 -0.22)">
       <use xlink:href="#FiraSans-Regular-32"/>
       <use xlink:href="#FiraSans-Regular-30" transform="translate(49.499985 0)"/>
       <use xlink:href="#FiraSans-Regular-30" transform="translate(105.299973 0)"/>
      </g>
     </g>
    </g>
    <g id="ytick_3">
     <g id="line2d_9">
      <path d="M 78.77875 167.843709 
L 1083.17875 167.843709 
" clip-path="url(#p2666eb229c)" style="fill: none; stroke: #cccccc; stroke-width: 2; stroke-linecap: round"/>
     </g>
     <g id="text_10">
      <!-- 400 -->
      <g style="fill: #262626" transform="translate(27.023438 176.093709) scale(0.22 -0.22)">
       <use xlink:href="#FiraSans-Regular-34"/>
       <use xlink:href="#FiraSans-Regular-30" transform="translate(53.199997 0)"/>
       <use xlink:href="#FiraSans-Regular-30" transform="translate(108.999985 0)"/>
      </g>
     </g>
    </g>
    <g id="ytick_4">
     <g id="line2d_10">
      <path d="M 78.77875 109.565563 
L 1083.17875 109.565563 
" clip-path="url(#p2666eb229c)" style="fill: none; stroke: #cccccc; stroke-width: 2; stroke-linecap: round"/>
     </g>
     <g id="text_11">
      <!-- 600 -->
      <g style="fill: #262626" transform="translate(27.002813 117.815563) scale(0.22 -0.22)">
       <use xlink:href="#FiraSans-Regular-36"/>
       <use xlink:href="#FiraSans-Regular-30" transform="translate(53.299988 0)"/>
       <use xlink:href="#FiraSans-Regular-30" transform="translate(109.099976 0)"/>
      </g>
     </g>
    </g>
    <g id="ytick_5">
     <g id="line2d_11">
      <path d="M 78.77875 51.287417 
L 1083.17875 51.287417 
" clip-path="url(#p2666eb229c)" style="fill: none; stroke: #cccccc; stroke-width: 2; stroke-linecap: round"/>
     </g>
     <g id="text_12">
      <!-- 800 -->
      <g style="fill: #262626" transform="translate(26.6075 59.537417) scale(0.22 -0.22)">
       <use xlink:href="#FiraSans-Regular-38"/>
       <use xlink:href="#FiraSans-Regular-30" transform="translate(55.099991 0)"/>
       <use xlink:href="#FiraSans-Regular-30" transform="translate(110.899979 0)"/>
      </g>
     </g>
    </g>
    <g id="text_13">
     <!-- Frequency -->
     <g style="fill: #262626" transform="translate(19.2 183.4225) rotate(-90) scale(0.16 -0.16)">
      <defs>
       <path id="FiraSans-Regular-46" d="M 640 0 
L 640 4410 
L 2982 4410 
L 2912 3923 
L 1248 3923 
L 1248 2419 
L 2688 2419 
L 2688 1939 
L 1248 1939 
L 1248 0 
L 640 0 
z
" transform="scale(0.015625)"/>
       <path id="FiraSans-Regular-65" d="M 3155 1786 
Q 3155 1638 3142 1485 
L 992 1485 
Q 1030 928 1273 665 
Q 1517 403 1901 403 
Q 2144 403 2349 473 
Q 2554 544 2778 698 
L 3034 346 
Q 2496 -77 1856 -77 
Q 1152 -77 758 384 
Q 365 845 365 1651 
Q 365 2176 534 2582 
Q 704 2989 1021 3219 
Q 1338 3450 1766 3450 
Q 2438 3450 2796 3008 
Q 3155 2566 3155 1786 
z
M 2573 1958 
Q 2573 2458 2374 2720 
Q 2176 2982 1779 2982 
Q 1056 2982 992 1920 
L 2573 1920 
L 2573 1958 
z
" transform="scale(0.015625)"/>
       <path id="FiraSans-Regular-71" d="M 3219 3373 
L 3219 -1363 
L 2630 -1293 
L 2630 448 
Q 2464 198 2217 60 
Q 1971 -77 1670 -77 
Q 1069 -77 733 396 
Q 397 870 397 1670 
Q 397 2189 557 2592 
Q 717 2995 1017 3222 
Q 1318 3450 1722 3450 
Q 2259 3450 2669 2995 
L 2714 3373 
L 3219 3373 
z
M 1798 390 
Q 2067 390 2259 515 
Q 2451 640 2630 890 
L 2630 2541 
Q 2464 2758 2275 2870 
Q 2086 2982 1850 2982 
Q 1459 2982 1244 2656 
Q 1030 2330 1030 1683 
Q 1030 1030 1228 710 
Q 1427 390 1798 390 
z
" transform="scale(0.015625)"/>
       <path id="FiraSans-Regular-6e" d="M 2195 3450 
Q 2656 3450 2915 3174 
Q 3174 2899 3174 2419 
L 3174 0 
L 2586 0 
L 2586 2336 
Q 2586 2694 2451 2841 
Q 2317 2989 2054 2989 
Q 1786 2989 1581 2835 
Q 1376 2682 1197 2394 
L 1197 0 
L 608 0 
L 608 3373 
L 1114 3373 
L 1165 2874 
Q 1344 3142 1609 3296 
Q 1875 3450 2195 3450 
z
" transform="scale(0.015625)"/>
       <path id="FiraSans-Regular-63" d="M 1837 3450 
Q 2138 3450 2387 3363 
Q 2637 3277 2867 3085 
L 2586 2714 
Q 2406 2842 2236 2902 
Q 2067 2963 1862 2963 
Q 1453 2963 1225 2636 
Q 998 2310 998 1670 
Q 998 1030 1222 726 
Q 1446 422 1862 422 
Q 2061 422 2227 483 
Q 2394 544 2598 678 
L 2867 294 
Q 2406 -77 1837 -77 
Q 1152 -77 758 384 
Q 365 845 365 1658 
Q 365 2195 544 2598 
Q 723 3002 1052 3226 
Q 1382 3450 1837 3450 
z
" transform="scale(0.015625)"/>
      </defs>
      <use xlink:href="#FiraSans-Regular-46"/>
      <use xlink:href="#FiraSans-Regular-72" transform="translate(49.099991 0)"/>
      <use xlink:href="#FiraSans-Regular-65" transform="translate(87.699982 0)"/>
      <use xlink:href="#FiraSans-Regular-71" transform="translate(142.199966 0)"/>
      <use xlink:href="#FiraSans-Regular-75" transform="translate(201.999954 0)"/>
      <use xlink:href="#FiraSans-Regular-65" transform="translate(260.199951 0)"/>
      <use xlink:href="#FiraSans-Regular-6e" transform="translate(314.699936 0)"/>
      <use xlink:href="#FiraSans-Regular-63" transform="translate(373.299927 0)"/>
      <use xlink:href="#FiraSans-Regular-79" transform="translate(421.099915 0)"/>
     </g>
    </g>
   </g>
   <g id="patch_3">
    <path d="M 124.433295 284.4 
L 170.087841 284.4 
L 170.087841 20.4 
L 124.433295 20.4 
z
" clip-path="url(#p2666eb229c)" style="fill: #f3f1e9; stroke: #000000; stroke-width: 2; stroke-linejoin: miter"/>
   </g>
   <g id="patch_4">
    <path d="M 170.087841 284.4 
L 215.742386 284.4 
L 215.742386 284.108609 
L 170.087841 284.108609 
z
" clip-path="url(#p2666eb229c)" style="fill: #f3f1e9; stroke: #000000; stroke-width: 2; stroke-linejoin: miter"/>
   </g>
   <g id="patch_5">
    <path d="M 215.742386 284.4 
L 261.396932 284.4 
L 261.396932 284.4 
L 215.742386 284.4 
z
" clip-path="url(#p2666eb229c)" style="fill: #f3f1e9; stroke: #000000; stroke-width: 2; stroke-linejoin: miter"/>
   </g>
   <g id="patch_6">
    <path d="M 261.396932 284.4 
L 307.051477 284.4 
L 307.051477 284.4 
L 261.396932 284.4 
z
" clip-path="url(#p2666eb229c)" style="fill: #f3f1e9; stroke: #000000; stroke-width: 2; stroke-linejoin: miter"/>
   </g>
   <g id="patch_7">
    <path d="M 307.051477 284.4 
L 352.706023 284.4 
L 352.706023 284.108609 
L 307.051477 284.108609 
z
" clip-path="url(#p2666eb229c)" style="fill: #f3f1e9; stroke: #000000; stroke-width: 2; stroke-linejoin: miter"/>
   </g>
   <g id="patch_8">
    <path d="M 352.706023 284.4 
L 398.360568 284.4 
L 398.360568 284.4 
L 352.706023 284.4 
z
" clip-path="url(#p2666eb229c)" style="fill: #f3f1e9; stroke: #000000; stroke-width: 2; stroke-linejoin: miter"/>
   </g>
   <g id="patch_9">
    <path d="M 398.360568 284.4 
L 444.015114 284.4 
L 444.015114 284.108609 
L 398.360568 284.108609 
z
" clip-path="url(#p2666eb229c)" style="fill: #f3f1e9; stroke: #000000; stroke-width: 2; stroke-linejoin: miter"/>
   </g>
   <g id="patch_10">
    <path d="M 444.015114 284.4 
L 489.669659 284.4 
L 489.669659 284.108609 
L 444.015114 284.108609 
z
" clip-path="url(#p2666eb229c)" style="fill: #f3f1e9; stroke: #000000; stroke-width: 2; stroke-linejoin: miter"/>
   </g>
   <g id="patch_11">
    <path d="M 489.669659 284.4 
L 535.324205 284.4 
L 535.324205 284.4 
L 489.669659 284.4 
z
" clip-path="url(#p2666eb229c)" style="fill: #f3f1e9; stroke: #000000; stroke-width: 2; stroke-linejoin: miter"/>
   </g>
   <g id="patch_12">
    <path d="M 535.324205 284.4 
L 580.97875 284.4 
L 580.97875 284.4 
L 535.324205 284.4 
z
" clip-path="url(#p2666eb229c)" style="fill: #f3f1e9; stroke: #000000; stroke-width: 2; stroke-linejoin: miter"/>
   </g>
   <g id="patch_13">
    <path d="M 580.97875 284.4 
L 626.633295 284.4 
L 626.633295 284.4 
L 580.97875 284.4 
z
" clip-path="url(#p2666eb229c)" style="fill: #f3f1e9; stroke: #000000; stroke-width: 2; stroke-linejoin: miter"/>
   </g>
   <g id="patch_14">
    <path d="M 626.633295 284.4 
L 672.287841 284.4 
L 672.287841 284.4 
L 626.633295 284.4 
z
" clip-path="url(#p2666eb229c)" style="fill: #f3f1e9; stroke: #000000; stroke-width: 2; stroke-linejoin: miter"/>
   </g>
   <g id="patch_15">
    <path d="M 672.287841 284.4 
L 717.942386 284.4 
L 717.942386 284.108609 
L 672.287841 284.108609 
z
" clip-path="url(#p2666eb229c)" style="fill: #f3f1e9; stroke: #000000; stroke-width: 2; stroke-linejoin: miter"/>
   </g>
   <g id="patch_16">
    <path d="M 717.942386 284.4 
L 763.596932 284.4 
L 763.596932 284.4 
L 717.942386 284.4 
z
" clip-path="url(#p2666eb229c)" style="fill: #f3f1e9; stroke: #000000; stroke-width: 2; stroke-linejoin: miter"/>
   </g>
   <g id="patch_17">
    <path d="M 763.596932 284.4 
L 809.251477 284.4 
L 809.251477 284.4 
L 763.596932 284.4 
z
" clip-path="url(#p2666eb229c)" style="fill: #f3f1e9; stroke: #000000; stroke-width: 2; stroke-linejoin: miter"/>
   </g>
   <g id="patch_18">
    <path d="M 809.251477 284.4 
L 854.906023 284.4 
L 854.906023 284.4 
L 809.251477 284.4 
z
" clip-path="url(#p2666eb229c)" style="fill: #f3f1e9; stroke: #000000; stroke-width: 2; stroke-linejoin: miter"/>
   </g>
   <g id="patch_19">
    <path d="M 854.906023 284.4 
L 900.560568 284.4 
L 900.560568 284.4 
L 854.906023 284.4 
z
" clip-path="url(#p2666eb229c)" style="fill: #f3f1e9; stroke: #000000; stroke-width: 2; stroke-linejoin: miter"/>
   </g>
   <g id="patch_20">
    <path d="M 900.560568 284.4 
L 946.215114 284.4 
L 946.215114 284.4 
L 900.560568 284.4 
z
" clip-path="url(#p2666eb229c)" style="fill: #f3f1e9; stroke: #000000; stroke-width: 2; stroke-linejoin: miter"/>
   </g>
   <g id="patch_21">
    <path d="M 946.215114 284.4 
L 991.869659 284.4 
L 991.869659 284.4 
L 946.215114 284.4 
z
" clip-path="url(#p2666eb229c)" style="fill: #f3f1e9; stroke: #000000; stroke-width: 2; stroke-linejoin: miter"/>
   </g>
   <g id="patch_22">
    <path d="M 991.869659 284.4 
L 1037.524205 284.4 
L 1037.524205 284.108609 
L 991.869659 284.108609 
z
" clip-path="url(#p2666eb229c)" style="fill: #f3f1e9; stroke: #000000; stroke-width: 2; stroke-linejoin: miter"/>
   </g>
   <g id="line2d_12">
    <path d="M 125.29308 284.4 
L 125.29308 7.2 
" clip-path="url(#p2666eb229c)" style="fill: none; stroke: #00bdbf; stroke-linecap: round"/>
   </g>
   <g id="line2d_13">
    <path d="M 125.29308 284.4 
L 125.29308 7.2 
" clip-path="url(#p2666eb229c)" style="fill: none; stroke: #00bdbf; stroke-linecap: round"/>
   </g>
   <g id="line2d_14">
    <path d="M 125.29308 284.4 
L 125.29308 7.2 
" clip-path="url(#p2666eb229c)" style="fill: none; stroke: #00bdbf; stroke-linecap: round"/>
   </g>
   <g id="line2d_15">
    <path d="M 125.29308 284.4 
L 125.29308 7.2 
" clip-path="url(#p2666eb229c)" style="fill: none; stroke: #00bdbf; stroke-linecap: round"/>
   </g>
   <g id="line2d_16">
    <path d="M 125.29308 284.4 
L 125.29308 7.2 
" clip-path="url(#p2666eb229c)" style="fill: none; stroke: #00bdbf; stroke-linecap: round"/>
   </g>
   <g id="line2d_17">
    <path d="M 125.29308 284.4 
L 125.29308 7.2 
" clip-path="url(#p2666eb229c)" style="fill: none; stroke: #00bdbf; stroke-linecap: round"/>
   </g>
   <g id="line2d_18">
    <path d="M 125.29308 284.4 
L 125.29308 7.2 
" clip-path="url(#p2666eb229c)" style="fill: none; stroke: #00bdbf; stroke-linecap: round"/>
   </g>
   <g id="line2d_19">
    <path d="M 125.29308 284.4 
L 125.29308 7.2 
" clip-path="url(#p2666eb229c)" style="fill: none; stroke: #00bdbf; stroke-linecap: round"/>
   </g>
   <g id="line2d_20">
    <path d="M 125.29308 284.4 
L 125.29308 7.2 
" clip-path="url(#p2666eb229c)" style="fill: none; stroke: #00bdbf; stroke-linecap: round"/>
   </g>
   <g id="line2d_21">
    <path d="M 133.031138 284.4 
L 133.031138 7.2 
" clip-path="url(#p2666eb229c)" style="fill: none; stroke: #00bdbf; stroke-linecap: round"/>
   </g>
   <g id="line2d_22">
    <path d="M 125.29308 284.4 
L 125.29308 7.2 
" clip-path="url(#p2666eb229c)" style="fill: none; stroke: #00bdbf; stroke-linecap: round"/>
   </g>
   <g id="line2d_23">
    <path d="M 125.29308 284.4 
L 125.29308 7.2 
" clip-path="url(#p2666eb229c)" style="fill: none; stroke: #00bdbf; stroke-linecap: round"/>
   </g>
   <g id="line2d_24">
    <path d="M 125.29308 284.4 
L 125.29308 7.2 
" clip-path="url(#p2666eb229c)" style="fill: none; stroke: #00bdbf; stroke-linecap: round"/>
   </g>
   <g id="line2d_25">
    <path d="M 125.29308 284.4 
L 125.29308 7.2 
" clip-path="url(#p2666eb229c)" style="fill: none; stroke: #00bdbf; stroke-linecap: round"/>
   </g>
   <g id="line2d_26">
    <path d="M 125.29308 284.4 
L 125.29308 7.2 
" clip-path="url(#p2666eb229c)" style="fill: none; stroke: #00bdbf; stroke-linecap: round"/>
   </g>
   <g id="line2d_27">
    <path d="M 127.872433 284.4 
L 127.872433 7.2 
" clip-path="url(#p2666eb229c)" style="fill: none; stroke: #00bdbf; stroke-linecap: round"/>
   </g>
   <g id="line2d_28">
    <path d="M 126.152864 284.4 
L 126.152864 7.2 
" clip-path="url(#p2666eb229c)" style="fill: none; stroke: #00bdbf; stroke-linecap: round"/>
   </g>
   <g id="line2d_29">
    <path d="M 129.592001 284.4 
L 129.592001 7.2 
" clip-path="url(#p2666eb229c)" style="fill: none; stroke: #00bdbf; stroke-linecap: round"/>
   </g>
   <g id="line2d_30">
    <path d="M 130.451785 284.4 
L 130.451785 7.2 
" clip-path="url(#p2666eb229c)" style="fill: none; stroke: #00bdbf; stroke-linecap: round"/>
   </g>
   <g id="line2d_31">
    <path d="M 131.31157 284.4 
L 131.31157 7.2 
" clip-path="url(#p2666eb229c)" style="fill: none; stroke: #00bdbf; stroke-linecap: round"/>
   </g>
   <g id="line2d_32">
    <path d="M 126.152864 284.4 
L 126.152864 7.2 
" clip-path="url(#p2666eb229c)" style="fill: none; stroke: #00bdbf; stroke-linecap: round"/>
   </g>
   <g id="line2d_33">
    <path d="M 132.171354 284.4 
L 132.171354 7.2 
" clip-path="url(#p2666eb229c)" style="fill: none; stroke: #00bdbf; stroke-linecap: round"/>
   </g>
   <g id="line2d_34">
    <path d="M 125.29308 284.4 
L 125.29308 7.2 
" clip-path="url(#p2666eb229c)" style="fill: none; stroke: #00bdbf; stroke-linecap: round"/>
   </g>
   <g id="line2d_35">
    <path d="M 125.29308 284.4 
L 125.29308 7.2 
" clip-path="url(#p2666eb229c)" style="fill: none; stroke: #00bdbf; stroke-linecap: round"/>
   </g>
   <g id="line2d_36">
    <path d="M 137.33006 284.4 
L 137.33006 7.2 
" clip-path="url(#p2666eb229c)" style="fill: none; stroke: #00bdbf; stroke-linecap: round"/>
   </g>
   <g id="line2d_37">
    <path d="M 138.189844 284.4 
L 138.189844 7.2 
" clip-path="url(#p2666eb229c)" style="fill: none; stroke: #00bdbf; stroke-linecap: round"/>
   </g>
   <g id="line2d_38">
    <path d="M 133.890923 284.4 
L 133.890923 7.2 
" clip-path="url(#p2666eb229c)" style="fill: none; stroke: #00bdbf; stroke-linecap: round"/>
   </g>
   <g id="line2d_39">
    <path d="M 126.152864 284.4 
L 126.152864 7.2 
" clip-path="url(#p2666eb229c)" style="fill: none; stroke: #00bdbf; stroke-linecap: round"/>
   </g>
   <g id="line2d_40">
    <path d="M 139.909413 284.4 
L 139.909413 7.2 
" clip-path="url(#p2666eb229c)" style="fill: none; stroke: #00bdbf; stroke-linecap: round"/>
   </g>
   <g id="line2d_41">
    <path d="M 140.769197 284.4 
L 140.769197 7.2 
" clip-path="url(#p2666eb229c)" style="fill: none; stroke: #00bdbf; stroke-linecap: round"/>
   </g>
   <g id="line2d_42">
    <path d="M 143.34855 284.4 
L 143.34855 7.2 
" clip-path="url(#p2666eb229c)" style="fill: none; stroke: #00bdbf; stroke-linecap: round"/>
   </g>
   <g id="line2d_43">
    <path d="M 144.208334 284.4 
L 144.208334 7.2 
" clip-path="url(#p2666eb229c)" style="fill: none; stroke: #00bdbf; stroke-linecap: round"/>
   </g>
   <g id="line2d_44">
    <path d="M 145.068118 284.4 
L 145.068118 7.2 
" clip-path="url(#p2666eb229c)" style="fill: none; stroke: #00bdbf; stroke-linecap: round"/>
   </g>
   <g id="line2d_45">
    <path d="M 145.927903 284.4 
L 145.927903 7.2 
" clip-path="url(#p2666eb229c)" style="fill: none; stroke: #00bdbf; stroke-linecap: round"/>
   </g>
   <g id="line2d_46">
    <path d="M 133.890923 284.4 
L 133.890923 7.2 
" clip-path="url(#p2666eb229c)" style="fill: none; stroke: #00bdbf; stroke-linecap: round"/>
   </g>
   <g id="line2d_47">
    <path d="M 147.647471 284.4 
L 147.647471 7.2 
" clip-path="url(#p2666eb229c)" style="fill: none; stroke: #00bdbf; stroke-linecap: round"/>
   </g>
   <g id="line2d_48">
    <path d="M 149.36704 284.4 
L 149.36704 7.2 
" clip-path="url(#p2666eb229c)" style="fill: none; stroke: #00bdbf; stroke-linecap: round"/>
   </g>
   <g id="line2d_49">
    <path d="M 150.226824 284.4 
L 150.226824 7.2 
" clip-path="url(#p2666eb229c)" style="fill: none; stroke: #00bdbf; stroke-linecap: round"/>
   </g>
   <g id="line2d_50">
    <path d="M 133.031138 284.4 
L 133.031138 7.2 
" clip-path="url(#p2666eb229c)" style="fill: none; stroke: #00bdbf; stroke-linecap: round"/>
   </g>
   <g id="line2d_51">
    <path d="M 133.890923 284.4 
L 133.890923 7.2 
" clip-path="url(#p2666eb229c)" style="fill: none; stroke: #00bdbf; stroke-linecap: round"/>
   </g>
   <g id="line2d_52">
    <path d="M 151.086608 284.4 
L 151.086608 7.2 
" clip-path="url(#p2666eb229c)" style="fill: none; stroke: #00bdbf; stroke-linecap: round"/>
   </g>
   <g id="line2d_53">
    <path d="M 154.525745 284.4 
L 154.525745 7.2 
" clip-path="url(#p2666eb229c)" style="fill: none; stroke: #00bdbf; stroke-linecap: round"/>
   </g>
   <g id="line2d_54">
    <path d="M 156.245314 284.4 
L 156.245314 7.2 
" clip-path="url(#p2666eb229c)" style="fill: none; stroke: #00bdbf; stroke-linecap: round"/>
   </g>
   <g id="line2d_55">
    <path d="M 125.29308 284.4 
L 125.29308 7.2 
" clip-path="url(#p2666eb229c)" style="fill: none; stroke: #00bdbf; stroke-linecap: round"/>
   </g>
   <g id="line2d_56">
    <path d="M 133.031138 284.4 
L 133.031138 7.2 
" clip-path="url(#p2666eb229c)" style="fill: none; stroke: #00bdbf; stroke-linecap: round"/>
   </g>
   <g id="line2d_57">
    <path d="M 157.964883 284.4 
L 157.964883 7.2 
" clip-path="url(#p2666eb229c)" style="fill: none; stroke: #00bdbf; stroke-linecap: round"/>
   </g>
   <g id="line2d_58">
    <path d="M 159.684451 284.4 
L 159.684451 7.2 
" clip-path="url(#p2666eb229c)" style="fill: none; stroke: #00bdbf; stroke-linecap: round"/>
   </g>
   <g id="line2d_59">
    <path d="M 133.890923 284.4 
L 133.890923 7.2 
" clip-path="url(#p2666eb229c)" style="fill: none; stroke: #00bdbf; stroke-linecap: round"/>
   </g>
   <g id="line2d_60">
    <path d="M 162.263804 284.4 
L 162.263804 7.2 
" clip-path="url(#p2666eb229c)" style="fill: none; stroke: #00bdbf; stroke-linecap: round"/>
   </g>
   <g id="line2d_61">
    <path d="M 133.031138 284.4 
L 133.031138 7.2 
" clip-path="url(#p2666eb229c)" style="fill: none; stroke: #00bdbf; stroke-linecap: round"/>
   </g>
   <g id="line2d_62">
    <path d="M 126.152864 284.4 
L 126.152864 7.2 
" clip-path="url(#p2666eb229c)" style="fill: none; stroke: #00bdbf; stroke-linecap: round"/>
   </g>
   <g id="line2d_63">
    <path d="M 166.562725 284.4 
L 166.562725 7.2 
" clip-path="url(#p2666eb229c)" style="fill: none; stroke: #00bdbf; stroke-linecap: round"/>
   </g>
   <g id="line2d_64">
    <path d="M 127.012648 284.4 
L 127.012648 7.2 
" clip-path="url(#p2666eb229c)" style="fill: none; stroke: #00bdbf; stroke-linecap: round"/>
   </g>
   <g id="line2d_65">
    <path d="M 167.42251 284.4 
L 167.42251 7.2 
" clip-path="url(#p2666eb229c)" style="fill: none; stroke: #00bdbf; stroke-linecap: round"/>
   </g>
   <g id="line2d_66">
    <path d="M 168.282294 284.4 
L 168.282294 7.2 
" clip-path="url(#p2666eb229c)" style="fill: none; stroke: #00bdbf; stroke-linecap: round"/>
   </g>
   <g id="line2d_67">
    <path d="M 169.142078 284.4 
L 169.142078 7.2 
" clip-path="url(#p2666eb229c)" style="fill: none; stroke: #00bdbf; stroke-linecap: round"/>
   </g>
   <g id="line2d_68">
    <path d="M 170.001862 284.4 
L 170.001862 7.2 
" clip-path="url(#p2666eb229c)" style="fill: none; stroke: #00bdbf; stroke-linecap: round"/>
   </g>
   <g id="line2d_69">
    <path d="M 170.861647 284.4 
L 170.861647 7.2 
" clip-path="url(#p2666eb229c)" style="fill: none; stroke: #00bdbf; stroke-linecap: round"/>
   </g>
   <g id="line2d_70">
    <path d="M 171.721431 284.4 
L 171.721431 7.2 
" clip-path="url(#p2666eb229c)" style="fill: none; stroke: #00bdbf; stroke-linecap: round"/>
   </g>
   <g id="line2d_71">
    <path d="M 172.581215 284.4 
L 172.581215 7.2 
" clip-path="url(#p2666eb229c)" style="fill: none; stroke: #00bdbf; stroke-linecap: round"/>
   </g>
   <g id="line2d_72">
    <path d="M 127.012648 284.4 
L 127.012648 7.2 
" clip-path="url(#p2666eb229c)" style="fill: none; stroke: #00bdbf; stroke-linecap: round"/>
   </g>
   <g id="line2d_73">
    <path d="M 133.031138 284.4 
L 133.031138 7.2 
" clip-path="url(#p2666eb229c)" style="fill: none; stroke: #00bdbf; stroke-linecap: round"/>
   </g>
   <g id="line2d_74">
    <path d="M 125.29308 284.4 
L 125.29308 7.2 
" clip-path="url(#p2666eb229c)" style="fill: none; stroke: #fa824c; stroke-width: 4; stroke-linecap: round"/>
   </g>
   <g id="patch_23">
    <path d="M 78.77875 284.4 
L 78.77875 7.2 
" style="fill: none; stroke: #cccccc; stroke-width: 2.5; stroke-linejoin: miter; stroke-linecap: square"/>
   </g>
   <g id="patch_24">
    <path d="M 1083.17875 284.4 
L 1083.17875 7.2 
" style="fill: none; stroke: #cccccc; stroke-width: 2.5; stroke-linejoin: miter; stroke-linecap: square"/>
   </g>
   <g id="patch_25">
    <path d="M 78.77875 284.4 
L 1083.17875 284.4 
" style="fill: none; stroke: #cccccc; stroke-width: 2.5; stroke-linejoin: miter; stroke-linecap: square"/>
   </g>
   <g id="patch_26">
    <path d="M 78.77875 7.2 
L 1083.17875 7.2 
" style="fill: none; stroke: #cccccc; stroke-width: 2.5; stroke-linejoin: miter; stroke-linecap: square"/>
   </g>
  </g>
 </g>
 <defs>
  <clipPath id="p2666eb229c">
   <rect x="78.77875" y="7.2" width="1004.4" height="277.2"/>
  </clipPath>
 </defs>
</svg>
