<?xml version="1.0" encoding="utf-8" standalone="no"?>
<!DOCTYPE svg PUBLIC "-//W3C//DTD SVG 1.1//EN"
  "http://www.w3.org/Graphics/SVG/1.1/DTD/svg11.dtd">
<svg xmlns:xlink="http://www.w3.org/1999/xlink" width="1081.78pt" height="429.646862pt" viewBox="0 0 1081.78 429.646862" xmlns="http://www.w3.org/2000/svg" version="1.1">
 <metadata>
  <rdf:RDF xmlns:dc="http://purl.org/dc/elements/1.1/" xmlns:cc="http://creativecommons.org/ns#" xmlns:rdf="http://www.w3.org/1999/02/22-rdf-syntax-ns#">
   <cc:Work>
    <dc:type rdf:resource="http://purl.org/dc/dcmitype/StillImage"/>
    <dc:date>2025-03-01T00:16:00.074726</dc:date>
    <dc:format>image/svg+xml</dc:format>
    <dc:creator>
     <cc:Agent>
      <dc:title>Matplotlib v3.10.0, https://matplotlib.org/</dc:title>
     </cc:Agent>
    </dc:creator>
   </cc:Work>
  </rdf:RDF>
 </metadata>
 <defs>
  <style type="text/css">*{stroke-linejoin: round; stroke-linecap: butt}</style>
 </defs>
 <g id="figure_1">
  <g id="patch_1">
   <path d="M 0 429.646862 
L 1081.78 429.646862 
L 1081.78 0 
L 0 0 
z
" style="fill: #ffffff"/>
  </g>
  <g id="axes_1">
   <g id="patch_2">
    <path d="M 70.18 366.169987 
L 1074.58 366.169987 
L 1074.58 33.529987 
L 70.18 33.529987 
z
" style="fill: #ffffff"/>
   </g>
   <g id="matplotlib.axis_1">
    <g id="xtick_1">
     <g id="line2d_1">
      <path d="M 115.834545 366.169987 
L 115.834545 33.529987 
" clip-path="url(#p6bb98a7e9c)" style="fill: none; stroke: #cccccc; stroke-width: 2; stroke-linecap: round"/>
     </g>
     <g id="text_1">
      <!-- 0.0 -->
      <g style="fill: #262626" transform="translate(98.341108 398.38655) scale(0.22 -0.22)">
       <defs>
        <path id="DejaVuSans-30" d="M 2034 4250 
Q 1547 4250 1301 3770 
Q 1056 3291 1056 2328 
Q 1056 1369 1301 889 
Q 1547 409 2034 409 
Q 2525 409 2770 889 
Q 3016 1369 3016 2328 
Q 3016 3291 2770 3770 
Q 2525 4250 2034 4250 
z
M 2034 4750 
Q 2819 4750 3233 4129 
Q 3647 3509 3647 2328 
Q 3647 1150 3233 529 
Q 2819 -91 2034 -91 
Q 1250 -91 836 529 
Q 422 1150 422 2328 
Q 422 3509 836 4129 
Q 1250 4750 2034 4750 
z
" transform="scale(0.015625)"/>
        <path id="DejaVuSans-2e" d="M 684 794 
L 1344 794 
L 1344 0 
L 684 0 
L 684 794 
z
" transform="scale(0.015625)"/>
       </defs>
       <use xlink:href="#DejaVuSans-30"/>
       <use xlink:href="#DejaVuSans-2e" transform="translate(63.623047 0)"/>
       <use xlink:href="#DejaVuSans-30" transform="translate(95.410156 0)"/>
      </g>
     </g>
    </g>
    <g id="xtick_2">
     <g id="line2d_2">
      <path d="M 298.452727 366.169987 
L 298.452727 33.529987 
" clip-path="url(#p6bb98a7e9c)" style="fill: none; stroke: #cccccc; stroke-width: 2; stroke-linecap: round"/>
     </g>
     <g id="text_2">
      <!-- 0.2 -->
      <g style="fill: #262626" transform="translate(280.95929 398.38655) scale(0.22 -0.22)">
       <defs>
        <path id="DejaVuSans-32" d="M 1228 531 
L 3431 531 
L 3431 0 
L 469 0 
L 469 531 
Q 828 903 1448 1529 
Q 2069 2156 2228 2338 
Q 2531 2678 2651 2914 
Q 2772 3150 2772 3378 
Q 2772 3750 2511 3984 
Q 2250 4219 1831 4219 
Q 1534 4219 1204 4116 
Q 875 4013 500 3803 
L 500 4441 
Q 881 4594 1212 4672 
Q 1544 4750 1819 4750 
Q 2544 4750 2975 4387 
Q 3406 4025 3406 3419 
Q 3406 3131 3298 2873 
Q 3191 2616 2906 2266 
Q 2828 2175 2409 1742 
Q 1991 1309 1228 531 
z
" transform="scale(0.015625)"/>
       </defs>
       <use xlink:href="#DejaVuSans-30"/>
       <use xlink:href="#DejaVuSans-2e" transform="translate(63.623047 0)"/>
       <use xlink:href="#DejaVuSans-32" transform="translate(95.410156 0)"/>
      </g>
     </g>
    </g>
    <g id="xtick_3">
     <g id="line2d_3">
      <path d="M 481.070909 366.169987 
L 481.070909 33.529987 
" clip-path="url(#p6bb98a7e9c)" style="fill: none; stroke: #cccccc; stroke-width: 2; stroke-linecap: round"/>
     </g>
     <g id="text_3">
      <!-- 0.4 -->
      <g style="fill: #262626" transform="translate(463.577472 398.38655) scale(0.22 -0.22)">
       <defs>
        <path id="DejaVuSans-34" d="M 2419 4116 
L 825 1625 
L 2419 1625 
L 2419 4116 
z
M 2253 4666 
L 3047 4666 
L 3047 1625 
L 3713 1625 
L 3713 1100 
L 3047 1100 
L 3047 0 
L 2419 0 
L 2419 1100 
L 313 1100 
L 313 1709 
L 2253 4666 
z
" transform="scale(0.015625)"/>
       </defs>
       <use xlink:href="#DejaVuSans-30"/>
       <use xlink:href="#DejaVuSans-2e" transform="translate(63.623047 0)"/>
       <use xlink:href="#DejaVuSans-34" transform="translate(95.410156 0)"/>
      </g>
     </g>
    </g>
    <g id="xtick_4">
     <g id="line2d_4">
      <path d="M 663.689091 366.169987 
L 663.689091 33.529987 
" clip-path="url(#p6bb98a7e9c)" style="fill: none; stroke: #cccccc; stroke-width: 2; stroke-linecap: round"/>
     </g>
     <g id="text_4">
      <!-- 0.6 -->
      <g style="fill: #262626" transform="translate(646.195653 398.38655) scale(0.22 -0.22)">
       <defs>
        <path id="DejaVuSans-36" d="M 2113 2584 
Q 1688 2584 1439 2293 
Q 1191 2003 1191 1497 
Q 1191 994 1439 701 
Q 1688 409 2113 409 
Q 2538 409 2786 701 
Q 3034 994 3034 1497 
Q 3034 2003 2786 2293 
Q 2538 2584 2113 2584 
z
M 3366 4563 
L 3366 3988 
Q 3128 4100 2886 4159 
Q 2644 4219 2406 4219 
Q 1781 4219 1451 3797 
Q 1122 3375 1075 2522 
Q 1259 2794 1537 2939 
Q 1816 3084 2150 3084 
Q 2853 3084 3261 2657 
Q 3669 2231 3669 1497 
Q 3669 778 3244 343 
Q 2819 -91 2113 -91 
Q 1303 -91 875 529 
Q 447 1150 447 2328 
Q 447 3434 972 4092 
Q 1497 4750 2381 4750 
Q 2619 4750 2861 4703 
Q 3103 4656 3366 4563 
z
" transform="scale(0.015625)"/>
       </defs>
       <use xlink:href="#DejaVuSans-30"/>
       <use xlink:href="#DejaVuSans-2e" transform="translate(63.623047 0)"/>
       <use xlink:href="#DejaVuSans-36" transform="translate(95.410156 0)"/>
      </g>
     </g>
    </g>
    <g id="xtick_5">
     <g id="line2d_5">
      <path d="M 846.307273 366.169987 
L 846.307273 33.529987 
" clip-path="url(#p6bb98a7e9c)" style="fill: none; stroke: #cccccc; stroke-width: 2; stroke-linecap: round"/>
     </g>
     <g id="text_5">
      <!-- 0.8 -->
      <g style="fill: #262626" transform="translate(828.813835 398.38655) scale(0.22 -0.22)">
       <defs>
        <path id="DejaVuSans-38" d="M 2034 2216 
Q 1584 2216 1326 1975 
Q 1069 1734 1069 1313 
Q 1069 891 1326 650 
Q 1584 409 2034 409 
Q 2484 409 2743 651 
Q 3003 894 3003 1313 
Q 3003 1734 2745 1975 
Q 2488 2216 2034 2216 
z
M 1403 2484 
Q 997 2584 770 2862 
Q 544 3141 544 3541 
Q 544 4100 942 4425 
Q 1341 4750 2034 4750 
Q 2731 4750 3128 4425 
Q 3525 4100 3525 3541 
Q 3525 3141 3298 2862 
Q 3072 2584 2669 2484 
Q 3125 2378 3379 2068 
Q 3634 1759 3634 1313 
Q 3634 634 3220 271 
Q 2806 -91 2034 -91 
Q 1263 -91 848 271 
Q 434 634 434 1313 
Q 434 1759 690 2068 
Q 947 2378 1403 2484 
z
M 1172 3481 
Q 1172 3119 1398 2916 
Q 1625 2713 2034 2713 
Q 2441 2713 2670 2916 
Q 2900 3119 2900 3481 
Q 2900 3844 2670 4047 
Q 2441 4250 2034 4250 
Q 1625 4250 1398 4047 
Q 1172 3844 1172 3481 
z
" transform="scale(0.015625)"/>
       </defs>
       <use xlink:href="#DejaVuSans-30"/>
       <use xlink:href="#DejaVuSans-2e" transform="translate(63.623047 0)"/>
       <use xlink:href="#DejaVuSans-38" transform="translate(95.410156 0)"/>
      </g>
     </g>
    </g>
    <g id="xtick_6">
     <g id="line2d_6">
      <path d="M 1028.925455 366.169987 
L 1028.925455 33.529987 
" clip-path="url(#p6bb98a7e9c)" style="fill: none; stroke: #cccccc; stroke-width: 2; stroke-linecap: round"/>
     </g>
     <g id="text_6">
      <!-- 1.0 -->
      <g style="fill: #262626" transform="translate(1011.432017 398.38655) scale(0.22 -0.22)">
       <defs>
        <path id="DejaVuSans-31" d="M 794 531 
L 1825 531 
L 1825 4091 
L 703 3866 
L 703 4441 
L 1819 4666 
L 2450 4666 
L 2450 531 
L 3481 531 
L 3481 0 
L 794 0 
L 794 531 
z
" transform="scale(0.015625)"/>
       </defs>
       <use xlink:href="#DejaVuSans-31"/>
       <use xlink:href="#DejaVuSans-2e" transform="translate(63.623047 0)"/>
       <use xlink:href="#DejaVuSans-30" transform="translate(95.410156 0)"/>
      </g>
     </g>
    </g>
    <g id="text_7">
     <!-- Similarity -->
     <g style="fill: #262626" transform="translate(534.55625 419.119362) scale(0.16 -0.16)">
      <defs>
       <path id="DejaVuSans-53" d="M 3425 4513 
L 3425 3897 
Q 3066 4069 2747 4153 
Q 2428 4238 2131 4238 
Q 1616 4238 1336 4038 
Q 1056 3838 1056 3469 
Q 1056 3159 1242 3001 
Q 1428 2844 1947 2747 
L 2328 2669 
Q 3034 2534 3370 2195 
Q 3706 1856 3706 1288 
Q 3706 609 3251 259 
Q 2797 -91 1919 -91 
Q 1588 -91 1214 -16 
Q 841 59 441 206 
L 441 856 
Q 825 641 1194 531 
Q 1563 422 1919 422 
Q 2459 422 2753 634 
Q 3047 847 3047 1241 
Q 3047 1584 2836 1778 
Q 2625 1972 2144 2069 
L 1759 2144 
Q 1053 2284 737 2584 
Q 422 2884 422 3419 
Q 422 4038 858 4394 
Q 1294 4750 2059 4750 
Q 2388 4750 2728 4690 
Q 3069 4631 3425 4513 
z
" transform="scale(0.015625)"/>
       <path id="DejaVuSans-69" d="M 603 3500 
L 1178 3500 
L 1178 0 
L 603 0 
L 603 3500 
z
M 603 4863 
L 1178 4863 
L 1178 4134 
L 603 4134 
L 603 4863 
z
" transform="scale(0.015625)"/>
       <path id="DejaVuSans-6d" d="M 3328 2828 
Q 3544 3216 3844 3400 
Q 4144 3584 4550 3584 
Q 5097 3584 5394 3201 
Q 5691 2819 5691 2113 
L 5691 0 
L 5113 0 
L 5113 2094 
Q 5113 2597 4934 2840 
Q 4756 3084 4391 3084 
Q 3944 3084 3684 2787 
Q 3425 2491 3425 1978 
L 3425 0 
L 2847 0 
L 2847 2094 
Q 2847 2600 2669 2842 
Q 2491 3084 2119 3084 
Q 1678 3084 1418 2786 
Q 1159 2488 1159 1978 
L 1159 0 
L 581 0 
L 581 3500 
L 1159 3500 
L 1159 2956 
Q 1356 3278 1631 3431 
Q 1906 3584 2284 3584 
Q 2666 3584 2933 3390 
Q 3200 3197 3328 2828 
z
" transform="scale(0.015625)"/>
       <path id="DejaVuSans-6c" d="M 603 4863 
L 1178 4863 
L 1178 0 
L 603 0 
L 603 4863 
z
" transform="scale(0.015625)"/>
       <path id="DejaVuSans-61" d="M 2194 1759 
Q 1497 1759 1228 1600 
Q 959 1441 959 1056 
Q 959 750 1161 570 
Q 1363 391 1709 391 
Q 2188 391 2477 730 
Q 2766 1069 2766 1631 
L 2766 1759 
L 2194 1759 
z
M 3341 1997 
L 3341 0 
L 2766 0 
L 2766 531 
Q 2569 213 2275 61 
Q 1981 -91 1556 -91 
Q 1019 -91 701 211 
Q 384 513 384 1019 
Q 384 1609 779 1909 
Q 1175 2209 1959 2209 
L 2766 2209 
L 2766 2266 
Q 2766 2663 2505 2880 
Q 2244 3097 1772 3097 
Q 1472 3097 1187 3025 
Q 903 2953 641 2809 
L 641 3341 
Q 956 3463 1253 3523 
Q 1550 3584 1831 3584 
Q 2591 3584 2966 3190 
Q 3341 2797 3341 1997 
z
" transform="scale(0.015625)"/>
       <path id="DejaVuSans-72" d="M 2631 2963 
Q 2534 3019 2420 3045 
Q 2306 3072 2169 3072 
Q 1681 3072 1420 2755 
Q 1159 2438 1159 1844 
L 1159 0 
L 581 0 
L 581 3500 
L 1159 3500 
L 1159 2956 
Q 1341 3275 1631 3429 
Q 1922 3584 2338 3584 
Q 2397 3584 2469 3576 
Q 2541 3569 2628 3553 
L 2631 2963 
z
" transform="scale(0.015625)"/>
       <path id="DejaVuSans-74" d="M 1172 4494 
L 1172 3500 
L 2356 3500 
L 2356 3053 
L 1172 3053 
L 1172 1153 
Q 1172 725 1289 603 
Q 1406 481 1766 481 
L 2356 481 
L 2356 0 
L 1766 0 
Q 1100 0 847 248 
Q 594 497 594 1153 
L 594 3053 
L 172 3053 
L 172 3500 
L 594 3500 
L 594 4494 
L 1172 4494 
z
" transform="scale(0.015625)"/>
       <path id="DejaVuSans-79" d="M 2059 -325 
Q 1816 -950 1584 -1140 
Q 1353 -1331 966 -1331 
L 506 -1331 
L 506 -850 
L 844 -850 
Q 1081 -850 1212 -737 
Q 1344 -625 1503 -206 
L 1606 56 
L 191 3500 
L 800 3500 
L 1894 763 
L 2988 3500 
L 3597 3500 
L 2059 -325 
z
" transform="scale(0.015625)"/>
      </defs>
      <use xlink:href="#DejaVuSans-53"/>
      <use xlink:href="#DejaVuSans-69" transform="translate(63.476562 0)"/>
      <use xlink:href="#DejaVuSans-6d" transform="translate(91.259766 0)"/>
      <use xlink:href="#DejaVuSans-69" transform="translate(188.671875 0)"/>
      <use xlink:href="#DejaVuSans-6c" transform="translate(216.455078 0)"/>
      <use xlink:href="#DejaVuSans-61" transform="translate(244.238281 0)"/>
      <use xlink:href="#DejaVuSans-72" transform="translate(305.517578 0)"/>
      <use xlink:href="#DejaVuSans-69" transform="translate(346.630859 0)"/>
      <use xlink:href="#DejaVuSans-74" transform="translate(374.414062 0)"/>
      <use xlink:href="#DejaVuSans-79" transform="translate(413.623047 0)"/>
     </g>
    </g>
   </g>
   <g id="matplotlib.axis_2">
    <g id="ytick_1">
     <g id="line2d_7">
      <path d="M 70.18 366.169987 
L 1074.58 366.169987 
" clip-path="url(#p6bb98a7e9c)" style="fill: none; stroke: #cccccc; stroke-width: 2; stroke-linecap: round"/>
     </g>
     <g id="text_8">
      <!-- 0 -->
      <g style="fill: #262626" transform="translate(40.6825 374.528269) scale(0.22 -0.22)">
       <use xlink:href="#DejaVuSans-30"/>
      </g>
     </g>
    </g>
    <g id="ytick_2">
     <g id="line2d_8">
      <path d="M 70.18 298.040955 
L 1074.58 298.040955 
" clip-path="url(#p6bb98a7e9c)" style="fill: none; stroke: #cccccc; stroke-width: 2; stroke-linecap: round"/>
     </g>
     <g id="text_9">
      <!-- 20 -->
      <g style="fill: #262626" transform="translate(26.685 306.399236) scale(0.22 -0.22)">
       <use xlink:href="#DejaVuSans-32"/>
       <use xlink:href="#DejaVuSans-30" transform="translate(63.623047 0)"/>
      </g>
     </g>
    </g>
    <g id="ytick_3">
     <g id="line2d_9">
      <path d="M 70.18 229.911923 
L 1074.58 229.911923 
" clip-path="url(#p6bb98a7e9c)" style="fill: none; stroke: #cccccc; stroke-width: 2; stroke-linecap: round"/>
     </g>
     <g id="text_10">
      <!-- 40 -->
      <g style="fill: #262626" transform="translate(26.685 238.270204) scale(0.22 -0.22)">
       <use xlink:href="#DejaVuSans-34"/>
       <use xlink:href="#DejaVuSans-30" transform="translate(63.623047 0)"/>
      </g>
     </g>
    </g>
    <g id="ytick_4">
     <g id="line2d_10">
      <path d="M 70.18 161.782891 
L 1074.58 161.782891 
" clip-path="url(#p6bb98a7e9c)" style="fill: none; stroke: #cccccc; stroke-width: 2; stroke-linecap: round"/>
     </g>
     <g id="text_11">
      <!-- 60 -->
      <g style="fill: #262626" transform="translate(26.685 170.141172) scale(0.22 -0.22)">
       <use xlink:href="#DejaVuSans-36"/>
       <use xlink:href="#DejaVuSans-30" transform="translate(63.623047 0)"/>
      </g>
     </g>
    </g>
    <g id="ytick_5">
     <g id="line2d_11">
      <path d="M 70.18 93.653858 
L 1074.58 93.653858 
" clip-path="url(#p6bb98a7e9c)" style="fill: none; stroke: #cccccc; stroke-width: 2; stroke-linecap: round"/>
     </g>
     <g id="text_12">
      <!-- 80 -->
      <g style="fill: #262626" transform="translate(26.685 102.01214) scale(0.22 -0.22)">
       <use xlink:href="#DejaVuSans-38"/>
       <use xlink:href="#DejaVuSans-30" transform="translate(63.623047 0)"/>
      </g>
     </g>
    </g>
    <g id="text_13">
     <!-- Accounts -->
     <g style="fill: #262626" transform="translate(19.3575 236.318737) rotate(-90) scale(0.16 -0.16)">
      <defs>
       <path id="DejaVuSans-41" d="M 2188 4044 
L 1331 1722 
L 3047 1722 
L 2188 4044 
z
M 1831 4666 
L 2547 4666 
L 4325 0 
L 3669 0 
L 3244 1197 
L 1141 1197 
L 716 0 
L 50 0 
L 1831 4666 
z
" transform="scale(0.015625)"/>
       <path id="DejaVuSans-63" d="M 3122 3366 
L 3122 2828 
Q 2878 2963 2633 3030 
Q 2388 3097 2138 3097 
Q 1578 3097 1268 2742 
Q 959 2388 959 1747 
Q 959 1106 1268 751 
Q 1578 397 2138 397 
Q 2388 397 2633 464 
Q 2878 531 3122 666 
L 3122 134 
Q 2881 22 2623 -34 
Q 2366 -91 2075 -91 
Q 1284 -91 818 406 
Q 353 903 353 1747 
Q 353 2603 823 3093 
Q 1294 3584 2113 3584 
Q 2378 3584 2631 3529 
Q 2884 3475 3122 3366 
z
" transform="scale(0.015625)"/>
       <path id="DejaVuSans-6f" d="M 1959 3097 
Q 1497 3097 1228 2736 
Q 959 2375 959 1747 
Q 959 1119 1226 758 
Q 1494 397 1959 397 
Q 2419 397 2687 759 
Q 2956 1122 2956 1747 
Q 2956 2369 2687 2733 
Q 2419 3097 1959 3097 
z
M 1959 3584 
Q 2709 3584 3137 3096 
Q 3566 2609 3566 1747 
Q 3566 888 3137 398 
Q 2709 -91 1959 -91 
Q 1206 -91 779 398 
Q 353 888 353 1747 
Q 353 2609 779 3096 
Q 1206 3584 1959 3584 
z
" transform="scale(0.015625)"/>
       <path id="DejaVuSans-75" d="M 544 1381 
L 544 3500 
L 1119 3500 
L 1119 1403 
Q 1119 906 1312 657 
Q 1506 409 1894 409 
Q 2359 409 2629 706 
Q 2900 1003 2900 1516 
L 2900 3500 
L 3475 3500 
L 3475 0 
L 2900 0 
L 2900 538 
Q 2691 219 2414 64 
Q 2138 -91 1772 -91 
Q 1169 -91 856 284 
Q 544 659 544 1381 
z
M 1991 3584 
L 1991 3584 
z
" transform="scale(0.015625)"/>
       <path id="DejaVuSans-6e" d="M 3513 2113 
L 3513 0 
L 2938 0 
L 2938 2094 
Q 2938 2591 2744 2837 
Q 2550 3084 2163 3084 
Q 1697 3084 1428 2787 
Q 1159 2491 1159 1978 
L 1159 0 
L 581 0 
L 581 3500 
L 1159 3500 
L 1159 2956 
Q 1366 3272 1645 3428 
Q 1925 3584 2291 3584 
Q 2894 3584 3203 3211 
Q 3513 2838 3513 2113 
z
" transform="scale(0.015625)"/>
       <path id="DejaVuSans-73" d="M 2834 3397 
L 2834 2853 
Q 2591 2978 2328 3040 
Q 2066 3103 1784 3103 
Q 1356 3103 1142 2972 
Q 928 2841 928 2578 
Q 928 2378 1081 2264 
Q 1234 2150 1697 2047 
L 1894 2003 
Q 2506 1872 2764 1633 
Q 3022 1394 3022 966 
Q 3022 478 2636 193 
Q 2250 -91 1575 -91 
Q 1294 -91 989 -36 
Q 684 19 347 128 
L 347 722 
Q 666 556 975 473 
Q 1284 391 1588 391 
Q 1994 391 2212 530 
Q 2431 669 2431 922 
Q 2431 1156 2273 1281 
Q 2116 1406 1581 1522 
L 1381 1569 
Q 847 1681 609 1914 
Q 372 2147 372 2553 
Q 372 3047 722 3315 
Q 1072 3584 1716 3584 
Q 2034 3584 2315 3537 
Q 2597 3491 2834 3397 
z
" transform="scale(0.015625)"/>
      </defs>
      <use xlink:href="#DejaVuSans-41"/>
      <use xlink:href="#DejaVuSans-63" transform="translate(66.658203 0)"/>
      <use xlink:href="#DejaVuSans-63" transform="translate(121.638672 0)"/>
      <use xlink:href="#DejaVuSans-6f" transform="translate(176.619141 0)"/>
      <use xlink:href="#DejaVuSans-75" transform="translate(237.800781 0)"/>
      <use xlink:href="#DejaVuSans-6e" transform="translate(301.179688 0)"/>
      <use xlink:href="#DejaVuSans-74" transform="translate(364.558594 0)"/>
      <use xlink:href="#DejaVuSans-73" transform="translate(403.767578 0)"/>
     </g>
    </g>
   </g>
   <g id="patch_3">
    <path d="M 115.834545 366.169987 
L 124.965455 366.169987 
L 124.965455 49.369987 
L 115.834545 49.369987 
z
" clip-path="url(#p6bb98a7e9c)" style="fill: #f3f1e9; stroke: #000000; stroke-width: 2; stroke-linejoin: miter"/>
   </g>
   <g id="patch_4">
    <path d="M 124.965455 366.169987 
L 134.096364 366.169987 
L 134.096364 366.169987 
L 124.965455 366.169987 
z
" clip-path="url(#p6bb98a7e9c)" style="fill: #f3f1e9; stroke: #000000; stroke-width: 2; stroke-linejoin: miter"/>
   </g>
   <g id="patch_5">
    <path d="M 134.096364 366.169987 
L 143.227273 366.169987 
L 143.227273 287.8216 
L 134.096364 287.8216 
z
" clip-path="url(#p6bb98a7e9c)" style="fill: #f3f1e9; stroke: #000000; stroke-width: 2; stroke-linejoin: miter"/>
   </g>
   <g id="patch_6">
    <path d="M 143.227273 366.169987 
L 152.358182 366.169987 
L 152.358182 366.169987 
L 143.227273 366.169987 
z
" clip-path="url(#p6bb98a7e9c)" style="fill: #f3f1e9; stroke: #000000; stroke-width: 2; stroke-linejoin: miter"/>
   </g>
   <g id="patch_7">
    <path d="M 152.358182 366.169987 
L 161.489091 366.169987 
L 161.489091 366.169987 
L 152.358182 366.169987 
z
" clip-path="url(#p6bb98a7e9c)" style="fill: #f3f1e9; stroke: #000000; stroke-width: 2; stroke-linejoin: miter"/>
   </g>
   <g id="patch_8">
    <path d="M 161.489091 366.169987 
L 170.62 366.169987 
L 170.62 342.324826 
L 161.489091 342.324826 
z
" clip-path="url(#p6bb98a7e9c)" style="fill: #f3f1e9; stroke: #000000; stroke-width: 2; stroke-linejoin: miter"/>
   </g>
   <g id="patch_9">
    <path d="M 170.62 366.169987 
L 179.750909 366.169987 
L 179.750909 366.169987 
L 170.62 366.169987 
z
" clip-path="url(#p6bb98a7e9c)" style="fill: #f3f1e9; stroke: #000000; stroke-width: 2; stroke-linejoin: miter"/>
   </g>
   <g id="patch_10">
    <path d="M 179.750909 366.169987 
L 188.881818 366.169987 
L 188.881818 366.169987 
L 179.750909 366.169987 
z
" clip-path="url(#p6bb98a7e9c)" style="fill: #f3f1e9; stroke: #000000; stroke-width: 2; stroke-linejoin: miter"/>
   </g>
   <g id="patch_11">
    <path d="M 188.881818 366.169987 
L 198.012727 366.169987 
L 198.012727 355.950633 
L 188.881818 355.950633 
z
" clip-path="url(#p6bb98a7e9c)" style="fill: #f3f1e9; stroke: #000000; stroke-width: 2; stroke-linejoin: miter"/>
   </g>
   <g id="patch_12">
    <path d="M 198.012727 366.169987 
L 207.143636 366.169987 
L 207.143636 366.169987 
L 198.012727 366.169987 
z
" clip-path="url(#p6bb98a7e9c)" style="fill: #f3f1e9; stroke: #000000; stroke-width: 2; stroke-linejoin: miter"/>
   </g>
   <g id="patch_13">
    <path d="M 207.143636 366.169987 
L 216.274545 366.169987 
L 216.274545 366.169987 
L 207.143636 366.169987 
z
" clip-path="url(#p6bb98a7e9c)" style="fill: #f3f1e9; stroke: #000000; stroke-width: 2; stroke-linejoin: miter"/>
   </g>
   <g id="patch_14">
    <path d="M 216.274545 366.169987 
L 225.405455 366.169987 
L 225.405455 359.357084 
L 216.274545 359.357084 
z
" clip-path="url(#p6bb98a7e9c)" style="fill: #f3f1e9; stroke: #000000; stroke-width: 2; stroke-linejoin: miter"/>
   </g>
   <g id="patch_15">
    <path d="M 225.405455 366.169987 
L 234.536364 366.169987 
L 234.536364 366.169987 
L 225.405455 366.169987 
z
" clip-path="url(#p6bb98a7e9c)" style="fill: #f3f1e9; stroke: #000000; stroke-width: 2; stroke-linejoin: miter"/>
   </g>
   <g id="patch_16">
    <path d="M 234.536364 366.169987 
L 243.667273 366.169987 
L 243.667273 362.763536 
L 234.536364 362.763536 
z
" clip-path="url(#p6bb98a7e9c)" style="fill: #f3f1e9; stroke: #000000; stroke-width: 2; stroke-linejoin: miter"/>
   </g>
   <g id="patch_17">
    <path d="M 243.667273 366.169987 
L 252.798182 366.169987 
L 252.798182 355.950633 
L 243.667273 355.950633 
z
" clip-path="url(#p6bb98a7e9c)" style="fill: #f3f1e9; stroke: #000000; stroke-width: 2; stroke-linejoin: miter"/>
   </g>
   <g id="patch_18">
    <path d="M 252.798182 366.169987 
L 261.929091 366.169987 
L 261.929091 366.169987 
L 252.798182 366.169987 
z
" clip-path="url(#p6bb98a7e9c)" style="fill: #f3f1e9; stroke: #000000; stroke-width: 2; stroke-linejoin: miter"/>
   </g>
   <g id="patch_19">
    <path d="M 261.929091 366.169987 
L 271.06 366.169987 
L 271.06 359.357084 
L 261.929091 359.357084 
z
" clip-path="url(#p6bb98a7e9c)" style="fill: #f3f1e9; stroke: #000000; stroke-width: 2; stroke-linejoin: miter"/>
   </g>
   <g id="patch_20">
    <path d="M 271.06 366.169987 
L 280.190909 366.169987 
L 280.190909 362.763536 
L 271.06 362.763536 
z
" clip-path="url(#p6bb98a7e9c)" style="fill: #f3f1e9; stroke: #000000; stroke-width: 2; stroke-linejoin: miter"/>
   </g>
   <g id="patch_21">
    <path d="M 280.190909 366.169987 
L 289.321818 366.169987 
L 289.321818 362.763536 
L 280.190909 362.763536 
z
" clip-path="url(#p6bb98a7e9c)" style="fill: #f3f1e9; stroke: #000000; stroke-width: 2; stroke-linejoin: miter"/>
   </g>
   <g id="patch_22">
    <path d="M 289.321818 366.169987 
L 298.452727 366.169987 
L 298.452727 362.763536 
L 289.321818 362.763536 
z
" clip-path="url(#p6bb98a7e9c)" style="fill: #f3f1e9; stroke: #000000; stroke-width: 2; stroke-linejoin: miter"/>
   </g>
   <g id="patch_23">
    <path d="M 298.452727 366.169987 
L 307.583636 366.169987 
L 307.583636 362.763536 
L 298.452727 362.763536 
z
" clip-path="url(#p6bb98a7e9c)" style="fill: #f3f1e9; stroke: #000000; stroke-width: 2; stroke-linejoin: miter"/>
   </g>
   <g id="patch_24">
    <path d="M 307.583636 366.169987 
L 316.714545 366.169987 
L 316.714545 362.763536 
L 307.583636 362.763536 
z
" clip-path="url(#p6bb98a7e9c)" style="fill: #f3f1e9; stroke: #000000; stroke-width: 2; stroke-linejoin: miter"/>
   </g>
   <g id="patch_25">
    <path d="M 316.714545 366.169987 
L 325.845455 366.169987 
L 325.845455 362.763536 
L 316.714545 362.763536 
z
" clip-path="url(#p6bb98a7e9c)" style="fill: #f3f1e9; stroke: #000000; stroke-width: 2; stroke-linejoin: miter"/>
   </g>
   <g id="patch_26">
    <path d="M 325.845455 366.169987 
L 334.976364 366.169987 
L 334.976364 366.169987 
L 325.845455 366.169987 
z
" clip-path="url(#p6bb98a7e9c)" style="fill: #f3f1e9; stroke: #000000; stroke-width: 2; stroke-linejoin: miter"/>
   </g>
   <g id="patch_27">
    <path d="M 334.976364 366.169987 
L 344.107273 366.169987 
L 344.107273 362.763536 
L 334.976364 362.763536 
z
" clip-path="url(#p6bb98a7e9c)" style="fill: #f3f1e9; stroke: #000000; stroke-width: 2; stroke-linejoin: miter"/>
   </g>
   <g id="patch_28">
    <path d="M 344.107273 366.169987 
L 353.238182 366.169987 
L 353.238182 366.169987 
L 344.107273 366.169987 
z
" clip-path="url(#p6bb98a7e9c)" style="fill: #f3f1e9; stroke: #000000; stroke-width: 2; stroke-linejoin: miter"/>
   </g>
   <g id="patch_29">
    <path d="M 353.238182 366.169987 
L 362.369091 366.169987 
L 362.369091 366.169987 
L 353.238182 366.169987 
z
" clip-path="url(#p6bb98a7e9c)" style="fill: #f3f1e9; stroke: #000000; stroke-width: 2; stroke-linejoin: miter"/>
   </g>
   <g id="patch_30">
    <path d="M 362.369091 366.169987 
L 371.5 366.169987 
L 371.5 366.169987 
L 362.369091 366.169987 
z
" clip-path="url(#p6bb98a7e9c)" style="fill: #f3f1e9; stroke: #000000; stroke-width: 2; stroke-linejoin: miter"/>
   </g>
   <g id="patch_31">
    <path d="M 371.5 366.169987 
L 380.630909 366.169987 
L 380.630909 366.169987 
L 371.5 366.169987 
z
" clip-path="url(#p6bb98a7e9c)" style="fill: #f3f1e9; stroke: #000000; stroke-width: 2; stroke-linejoin: miter"/>
   </g>
   <g id="patch_32">
    <path d="M 380.630909 366.169987 
L 389.761818 366.169987 
L 389.761818 362.763536 
L 380.630909 362.763536 
z
" clip-path="url(#p6bb98a7e9c)" style="fill: #f3f1e9; stroke: #000000; stroke-width: 2; stroke-linejoin: miter"/>
   </g>
   <g id="patch_33">
    <path d="M 389.761818 366.169987 
L 398.892727 366.169987 
L 398.892727 366.169987 
L 389.761818 366.169987 
z
" clip-path="url(#p6bb98a7e9c)" style="fill: #f3f1e9; stroke: #000000; stroke-width: 2; stroke-linejoin: miter"/>
   </g>
   <g id="patch_34">
    <path d="M 398.892727 366.169987 
L 408.023636 366.169987 
L 408.023636 366.169987 
L 398.892727 366.169987 
z
" clip-path="url(#p6bb98a7e9c)" style="fill: #f3f1e9; stroke: #000000; stroke-width: 2; stroke-linejoin: miter"/>
   </g>
   <g id="patch_35">
    <path d="M 408.023636 366.169987 
L 417.154545 366.169987 
L 417.154545 366.169987 
L 408.023636 366.169987 
z
" clip-path="url(#p6bb98a7e9c)" style="fill: #f3f1e9; stroke: #000000; stroke-width: 2; stroke-linejoin: miter"/>
   </g>
   <g id="patch_36">
    <path d="M 417.154545 366.169987 
L 426.285455 366.169987 
L 426.285455 366.169987 
L 417.154545 366.169987 
z
" clip-path="url(#p6bb98a7e9c)" style="fill: #f3f1e9; stroke: #000000; stroke-width: 2; stroke-linejoin: miter"/>
   </g>
   <g id="patch_37">
    <path d="M 426.285455 366.169987 
L 435.416364 366.169987 
L 435.416364 366.169987 
L 426.285455 366.169987 
z
" clip-path="url(#p6bb98a7e9c)" style="fill: #f3f1e9; stroke: #000000; stroke-width: 2; stroke-linejoin: miter"/>
   </g>
   <g id="patch_38">
    <path d="M 435.416364 366.169987 
L 444.547273 366.169987 
L 444.547273 366.169987 
L 435.416364 366.169987 
z
" clip-path="url(#p6bb98a7e9c)" style="fill: #f3f1e9; stroke: #000000; stroke-width: 2; stroke-linejoin: miter"/>
   </g>
   <g id="patch_39">
    <path d="M 444.547273 366.169987 
L 453.678182 366.169987 
L 453.678182 366.169987 
L 444.547273 366.169987 
z
" clip-path="url(#p6bb98a7e9c)" style="fill: #f3f1e9; stroke: #000000; stroke-width: 2; stroke-linejoin: miter"/>
   </g>
   <g id="patch_40">
    <path d="M 453.678182 366.169987 
L 462.809091 366.169987 
L 462.809091 366.169987 
L 453.678182 366.169987 
z
" clip-path="url(#p6bb98a7e9c)" style="fill: #f3f1e9; stroke: #000000; stroke-width: 2; stroke-linejoin: miter"/>
   </g>
   <g id="patch_41">
    <path d="M 462.809091 366.169987 
L 471.94 366.169987 
L 471.94 366.169987 
L 462.809091 366.169987 
z
" clip-path="url(#p6bb98a7e9c)" style="fill: #f3f1e9; stroke: #000000; stroke-width: 2; stroke-linejoin: miter"/>
   </g>
   <g id="patch_42">
    <path d="M 471.94 366.169987 
L 481.070909 366.169987 
L 481.070909 366.169987 
L 471.94 366.169987 
z
" clip-path="url(#p6bb98a7e9c)" style="fill: #f3f1e9; stroke: #000000; stroke-width: 2; stroke-linejoin: miter"/>
   </g>
   <g id="patch_43">
    <path d="M 481.070909 366.169987 
L 490.201818 366.169987 
L 490.201818 366.169987 
L 481.070909 366.169987 
z
" clip-path="url(#p6bb98a7e9c)" style="fill: #f3f1e9; stroke: #000000; stroke-width: 2; stroke-linejoin: miter"/>
   </g>
   <g id="patch_44">
    <path d="M 490.201818 366.169987 
L 499.332727 366.169987 
L 499.332727 366.169987 
L 490.201818 366.169987 
z
" clip-path="url(#p6bb98a7e9c)" style="fill: #f3f1e9; stroke: #000000; stroke-width: 2; stroke-linejoin: miter"/>
   </g>
   <g id="patch_45">
    <path d="M 499.332727 366.169987 
L 508.463636 366.169987 
L 508.463636 366.169987 
L 499.332727 366.169987 
z
" clip-path="url(#p6bb98a7e9c)" style="fill: #f3f1e9; stroke: #000000; stroke-width: 2; stroke-linejoin: miter"/>
   </g>
   <g id="patch_46">
    <path d="M 508.463636 366.169987 
L 517.594545 366.169987 
L 517.594545 366.169987 
L 508.463636 366.169987 
z
" clip-path="url(#p6bb98a7e9c)" style="fill: #f3f1e9; stroke: #000000; stroke-width: 2; stroke-linejoin: miter"/>
   </g>
   <g id="patch_47">
    <path d="M 517.594545 366.169987 
L 526.725455 366.169987 
L 526.725455 366.169987 
L 517.594545 366.169987 
z
" clip-path="url(#p6bb98a7e9c)" style="fill: #f3f1e9; stroke: #000000; stroke-width: 2; stroke-linejoin: miter"/>
   </g>
   <g id="patch_48">
    <path d="M 526.725455 366.169987 
L 535.856364 366.169987 
L 535.856364 366.169987 
L 526.725455 366.169987 
z
" clip-path="url(#p6bb98a7e9c)" style="fill: #f3f1e9; stroke: #000000; stroke-width: 2; stroke-linejoin: miter"/>
   </g>
   <g id="patch_49">
    <path d="M 535.856364 366.169987 
L 544.987273 366.169987 
L 544.987273 366.169987 
L 535.856364 366.169987 
z
" clip-path="url(#p6bb98a7e9c)" style="fill: #f3f1e9; stroke: #000000; stroke-width: 2; stroke-linejoin: miter"/>
   </g>
   <g id="patch_50">
    <path d="M 544.987273 366.169987 
L 554.118182 366.169987 
L 554.118182 366.169987 
L 544.987273 366.169987 
z
" clip-path="url(#p6bb98a7e9c)" style="fill: #f3f1e9; stroke: #000000; stroke-width: 2; stroke-linejoin: miter"/>
   </g>
   <g id="patch_51">
    <path d="M 554.118182 366.169987 
L 563.249091 366.169987 
L 563.249091 366.169987 
L 554.118182 366.169987 
z
" clip-path="url(#p6bb98a7e9c)" style="fill: #f3f1e9; stroke: #000000; stroke-width: 2; stroke-linejoin: miter"/>
   </g>
   <g id="patch_52">
    <path d="M 563.249091 366.169987 
L 572.38 366.169987 
L 572.38 366.169987 
L 563.249091 366.169987 
z
" clip-path="url(#p6bb98a7e9c)" style="fill: #f3f1e9; stroke: #000000; stroke-width: 2; stroke-linejoin: miter"/>
   </g>
   <g id="patch_53">
    <path d="M 572.38 366.169987 
L 581.510909 366.169987 
L 581.510909 366.169987 
L 572.38 366.169987 
z
" clip-path="url(#p6bb98a7e9c)" style="fill: #f3f1e9; stroke: #000000; stroke-width: 2; stroke-linejoin: miter"/>
   </g>
   <g id="patch_54">
    <path d="M 581.510909 366.169987 
L 590.641818 366.169987 
L 590.641818 366.169987 
L 581.510909 366.169987 
z
" clip-path="url(#p6bb98a7e9c)" style="fill: #f3f1e9; stroke: #000000; stroke-width: 2; stroke-linejoin: miter"/>
   </g>
   <g id="patch_55">
    <path d="M 590.641818 366.169987 
L 599.772727 366.169987 
L 599.772727 366.169987 
L 590.641818 366.169987 
z
" clip-path="url(#p6bb98a7e9c)" style="fill: #f3f1e9; stroke: #000000; stroke-width: 2; stroke-linejoin: miter"/>
   </g>
   <g id="patch_56">
    <path d="M 599.772727 366.169987 
L 608.903636 366.169987 
L 608.903636 366.169987 
L 599.772727 366.169987 
z
" clip-path="url(#p6bb98a7e9c)" style="fill: #f3f1e9; stroke: #000000; stroke-width: 2; stroke-linejoin: miter"/>
   </g>
   <g id="patch_57">
    <path d="M 608.903636 366.169987 
L 618.034545 366.169987 
L 618.034545 366.169987 
L 608.903636 366.169987 
z
" clip-path="url(#p6bb98a7e9c)" style="fill: #f3f1e9; stroke: #000000; stroke-width: 2; stroke-linejoin: miter"/>
   </g>
   <g id="patch_58">
    <path d="M 618.034545 366.169987 
L 627.165455 366.169987 
L 627.165455 366.169987 
L 618.034545 366.169987 
z
" clip-path="url(#p6bb98a7e9c)" style="fill: #f3f1e9; stroke: #000000; stroke-width: 2; stroke-linejoin: miter"/>
   </g>
   <g id="patch_59">
    <path d="M 627.165455 366.169987 
L 636.296364 366.169987 
L 636.296364 366.169987 
L 627.165455 366.169987 
z
" clip-path="url(#p6bb98a7e9c)" style="fill: #f3f1e9; stroke: #000000; stroke-width: 2; stroke-linejoin: miter"/>
   </g>
   <g id="patch_60">
    <path d="M 636.296364 366.169987 
L 645.427273 366.169987 
L 645.427273 366.169987 
L 636.296364 366.169987 
z
" clip-path="url(#p6bb98a7e9c)" style="fill: #f3f1e9; stroke: #000000; stroke-width: 2; stroke-linejoin: miter"/>
   </g>
   <g id="patch_61">
    <path d="M 645.427273 366.169987 
L 654.558182 366.169987 
L 654.558182 366.169987 
L 645.427273 366.169987 
z
" clip-path="url(#p6bb98a7e9c)" style="fill: #f3f1e9; stroke: #000000; stroke-width: 2; stroke-linejoin: miter"/>
   </g>
   <g id="patch_62">
    <path d="M 654.558182 366.169987 
L 663.689091 366.169987 
L 663.689091 366.169987 
L 654.558182 366.169987 
z
" clip-path="url(#p6bb98a7e9c)" style="fill: #f3f1e9; stroke: #000000; stroke-width: 2; stroke-linejoin: miter"/>
   </g>
   <g id="patch_63">
    <path d="M 663.689091 366.169987 
L 672.82 366.169987 
L 672.82 366.169987 
L 663.689091 366.169987 
z
" clip-path="url(#p6bb98a7e9c)" style="fill: #f3f1e9; stroke: #000000; stroke-width: 2; stroke-linejoin: miter"/>
   </g>
   <g id="patch_64">
    <path d="M 672.82 366.169987 
L 681.950909 366.169987 
L 681.950909 366.169987 
L 672.82 366.169987 
z
" clip-path="url(#p6bb98a7e9c)" style="fill: #f3f1e9; stroke: #000000; stroke-width: 2; stroke-linejoin: miter"/>
   </g>
   <g id="patch_65">
    <path d="M 681.950909 366.169987 
L 691.081818 366.169987 
L 691.081818 366.169987 
L 681.950909 366.169987 
z
" clip-path="url(#p6bb98a7e9c)" style="fill: #f3f1e9; stroke: #000000; stroke-width: 2; stroke-linejoin: miter"/>
   </g>
   <g id="patch_66">
    <path d="M 691.081818 366.169987 
L 700.212727 366.169987 
L 700.212727 366.169987 
L 691.081818 366.169987 
z
" clip-path="url(#p6bb98a7e9c)" style="fill: #f3f1e9; stroke: #000000; stroke-width: 2; stroke-linejoin: miter"/>
   </g>
   <g id="patch_67">
    <path d="M 700.212727 366.169987 
L 709.343636 366.169987 
L 709.343636 366.169987 
L 700.212727 366.169987 
z
" clip-path="url(#p6bb98a7e9c)" style="fill: #f3f1e9; stroke: #000000; stroke-width: 2; stroke-linejoin: miter"/>
   </g>
   <g id="patch_68">
    <path d="M 709.343636 366.169987 
L 718.474545 366.169987 
L 718.474545 366.169987 
L 709.343636 366.169987 
z
" clip-path="url(#p6bb98a7e9c)" style="fill: #f3f1e9; stroke: #000000; stroke-width: 2; stroke-linejoin: miter"/>
   </g>
   <g id="patch_69">
    <path d="M 718.474545 366.169987 
L 727.605455 366.169987 
L 727.605455 366.169987 
L 718.474545 366.169987 
z
" clip-path="url(#p6bb98a7e9c)" style="fill: #f3f1e9; stroke: #000000; stroke-width: 2; stroke-linejoin: miter"/>
   </g>
   <g id="patch_70">
    <path d="M 727.605455 366.169987 
L 736.736364 366.169987 
L 736.736364 366.169987 
L 727.605455 366.169987 
z
" clip-path="url(#p6bb98a7e9c)" style="fill: #f3f1e9; stroke: #000000; stroke-width: 2; stroke-linejoin: miter"/>
   </g>
   <g id="patch_71">
    <path d="M 736.736364 366.169987 
L 745.867273 366.169987 
L 745.867273 366.169987 
L 736.736364 366.169987 
z
" clip-path="url(#p6bb98a7e9c)" style="fill: #f3f1e9; stroke: #000000; stroke-width: 2; stroke-linejoin: miter"/>
   </g>
   <g id="patch_72">
    <path d="M 745.867273 366.169987 
L 754.998182 366.169987 
L 754.998182 366.169987 
L 745.867273 366.169987 
z
" clip-path="url(#p6bb98a7e9c)" style="fill: #f3f1e9; stroke: #000000; stroke-width: 2; stroke-linejoin: miter"/>
   </g>
   <g id="patch_73">
    <path d="M 754.998182 366.169987 
L 764.129091 366.169987 
L 764.129091 366.169987 
L 754.998182 366.169987 
z
" clip-path="url(#p6bb98a7e9c)" style="fill: #f3f1e9; stroke: #000000; stroke-width: 2; stroke-linejoin: miter"/>
   </g>
   <g id="patch_74">
    <path d="M 764.129091 366.169987 
L 773.26 366.169987 
L 773.26 366.169987 
L 764.129091 366.169987 
z
" clip-path="url(#p6bb98a7e9c)" style="fill: #f3f1e9; stroke: #000000; stroke-width: 2; stroke-linejoin: miter"/>
   </g>
   <g id="patch_75">
    <path d="M 773.26 366.169987 
L 782.390909 366.169987 
L 782.390909 366.169987 
L 773.26 366.169987 
z
" clip-path="url(#p6bb98a7e9c)" style="fill: #f3f1e9; stroke: #000000; stroke-width: 2; stroke-linejoin: miter"/>
   </g>
   <g id="patch_76">
    <path d="M 782.390909 366.169987 
L 791.521818 366.169987 
L 791.521818 366.169987 
L 782.390909 366.169987 
z
" clip-path="url(#p6bb98a7e9c)" style="fill: #f3f1e9; stroke: #000000; stroke-width: 2; stroke-linejoin: miter"/>
   </g>
   <g id="patch_77">
    <path d="M 791.521818 366.169987 
L 800.652727 366.169987 
L 800.652727 366.169987 
L 791.521818 366.169987 
z
" clip-path="url(#p6bb98a7e9c)" style="fill: #f3f1e9; stroke: #000000; stroke-width: 2; stroke-linejoin: miter"/>
   </g>
   <g id="patch_78">
    <path d="M 800.652727 366.169987 
L 809.783636 366.169987 
L 809.783636 366.169987 
L 800.652727 366.169987 
z
" clip-path="url(#p6bb98a7e9c)" style="fill: #f3f1e9; stroke: #000000; stroke-width: 2; stroke-linejoin: miter"/>
   </g>
   <g id="patch_79">
    <path d="M 809.783636 366.169987 
L 818.914545 366.169987 
L 818.914545 366.169987 
L 809.783636 366.169987 
z
" clip-path="url(#p6bb98a7e9c)" style="fill: #f3f1e9; stroke: #000000; stroke-width: 2; stroke-linejoin: miter"/>
   </g>
   <g id="patch_80">
    <path d="M 818.914545 366.169987 
L 828.045455 366.169987 
L 828.045455 366.169987 
L 818.914545 366.169987 
z
" clip-path="url(#p6bb98a7e9c)" style="fill: #f3f1e9; stroke: #000000; stroke-width: 2; stroke-linejoin: miter"/>
   </g>
   <g id="patch_81">
    <path d="M 828.045455 366.169987 
L 837.176364 366.169987 
L 837.176364 366.169987 
L 828.045455 366.169987 
z
" clip-path="url(#p6bb98a7e9c)" style="fill: #f3f1e9; stroke: #000000; stroke-width: 2; stroke-linejoin: miter"/>
   </g>
   <g id="patch_82">
    <path d="M 837.176364 366.169987 
L 846.307273 366.169987 
L 846.307273 366.169987 
L 837.176364 366.169987 
z
" clip-path="url(#p6bb98a7e9c)" style="fill: #f3f1e9; stroke: #000000; stroke-width: 2; stroke-linejoin: miter"/>
   </g>
   <g id="patch_83">
    <path d="M 846.307273 366.169987 
L 855.438182 366.169987 
L 855.438182 366.169987 
L 846.307273 366.169987 
z
" clip-path="url(#p6bb98a7e9c)" style="fill: #f3f1e9; stroke: #000000; stroke-width: 2; stroke-linejoin: miter"/>
   </g>
   <g id="patch_84">
    <path d="M 855.438182 366.169987 
L 864.569091 366.169987 
L 864.569091 366.169987 
L 855.438182 366.169987 
z
" clip-path="url(#p6bb98a7e9c)" style="fill: #f3f1e9; stroke: #000000; stroke-width: 2; stroke-linejoin: miter"/>
   </g>
   <g id="patch_85">
    <path d="M 864.569091 366.169987 
L 873.7 366.169987 
L 873.7 366.169987 
L 864.569091 366.169987 
z
" clip-path="url(#p6bb98a7e9c)" style="fill: #f3f1e9; stroke: #000000; stroke-width: 2; stroke-linejoin: miter"/>
   </g>
   <g id="patch_86">
    <path d="M 873.7 366.169987 
L 882.830909 366.169987 
L 882.830909 366.169987 
L 873.7 366.169987 
z
" clip-path="url(#p6bb98a7e9c)" style="fill: #f3f1e9; stroke: #000000; stroke-width: 2; stroke-linejoin: miter"/>
   </g>
   <g id="patch_87">
    <path d="M 882.830909 366.169987 
L 891.961818 366.169987 
L 891.961818 366.169987 
L 882.830909 366.169987 
z
" clip-path="url(#p6bb98a7e9c)" style="fill: #f3f1e9; stroke: #000000; stroke-width: 2; stroke-linejoin: miter"/>
   </g>
   <g id="patch_88">
    <path d="M 891.961818 366.169987 
L 901.092727 366.169987 
L 901.092727 366.169987 
L 891.961818 366.169987 
z
" clip-path="url(#p6bb98a7e9c)" style="fill: #f3f1e9; stroke: #000000; stroke-width: 2; stroke-linejoin: miter"/>
   </g>
   <g id="patch_89">
    <path d="M 901.092727 366.169987 
L 910.223636 366.169987 
L 910.223636 366.169987 
L 901.092727 366.169987 
z
" clip-path="url(#p6bb98a7e9c)" style="fill: #f3f1e9; stroke: #000000; stroke-width: 2; stroke-linejoin: miter"/>
   </g>
   <g id="patch_90">
    <path d="M 910.223636 366.169987 
L 919.354545 366.169987 
L 919.354545 366.169987 
L 910.223636 366.169987 
z
" clip-path="url(#p6bb98a7e9c)" style="fill: #f3f1e9; stroke: #000000; stroke-width: 2; stroke-linejoin: miter"/>
   </g>
   <g id="patch_91">
    <path d="M 919.354545 366.169987 
L 928.485455 366.169987 
L 928.485455 366.169987 
L 919.354545 366.169987 
z
" clip-path="url(#p6bb98a7e9c)" style="fill: #f3f1e9; stroke: #000000; stroke-width: 2; stroke-linejoin: miter"/>
   </g>
   <g id="patch_92">
    <path d="M 928.485455 366.169987 
L 937.616364 366.169987 
L 937.616364 366.169987 
L 928.485455 366.169987 
z
" clip-path="url(#p6bb98a7e9c)" style="fill: #f3f1e9; stroke: #000000; stroke-width: 2; stroke-linejoin: miter"/>
   </g>
   <g id="patch_93">
    <path d="M 937.616364 366.169987 
L 946.747273 366.169987 
L 946.747273 366.169987 
L 937.616364 366.169987 
z
" clip-path="url(#p6bb98a7e9c)" style="fill: #f3f1e9; stroke: #000000; stroke-width: 2; stroke-linejoin: miter"/>
   </g>
   <g id="patch_94">
    <path d="M 946.747273 366.169987 
L 955.878182 366.169987 
L 955.878182 366.169987 
L 946.747273 366.169987 
z
" clip-path="url(#p6bb98a7e9c)" style="fill: #f3f1e9; stroke: #000000; stroke-width: 2; stroke-linejoin: miter"/>
   </g>
   <g id="patch_95">
    <path d="M 955.878182 366.169987 
L 965.009091 366.169987 
L 965.009091 366.169987 
L 955.878182 366.169987 
z
" clip-path="url(#p6bb98a7e9c)" style="fill: #f3f1e9; stroke: #000000; stroke-width: 2; stroke-linejoin: miter"/>
   </g>
   <g id="patch_96">
    <path d="M 965.009091 366.169987 
L 974.14 366.169987 
L 974.14 366.169987 
L 965.009091 366.169987 
z
" clip-path="url(#p6bb98a7e9c)" style="fill: #f3f1e9; stroke: #000000; stroke-width: 2; stroke-linejoin: miter"/>
   </g>
   <g id="patch_97">
    <path d="M 974.14 366.169987 
L 983.270909 366.169987 
L 983.270909 366.169987 
L 974.14 366.169987 
z
" clip-path="url(#p6bb98a7e9c)" style="fill: #f3f1e9; stroke: #000000; stroke-width: 2; stroke-linejoin: miter"/>
   </g>
   <g id="patch_98">
    <path d="M 983.270909 366.169987 
L 992.401818 366.169987 
L 992.401818 366.169987 
L 983.270909 366.169987 
z
" clip-path="url(#p6bb98a7e9c)" style="fill: #f3f1e9; stroke: #000000; stroke-width: 2; stroke-linejoin: miter"/>
   </g>
   <g id="patch_99">
    <path d="M 992.401818 366.169987 
L 1001.532727 366.169987 
L 1001.532727 366.169987 
L 992.401818 366.169987 
z
" clip-path="url(#p6bb98a7e9c)" style="fill: #f3f1e9; stroke: #000000; stroke-width: 2; stroke-linejoin: miter"/>
   </g>
   <g id="patch_100">
    <path d="M 1001.532727 366.169987 
L 1010.663636 366.169987 
L 1010.663636 366.169987 
L 1001.532727 366.169987 
z
" clip-path="url(#p6bb98a7e9c)" style="fill: #f3f1e9; stroke: #000000; stroke-width: 2; stroke-linejoin: miter"/>
   </g>
   <g id="patch_101">
    <path d="M 1010.663636 366.169987 
L 1019.794545 366.169987 
L 1019.794545 366.169987 
L 1010.663636 366.169987 
z
" clip-path="url(#p6bb98a7e9c)" style="fill: #f3f1e9; stroke: #000000; stroke-width: 2; stroke-linejoin: miter"/>
   </g>
   <g id="patch_102">
    <path d="M 1019.794545 366.169987 
L 1028.925455 366.169987 
L 1028.925455 362.763536 
L 1019.794545 362.763536 
z
" clip-path="url(#p6bb98a7e9c)" style="fill: #f3f1e9; stroke: #000000; stroke-width: 2; stroke-linejoin: miter"/>
   </g>
   <g id="line2d_12">
    <path d="M 1028.925455 366.169987 
L 1028.925455 33.529987 
" clip-path="url(#p6bb98a7e9c)" style="fill: none; stroke: #fa824c; stroke-width: 3; stroke-linecap: round"/>
   </g>
   <g id="patch_103">
    <path d="M 70.18 366.169987 
L 70.18 33.529987 
" style="fill: none; stroke: #cccccc; stroke-width: 2.5; stroke-linejoin: miter; stroke-linecap: square"/>
   </g>
   <g id="patch_104">
    <path d="M 1074.58 366.169987 
L 1074.58 33.529987 
" style="fill: none; stroke: #cccccc; stroke-width: 2.5; stroke-linejoin: miter; stroke-linecap: square"/>
   </g>
   <g id="patch_105">
    <path d="M 70.18 366.169987 
L 1074.58 366.169987 
" style="fill: none; stroke: #cccccc; stroke-width: 2.5; stroke-linejoin: miter; stroke-linecap: square"/>
   </g>
   <g id="patch_106">
    <path d="M 70.18 33.529987 
L 1074.58 33.529987 
" style="fill: none; stroke: #cccccc; stroke-width: 2.5; stroke-linejoin: miter; stroke-linecap: square"/>
   </g>
   <g id="text_14">
    <!-- Jaccard similarity distribution of @openp2pdesign -->
    <g style="fill: #262626" transform="translate(348.137969 20.877187) scale(0.18 -0.18)">
     <defs>
      <path id="DejaVuSans-4a" d="M 628 4666 
L 1259 4666 
L 1259 325 
Q 1259 -519 939 -900 
Q 619 -1281 -91 -1281 
L -331 -1281 
L -331 -750 
L -134 -750 
Q 284 -750 456 -515 
Q 628 -281 628 325 
L 628 4666 
z
" transform="scale(0.015625)"/>
      <path id="DejaVuSans-64" d="M 2906 2969 
L 2906 4863 
L 3481 4863 
L 3481 0 
L 2906 0 
L 2906 525 
Q 2725 213 2448 61 
Q 2172 -91 1784 -91 
Q 1150 -91 751 415 
Q 353 922 353 1747 
Q 353 2572 751 3078 
Q 1150 3584 1784 3584 
Q 2172 3584 2448 3432 
Q 2725 3281 2906 2969 
z
M 947 1747 
Q 947 1113 1208 752 
Q 1469 391 1925 391 
Q 2381 391 2643 752 
Q 2906 1113 2906 1747 
Q 2906 2381 2643 2742 
Q 2381 3103 1925 3103 
Q 1469 3103 1208 2742 
Q 947 2381 947 1747 
z
" transform="scale(0.015625)"/>
      <path id="DejaVuSans-20" transform="scale(0.015625)"/>
      <path id="DejaVuSans-62" d="M 3116 1747 
Q 3116 2381 2855 2742 
Q 2594 3103 2138 3103 
Q 1681 3103 1420 2742 
Q 1159 2381 1159 1747 
Q 1159 1113 1420 752 
Q 1681 391 2138 391 
Q 2594 391 2855 752 
Q 3116 1113 3116 1747 
z
M 1159 2969 
Q 1341 3281 1617 3432 
Q 1894 3584 2278 3584 
Q 2916 3584 3314 3078 
Q 3713 2572 3713 1747 
Q 3713 922 3314 415 
Q 2916 -91 2278 -91 
Q 1894 -91 1617 61 
Q 1341 213 1159 525 
L 1159 0 
L 581 0 
L 581 4863 
L 1159 4863 
L 1159 2969 
z
" transform="scale(0.015625)"/>
      <path id="DejaVuSans-66" d="M 2375 4863 
L 2375 4384 
L 1825 4384 
Q 1516 4384 1395 4259 
Q 1275 4134 1275 3809 
L 1275 3500 
L 2222 3500 
L 2222 3053 
L 1275 3053 
L 1275 0 
L 697 0 
L 697 3053 
L 147 3053 
L 147 3500 
L 697 3500 
L 697 3744 
Q 697 4328 969 4595 
Q 1241 4863 1831 4863 
L 2375 4863 
z
" transform="scale(0.015625)"/>
      <path id="DejaVuSans-40" d="M 2381 1678 
Q 2381 1231 2603 976 
Q 2825 722 3213 722 
Q 3597 722 3817 978 
Q 4038 1234 4038 1678 
Q 4038 2116 3813 2373 
Q 3588 2631 3206 2631 
Q 2828 2631 2604 2375 
Q 2381 2119 2381 1678 
z
M 4084 744 
Q 3897 503 3655 389 
Q 3413 275 3091 275 
Q 2553 275 2217 664 
Q 1881 1053 1881 1678 
Q 1881 2303 2218 2693 
Q 2556 3084 3091 3084 
Q 3413 3084 3656 2967 
Q 3900 2850 4084 2613 
L 4084 3022 
L 4531 3022 
L 4531 722 
Q 4988 791 5245 1139 
Q 5503 1488 5503 2041 
Q 5503 2375 5404 2669 
Q 5306 2963 5106 3213 
Q 4781 3622 4314 3839 
Q 3847 4056 3297 4056 
Q 2913 4056 2559 3954 
Q 2206 3853 1906 3653 
Q 1416 3334 1139 2817 
Q 863 2300 863 1697 
Q 863 1200 1042 765 
Q 1222 331 1563 0 
Q 1891 -325 2322 -495 
Q 2753 -666 3244 -666 
Q 3647 -666 4036 -530 
Q 4425 -394 4750 -141 
L 5031 -488 
Q 4641 -791 4180 -952 
Q 3719 -1113 3244 -1113 
Q 2666 -1113 2153 -908 
Q 1641 -703 1241 -313 
Q 841 78 631 592 
Q 422 1106 422 1697 
Q 422 2266 634 2781 
Q 847 3297 1241 3688 
Q 1644 4084 2172 4295 
Q 2700 4506 3291 4506 
Q 3953 4506 4520 4234 
Q 5088 3963 5472 3463 
Q 5706 3156 5829 2797 
Q 5953 2438 5953 2053 
Q 5953 1231 5456 756 
Q 4959 281 4084 263 
L 4084 744 
z
" transform="scale(0.015625)"/>
      <path id="DejaVuSans-70" d="M 1159 525 
L 1159 -1331 
L 581 -1331 
L 581 3500 
L 1159 3500 
L 1159 2969 
Q 1341 3281 1617 3432 
Q 1894 3584 2278 3584 
Q 2916 3584 3314 3078 
Q 3713 2572 3713 1747 
Q 3713 922 3314 415 
Q 2916 -91 2278 -91 
Q 1894 -91 1617 61 
Q 1341 213 1159 525 
z
M 3116 1747 
Q 3116 2381 2855 2742 
Q 2594 3103 2138 3103 
Q 1681 3103 1420 2742 
Q 1159 2381 1159 1747 
Q 1159 1113 1420 752 
Q 1681 391 2138 391 
Q 2594 391 2855 752 
Q 3116 1113 3116 1747 
z
" transform="scale(0.015625)"/>
      <path id="DejaVuSans-65" d="M 3597 1894 
L 3597 1613 
L 953 1613 
Q 991 1019 1311 708 
Q 1631 397 2203 397 
Q 2534 397 2845 478 
Q 3156 559 3463 722 
L 3463 178 
Q 3153 47 2828 -22 
Q 2503 -91 2169 -91 
Q 1331 -91 842 396 
Q 353 884 353 1716 
Q 353 2575 817 3079 
Q 1281 3584 2069 3584 
Q 2775 3584 3186 3129 
Q 3597 2675 3597 1894 
z
M 3022 2063 
Q 3016 2534 2758 2815 
Q 2500 3097 2075 3097 
Q 1594 3097 1305 2825 
Q 1016 2553 972 2059 
L 3022 2063 
z
" transform="scale(0.015625)"/>
      <path id="DejaVuSans-67" d="M 2906 1791 
Q 2906 2416 2648 2759 
Q 2391 3103 1925 3103 
Q 1463 3103 1205 2759 
Q 947 2416 947 1791 
Q 947 1169 1205 825 
Q 1463 481 1925 481 
Q 2391 481 2648 825 
Q 2906 1169 2906 1791 
z
M 3481 434 
Q 3481 -459 3084 -895 
Q 2688 -1331 1869 -1331 
Q 1566 -1331 1297 -1286 
Q 1028 -1241 775 -1147 
L 775 -588 
Q 1028 -725 1275 -790 
Q 1522 -856 1778 -856 
Q 2344 -856 2625 -561 
Q 2906 -266 2906 331 
L 2906 616 
Q 2728 306 2450 153 
Q 2172 0 1784 0 
Q 1141 0 747 490 
Q 353 981 353 1791 
Q 353 2603 747 3093 
Q 1141 3584 1784 3584 
Q 2172 3584 2450 3431 
Q 2728 3278 2906 2969 
L 2906 3500 
L 3481 3500 
L 3481 434 
z
" transform="scale(0.015625)"/>
     </defs>
     <use xlink:href="#DejaVuSans-4a"/>
     <use xlink:href="#DejaVuSans-61" transform="translate(29.492188 0)"/>
     <use xlink:href="#DejaVuSans-63" transform="translate(90.771484 0)"/>
     <use xlink:href="#DejaVuSans-63" transform="translate(145.751953 0)"/>
     <use xlink:href="#DejaVuSans-61" transform="translate(200.732422 0)"/>
     <use xlink:href="#DejaVuSans-72" transform="translate(262.011719 0)"/>
     <use xlink:href="#DejaVuSans-64" transform="translate(301.375 0)"/>
     <use xlink:href="#DejaVuSans-20" transform="translate(364.851562 0)"/>
     <use xlink:href="#DejaVuSans-73" transform="translate(396.638672 0)"/>
     <use xlink:href="#DejaVuSans-69" transform="translate(448.738281 0)"/>
     <use xlink:href="#DejaVuSans-6d" transform="translate(476.521484 0)"/>
     <use xlink:href="#DejaVuSans-69" transform="translate(573.933594 0)"/>
     <use xlink:href="#DejaVuSans-6c" transform="translate(601.716797 0)"/>
     <use xlink:href="#DejaVuSans-61" transform="translate(629.5 0)"/>
     <use xlink:href="#DejaVuSans-72" transform="translate(690.779297 0)"/>
     <use xlink:href="#DejaVuSans-69" transform="translate(731.892578 0)"/>
     <use xlink:href="#DejaVuSans-74" transform="translate(759.675781 0)"/>
     <use xlink:href="#DejaVuSans-79" transform="translate(798.884766 0)"/>
     <use xlink:href="#DejaVuSans-20" transform="translate(858.064453 0)"/>
     <use xlink:href="#DejaVuSans-64" transform="translate(889.851562 0)"/>
     <use xlink:href="#DejaVuSans-69" transform="translate(953.328125 0)"/>
     <use xlink:href="#DejaVuSans-73" transform="translate(981.111328 0)"/>
     <use xlink:href="#DejaVuSans-74" transform="translate(1033.210938 0)"/>
     <use xlink:href="#DejaVuSans-72" transform="translate(1072.419922 0)"/>
     <use xlink:href="#DejaVuSans-69" transform="translate(1113.533203 0)"/>
     <use xlink:href="#DejaVuSans-62" transform="translate(1141.316406 0)"/>
     <use xlink:href="#DejaVuSans-75" transform="translate(1204.792969 0)"/>
     <use xlink:href="#DejaVuSans-74" transform="translate(1268.171875 0)"/>
     <use xlink:href="#DejaVuSans-69" transform="translate(1307.380859 0)"/>
     <use xlink:href="#DejaVuSans-6f" transform="translate(1335.164062 0)"/>
     <use xlink:href="#DejaVuSans-6e" transform="translate(1396.345703 0)"/>
     <use xlink:href="#DejaVuSans-20" transform="translate(1459.724609 0)"/>
     <use xlink:href="#DejaVuSans-6f" transform="translate(1491.511719 0)"/>
     <use xlink:href="#DejaVuSans-66" transform="translate(1552.693359 0)"/>
     <use xlink:href="#DejaVuSans-20" transform="translate(1587.898438 0)"/>
     <use xlink:href="#DejaVuSans-40" transform="translate(1619.685547 0)"/>
     <use xlink:href="#DejaVuSans-6f" transform="translate(1719.685547 0)"/>
     <use xlink:href="#DejaVuSans-70" transform="translate(1780.867188 0)"/>
     <use xlink:href="#DejaVuSans-65" transform="translate(1844.34375 0)"/>
     <use xlink:href="#DejaVuSans-6e" transform="translate(1905.867188 0)"/>
     <use xlink:href="#DejaVuSans-70" transform="translate(1969.246094 0)"/>
     <use xlink:href="#DejaVuSans-32" transform="translate(2032.722656 0)"/>
     <use xlink:href="#DejaVuSans-70" transform="translate(2096.345703 0)"/>
     <use xlink:href="#DejaVuSans-64" transform="translate(2159.822266 0)"/>
     <use xlink:href="#DejaVuSans-65" transform="translate(2223.298828 0)"/>
     <use xlink:href="#DejaVuSans-73" transform="translate(2284.822266 0)"/>
     <use xlink:href="#DejaVuSans-69" transform="translate(2336.921875 0)"/>
     <use xlink:href="#DejaVuSans-67" transform="translate(2364.705078 0)"/>
     <use xlink:href="#DejaVuSans-6e" transform="translate(2428.181641 0)"/>
    </g>
   </g>
  </g>
 </g>
 <defs>
  <clipPath id="p6bb98a7e9c">
   <rect x="70.18" y="33.529987" width="1004.4" height="332.64"/>
  </clipPath>
 </defs>
</svg>
