<?xml version="1.0" encoding="utf-8" standalone="no"?>
<!DOCTYPE svg PUBLIC "-//W3C//DTD SVG 1.1//EN"
  "http://www.w3.org/Graphics/SVG/1.1/DTD/svg11.dtd">
<svg xmlns:xlink="http://www.w3.org/1999/xlink" width="1804.0925pt" height="905.26405pt" viewBox="0 0 1804.0925 905.26405" xmlns="http://www.w3.org/2000/svg" version="1.1">
 <metadata>
  <rdf:RDF xmlns:dc="http://purl.org/dc/elements/1.1/" xmlns:cc="http://creativecommons.org/ns#" xmlns:rdf="http://www.w3.org/1999/02/22-rdf-syntax-ns#">
   <cc:Work>
    <dc:type rdf:resource="http://purl.org/dc/dcmitype/StillImage"/>
    <dc:date>2025-03-01T00:24:09.307111</dc:date>
    <dc:format>image/svg+xml</dc:format>
    <dc:creator>
     <cc:Agent>
      <dc:title>Matplotlib v3.10.1, https://matplotlib.org/</dc:title>
     </cc:Agent>
    </dc:creator>
   </cc:Work>
  </rdf:RDF>
 </metadata>
 <defs>
  <style type="text/css">*{stroke-linejoin: round; stroke-linecap: butt}</style>
 </defs>
 <g id="figure_1">
  <g id="patch_1">
   <path d="M 0 905.26405 
L 1804.0925 905.26405 
L 1804.0925 0 
L 0 0 
z
" style="fill: #ffffff"/>
  </g>
  <g id="axes_1">
   <g id="patch_2">
    <path d="M 122.8925 371.9928 
L 1796.8925 371.9928 
L 1796.8925 39.3528 
L 122.8925 39.3528 
z
" style="fill: #ffffff"/>
   </g>
   <g id="matplotlib.axis_1">
    <g id="xtick_1">
     <g id="line2d_1">
      <path d="M 140.513553 371.9928 
L 140.513553 39.3528 
" clip-path="url(#p7802ff0d97)" style="fill: none; stroke: #cccccc; stroke-width: 2; stroke-linecap: round"/>
     </g>
     <g id="text_1">
      <!-- 2007 -->
      <g style="fill: #262626" transform="translate(117.908553 403.9928) scale(0.22 -0.22)">
       <defs>
        <path id="FiraSans-Regular-32" d="M 1459 4346 
Q 1843 4346 2134 4192 
Q 2426 4038 2586 3772 
Q 2746 3507 2746 3174 
Q 2746 2784 2570 2425 
Q 2394 2067 2029 1651 
Q 1664 1235 922 493 
L 2848 493 
L 2778 0 
L 250 0 
L 250 467 
Q 1107 1357 1465 1769 
Q 1824 2182 1977 2489 
Q 2131 2797 2131 3149 
Q 2131 3482 1939 3670 
Q 1747 3859 1427 3859 
Q 1165 3859 966 3750 
Q 768 3642 544 3392 
L 160 3699 
Q 422 4026 742 4186 
Q 1062 4346 1459 4346 
z
" transform="scale(0.015625)"/>
        <path id="FiraSans-Regular-30" d="M 1786 4346 
Q 2496 4346 2857 3779 
Q 3219 3213 3219 2138 
Q 3219 1062 2857 492 
Q 2496 -77 1786 -77 
Q 1075 -77 713 492 
Q 352 1062 352 2138 
Q 352 3213 713 3779 
Q 1075 4346 1786 4346 
z
M 1786 3878 
Q 1370 3878 1168 3468 
Q 966 3059 966 2138 
Q 966 1216 1168 803 
Q 1370 390 1786 390 
Q 2195 390 2400 803 
Q 2605 1216 2605 2138 
Q 2605 3053 2400 3465 
Q 2195 3878 1786 3878 
z
" transform="scale(0.015625)"/>
        <path id="FiraSans-Regular-37" d="M 2650 4282 
L 2650 3840 
L 1050 -64 
L 512 115 
L 2054 3802 
L 160 3802 
L 160 4282 
L 2650 4282 
z
" transform="scale(0.015625)"/>
       </defs>
       <use xlink:href="#FiraSans-Regular-32"/>
       <use xlink:href="#FiraSans-Regular-30" transform="translate(49.499985 0)"/>
       <use xlink:href="#FiraSans-Regular-30" transform="translate(105.299973 0)"/>
       <use xlink:href="#FiraSans-Regular-37" transform="translate(161.09996 0)"/>
      </g>
     </g>
    </g>
    <g id="xtick_2">
     <g id="line2d_2">
      <path d="M 351.966184 371.9928 
L 351.966184 39.3528 
" clip-path="url(#p7802ff0d97)" style="fill: none; stroke: #cccccc; stroke-width: 2; stroke-linecap: round"/>
     </g>
     <g id="text_2">
      <!-- 2009 -->
      <g style="fill: #262626" transform="translate(328.470872 403.9928) scale(0.22 -0.22)">
       <defs>
        <path id="FiraSans-Regular-39" d="M 1658 4346 
Q 2336 4346 2688 3901 
Q 3040 3456 3040 2682 
Q 3040 1805 2803 1270 
Q 2566 736 2080 419 
Q 1594 102 762 -141 
L 627 301 
Q 1485 544 1942 960 
Q 2400 1376 2432 2067 
Q 2285 1837 2035 1696 
Q 1786 1555 1472 1555 
Q 1139 1555 870 1724 
Q 602 1894 445 2204 
Q 288 2515 288 2931 
Q 288 3366 473 3686 
Q 659 4006 969 4176 
Q 1280 4346 1658 4346 
z
M 1594 2016 
Q 2099 2016 2445 2547 
Q 2458 3258 2269 3568 
Q 2080 3878 1670 3878 
Q 1293 3878 1088 3628 
Q 883 3379 883 2918 
Q 883 2470 1075 2243 
Q 1267 2016 1594 2016 
z
" transform="scale(0.015625)"/>
       </defs>
       <use xlink:href="#FiraSans-Regular-32"/>
       <use xlink:href="#FiraSans-Regular-30" transform="translate(49.499985 0)"/>
       <use xlink:href="#FiraSans-Regular-30" transform="translate(105.299973 0)"/>
       <use xlink:href="#FiraSans-Regular-39" transform="translate(161.09996 0)"/>
      </g>
     </g>
    </g>
    <g id="xtick_3">
     <g id="line2d_3">
      <path d="M 563.418816 371.9928 
L 563.418816 39.3528 
" clip-path="url(#p7802ff0d97)" style="fill: none; stroke: #cccccc; stroke-width: 2; stroke-linecap: round"/>
     </g>
     <g id="text_3">
      <!-- 2011 -->
      <g style="fill: #262626" transform="translate(542.310847 403.9928) scale(0.22 -0.22)">
       <defs>
        <path id="FiraSans-Regular-31" d="M 2067 4282 
L 2067 0 
L 1478 0 
L 1478 3654 
L 480 3046 
L 224 3462 
L 1549 4282 
L 2067 4282 
z
" transform="scale(0.015625)"/>
       </defs>
       <use xlink:href="#FiraSans-Regular-32"/>
       <use xlink:href="#FiraSans-Regular-30" transform="translate(49.499985 0)"/>
       <use xlink:href="#FiraSans-Regular-31" transform="translate(105.299973 0)"/>
       <use xlink:href="#FiraSans-Regular-31" transform="translate(148.59996 0)"/>
      </g>
     </g>
    </g>
    <g id="xtick_4">
     <g id="line2d_4">
      <path d="M 774.871447 371.9928 
L 774.871447 39.3528 
" clip-path="url(#p7802ff0d97)" style="fill: none; stroke: #cccccc; stroke-width: 2; stroke-linecap: round"/>
     </g>
     <g id="text_4">
      <!-- 2013 -->
      <g style="fill: #262626" transform="translate(753.036447 403.9928) scale(0.22 -0.22)">
       <defs>
        <path id="FiraSans-Regular-33" d="M 1440 4346 
Q 1837 4346 2121 4198 
Q 2406 4051 2556 3801 
Q 2707 3552 2707 3258 
Q 2707 2867 2480 2614 
Q 2253 2362 1875 2272 
Q 2304 2234 2573 1965 
Q 2842 1696 2842 1235 
Q 2842 864 2662 563 
Q 2483 262 2150 92 
Q 1818 -77 1382 -77 
Q 992 -77 665 67 
Q 339 211 96 499 
L 448 826 
Q 659 608 880 505 
Q 1101 403 1363 403 
Q 1766 403 1996 630 
Q 2227 858 2227 1242 
Q 2227 1664 2009 1837 
Q 1792 2010 1376 2010 
L 1056 2010 
L 1126 2464 
L 1344 2464 
Q 1677 2464 1897 2662 
Q 2118 2861 2118 3219 
Q 2118 3520 1926 3696 
Q 1734 3872 1408 3872 
Q 1158 3872 950 3782 
Q 742 3693 525 3488 
L 218 3840 
Q 762 4346 1440 4346 
z
" transform="scale(0.015625)"/>
       </defs>
       <use xlink:href="#FiraSans-Regular-32"/>
       <use xlink:href="#FiraSans-Regular-30" transform="translate(49.499985 0)"/>
       <use xlink:href="#FiraSans-Regular-31" transform="translate(105.299973 0)"/>
       <use xlink:href="#FiraSans-Regular-33" transform="translate(148.59996 0)"/>
      </g>
     </g>
    </g>
    <g id="xtick_5">
     <g id="line2d_5">
      <path d="M 986.324079 371.9928 
L 986.324079 39.3528 
" clip-path="url(#p7802ff0d97)" style="fill: none; stroke: #cccccc; stroke-width: 2; stroke-linecap: round"/>
     </g>
     <g id="text_5">
      <!-- 2015 -->
      <g style="fill: #262626" transform="translate(964.468454 403.9928) scale(0.22 -0.22)">
       <defs>
        <path id="FiraSans-Regular-35" d="M 2688 3821 
L 1018 3821 
L 1018 2560 
Q 1344 2726 1702 2726 
Q 2253 2726 2585 2364 
Q 2918 2003 2918 1370 
Q 2918 947 2732 617 
Q 2547 288 2211 105 
Q 1875 -77 1434 -77 
Q 1043 -77 736 60 
Q 429 198 166 467 
L 512 806 
Q 717 602 934 502 
Q 1152 403 1427 403 
Q 1837 403 2070 659 
Q 2304 915 2304 1382 
Q 2304 1850 2093 2061 
Q 1882 2272 1523 2272 
Q 1357 2272 1216 2237 
Q 1075 2202 915 2125 
L 454 2125 
L 454 4282 
L 2771 4282 
L 2688 3821 
z
" transform="scale(0.015625)"/>
       </defs>
       <use xlink:href="#FiraSans-Regular-32"/>
       <use xlink:href="#FiraSans-Regular-30" transform="translate(49.499985 0)"/>
       <use xlink:href="#FiraSans-Regular-31" transform="translate(105.299973 0)"/>
       <use xlink:href="#FiraSans-Regular-35" transform="translate(148.59996 0)"/>
      </g>
     </g>
    </g>
    <g id="xtick_6">
     <g id="line2d_6">
      <path d="M 1197.776711 371.9928 
L 1197.776711 39.3528 
" clip-path="url(#p7802ff0d97)" style="fill: none; stroke: #cccccc; stroke-width: 2; stroke-linecap: round"/>
     </g>
     <g id="text_6">
      <!-- 2017 -->
      <g style="fill: #262626" transform="translate(1176.546711 403.9928) scale(0.22 -0.22)">
       <use xlink:href="#FiraSans-Regular-32"/>
       <use xlink:href="#FiraSans-Regular-30" transform="translate(49.499985 0)"/>
       <use xlink:href="#FiraSans-Regular-31" transform="translate(105.299973 0)"/>
       <use xlink:href="#FiraSans-Regular-37" transform="translate(148.59996 0)"/>
      </g>
     </g>
    </g>
    <g id="xtick_7">
     <g id="line2d_7">
      <path d="M 1409.229342 371.9928 
L 1409.229342 39.3528 
" clip-path="url(#p7802ff0d97)" style="fill: none; stroke: #cccccc; stroke-width: 2; stroke-linecap: round"/>
     </g>
     <g id="text_7">
      <!-- 2019 -->
      <g style="fill: #262626" transform="translate(1387.10903 403.9928) scale(0.22 -0.22)">
       <use xlink:href="#FiraSans-Regular-32"/>
       <use xlink:href="#FiraSans-Regular-30" transform="translate(49.499985 0)"/>
       <use xlink:href="#FiraSans-Regular-31" transform="translate(105.299973 0)"/>
       <use xlink:href="#FiraSans-Regular-39" transform="translate(148.59996 0)"/>
      </g>
     </g>
    </g>
    <g id="xtick_8">
     <g id="line2d_8">
      <path d="M 1620.681974 371.9928 
L 1620.681974 39.3528 
" clip-path="url(#p7802ff0d97)" style="fill: none; stroke: #cccccc; stroke-width: 2; stroke-linecap: round"/>
     </g>
     <g id="text_8">
      <!-- 2021 -->
      <g style="fill: #262626" transform="translate(1598.891661 403.9928) scale(0.22 -0.22)">
       <use xlink:href="#FiraSans-Regular-32"/>
       <use xlink:href="#FiraSans-Regular-30" transform="translate(49.499985 0)"/>
       <use xlink:href="#FiraSans-Regular-32" transform="translate(105.299973 0)"/>
       <use xlink:href="#FiraSans-Regular-31" transform="translate(154.799957 0)"/>
      </g>
     </g>
    </g>
    <g id="xtick_9"/>
    <g id="xtick_10"/>
    <g id="xtick_11"/>
    <g id="xtick_12"/>
    <g id="xtick_13"/>
    <g id="xtick_14"/>
    <g id="xtick_15"/>
    <g id="xtick_16"/>
    <g id="text_9">
     <!-- Time -->
     <g style="fill: #262626" transform="translate(933.479375 430.678112) scale(0.24 -0.24)">
      <defs>
       <path id="FiraSans-Regular-54" d="M 3245 4410 
L 3181 3891 
L 1958 3891 
L 1958 0 
L 1350 0 
L 1350 3891 
L 96 3891 
L 96 4410 
L 3245 4410 
z
" transform="scale(0.015625)"/>
       <path id="FiraSans-Regular-69" d="M 1197 3373 
L 1197 0 
L 608 0 
L 608 3373 
L 1197 3373 
z
M 896 4992 
Q 1082 4992 1197 4877 
Q 1312 4762 1312 4589 
Q 1312 4416 1197 4304 
Q 1082 4192 896 4192 
Q 717 4192 601 4304 
Q 486 4416 486 4589 
Q 486 4762 601 4877 
Q 717 4992 896 4992 
z
" transform="scale(0.015625)"/>
       <path id="FiraSans-Regular-6d" d="M 3994 3450 
Q 4410 3450 4659 3171 
Q 4909 2893 4909 2419 
L 4909 0 
L 4320 0 
L 4320 2336 
Q 4320 2989 3846 2989 
Q 3597 2989 3424 2845 
Q 3251 2701 3053 2394 
L 3053 0 
L 2464 0 
L 2464 2336 
Q 2464 2989 1990 2989 
Q 1734 2989 1561 2841 
Q 1389 2694 1197 2394 
L 1197 0 
L 608 0 
L 608 3373 
L 1114 3373 
L 1165 2880 
Q 1542 3450 2138 3450 
Q 2451 3450 2672 3290 
Q 2893 3130 2989 2842 
Q 3187 3136 3427 3293 
Q 3667 3450 3994 3450 
z
" transform="scale(0.015625)"/>
       <path id="FiraSans-Regular-65" d="M 3155 1786 
Q 3155 1638 3142 1485 
L 992 1485 
Q 1030 928 1273 665 
Q 1517 403 1901 403 
Q 2144 403 2349 473 
Q 2554 544 2778 698 
L 3034 346 
Q 2496 -77 1856 -77 
Q 1152 -77 758 384 
Q 365 845 365 1651 
Q 365 2176 534 2582 
Q 704 2989 1021 3219 
Q 1338 3450 1766 3450 
Q 2438 3450 2796 3008 
Q 3155 2566 3155 1786 
z
M 2573 1958 
Q 2573 2458 2374 2720 
Q 2176 2982 1779 2982 
Q 1056 2982 992 1920 
L 2573 1920 
L 2573 1958 
z
" transform="scale(0.015625)"/>
      </defs>
      <use xlink:href="#FiraSans-Regular-54"/>
      <use xlink:href="#FiraSans-Regular-69" transform="translate(51.699997 0)"/>
      <use xlink:href="#FiraSans-Regular-6d" transform="translate(79.899994 0)"/>
      <use xlink:href="#FiraSans-Regular-65" transform="translate(165.599976 0)"/>
     </g>
    </g>
   </g>
   <g id="matplotlib.axis_2">
    <g id="ytick_1">
     <g id="line2d_9">
      <path d="M 122.8925 371.9928 
L 1796.8925 371.9928 
" clip-path="url(#p7802ff0d97)" style="fill: none; stroke: #cccccc; stroke-width: 2; stroke-linecap: round"/>
     </g>
     <g id="text_10">
      <!-- 0 -->
      <g style="fill: #262626" transform="translate(95.117188 380.2428) scale(0.22 -0.22)">
       <use xlink:href="#FiraSans-Regular-30"/>
      </g>
     </g>
    </g>
    <g id="ytick_2">
     <g id="line2d_10">
      <path d="M 122.8925 301.5928 
L 1796.8925 301.5928 
" clip-path="url(#p7802ff0d97)" style="fill: none; stroke: #cccccc; stroke-width: 2; stroke-linecap: round"/>
     </g>
     <g id="text_11">
      <!-- 10 -->
      <g style="fill: #262626" transform="translate(85.591875 309.8428) scale(0.22 -0.22)">
       <use xlink:href="#FiraSans-Regular-31"/>
       <use xlink:href="#FiraSans-Regular-30" transform="translate(43.299988 0)"/>
      </g>
     </g>
    </g>
    <g id="ytick_3">
     <g id="line2d_11">
      <path d="M 122.8925 231.1928 
L 1796.8925 231.1928 
" clip-path="url(#p7802ff0d97)" style="fill: none; stroke: #cccccc; stroke-width: 2; stroke-linecap: round"/>
     </g>
     <g id="text_12">
      <!-- 20 -->
      <g style="fill: #262626" transform="translate(84.227188 239.4428) scale(0.22 -0.22)">
       <use xlink:href="#FiraSans-Regular-32"/>
       <use xlink:href="#FiraSans-Regular-30" transform="translate(49.499985 0)"/>
      </g>
     </g>
    </g>
    <g id="ytick_4">
     <g id="line2d_12">
      <path d="M 122.8925 160.7928 
L 1796.8925 160.7928 
" clip-path="url(#p7802ff0d97)" style="fill: none; stroke: #cccccc; stroke-width: 2; stroke-linecap: round"/>
     </g>
     <g id="text_13">
      <!-- 30 -->
      <g style="fill: #262626" transform="translate(84.137813 169.0428) scale(0.22 -0.22)">
       <use xlink:href="#FiraSans-Regular-33"/>
       <use xlink:href="#FiraSans-Regular-30" transform="translate(49.899994 0)"/>
      </g>
     </g>
    </g>
    <g id="ytick_5">
     <g id="line2d_13">
      <path d="M 122.8925 90.3928 
L 1796.8925 90.3928 
" clip-path="url(#p7802ff0d97)" style="fill: none; stroke: #cccccc; stroke-width: 2; stroke-linecap: round"/>
     </g>
     <g id="text_14">
      <!-- 40 -->
      <g style="fill: #262626" transform="translate(83.4125 98.6428) scale(0.22 -0.22)">
       <defs>
        <path id="FiraSans-Regular-34" d="M 3213 1523 
L 3213 1056 
L 2656 1056 
L 2656 0 
L 2086 0 
L 2086 1056 
L 256 1056 
L 256 1478 
L 1542 4346 
L 2035 4141 
L 877 1523 
L 2093 1523 
L 2144 2675 
L 2656 2675 
L 2656 1523 
L 3213 1523 
z
" transform="scale(0.015625)"/>
       </defs>
       <use xlink:href="#FiraSans-Regular-34"/>
       <use xlink:href="#FiraSans-Regular-30" transform="translate(53.199997 0)"/>
      </g>
     </g>
    </g>
    <g id="text_15">
     <!-- Twitter accounts -->
     <g style="fill: #262626" transform="translate(74.30125 295.839675) rotate(-90) scale(0.24 -0.24)">
      <defs>
       <path id="FiraSans-Regular-77" d="M 4461 3373 
L 3693 0 
L 2893 0 
L 2304 2842 
L 1696 0 
L 915 0 
L 128 3373 
L 717 3373 
L 1325 410 
L 1990 3373 
L 2650 3373 
L 3283 410 
L 3898 3373 
L 4461 3373 
z
" transform="scale(0.015625)"/>
       <path id="FiraSans-Regular-74" d="M 2310 154 
Q 1978 -77 1555 -77 
Q 1126 -77 886 169 
Q 646 416 646 883 
L 646 2918 
L 58 2918 
L 58 3373 
L 646 3373 
L 646 4134 
L 1235 4205 
L 1235 3373 
L 2035 3373 
L 1971 2918 
L 1235 2918 
L 1235 909 
Q 1235 646 1328 528 
Q 1421 410 1638 410 
Q 1837 410 2086 544 
L 2310 154 
z
" transform="scale(0.015625)"/>
       <path id="FiraSans-Regular-72" d="M 2074 3450 
Q 2253 3450 2406 3411 
L 2298 2835 
Q 2144 2874 2003 2874 
Q 1690 2874 1498 2643 
Q 1306 2413 1197 1926 
L 1197 0 
L 608 0 
L 608 3373 
L 1114 3373 
L 1171 2688 
Q 1306 3066 1536 3258 
Q 1766 3450 2074 3450 
z
" transform="scale(0.015625)"/>
       <path id="FiraSans-Regular-20" transform="scale(0.015625)"/>
       <path id="FiraSans-Regular-61" d="M 2880 787 
Q 2880 582 2950 483 
Q 3021 384 3162 333 
L 3027 -77 
Q 2765 -45 2605 70 
Q 2445 186 2368 429 
Q 2029 -77 1363 -77 
Q 864 -77 576 204 
Q 288 486 288 941 
Q 288 1478 675 1766 
Q 1062 2054 1773 2054 
L 2291 2054 
L 2291 2304 
Q 2291 2662 2118 2816 
Q 1946 2970 1587 2970 
Q 1216 2970 678 2790 
L 531 3219 
Q 1158 3450 1696 3450 
Q 2291 3450 2585 3158 
Q 2880 2867 2880 2330 
L 2880 787 
z
M 1498 365 
Q 2003 365 2291 890 
L 2291 1664 
L 1850 1664 
Q 915 1664 915 973 
Q 915 672 1062 518 
Q 1210 365 1498 365 
z
" transform="scale(0.015625)"/>
       <path id="FiraSans-Regular-63" d="M 1837 3450 
Q 2138 3450 2387 3363 
Q 2637 3277 2867 3085 
L 2586 2714 
Q 2406 2842 2236 2902 
Q 2067 2963 1862 2963 
Q 1453 2963 1225 2636 
Q 998 2310 998 1670 
Q 998 1030 1222 726 
Q 1446 422 1862 422 
Q 2061 422 2227 483 
Q 2394 544 2598 678 
L 2867 294 
Q 2406 -77 1837 -77 
Q 1152 -77 758 384 
Q 365 845 365 1658 
Q 365 2195 544 2598 
Q 723 3002 1052 3226 
Q 1382 3450 1837 3450 
z
" transform="scale(0.015625)"/>
       <path id="FiraSans-Regular-6f" d="M 1875 3450 
Q 2586 3450 2979 2976 
Q 3373 2502 3373 1690 
Q 3373 1165 3193 765 
Q 3014 365 2675 144 
Q 2336 -77 1869 -77 
Q 1158 -77 761 396 
Q 365 870 365 1683 
Q 365 2208 544 2608 
Q 723 3008 1062 3229 
Q 1402 3450 1875 3450 
z
M 1875 2976 
Q 998 2976 998 1683 
Q 998 397 1869 397 
Q 2739 397 2739 1690 
Q 2739 2976 1875 2976 
z
" transform="scale(0.015625)"/>
       <path id="FiraSans-Regular-75" d="M 3117 0 
L 2611 0 
L 2566 525 
Q 2374 211 2124 67 
Q 1875 -77 1517 -77 
Q 1075 -77 825 192 
Q 576 461 576 954 
L 576 3373 
L 1165 3373 
L 1165 1018 
Q 1165 672 1286 528 
Q 1408 384 1683 384 
Q 2176 384 2528 966 
L 2528 3373 
L 3117 3373 
L 3117 0 
z
" transform="scale(0.015625)"/>
       <path id="FiraSans-Regular-6e" d="M 2195 3450 
Q 2656 3450 2915 3174 
Q 3174 2899 3174 2419 
L 3174 0 
L 2586 0 
L 2586 2336 
Q 2586 2694 2451 2841 
Q 2317 2989 2054 2989 
Q 1786 2989 1581 2835 
Q 1376 2682 1197 2394 
L 1197 0 
L 608 0 
L 608 3373 
L 1114 3373 
L 1165 2874 
Q 1344 3142 1609 3296 
Q 1875 3450 2195 3450 
z
" transform="scale(0.015625)"/>
       <path id="FiraSans-Regular-73" d="M 1523 3450 
Q 1869 3450 2144 3354 
Q 2419 3258 2669 3066 
L 2419 2694 
Q 2189 2842 1981 2912 
Q 1773 2982 1542 2982 
Q 1254 2982 1088 2864 
Q 922 2746 922 2541 
Q 922 2336 1078 2221 
Q 1235 2106 1645 1997 
Q 2208 1856 2486 1613 
Q 2765 1370 2765 947 
Q 2765 448 2377 185 
Q 1990 -77 1434 -77 
Q 666 -77 160 365 
L 474 723 
Q 902 397 1421 397 
Q 1754 397 1949 534 
Q 2144 672 2144 909 
Q 2144 1082 2073 1187 
Q 2003 1293 1830 1373 
Q 1658 1453 1325 1542 
Q 787 1683 547 1920 
Q 307 2157 307 2522 
Q 307 2784 464 2998 
Q 621 3213 899 3331 
Q 1178 3450 1523 3450 
z
" transform="scale(0.015625)"/>
      </defs>
      <use xlink:href="#FiraSans-Regular-54"/>
      <use xlink:href="#FiraSans-Regular-77" transform="translate(51.699997 0)"/>
      <use xlink:href="#FiraSans-Regular-69" transform="translate(123.399979 0)"/>
      <use xlink:href="#FiraSans-Regular-74" transform="translate(151.599976 0)"/>
      <use xlink:href="#FiraSans-Regular-74" transform="translate(187.699966 0)"/>
      <use xlink:href="#FiraSans-Regular-65" transform="translate(223.799957 0)"/>
      <use xlink:href="#FiraSans-Regular-72" transform="translate(278.299942 0)"/>
      <use xlink:href="#FiraSans-Regular-20" transform="translate(316.899933 0)"/>
      <use xlink:href="#FiraSans-Regular-61" transform="translate(343.399918 0)"/>
      <use xlink:href="#FiraSans-Regular-63" transform="translate(397.799911 0)"/>
      <use xlink:href="#FiraSans-Regular-63" transform="translate(445.599899 0)"/>
      <use xlink:href="#FiraSans-Regular-6f" transform="translate(493.399887 0)"/>
      <use xlink:href="#FiraSans-Regular-75" transform="translate(551.799881 0)"/>
      <use xlink:href="#FiraSans-Regular-6e" transform="translate(609.999878 0)"/>
      <use xlink:href="#FiraSans-Regular-74" transform="translate(668.599869 0)"/>
      <use xlink:href="#FiraSans-Regular-73" transform="translate(704.69986 0)"/>
     </g>
    </g>
   </g>
   <g id="FillBetweenPolyCollection_1">
    <defs>
     <path id="me70adfcee1" d="M 122.8925 -540.31125 
L 122.8925 -533.27125 
L 131.703026 -533.27125 
L 140.513553 -533.27125 
L 149.324079 -533.27125 
L 158.134605 -533.27125 
L 166.945132 -533.27125 
L 175.755658 -533.27125 
L 184.566184 -533.27125 
L 193.376711 -533.27125 
L 202.187237 -533.27125 
L 210.997763 -533.27125 
L 219.808289 -533.27125 
L 228.618816 -533.27125 
L 237.429342 -533.27125 
L 246.239868 -533.27125 
L 255.050395 -533.27125 
L 263.860921 -533.27125 
L 272.671447 -533.27125 
L 281.481974 -533.27125 
L 290.2925 -533.27125 
L 299.103026 -533.27125 
L 307.913553 -533.27125 
L 316.724079 -533.27125 
L 325.534605 -533.27125 
L 334.345132 -533.27125 
L 343.155658 -533.27125 
L 351.966184 -533.27125 
L 360.776711 -533.27125 
L 369.587237 -533.27125 
L 378.397763 -533.27125 
L 387.208289 -533.27125 
L 396.018816 -533.27125 
L 404.829342 -533.27125 
L 413.639868 -533.27125 
L 422.450395 -533.27125 
L 431.260921 -533.27125 
L 440.071447 -533.27125 
L 448.881974 -533.27125 
L 457.6925 -533.27125 
L 466.503026 -533.27125 
L 475.313553 -533.27125 
L 484.124079 -533.27125 
L 492.934605 -533.27125 
L 501.745132 -533.27125 
L 510.555658 -533.27125 
L 519.366184 -533.27125 
L 528.176711 -533.27125 
L 536.987237 -533.27125 
L 545.797763 -533.27125 
L 554.608289 -533.27125 
L 563.418816 -533.27125 
L 572.229342 -533.27125 
L 581.039868 -533.27125 
L 589.850395 -533.27125 
L 598.660921 -533.27125 
L 607.471447 -533.27125 
L 616.281974 -533.27125 
L 625.0925 -533.27125 
L 633.903026 -533.27125 
L 642.713553 -533.27125 
L 651.524079 -533.27125 
L 660.334605 -533.27125 
L 669.145132 -533.27125 
L 677.955658 -533.27125 
L 686.766184 -533.27125 
L 695.576711 -533.27125 
L 704.387237 -533.27125 
L 713.197763 -533.27125 
L 722.008289 -533.27125 
L 730.818816 -533.27125 
L 739.629342 -533.27125 
L 748.439868 -533.27125 
L 757.250395 -533.27125 
L 766.060921 -533.27125 
L 774.871447 -533.27125 
L 783.681974 -533.27125 
L 792.4925 -533.27125 
L 801.303026 -533.27125 
L 810.113553 -533.27125 
L 818.924079 -533.27125 
L 827.734605 -533.27125 
L 836.545132 -533.27125 
L 845.355658 -533.27125 
L 854.166184 -533.27125 
L 862.976711 -533.27125 
L 871.787237 -533.27125 
L 880.597763 -533.27125 
L 889.408289 -533.27125 
L 898.218816 -533.27125 
L 907.029342 -533.27125 
L 915.839868 -533.27125 
L 924.650395 -533.27125 
L 933.460921 -533.27125 
L 942.271447 -533.27125 
L 951.081974 -533.27125 
L 959.8925 -533.27125 
L 968.703026 -533.27125 
L 977.513553 -533.27125 
L 986.324079 -533.27125 
L 995.134605 -533.27125 
L 1003.945132 -533.27125 
L 1012.755658 -533.27125 
L 1021.566184 -533.27125 
L 1030.376711 -533.27125 
L 1039.187237 -533.27125 
L 1047.997763 -533.27125 
L 1056.808289 -533.27125 
L 1065.618816 -533.27125 
L 1074.429342 -533.27125 
L 1083.239868 -533.27125 
L 1092.050395 -533.27125 
L 1100.860921 -533.27125 
L 1109.671447 -533.27125 
L 1118.481974 -533.27125 
L 1127.2925 -533.27125 
L 1136.103026 -533.27125 
L 1144.913553 -533.27125 
L 1153.724079 -533.27125 
L 1162.534605 -533.27125 
L 1171.345132 -533.27125 
L 1180.155658 -533.27125 
L 1188.966184 -533.27125 
L 1197.776711 -533.27125 
L 1206.587237 -533.27125 
L 1215.397763 -533.27125 
L 1224.208289 -533.27125 
L 1233.018816 -533.27125 
L 1241.829342 -533.27125 
L 1250.639868 -533.27125 
L 1259.450395 -533.27125 
L 1268.260921 -533.27125 
L 1277.071447 -533.27125 
L 1285.881974 -533.27125 
L 1294.6925 -533.27125 
L 1303.503026 -533.27125 
L 1312.313553 -533.27125 
L 1321.124079 -533.27125 
L 1329.934605 -533.27125 
L 1338.745132 -533.27125 
L 1347.555658 -533.27125 
L 1356.366184 -533.27125 
L 1365.176711 -533.27125 
L 1373.987237 -533.27125 
L 1382.797763 -533.27125 
L 1391.608289 -533.27125 
L 1400.418816 -533.27125 
L 1409.229342 -533.27125 
L 1418.039868 -533.27125 
L 1426.850395 -533.27125 
L 1435.660921 -533.27125 
L 1444.471447 -533.27125 
L 1453.281974 -533.27125 
L 1462.0925 -533.27125 
L 1470.903026 -533.27125 
L 1479.713553 -533.27125 
L 1488.524079 -533.27125 
L 1497.334605 -533.27125 
L 1506.145132 -533.27125 
L 1514.955658 -533.27125 
L 1523.766184 -533.27125 
L 1532.576711 -533.27125 
L 1541.387237 -533.27125 
L 1550.197763 -533.27125 
L 1559.008289 -533.27125 
L 1567.818816 -533.27125 
L 1576.629342 -533.27125 
L 1585.439868 -533.27125 
L 1594.250395 -533.27125 
L 1603.060921 -533.27125 
L 1611.871447 -533.27125 
L 1620.681974 -533.27125 
L 1629.4925 -533.27125 
L 1638.303026 -533.27125 
L 1647.113553 -533.27125 
L 1655.924079 -533.27125 
L 1664.734605 -533.27125 
L 1673.545132 -533.27125 
L 1682.355658 -533.27125 
L 1691.166184 -533.27125 
L 1699.976711 -533.27125 
L 1708.787237 -533.27125 
L 1717.597763 -533.27125 
L 1726.408289 -533.27125 
L 1735.218816 -533.27125 
L 1744.029342 -533.27125 
L 1752.839868 -533.27125 
L 1761.650395 -533.27125 
L 1770.460921 -533.27125 
L 1779.271447 -533.27125 
L 1788.081974 -533.27125 
L 1796.8925 -533.27125 
L 1796.8925 -554.39125 
L 1796.8925 -554.39125 
L 1788.081974 -652.95125 
L 1779.271447 -631.83125 
L 1770.460921 -624.79125 
L 1761.650395 -568.47125 
L 1752.839868 -631.83125 
L 1744.029342 -617.75125 
L 1735.218816 -610.71125 
L 1726.408289 -624.79125 
L 1717.597763 -617.75125 
L 1708.787237 -638.87125 
L 1699.976711 -645.91125 
L 1691.166184 -603.67125 
L 1682.355658 -603.67125 
L 1673.545132 -589.59125 
L 1664.734605 -617.75125 
L 1655.924079 -568.47125 
L 1647.113553 -596.63125 
L 1638.303026 -589.59125 
L 1629.4925 -603.67125 
L 1620.681974 -610.71125 
L 1611.871447 -575.51125 
L 1603.060921 -596.63125 
L 1594.250395 -624.79125 
L 1585.439868 -617.75125 
L 1576.629342 -575.51125 
L 1567.818816 -617.75125 
L 1559.008289 -624.79125 
L 1550.197763 -631.83125 
L 1541.387237 -603.67125 
L 1532.576711 -568.47125 
L 1523.766184 -674.07125 
L 1514.955658 -730.39125 
L 1506.145132 -631.83125 
L 1497.334605 -603.67125 
L 1488.524079 -645.91125 
L 1479.713553 -631.83125 
L 1470.903026 -631.83125 
L 1462.0925 -681.11125 
L 1453.281974 -596.63125 
L 1444.471447 -610.71125 
L 1435.660921 -667.03125 
L 1426.850395 -681.11125 
L 1418.039868 -688.15125 
L 1409.229342 -652.95125 
L 1400.418816 -631.83125 
L 1391.608289 -652.95125 
L 1382.797763 -681.11125 
L 1373.987237 -667.03125 
L 1365.176711 -659.99125 
L 1356.366184 -681.11125 
L 1347.555658 -681.11125 
L 1338.745132 -674.07125 
L 1329.934605 -758.55125 
L 1321.124079 -695.19125 
L 1312.313553 -674.07125 
L 1303.503026 -723.35125 
L 1294.6925 -695.19125 
L 1285.881974 -730.39125 
L 1277.071447 -758.55125 
L 1268.260921 -744.47125 
L 1259.450395 -667.03125 
L 1250.639868 -695.19125 
L 1241.829342 -667.03125 
L 1233.018816 -709.27125 
L 1224.208289 -681.11125 
L 1215.397763 -702.23125 
L 1206.587237 -751.51125 
L 1197.776711 -786.71125 
L 1188.966184 -695.19125 
L 1180.155658 -645.91125 
L 1171.345132 -758.55125 
L 1162.534605 -709.27125 
L 1153.724079 -702.23125 
L 1144.913553 -702.23125 
L 1136.103026 -744.47125 
L 1127.2925 -814.87125 
L 1118.481974 -779.67125 
L 1109.671447 -835.99125 
L 1100.860921 -786.71125 
L 1092.050395 -793.75125 
L 1083.239868 -723.35125 
L 1074.429342 -807.83125 
L 1065.618816 -800.79125 
L 1056.808289 -828.95125 
L 1047.997763 -751.51125 
L 1039.187237 -751.51125 
L 1030.376711 -800.79125 
L 1021.566184 -758.55125 
L 1012.755658 -843.03125 
L 1003.945132 -765.59125 
L 995.134605 -772.63125 
L 986.324079 -807.83125 
L 977.513553 -779.67125 
L 968.703026 -758.55125 
L 959.8925 -821.91125 
L 951.081974 -814.87125 
L 942.271447 -709.27125 
L 933.460921 -765.59125 
L 924.650395 -821.91125 
L 915.839868 -807.83125 
L 907.029342 -850.07125 
L 898.218816 -800.79125 
L 889.408289 -793.75125 
L 880.597763 -814.87125 
L 871.787237 -807.83125 
L 862.976711 -779.67125 
L 854.166184 -667.03125 
L 845.355658 -758.55125 
L 836.545132 -730.39125 
L 827.734605 -737.43125 
L 818.924079 -751.51125 
L 810.113553 -786.71125 
L 801.303026 -730.39125 
L 792.4925 -828.95125 
L 783.681974 -702.23125 
L 774.871447 -807.83125 
L 766.060921 -631.83125 
L 757.250395 -645.91125 
L 748.439868 -730.39125 
L 739.629342 -681.11125 
L 730.818816 -645.91125 
L 722.008289 -688.15125 
L 713.197763 -716.31125 
L 704.387237 -645.91125 
L 695.576711 -716.31125 
L 686.766184 -723.35125 
L 677.955658 -674.07125 
L 669.145132 -737.43125 
L 660.334605 -638.87125 
L 651.524079 -652.95125 
L 642.713553 -674.07125 
L 633.903026 -652.95125 
L 625.0925 -681.11125 
L 616.281974 -645.91125 
L 607.471447 -667.03125 
L 598.660921 -667.03125 
L 589.850395 -688.15125 
L 581.039868 -688.15125 
L 572.229342 -659.99125 
L 563.418816 -624.79125 
L 554.608289 -688.15125 
L 545.797763 -631.83125 
L 536.987237 -645.91125 
L 528.176711 -681.11125 
L 519.366184 -667.03125 
L 510.555658 -596.63125 
L 501.745132 -631.83125 
L 492.934605 -638.87125 
L 484.124079 -638.87125 
L 475.313553 -695.19125 
L 466.503026 -624.79125 
L 457.6925 -645.91125 
L 448.881974 -617.75125 
L 440.071447 -638.87125 
L 431.260921 -659.99125 
L 422.450395 -659.99125 
L 413.639868 -610.71125 
L 404.829342 -667.03125 
L 396.018816 -667.03125 
L 387.208289 -645.91125 
L 378.397763 -723.35125 
L 369.587237 -695.19125 
L 360.776711 -589.59125 
L 351.966184 -631.83125 
L 343.155658 -589.59125 
L 334.345132 -617.75125 
L 325.534605 -575.51125 
L 316.724079 -568.47125 
L 307.913553 -568.47125 
L 299.103026 -582.55125 
L 290.2925 -554.39125 
L 281.481974 -547.35125 
L 272.671447 -624.79125 
L 263.860921 -575.51125 
L 255.050395 -561.43125 
L 246.239868 -568.47125 
L 237.429342 -540.31125 
L 228.618816 -554.39125 
L 219.808289 -547.35125 
L 210.997763 -540.31125 
L 202.187237 -540.31125 
L 193.376711 -561.43125 
L 184.566184 -533.27125 
L 175.755658 -547.35125 
L 166.945132 -582.55125 
L 158.134605 -582.55125 
L 149.324079 -540.31125 
L 140.513553 -533.27125 
L 131.703026 -533.27125 
L 122.8925 -540.31125 
z
" style="stroke: #f3f1e9"/>
    </defs>
    <g clip-path="url(#p7802ff0d97)">
     <use xlink:href="#me70adfcee1" x="0" y="905.26405" style="fill: #f3f1e9; stroke: #f3f1e9"/>
    </g>
   </g>
   <g id="line2d_14">
    <path d="M 246.239868 371.9928 
L 246.239868 39.3528 
" clip-path="url(#p7802ff0d97)" style="fill: none; stroke: #fa824c; stroke-width: 6; stroke-linecap: round"/>
   </g>
   <g id="line2d_15">
    <path d="M 316.724079 371.9928 
L 316.724079 39.3528 
" clip-path="url(#p7802ff0d97)" style="fill: none; stroke: #00bdbf; stroke-width: 2; stroke-linecap: round"/>
   </g>
   <g id="line2d_16">
    <path d="M 457.6925 371.9928 
L 457.6925 39.3528 
" clip-path="url(#p7802ff0d97)" style="fill: none; stroke: #00bdbf; stroke-width: 2; stroke-linecap: round"/>
   </g>
   <g id="line2d_17">
    <path d="M 396.018816 371.9928 
L 396.018816 39.3528 
" clip-path="url(#p7802ff0d97)" style="fill: none; stroke: #00bdbf; stroke-width: 2; stroke-linecap: round"/>
   </g>
   <g id="line2d_18">
    <path d="M 484.124079 371.9928 
L 484.124079 39.3528 
" clip-path="url(#p7802ff0d97)" style="fill: none; stroke: #00bdbf; stroke-width: 2; stroke-linecap: round"/>
   </g>
   <g id="line2d_19">
    <path d="M 290.2925 371.9928 
L 290.2925 39.3528 
" clip-path="url(#p7802ff0d97)" style="fill: none; stroke: #00bdbf; stroke-width: 2; stroke-linecap: round"/>
   </g>
   <g id="line2d_20">
    <path d="M 158.134605 371.9928 
L 158.134605 39.3528 
" clip-path="url(#p7802ff0d97)" style="fill: none; stroke: #00bdbf; stroke-width: 2; stroke-linecap: round"/>
   </g>
   <g id="line2d_21">
    <path d="M 369.587237 371.9928 
L 369.587237 39.3528 
" clip-path="url(#p7802ff0d97)" style="fill: none; stroke: #00bdbf; stroke-width: 2; stroke-linecap: round"/>
   </g>
   <g id="line2d_22">
    <path d="M 519.366184 371.9928 
L 519.366184 39.3528 
" clip-path="url(#p7802ff0d97)" style="fill: none; stroke: #00bdbf; stroke-width: 2; stroke-linecap: round"/>
   </g>
   <g id="line2d_23">
    <path d="M 519.366184 371.9928 
L 519.366184 39.3528 
" clip-path="url(#p7802ff0d97)" style="fill: none; stroke: #00bdbf; stroke-width: 2; stroke-linecap: round"/>
   </g>
   <g id="line2d_24">
    <path d="M 166.945132 371.9928 
L 166.945132 39.3528 
" clip-path="url(#p7802ff0d97)" style="fill: none; stroke: #00bdbf; stroke-width: 2; stroke-linecap: round"/>
   </g>
   <g id="line2d_25">
    <path d="M 343.155658 371.9928 
L 343.155658 39.3528 
" clip-path="url(#p7802ff0d97)" style="fill: none; stroke: #00bdbf; stroke-width: 2; stroke-linecap: round"/>
   </g>
   <g id="line2d_26">
    <path d="M 369.587237 371.9928 
L 369.587237 39.3528 
" clip-path="url(#p7802ff0d97)" style="fill: none; stroke: #00bdbf; stroke-width: 2; stroke-linecap: round"/>
   </g>
   <g id="line2d_27">
    <path d="M 1074.429342 371.9928 
L 1074.429342 39.3528 
" clip-path="url(#p7802ff0d97)" style="fill: none; stroke: #00bdbf; stroke-width: 2; stroke-linecap: round"/>
   </g>
   <g id="line2d_28">
    <path d="M 272.671447 371.9928 
L 272.671447 39.3528 
" clip-path="url(#p7802ff0d97)" style="fill: none; stroke: #00bdbf; stroke-width: 2; stroke-linecap: round"/>
   </g>
   <g id="line2d_29">
    <path d="M 907.029342 371.9928 
L 907.029342 39.3528 
" clip-path="url(#p7802ff0d97)" style="fill: none; stroke: #00bdbf; stroke-width: 2; stroke-linecap: round"/>
   </g>
   <g id="line2d_30">
    <path d="M 299.103026 371.9928 
L 299.103026 39.3528 
" clip-path="url(#p7802ff0d97)" style="fill: none; stroke: #00bdbf; stroke-width: 2; stroke-linecap: round"/>
   </g>
   <g id="line2d_31">
    <path d="M 228.618816 371.9928 
L 228.618816 39.3528 
" clip-path="url(#p7802ff0d97)" style="fill: none; stroke: #00bdbf; stroke-width: 2; stroke-linecap: round"/>
   </g>
   <g id="line2d_32">
    <path d="M 1682.355658 371.9928 
L 1682.355658 39.3528 
" clip-path="url(#p7802ff0d97)" style="fill: none; stroke: #00bdbf; stroke-width: 2; stroke-linecap: round"/>
   </g>
   <g id="line2d_33">
    <path d="M 1779.271447 371.9928 
L 1779.271447 39.3528 
" clip-path="url(#p7802ff0d97)" style="fill: none; stroke: #00bdbf; stroke-width: 2; stroke-linecap: round"/>
   </g>
   <g id="line2d_34">
    <path d="M 616.281974 371.9928 
L 616.281974 39.3528 
" clip-path="url(#p7802ff0d97)" style="fill: none; stroke: #00bdbf; stroke-width: 2; stroke-linecap: round"/>
   </g>
   <g id="line2d_35">
    <path d="M 369.587237 371.9928 
L 369.587237 39.3528 
" clip-path="url(#p7802ff0d97)" style="fill: none; stroke: #00bdbf; stroke-width: 2; stroke-linecap: round"/>
   </g>
   <g id="line2d_36">
    <path d="M 536.987237 371.9928 
L 536.987237 39.3528 
" clip-path="url(#p7802ff0d97)" style="fill: none; stroke: #00bdbf; stroke-width: 2; stroke-linecap: round"/>
   </g>
   <g id="line2d_37">
    <path d="M 219.808289 371.9928 
L 219.808289 39.3528 
" clip-path="url(#p7802ff0d97)" style="fill: none; stroke: #00bdbf; stroke-width: 2; stroke-linecap: round"/>
   </g>
   <g id="line2d_38">
    <path d="M 704.387237 371.9928 
L 704.387237 39.3528 
" clip-path="url(#p7802ff0d97)" style="fill: none; stroke: #00bdbf; stroke-width: 2; stroke-linecap: round"/>
   </g>
   <g id="line2d_39">
    <path d="M 581.039868 371.9928 
L 581.039868 39.3528 
" clip-path="url(#p7802ff0d97)" style="fill: none; stroke: #00bdbf; stroke-width: 2; stroke-linecap: round"/>
   </g>
   <g id="line2d_40">
    <path d="M 396.018816 371.9928 
L 396.018816 39.3528 
" clip-path="url(#p7802ff0d97)" style="fill: none; stroke: #00bdbf; stroke-width: 2; stroke-linecap: round"/>
   </g>
   <g id="line2d_41">
    <path d="M 387.208289 371.9928 
L 387.208289 39.3528 
" clip-path="url(#p7802ff0d97)" style="fill: none; stroke: #00bdbf; stroke-width: 2; stroke-linecap: round"/>
   </g>
   <g id="line2d_42">
    <path d="M 748.439868 371.9928 
L 748.439868 39.3528 
" clip-path="url(#p7802ff0d97)" style="fill: none; stroke: #00bdbf; stroke-width: 2; stroke-linecap: round"/>
   </g>
   <g id="line2d_43">
    <path d="M 528.176711 371.9928 
L 528.176711 39.3528 
" clip-path="url(#p7802ff0d97)" style="fill: none; stroke: #00bdbf; stroke-width: 2; stroke-linecap: round"/>
   </g>
   <g id="line2d_44">
    <path d="M 404.829342 371.9928 
L 404.829342 39.3528 
" clip-path="url(#p7802ff0d97)" style="fill: none; stroke: #00bdbf; stroke-width: 2; stroke-linecap: round"/>
   </g>
   <g id="line2d_45">
    <path d="M 1356.366184 371.9928 
L 1356.366184 39.3528 
" clip-path="url(#p7802ff0d97)" style="fill: none; stroke: #00bdbf; stroke-width: 2; stroke-linecap: round"/>
   </g>
   <g id="line2d_46">
    <path d="M 528.176711 371.9928 
L 528.176711 39.3528 
" clip-path="url(#p7802ff0d97)" style="fill: none; stroke: #00bdbf; stroke-width: 2; stroke-linecap: round"/>
   </g>
   <g id="line2d_47">
    <path d="M 492.934605 371.9928 
L 492.934605 39.3528 
" clip-path="url(#p7802ff0d97)" style="fill: none; stroke: #00bdbf; stroke-width: 2; stroke-linecap: round"/>
   </g>
   <g id="line2d_48">
    <path d="M 783.681974 371.9928 
L 783.681974 39.3528 
" clip-path="url(#p7802ff0d97)" style="fill: none; stroke: #00bdbf; stroke-width: 2; stroke-linecap: round"/>
   </g>
   <g id="line2d_49">
    <path d="M 158.134605 371.9928 
L 158.134605 39.3528 
" clip-path="url(#p7802ff0d97)" style="fill: none; stroke: #00bdbf; stroke-width: 2; stroke-linecap: round"/>
   </g>
   <g id="line2d_50">
    <path d="M 589.850395 371.9928 
L 589.850395 39.3528 
" clip-path="url(#p7802ff0d97)" style="fill: none; stroke: #00bdbf; stroke-width: 2; stroke-linecap: round"/>
   </g>
   <g id="line2d_51">
    <path d="M 686.766184 371.9928 
L 686.766184 39.3528 
" clip-path="url(#p7802ff0d97)" style="fill: none; stroke: #00bdbf; stroke-width: 2; stroke-linecap: round"/>
   </g>
   <g id="line2d_52">
    <path d="M 246.239868 371.9928 
L 246.239868 39.3528 
" clip-path="url(#p7802ff0d97)" style="fill: none; stroke: #00bdbf; stroke-width: 2; stroke-linecap: round"/>
   </g>
   <g id="line2d_53">
    <path d="M 677.955658 371.9928 
L 677.955658 39.3528 
" clip-path="url(#p7802ff0d97)" style="fill: none; stroke: #00bdbf; stroke-width: 2; stroke-linecap: round"/>
   </g>
   <g id="line2d_54">
    <path d="M 440.071447 371.9928 
L 440.071447 39.3528 
" clip-path="url(#p7802ff0d97)" style="fill: none; stroke: #00bdbf; stroke-width: 2; stroke-linecap: round"/>
   </g>
   <g id="line2d_55">
    <path d="M 616.281974 371.9928 
L 616.281974 39.3528 
" clip-path="url(#p7802ff0d97)" style="fill: none; stroke: #00bdbf; stroke-width: 2; stroke-linecap: round"/>
   </g>
   <g id="line2d_56">
    <path d="M 519.366184 371.9928 
L 519.366184 39.3528 
" clip-path="url(#p7802ff0d97)" style="fill: none; stroke: #00bdbf; stroke-width: 2; stroke-linecap: round"/>
   </g>
   <g id="line2d_57">
    <path d="M 889.408289 371.9928 
L 889.408289 39.3528 
" clip-path="url(#p7802ff0d97)" style="fill: none; stroke: #00bdbf; stroke-width: 2; stroke-linecap: round"/>
   </g>
   <g id="line2d_58">
    <path d="M 166.945132 371.9928 
L 166.945132 39.3528 
" clip-path="url(#p7802ff0d97)" style="fill: none; stroke: #00bdbf; stroke-width: 2; stroke-linecap: round"/>
   </g>
   <g id="line2d_59">
    <path d="M 422.450395 371.9928 
L 422.450395 39.3528 
" clip-path="url(#p7802ff0d97)" style="fill: none; stroke: #00bdbf; stroke-width: 2; stroke-linecap: round"/>
   </g>
   <g id="line2d_60">
    <path d="M 519.366184 371.9928 
L 519.366184 39.3528 
" clip-path="url(#p7802ff0d97)" style="fill: none; stroke: #00bdbf; stroke-width: 2; stroke-linecap: round"/>
   </g>
   <g id="line2d_61">
    <path d="M 272.671447 371.9928 
L 272.671447 39.3528 
" clip-path="url(#p7802ff0d97)" style="fill: none; stroke: #00bdbf; stroke-width: 2; stroke-linecap: round"/>
   </g>
   <g id="line2d_62">
    <path d="M 272.671447 371.9928 
L 272.671447 39.3528 
" clip-path="url(#p7802ff0d97)" style="fill: none; stroke: #00bdbf; stroke-width: 2; stroke-linecap: round"/>
   </g>
   <g id="line2d_63">
    <path d="M 475.313553 371.9928 
L 475.313553 39.3528 
" clip-path="url(#p7802ff0d97)" style="fill: none; stroke: #00bdbf; stroke-width: 2; stroke-linecap: round"/>
   </g>
   <g id="line2d_64">
    <path d="M 396.018816 371.9928 
L 396.018816 39.3528 
" clip-path="url(#p7802ff0d97)" style="fill: none; stroke: #00bdbf; stroke-width: 2; stroke-linecap: round"/>
   </g>
   <g id="line2d_65">
    <path d="M 1585.439868 371.9928 
L 1585.439868 39.3528 
" clip-path="url(#p7802ff0d97)" style="fill: none; stroke: #00bdbf; stroke-width: 2; stroke-linecap: round"/>
   </g>
   <g id="line2d_66">
    <path d="M 299.103026 371.9928 
L 299.103026 39.3528 
" clip-path="url(#p7802ff0d97)" style="fill: none; stroke: #00bdbf; stroke-width: 2; stroke-linecap: round"/>
   </g>
   <g id="line2d_67">
    <path d="M 563.418816 371.9928 
L 563.418816 39.3528 
" clip-path="url(#p7802ff0d97)" style="fill: none; stroke: #00bdbf; stroke-width: 2; stroke-linecap: round"/>
   </g>
   <g id="line2d_68">
    <path d="M 625.0925 371.9928 
L 625.0925 39.3528 
" clip-path="url(#p7802ff0d97)" style="fill: none; stroke: #00bdbf; stroke-width: 2; stroke-linecap: round"/>
   </g>
   <g id="line2d_69">
    <path d="M 651.524079 371.9928 
L 651.524079 39.3528 
" clip-path="url(#p7802ff0d97)" style="fill: none; stroke: #00bdbf; stroke-width: 2; stroke-linecap: round"/>
   </g>
   <g id="line2d_70">
    <path d="M 369.587237 371.9928 
L 369.587237 39.3528 
" clip-path="url(#p7802ff0d97)" style="fill: none; stroke: #00bdbf; stroke-width: 2; stroke-linecap: round"/>
   </g>
   <g id="line2d_71">
    <path d="M 166.945132 371.9928 
L 166.945132 39.3528 
" clip-path="url(#p7802ff0d97)" style="fill: none; stroke: #00bdbf; stroke-width: 2; stroke-linecap: round"/>
   </g>
   <g id="line2d_72">
    <path d="M 669.145132 371.9928 
L 669.145132 39.3528 
" clip-path="url(#p7802ff0d97)" style="fill: none; stroke: #00bdbf; stroke-width: 2; stroke-linecap: round"/>
   </g>
   <g id="line2d_73">
    <path d="M 1664.734605 371.9928 
L 1664.734605 39.3528 
" clip-path="url(#p7802ff0d97)" style="fill: none; stroke: #00bdbf; stroke-width: 2; stroke-linecap: round"/>
   </g>
   <g id="line2d_74">
    <path d="M 431.260921 371.9928 
L 431.260921 39.3528 
" clip-path="url(#p7802ff0d97)" style="fill: none; stroke: #00bdbf; stroke-width: 2; stroke-linecap: round"/>
   </g>
   <g id="line2d_75">
    <path d="M 1224.208289 371.9928 
L 1224.208289 39.3528 
" clip-path="url(#p7802ff0d97)" style="fill: none; stroke: #00bdbf; stroke-width: 2; stroke-linecap: round"/>
   </g>
   <g id="line2d_76">
    <path d="M 1206.587237 371.9928 
L 1206.587237 39.3528 
" clip-path="url(#p7802ff0d97)" style="fill: none; stroke: #00bdbf; stroke-width: 2; stroke-linecap: round"/>
   </g>
   <g id="line2d_77">
    <path d="M 122.8925 364.9528 
L 131.703026 371.9928 
L 140.513553 371.9928 
L 149.324079 364.9528 
L 158.134605 322.7128 
L 166.945132 322.7128 
L 175.755658 357.9128 
L 184.566184 371.9928 
L 193.376711 343.8328 
L 202.187237 364.9528 
L 210.997763 364.9528 
L 228.618816 350.8728 
L 237.429342 364.9528 
L 246.239868 336.7928 
L 255.050395 343.8328 
L 263.860921 329.7528 
L 272.671447 280.4728 
L 281.481974 357.9128 
L 290.2925 350.8728 
L 299.103026 322.7128 
L 307.913553 336.7928 
L 316.724079 336.7928 
L 325.534605 329.7528 
L 334.345132 287.5128 
L 343.155658 315.6728 
L 351.966184 273.4328 
L 360.776711 315.6728 
L 369.587237 210.0728 
L 378.397763 181.9128 
L 387.208289 259.3528 
L 396.018816 238.2328 
L 404.829342 238.2328 
L 413.639868 294.5528 
L 422.450395 245.2728 
L 431.260921 245.2728 
L 448.881974 287.5128 
L 457.6925 259.3528 
L 466.503026 280.4728 
L 475.313553 210.0728 
L 484.124079 266.3928 
L 492.934605 266.3928 
L 501.745132 273.4328 
L 510.555658 308.6328 
L 519.366184 238.2328 
L 528.176711 224.1528 
L 536.987237 259.3528 
L 545.797763 273.4328 
L 554.608289 217.1128 
L 563.418816 280.4728 
L 572.229342 245.2728 
L 581.039868 217.1128 
L 589.850395 217.1128 
L 598.660921 238.2328 
L 607.471447 238.2328 
L 616.281974 259.3528 
L 625.0925 224.1528 
L 633.903026 252.3128 
L 642.713553 231.1928 
L 651.524079 252.3128 
L 660.334605 266.3928 
L 669.145132 167.8328 
L 677.955658 231.1928 
L 686.766184 181.9128 
L 695.576711 188.9528 
L 704.387237 259.3528 
L 713.197763 188.9528 
L 722.008289 217.1128 
L 730.818816 259.3528 
L 739.629342 224.1528 
L 748.439868 174.8728 
L 757.250395 259.3528 
L 766.060921 273.4328 
L 774.871447 97.4328 
L 783.681974 203.0328 
L 792.4925 76.3128 
L 801.303026 174.8728 
L 810.113553 118.5528 
L 818.924079 153.7528 
L 827.734605 167.8328 
L 836.545132 174.8728 
L 845.355658 146.7128 
L 854.166184 238.2328 
L 862.976711 125.5928 
L 871.787237 97.4328 
L 880.597763 90.3928 
L 889.408289 111.5128 
L 898.218816 104.4728 
L 907.029342 55.1928 
L 915.839868 97.4328 
L 924.650395 83.3528 
L 942.271447 195.9928 
L 951.081974 90.3928 
L 959.8925 83.3528 
L 968.703026 146.7128 
L 977.513553 125.5928 
L 986.324079 97.4328 
L 995.134605 132.6328 
L 1003.945132 139.6728 
L 1012.755658 62.2328 
L 1021.566184 146.7128 
L 1030.376711 104.4728 
L 1039.187237 153.7528 
L 1047.997763 153.7528 
L 1056.808289 76.3128 
L 1065.618816 104.4728 
L 1074.429342 97.4328 
L 1083.239868 181.9128 
L 1092.050395 111.5128 
L 1100.860921 118.5528 
L 1109.671447 69.2728 
L 1118.481974 125.5928 
L 1127.2925 90.3928 
L 1136.103026 160.7928 
L 1144.913553 203.0328 
L 1153.724079 203.0328 
L 1162.534605 195.9928 
L 1171.345132 146.7128 
L 1180.155658 259.3528 
L 1188.966184 210.0728 
L 1197.776711 118.5528 
L 1206.587237 153.7528 
L 1215.397763 203.0328 
L 1224.208289 224.1528 
L 1233.018816 195.9928 
L 1241.829342 238.2328 
L 1250.639868 210.0728 
L 1259.450395 238.2328 
L 1268.260921 160.7928 
L 1277.071447 146.7128 
L 1285.881974 174.8728 
L 1294.6925 210.0728 
L 1303.503026 181.9128 
L 1312.313553 231.1928 
L 1321.124079 210.0728 
L 1329.934605 146.7128 
L 1338.745132 231.1928 
L 1347.555658 224.1528 
L 1356.366184 224.1528 
L 1365.176711 245.2728 
L 1373.987237 238.2328 
L 1382.797763 224.1528 
L 1391.608289 252.3128 
L 1400.418816 273.4328 
L 1409.229342 252.3128 
L 1418.039868 217.1128 
L 1426.850395 224.1528 
L 1435.660921 238.2328 
L 1444.471447 294.5528 
L 1453.281974 308.6328 
L 1462.0925 224.1528 
L 1470.903026 273.4328 
L 1479.713553 273.4328 
L 1488.524079 259.3528 
L 1497.334605 301.5928 
L 1506.145132 273.4328 
L 1514.955658 174.8728 
L 1523.766184 231.1928 
L 1532.576711 336.7928 
L 1541.387237 301.5928 
L 1550.197763 273.4328 
L 1567.818816 287.5128 
L 1576.629342 329.7528 
L 1585.439868 287.5128 
L 1594.250395 280.4728 
L 1603.060921 308.6328 
L 1611.871447 329.7528 
L 1620.681974 294.5528 
L 1629.4925 301.5928 
L 1638.303026 315.6728 
L 1647.113553 308.6328 
L 1655.924079 336.7928 
L 1664.734605 287.5128 
L 1673.545132 315.6728 
L 1682.355658 301.5928 
L 1691.166184 301.5928 
L 1699.976711 259.3528 
L 1708.787237 266.3928 
L 1717.597763 287.5128 
L 1726.408289 280.4728 
L 1735.218816 294.5528 
L 1744.029342 287.5128 
L 1752.839868 273.4328 
L 1761.650395 336.7928 
L 1770.460921 280.4728 
L 1779.271447 273.4328 
L 1788.081974 252.3128 
L 1796.8925 350.8728 
L 1796.8925 350.8728 
" clip-path="url(#p7802ff0d97)" style="fill: none; stroke: #f3f1e9; stroke-linecap: round"/>
   </g>
   <g id="line2d_78">
    <path d="M 122.8925 364.9528 
L 131.703026 371.9928 
L 140.513553 371.9928 
L 149.324079 364.9528 
L 158.134605 322.7128 
L 166.945132 322.7128 
L 175.755658 357.9128 
L 184.566184 371.9928 
L 193.376711 343.8328 
L 202.187237 364.9528 
L 210.997763 364.9528 
L 228.618816 350.8728 
L 237.429342 364.9528 
L 246.239868 336.7928 
L 255.050395 343.8328 
L 263.860921 329.7528 
L 272.671447 280.4728 
L 281.481974 357.9128 
L 290.2925 350.8728 
L 299.103026 322.7128 
L 307.913553 336.7928 
L 316.724079 336.7928 
L 325.534605 329.7528 
L 334.345132 287.5128 
L 343.155658 315.6728 
L 351.966184 273.4328 
L 360.776711 315.6728 
L 369.587237 210.0728 
L 378.397763 181.9128 
L 387.208289 259.3528 
L 396.018816 238.2328 
L 404.829342 238.2328 
L 413.639868 294.5528 
L 422.450395 245.2728 
L 431.260921 245.2728 
L 448.881974 287.5128 
L 457.6925 259.3528 
L 466.503026 280.4728 
L 475.313553 210.0728 
L 484.124079 266.3928 
L 492.934605 266.3928 
L 501.745132 273.4328 
L 510.555658 308.6328 
L 519.366184 238.2328 
L 528.176711 224.1528 
L 536.987237 259.3528 
L 545.797763 273.4328 
L 554.608289 217.1128 
L 563.418816 280.4728 
L 572.229342 245.2728 
L 581.039868 217.1128 
L 589.850395 217.1128 
L 598.660921 238.2328 
L 607.471447 238.2328 
L 616.281974 259.3528 
L 625.0925 224.1528 
L 633.903026 252.3128 
L 642.713553 231.1928 
L 651.524079 252.3128 
L 660.334605 266.3928 
L 669.145132 167.8328 
L 677.955658 231.1928 
L 686.766184 181.9128 
L 695.576711 188.9528 
L 704.387237 259.3528 
L 713.197763 188.9528 
L 722.008289 217.1128 
L 730.818816 259.3528 
L 739.629342 224.1528 
L 748.439868 174.8728 
L 757.250395 259.3528 
L 766.060921 273.4328 
L 774.871447 97.4328 
L 783.681974 203.0328 
L 792.4925 76.3128 
L 801.303026 174.8728 
L 810.113553 118.5528 
L 818.924079 153.7528 
L 827.734605 167.8328 
L 836.545132 174.8728 
L 845.355658 146.7128 
L 854.166184 238.2328 
L 862.976711 125.5928 
L 871.787237 97.4328 
L 880.597763 90.3928 
L 889.408289 111.5128 
L 898.218816 104.4728 
L 907.029342 55.1928 
L 915.839868 97.4328 
L 924.650395 83.3528 
L 942.271447 195.9928 
L 951.081974 90.3928 
L 959.8925 83.3528 
L 968.703026 146.7128 
L 977.513553 125.5928 
L 986.324079 97.4328 
L 995.134605 132.6328 
L 1003.945132 139.6728 
L 1012.755658 62.2328 
L 1021.566184 146.7128 
L 1030.376711 104.4728 
L 1039.187237 153.7528 
L 1047.997763 153.7528 
L 1056.808289 76.3128 
L 1065.618816 104.4728 
L 1074.429342 97.4328 
L 1083.239868 181.9128 
L 1092.050395 111.5128 
L 1100.860921 118.5528 
L 1109.671447 69.2728 
L 1118.481974 125.5928 
L 1127.2925 90.3928 
L 1136.103026 160.7928 
L 1144.913553 203.0328 
L 1153.724079 203.0328 
L 1162.534605 195.9928 
L 1171.345132 146.7128 
L 1180.155658 259.3528 
L 1188.966184 210.0728 
L 1197.776711 118.5528 
L 1206.587237 153.7528 
L 1215.397763 203.0328 
L 1224.208289 224.1528 
L 1233.018816 195.9928 
L 1241.829342 238.2328 
L 1250.639868 210.0728 
L 1259.450395 238.2328 
L 1268.260921 160.7928 
L 1277.071447 146.7128 
L 1285.881974 174.8728 
L 1294.6925 210.0728 
L 1303.503026 181.9128 
L 1312.313553 231.1928 
L 1321.124079 210.0728 
L 1329.934605 146.7128 
L 1338.745132 231.1928 
L 1347.555658 224.1528 
L 1356.366184 224.1528 
L 1365.176711 245.2728 
L 1373.987237 238.2328 
L 1382.797763 224.1528 
L 1391.608289 252.3128 
L 1400.418816 273.4328 
L 1409.229342 252.3128 
L 1418.039868 217.1128 
L 1426.850395 224.1528 
L 1435.660921 238.2328 
L 1444.471447 294.5528 
L 1453.281974 308.6328 
L 1462.0925 224.1528 
L 1470.903026 273.4328 
L 1479.713553 273.4328 
L 1488.524079 259.3528 
L 1497.334605 301.5928 
L 1506.145132 273.4328 
L 1514.955658 174.8728 
L 1523.766184 231.1928 
L 1532.576711 336.7928 
L 1541.387237 301.5928 
L 1550.197763 273.4328 
L 1567.818816 287.5128 
L 1576.629342 329.7528 
L 1585.439868 287.5128 
L 1594.250395 280.4728 
L 1603.060921 308.6328 
L 1611.871447 329.7528 
L 1620.681974 294.5528 
L 1629.4925 301.5928 
L 1638.303026 315.6728 
L 1647.113553 308.6328 
L 1655.924079 336.7928 
L 1664.734605 287.5128 
L 1673.545132 315.6728 
L 1682.355658 301.5928 
L 1691.166184 301.5928 
L 1699.976711 259.3528 
L 1708.787237 266.3928 
L 1717.597763 287.5128 
L 1726.408289 280.4728 
L 1735.218816 294.5528 
L 1744.029342 287.5128 
L 1752.839868 273.4328 
L 1761.650395 336.7928 
L 1770.460921 280.4728 
L 1779.271447 273.4328 
L 1788.081974 252.3128 
L 1796.8925 350.8728 
L 1796.8925 350.8728 
" clip-path="url(#p7802ff0d97)" style="fill: none; stroke: #000000; stroke-linecap: round"/>
   </g>
   <g id="patch_3">
    <path d="M 122.8925 371.9928 
L 122.8925 39.3528 
" style="fill: none; stroke: #cccccc; stroke-width: 2.5; stroke-linejoin: miter; stroke-linecap: square"/>
   </g>
   <g id="patch_4">
    <path d="M 1796.8925 371.9928 
L 1796.8925 39.3528 
" style="fill: none; stroke: #cccccc; stroke-width: 2.5; stroke-linejoin: miter; stroke-linecap: square"/>
   </g>
   <g id="patch_5">
    <path d="M 122.8925 371.9928 
L 1796.8925 371.9928 
" style="fill: none; stroke: #cccccc; stroke-width: 2.5; stroke-linejoin: miter; stroke-linecap: square"/>
   </g>
   <g id="patch_6">
    <path d="M 122.8925 39.3528 
L 1796.8925 39.3528 
" style="fill: none; stroke: #cccccc; stroke-width: 2.5; stroke-linejoin: miter; stroke-linecap: square"/>
   </g>
   <g id="text_16">
    <!-- Creation of Twitter accounts over time -->
    <g style="fill: #262626" transform="translate(733.783906 26.7) scale(0.26 -0.26)">
     <defs>
      <path id="FiraSans-Regular-43" d="M 2182 4486 
Q 2579 4486 2851 4384 
Q 3123 4282 3405 4051 
L 3072 3661 
Q 2669 3987 2221 3987 
Q 1670 3987 1334 3564 
Q 998 3142 998 2208 
Q 998 1299 1331 867 
Q 1664 435 2214 435 
Q 2496 435 2707 531 
Q 2918 627 3155 800 
L 3456 416 
Q 3251 205 2931 64 
Q 2611 -77 2195 -77 
Q 1658 -77 1238 188 
Q 819 454 585 969 
Q 352 1485 352 2208 
Q 352 2931 595 3446 
Q 838 3962 1254 4224 
Q 1670 4486 2182 4486 
z
" transform="scale(0.015625)"/>
      <path id="FiraSans-Regular-66" d="M 1754 4326 
Q 1485 4326 1369 4208 
Q 1254 4090 1254 3840 
L 1254 3373 
L 2074 3373 
L 2010 2918 
L 1254 2918 
L 1254 0 
L 666 0 
L 666 2918 
L 64 2918 
L 64 3373 
L 666 3373 
L 666 3834 
Q 666 4269 944 4534 
Q 1222 4800 1722 4800 
Q 1952 4800 2134 4758 
Q 2317 4717 2528 4627 
L 2342 4198 
Q 2054 4326 1754 4326 
z
" transform="scale(0.015625)"/>
      <path id="FiraSans-Regular-76" d="M 3085 3373 
L 1939 0 
L 1229 0 
L 64 3373 
L 704 3373 
L 1587 525 
L 2464 3373 
L 3085 3373 
z
" transform="scale(0.015625)"/>
     </defs>
     <use xlink:href="#FiraSans-Regular-43"/>
     <use xlink:href="#FiraSans-Regular-72" transform="translate(55.999985 0)"/>
     <use xlink:href="#FiraSans-Regular-65" transform="translate(94.599976 0)"/>
     <use xlink:href="#FiraSans-Regular-61" transform="translate(149.09996 0)"/>
     <use xlink:href="#FiraSans-Regular-74" transform="translate(203.499954 0)"/>
     <use xlink:href="#FiraSans-Regular-69" transform="translate(239.599945 0)"/>
     <use xlink:href="#FiraSans-Regular-6f" transform="translate(267.799942 0)"/>
     <use xlink:href="#FiraSans-Regular-6e" transform="translate(326.199936 0)"/>
     <use xlink:href="#FiraSans-Regular-20" transform="translate(384.799927 0)"/>
     <use xlink:href="#FiraSans-Regular-6f" transform="translate(411.299911 0)"/>
     <use xlink:href="#FiraSans-Regular-66" transform="translate(469.699905 0)"/>
     <use xlink:href="#FiraSans-Regular-20" transform="translate(503.19989 0)"/>
     <use xlink:href="#FiraSans-Regular-54" transform="translate(529.699875 0)"/>
     <use xlink:href="#FiraSans-Regular-77" transform="translate(581.399872 0)"/>
     <use xlink:href="#FiraSans-Regular-69" transform="translate(653.099854 0)"/>
     <use xlink:href="#FiraSans-Regular-74" transform="translate(681.29985 0)"/>
     <use xlink:href="#FiraSans-Regular-74" transform="translate(717.399841 0)"/>
     <use xlink:href="#FiraSans-Regular-65" transform="translate(753.499832 0)"/>
     <use xlink:href="#FiraSans-Regular-72" transform="translate(807.999817 0)"/>
     <use xlink:href="#FiraSans-Regular-20" transform="translate(846.599808 0)"/>
     <use xlink:href="#FiraSans-Regular-61" transform="translate(873.099792 0)"/>
     <use xlink:href="#FiraSans-Regular-63" transform="translate(927.499786 0)"/>
     <use xlink:href="#FiraSans-Regular-63" transform="translate(975.299774 0)"/>
     <use xlink:href="#FiraSans-Regular-6f" transform="translate(1023.099762 0)"/>
     <use xlink:href="#FiraSans-Regular-75" transform="translate(1081.499756 0)"/>
     <use xlink:href="#FiraSans-Regular-6e" transform="translate(1139.699753 0)"/>
     <use xlink:href="#FiraSans-Regular-74" transform="translate(1198.299744 0)"/>
     <use xlink:href="#FiraSans-Regular-73" transform="translate(1234.399734 0)"/>
     <use xlink:href="#FiraSans-Regular-20" transform="translate(1281.099731 0)"/>
     <use xlink:href="#FiraSans-Regular-6f" transform="translate(1307.599716 0)"/>
     <use xlink:href="#FiraSans-Regular-76" transform="translate(1365.99971 0)"/>
     <use xlink:href="#FiraSans-Regular-65" transform="translate(1415.199707 0)"/>
     <use xlink:href="#FiraSans-Regular-72" transform="translate(1469.699692 0)"/>
     <use xlink:href="#FiraSans-Regular-20" transform="translate(1508.299683 0)"/>
     <use xlink:href="#FiraSans-Regular-74" transform="translate(1534.799667 0)"/>
     <use xlink:href="#FiraSans-Regular-69" transform="translate(1570.899658 0)"/>
     <use xlink:href="#FiraSans-Regular-6d" transform="translate(1599.099655 0)"/>
     <use xlink:href="#FiraSans-Regular-65" transform="translate(1684.799637 0)"/>
    </g>
   </g>
  </g>
  <g id="axes_2">
   <g id="patch_7">
    <path d="M 122.8925 870.9528 
L 1796.8925 870.9528 
L 1796.8925 538.3128 
L 122.8925 538.3128 
z
" style="fill: #ffffff"/>
   </g>
   <g id="matplotlib.axis_3">
    <g id="text_17">
     <!-- Twitter accounts -->
     <g style="fill: #262626" transform="translate(869.725625 892.9528) scale(0.24 -0.24)">
      <use xlink:href="#FiraSans-Regular-54"/>
      <use xlink:href="#FiraSans-Regular-77" transform="translate(51.699997 0)"/>
      <use xlink:href="#FiraSans-Regular-69" transform="translate(123.399979 0)"/>
      <use xlink:href="#FiraSans-Regular-74" transform="translate(151.599976 0)"/>
      <use xlink:href="#FiraSans-Regular-74" transform="translate(187.699966 0)"/>
      <use xlink:href="#FiraSans-Regular-65" transform="translate(223.799957 0)"/>
      <use xlink:href="#FiraSans-Regular-72" transform="translate(278.299942 0)"/>
      <use xlink:href="#FiraSans-Regular-20" transform="translate(316.899933 0)"/>
      <use xlink:href="#FiraSans-Regular-61" transform="translate(343.399918 0)"/>
      <use xlink:href="#FiraSans-Regular-63" transform="translate(397.799911 0)"/>
      <use xlink:href="#FiraSans-Regular-63" transform="translate(445.599899 0)"/>
      <use xlink:href="#FiraSans-Regular-6f" transform="translate(493.399887 0)"/>
      <use xlink:href="#FiraSans-Regular-75" transform="translate(551.799881 0)"/>
      <use xlink:href="#FiraSans-Regular-6e" transform="translate(609.999878 0)"/>
      <use xlink:href="#FiraSans-Regular-74" transform="translate(668.599869 0)"/>
      <use xlink:href="#FiraSans-Regular-73" transform="translate(704.69986 0)"/>
     </g>
    </g>
   </g>
   <g id="matplotlib.axis_4">
    <g id="ytick_6">
     <g id="line2d_79">
      <path d="M 122.8925 870.9528 
L 1796.8925 870.9528 
" clip-path="url(#pf1a11e18df)" style="fill: none; stroke: #cccccc; stroke-width: 2; stroke-linecap: round"/>
     </g>
     <g id="text_18">
      <!-- 0 -->
      <g style="fill: #262626" transform="translate(95.117188 879.2028) scale(0.22 -0.22)">
       <use xlink:href="#FiraSans-Regular-30"/>
      </g>
     </g>
    </g>
    <g id="ytick_7">
     <g id="line2d_80">
      <path d="M 122.8925 804.654874 
L 1796.8925 804.654874 
" clip-path="url(#pf1a11e18df)" style="fill: none; stroke: #cccccc; stroke-width: 2; stroke-linecap: round"/>
     </g>
     <g id="text_19">
      <!-- 100000 -->
      <g style="fill: #262626" transform="translate(36.490625 812.904874) scale(0.22 -0.22)">
       <use xlink:href="#FiraSans-Regular-31"/>
       <use xlink:href="#FiraSans-Regular-30" transform="translate(43.299988 0)"/>
       <use xlink:href="#FiraSans-Regular-30" transform="translate(99.099976 0)"/>
       <use xlink:href="#FiraSans-Regular-30" transform="translate(154.899963 0)"/>
       <use xlink:href="#FiraSans-Regular-30" transform="translate(210.699951 0)"/>
       <use xlink:href="#FiraSans-Regular-30" transform="translate(266.499939 0)"/>
      </g>
     </g>
    </g>
    <g id="ytick_8">
     <g id="line2d_81">
      <path d="M 122.8925 738.356947 
L 1796.8925 738.356947 
" clip-path="url(#pf1a11e18df)" style="fill: none; stroke: #cccccc; stroke-width: 2; stroke-linecap: round"/>
     </g>
     <g id="text_20">
      <!-- 200000 -->
      <g style="fill: #262626" transform="translate(35.125938 746.606947) scale(0.22 -0.22)">
       <use xlink:href="#FiraSans-Regular-32"/>
       <use xlink:href="#FiraSans-Regular-30" transform="translate(49.499985 0)"/>
       <use xlink:href="#FiraSans-Regular-30" transform="translate(105.299973 0)"/>
       <use xlink:href="#FiraSans-Regular-30" transform="translate(161.09996 0)"/>
       <use xlink:href="#FiraSans-Regular-30" transform="translate(216.899948 0)"/>
       <use xlink:href="#FiraSans-Regular-30" transform="translate(272.699936 0)"/>
      </g>
     </g>
    </g>
    <g id="ytick_9">
     <g id="line2d_82">
      <path d="M 122.8925 672.059021 
L 1796.8925 672.059021 
" clip-path="url(#pf1a11e18df)" style="fill: none; stroke: #cccccc; stroke-width: 2; stroke-linecap: round"/>
     </g>
     <g id="text_21">
      <!-- 300000 -->
      <g style="fill: #262626" transform="translate(35.036563 680.309021) scale(0.22 -0.22)">
       <use xlink:href="#FiraSans-Regular-33"/>
       <use xlink:href="#FiraSans-Regular-30" transform="translate(49.899994 0)"/>
       <use xlink:href="#FiraSans-Regular-30" transform="translate(105.699982 0)"/>
       <use xlink:href="#FiraSans-Regular-30" transform="translate(161.499969 0)"/>
       <use xlink:href="#FiraSans-Regular-30" transform="translate(217.299957 0)"/>
       <use xlink:href="#FiraSans-Regular-30" transform="translate(273.099945 0)"/>
      </g>
     </g>
    </g>
    <g id="ytick_10">
     <g id="line2d_83">
      <path d="M 122.8925 605.761095 
L 1796.8925 605.761095 
" clip-path="url(#pf1a11e18df)" style="fill: none; stroke: #cccccc; stroke-width: 2; stroke-linecap: round"/>
     </g>
     <g id="text_22">
      <!-- 400000 -->
      <g style="fill: #262626" transform="translate(34.31125 614.011095) scale(0.22 -0.22)">
       <use xlink:href="#FiraSans-Regular-34"/>
       <use xlink:href="#FiraSans-Regular-30" transform="translate(53.199997 0)"/>
       <use xlink:href="#FiraSans-Regular-30" transform="translate(108.999985 0)"/>
       <use xlink:href="#FiraSans-Regular-30" transform="translate(164.799973 0)"/>
       <use xlink:href="#FiraSans-Regular-30" transform="translate(220.59996 0)"/>
       <use xlink:href="#FiraSans-Regular-30" transform="translate(276.399948 0)"/>
      </g>
     </g>
    </g>
    <g id="ytick_11">
     <g id="line2d_84">
      <path d="M 122.8925 539.463168 
L 1796.8925 539.463168 
" clip-path="url(#pf1a11e18df)" style="fill: none; stroke: #cccccc; stroke-width: 2; stroke-linecap: round"/>
     </g>
     <g id="text_23">
      <!-- 500000 -->
      <g style="fill: #262626" transform="translate(34.995313 547.713168) scale(0.22 -0.22)">
       <use xlink:href="#FiraSans-Regular-35"/>
       <use xlink:href="#FiraSans-Regular-30" transform="translate(50.099991 0)"/>
       <use xlink:href="#FiraSans-Regular-30" transform="translate(105.899979 0)"/>
       <use xlink:href="#FiraSans-Regular-30" transform="translate(161.699966 0)"/>
       <use xlink:href="#FiraSans-Regular-30" transform="translate(217.499954 0)"/>
       <use xlink:href="#FiraSans-Regular-30" transform="translate(273.299942 0)"/>
      </g>
     </g>
    </g>
    <g id="text_24">
     <!-- Number of tweets -->
     <g style="fill: #262626" transform="translate(25.2 801.737175) rotate(-90) scale(0.24 -0.24)">
      <defs>
       <path id="FiraSans-Regular-4e" d="M 3731 0 
L 2918 0 
L 1126 3744 
Q 1165 3302 1187 2928 
Q 1210 2554 1210 2022 
L 1210 0 
L 640 0 
L 640 4410 
L 1434 4410 
L 3245 659 
Q 3226 826 3194 1242 
Q 3162 1658 3162 2003 
L 3162 4410 
L 3731 4410 
L 3731 0 
z
" transform="scale(0.015625)"/>
       <path id="FiraSans-Regular-62" d="M 2150 3450 
Q 2726 3450 3065 2986 
Q 3405 2522 3405 1690 
Q 3405 1165 3245 765 
Q 3085 365 2784 144 
Q 2483 -77 2080 -77 
Q 1549 -77 1184 371 
L 1126 0 
L 608 0 
L 608 4730 
L 1197 4800 
L 1197 2950 
Q 1562 3450 2150 3450 
z
M 1939 390 
Q 2330 390 2550 707 
Q 2771 1024 2771 1690 
Q 2771 2374 2566 2678 
Q 2362 2982 1984 2982 
Q 1536 2982 1197 2458 
L 1197 845 
Q 1331 634 1526 512 
Q 1722 390 1939 390 
z
" transform="scale(0.015625)"/>
      </defs>
      <use xlink:href="#FiraSans-Regular-4e"/>
      <use xlink:href="#FiraSans-Regular-75" transform="translate(68.299988 0)"/>
      <use xlink:href="#FiraSans-Regular-6d" transform="translate(126.499985 0)"/>
      <use xlink:href="#FiraSans-Regular-62" transform="translate(212.199966 0)"/>
      <use xlink:href="#FiraSans-Regular-65" transform="translate(271.59996 0)"/>
      <use xlink:href="#FiraSans-Regular-72" transform="translate(326.099945 0)"/>
      <use xlink:href="#FiraSans-Regular-20" transform="translate(364.699936 0)"/>
      <use xlink:href="#FiraSans-Regular-6f" transform="translate(391.199921 0)"/>
      <use xlink:href="#FiraSans-Regular-66" transform="translate(449.599915 0)"/>
      <use xlink:href="#FiraSans-Regular-20" transform="translate(483.099899 0)"/>
      <use xlink:href="#FiraSans-Regular-74" transform="translate(509.599884 0)"/>
      <use xlink:href="#FiraSans-Regular-77" transform="translate(545.699875 0)"/>
      <use xlink:href="#FiraSans-Regular-65" transform="translate(617.399857 0)"/>
      <use xlink:href="#FiraSans-Regular-65" transform="translate(671.899841 0)"/>
      <use xlink:href="#FiraSans-Regular-74" transform="translate(726.399826 0)"/>
      <use xlink:href="#FiraSans-Regular-73" transform="translate(762.499817 0)"/>
     </g>
    </g>
   </g>
   <g id="patch_8">
    <path d="M 127.0775 870.9528 
L 135.4475 870.9528 
L 135.4475 554.1528 
L 127.0775 554.1528 
z
" clip-path="url(#pf1a11e18df)" style="fill: #f3f1e9; stroke: #000000; stroke-width: 2; stroke-linejoin: miter"/>
   </g>
   <g id="patch_9">
    <path d="M 143.8175 870.9528 
L 152.1875 870.9528 
L 152.1875 777.177698 
L 143.8175 777.177698 
z
" clip-path="url(#pf1a11e18df)" style="fill: #f3f1e9; stroke: #000000; stroke-width: 2; stroke-linejoin: miter"/>
   </g>
   <g id="patch_10">
    <path d="M 160.5575 870.9528 
L 168.9275 870.9528 
L 168.9275 789.517068 
L 160.5575 789.517068 
z
" clip-path="url(#pf1a11e18df)" style="fill: #f3f1e9; stroke: #000000; stroke-width: 2; stroke-linejoin: miter"/>
   </g>
   <g id="patch_11">
    <path d="M 177.2975 870.9528 
L 185.6675 870.9528 
L 185.6675 806.157185 
L 177.2975 806.157185 
z
" clip-path="url(#pf1a11e18df)" style="fill: #f3f1e9; stroke: #000000; stroke-width: 2; stroke-linejoin: miter"/>
   </g>
   <g id="patch_12">
    <path d="M 194.0375 870.9528 
L 202.4075 870.9528 
L 202.4075 806.42105 
L 194.0375 806.42105 
z
" clip-path="url(#pf1a11e18df)" style="fill: #f3f1e9; stroke: #000000; stroke-width: 2; stroke-linejoin: miter"/>
   </g>
   <g id="patch_13">
    <path d="M 210.7775 870.9528 
L 219.1475 870.9528 
L 219.1475 813.808628 
L 210.7775 813.808628 
z
" clip-path="url(#pf1a11e18df)" style="fill: #f3f1e9; stroke: #000000; stroke-width: 2; stroke-linejoin: miter"/>
   </g>
   <g id="patch_14">
    <path d="M 227.5175 870.9528 
L 235.8875 870.9528 
L 235.8875 821.566812 
L 227.5175 821.566812 
z
" clip-path="url(#pf1a11e18df)" style="fill: #f3f1e9; stroke: #000000; stroke-width: 2; stroke-linejoin: miter"/>
   </g>
   <g id="patch_15">
    <path d="M 244.2575 870.9528 
L 252.6275 870.9528 
L 252.6275 823.677075 
L 244.2575 823.677075 
z
" clip-path="url(#pf1a11e18df)" style="fill: #f3f1e9; stroke: #000000; stroke-width: 2; stroke-linejoin: miter"/>
   </g>
   <g id="patch_16">
    <path d="M 260.9975 870.9528 
L 269.3675 870.9528 
L 269.3675 824.782924 
L 260.9975 824.782924 
z
" clip-path="url(#pf1a11e18df)" style="fill: #f3f1e9; stroke: #000000; stroke-width: 2; stroke-linejoin: miter"/>
   </g>
   <g id="patch_17">
    <path d="M 277.7375 870.9528 
L 286.1075 870.9528 
L 286.1075 830.045654 
L 277.7375 830.045654 
z
" clip-path="url(#pf1a11e18df)" style="fill: #f3f1e9; stroke: #000000; stroke-width: 2; stroke-linejoin: miter"/>
   </g>
   <g id="patch_18">
    <path d="M 294.4775 870.9528 
L 302.8475 870.9528 
L 302.8475 834.437228 
L 294.4775 834.437228 
z
" clip-path="url(#pf1a11e18df)" style="fill: #f3f1e9; stroke: #000000; stroke-width: 2; stroke-linejoin: miter"/>
   </g>
   <g id="patch_19">
    <path d="M 311.2175 870.9528 
L 319.5875 870.9528 
L 319.5875 838.83477 
L 311.2175 838.83477 
z
" clip-path="url(#pf1a11e18df)" style="fill: #f3f1e9; stroke: #000000; stroke-width: 2; stroke-linejoin: miter"/>
   </g>
   <g id="patch_20">
    <path d="M 327.9575 870.9528 
L 336.3275 870.9528 
L 336.3275 840.243601 
L 327.9575 840.243601 
z
" clip-path="url(#pf1a11e18df)" style="fill: #f3f1e9; stroke: #000000; stroke-width: 2; stroke-linejoin: miter"/>
   </g>
   <g id="patch_21">
    <path d="M 344.6975 870.9528 
L 353.0675 870.9528 
L 353.0675 843.18988 
L 344.6975 843.18988 
z
" clip-path="url(#pf1a11e18df)" style="fill: #f3f1e9; stroke: #000000; stroke-width: 2; stroke-linejoin: miter"/>
   </g>
   <g id="patch_22">
    <path d="M 361.4375 870.9528 
L 369.8075 870.9528 
L 369.8075 845.215945 
L 361.4375 845.215945 
z
" clip-path="url(#pf1a11e18df)" style="fill: #f3f1e9; stroke: #000000; stroke-width: 2; stroke-linejoin: miter"/>
   </g>
   <g id="patch_23">
    <path d="M 378.1775 870.9528 
L 386.5475 870.9528 
L 386.5475 846.722897 
L 378.1775 846.722897 
z
" clip-path="url(#pf1a11e18df)" style="fill: #f3f1e9; stroke: #000000; stroke-width: 2; stroke-linejoin: miter"/>
   </g>
   <g id="patch_24">
    <path d="M 394.9175 870.9528 
L 403.2875 870.9528 
L 403.2875 847.462782 
L 394.9175 847.462782 
z
" clip-path="url(#pf1a11e18df)" style="fill: #f3f1e9; stroke: #000000; stroke-width: 2; stroke-linejoin: miter"/>
   </g>
   <g id="patch_25">
    <path d="M 411.6575 870.9528 
L 420.0275 870.9528 
L 420.0275 847.960016 
L 411.6575 847.960016 
z
" clip-path="url(#pf1a11e18df)" style="fill: #f3f1e9; stroke: #000000; stroke-width: 2; stroke-linejoin: miter"/>
   </g>
   <g id="patch_26">
    <path d="M 428.3975 870.9528 
L 436.7675 870.9528 
L 436.7675 848.160236 
L 428.3975 848.160236 
z
" clip-path="url(#pf1a11e18df)" style="fill: #f3f1e9; stroke: #000000; stroke-width: 2; stroke-linejoin: miter"/>
   </g>
   <g id="patch_27">
    <path d="M 445.1375 870.9528 
L 453.5075 870.9528 
L 453.5075 848.206644 
L 445.1375 848.206644 
z
" clip-path="url(#pf1a11e18df)" style="fill: #f3f1e9; stroke: #000000; stroke-width: 2; stroke-linejoin: miter"/>
   </g>
   <g id="patch_28">
    <path d="M 461.8775 870.9528 
L 470.2475 870.9528 
L 470.2475 848.741006 
L 461.8775 848.741006 
z
" clip-path="url(#pf1a11e18df)" style="fill: #f3f1e9; stroke: #000000; stroke-width: 2; stroke-linejoin: miter"/>
   </g>
   <g id="patch_29">
    <path d="M 478.6175 870.9528 
L 486.9875 870.9528 
L 486.9875 848.741006 
L 478.6175 848.741006 
z
" clip-path="url(#pf1a11e18df)" style="fill: #f3f1e9; stroke: #000000; stroke-width: 2; stroke-linejoin: miter"/>
   </g>
   <g id="patch_30">
    <path d="M 495.3575 870.9528 
L 503.7275 870.9528 
L 503.7275 848.825867 
L 495.3575 848.825867 
z
" clip-path="url(#pf1a11e18df)" style="fill: #f3f1e9; stroke: #000000; stroke-width: 2; stroke-linejoin: miter"/>
   </g>
   <g id="patch_31">
    <path d="M 512.0975 870.9528 
L 520.4675 870.9528 
L 520.4675 850.156466 
L 512.0975 850.156466 
z
" clip-path="url(#pf1a11e18df)" style="fill: #f3f1e9; stroke: #000000; stroke-width: 2; stroke-linejoin: miter"/>
   </g>
   <g id="patch_32">
    <path d="M 528.8375 870.9528 
L 537.2075 870.9528 
L 537.2075 850.266521 
L 528.8375 850.266521 
z
" clip-path="url(#pf1a11e18df)" style="fill: #f3f1e9; stroke: #000000; stroke-width: 2; stroke-linejoin: miter"/>
   </g>
   <g id="patch_33">
    <path d="M 545.5775 870.9528 
L 553.9475 870.9528 
L 553.9475 851.249719 
L 545.5775 851.249719 
z
" clip-path="url(#pf1a11e18df)" style="fill: #f3f1e9; stroke: #000000; stroke-width: 2; stroke-linejoin: miter"/>
   </g>
   <g id="patch_34">
    <path d="M 562.3175 870.9528 
L 570.6875 870.9528 
L 570.6875 852.980758 
L 562.3175 852.980758 
z
" clip-path="url(#pf1a11e18df)" style="fill: #f3f1e9; stroke: #000000; stroke-width: 2; stroke-linejoin: miter"/>
   </g>
   <g id="patch_35">
    <path d="M 579.0575 870.9528 
L 587.4275 870.9528 
L 587.4275 853.211475 
L 579.0575 853.211475 
z
" clip-path="url(#pf1a11e18df)" style="fill: #f3f1e9; stroke: #000000; stroke-width: 2; stroke-linejoin: miter"/>
   </g>
   <g id="patch_36">
    <path d="M 595.7975 870.9528 
L 604.1675 870.9528 
L 604.1675 853.351364 
L 595.7975 853.351364 
z
" clip-path="url(#pf1a11e18df)" style="fill: #f3f1e9; stroke: #000000; stroke-width: 2; stroke-linejoin: miter"/>
   </g>
   <g id="patch_37">
    <path d="M 612.5375 870.9528 
L 620.9075 870.9528 
L 620.9075 854.00042 
L 612.5375 854.00042 
z
" clip-path="url(#pf1a11e18df)" style="fill: #f3f1e9; stroke: #000000; stroke-width: 2; stroke-linejoin: miter"/>
   </g>
   <g id="patch_38">
    <path d="M 629.2775 870.9528 
L 637.6475 870.9528 
L 637.6475 854.14495 
L 629.2775 854.14495 
z
" clip-path="url(#pf1a11e18df)" style="fill: #f3f1e9; stroke: #000000; stroke-width: 2; stroke-linejoin: miter"/>
   </g>
   <g id="patch_39">
    <path d="M 646.0175 870.9528 
L 654.3875 870.9528 
L 654.3875 854.675996 
L 646.0175 854.675996 
z
" clip-path="url(#pf1a11e18df)" style="fill: #f3f1e9; stroke: #000000; stroke-width: 2; stroke-linejoin: miter"/>
   </g>
   <g id="patch_40">
    <path d="M 662.7575 870.9528 
L 671.1275 870.9528 
L 671.1275 854.943177 
L 662.7575 854.943177 
z
" clip-path="url(#pf1a11e18df)" style="fill: #f3f1e9; stroke: #000000; stroke-width: 2; stroke-linejoin: miter"/>
   </g>
   <g id="patch_41">
    <path d="M 679.4975 870.9528 
L 687.8675 870.9528 
L 687.8675 854.975 
L 679.4975 854.975 
z
" clip-path="url(#pf1a11e18df)" style="fill: #f3f1e9; stroke: #000000; stroke-width: 2; stroke-linejoin: miter"/>
   </g>
   <g id="patch_42">
    <path d="M 696.2375 870.9528 
L 704.6075 870.9528 
L 704.6075 855.619416 
L 696.2375 855.619416 
z
" clip-path="url(#pf1a11e18df)" style="fill: #f3f1e9; stroke: #000000; stroke-width: 2; stroke-linejoin: miter"/>
   </g>
   <g id="patch_43">
    <path d="M 712.9775 870.9528 
L 721.3475 870.9528 
L 721.3475 856.136539 
L 712.9775 856.136539 
z
" clip-path="url(#pf1a11e18df)" style="fill: #f3f1e9; stroke: #000000; stroke-width: 2; stroke-linejoin: miter"/>
   </g>
   <g id="patch_44">
    <path d="M 729.7175 870.9528 
L 738.0875 870.9528 
L 738.0875 856.202837 
L 729.7175 856.202837 
z
" clip-path="url(#pf1a11e18df)" style="fill: #f3f1e9; stroke: #000000; stroke-width: 2; stroke-linejoin: miter"/>
   </g>
   <g id="patch_45">
    <path d="M 746.4575 870.9528 
L 754.8275 870.9528 
L 754.8275 856.436869 
L 746.4575 856.436869 
z
" clip-path="url(#pf1a11e18df)" style="fill: #f3f1e9; stroke: #000000; stroke-width: 2; stroke-linejoin: miter"/>
   </g>
   <g id="patch_46">
    <path d="M 763.1975 870.9528 
L 771.5675 870.9528 
L 771.5675 856.737199 
L 763.1975 856.737199 
z
" clip-path="url(#pf1a11e18df)" style="fill: #f3f1e9; stroke: #000000; stroke-width: 2; stroke-linejoin: miter"/>
   </g>
   <g id="patch_47">
    <path d="M 779.9375 870.9528 
L 788.3075 870.9528 
L 788.3075 857.331891 
L 779.9375 857.331891 
z
" clip-path="url(#pf1a11e18df)" style="fill: #f3f1e9; stroke: #000000; stroke-width: 2; stroke-linejoin: miter"/>
   </g>
   <g id="patch_48">
    <path d="M 796.6775 870.9528 
L 805.0475 870.9528 
L 805.0475 857.538741 
L 796.6775 857.538741 
z
" clip-path="url(#pf1a11e18df)" style="fill: #f3f1e9; stroke: #000000; stroke-width: 2; stroke-linejoin: miter"/>
   </g>
   <g id="patch_49">
    <path d="M 813.4175 870.9528 
L 821.7875 870.9528 
L 821.7875 857.60769 
L 813.4175 857.60769 
z
" clip-path="url(#pf1a11e18df)" style="fill: #f3f1e9; stroke: #000000; stroke-width: 2; stroke-linejoin: miter"/>
   </g>
   <g id="patch_50">
    <path d="M 830.1575 870.9528 
L 838.5275 870.9528 
L 838.5275 857.677966 
L 830.1575 857.677966 
z
" clip-path="url(#pf1a11e18df)" style="fill: #f3f1e9; stroke: #000000; stroke-width: 2; stroke-linejoin: miter"/>
   </g>
   <g id="patch_51">
    <path d="M 846.8975 870.9528 
L 855.2675 870.9528 
L 855.2675 858.079069 
L 846.8975 858.079069 
z
" clip-path="url(#pf1a11e18df)" style="fill: #f3f1e9; stroke: #000000; stroke-width: 2; stroke-linejoin: miter"/>
   </g>
   <g id="patch_52">
    <path d="M 863.6375 870.9528 
L 872.0075 870.9528 
L 872.0075 858.09498 
L 863.6375 858.09498 
z
" clip-path="url(#pf1a11e18df)" style="fill: #f3f1e9; stroke: #000000; stroke-width: 2; stroke-linejoin: miter"/>
   </g>
   <g id="patch_53">
    <path d="M 880.3775 870.9528 
L 888.7475 870.9528 
L 888.7475 858.3131 
L 880.3775 858.3131 
z
" clip-path="url(#pf1a11e18df)" style="fill: #f3f1e9; stroke: #000000; stroke-width: 2; stroke-linejoin: miter"/>
   </g>
   <g id="patch_54">
    <path d="M 897.1175 870.9528 
L 905.4875 870.9528 
L 905.4875 858.337631 
L 897.1175 858.337631 
z
" clip-path="url(#pf1a11e18df)" style="fill: #f3f1e9; stroke: #000000; stroke-width: 2; stroke-linejoin: miter"/>
   </g>
   <g id="patch_55">
    <path d="M 913.8575 870.9528 
L 922.2275 870.9528 
L 922.2275 858.403266 
L 913.8575 858.403266 
z
" clip-path="url(#pf1a11e18df)" style="fill: #f3f1e9; stroke: #000000; stroke-width: 2; stroke-linejoin: miter"/>
   </g>
   <g id="patch_56">
    <path d="M 930.5975 870.9528 
L 938.9675 870.9528 
L 938.9675 858.410558 
L 930.5975 858.410558 
z
" clip-path="url(#pf1a11e18df)" style="fill: #f3f1e9; stroke: #000000; stroke-width: 2; stroke-linejoin: miter"/>
   </g>
   <g id="patch_57">
    <path d="M 947.3375 870.9528 
L 955.7075 870.9528 
L 955.7075 858.560392 
L 947.3375 858.560392 
z
" clip-path="url(#pf1a11e18df)" style="fill: #f3f1e9; stroke: #000000; stroke-width: 2; stroke-linejoin: miter"/>
   </g>
   <g id="patch_58">
    <path d="M 964.0775 870.9528 
L 972.4475 870.9528 
L 972.4475 858.610778 
L 964.0775 858.610778 
z
" clip-path="url(#pf1a11e18df)" style="fill: #f3f1e9; stroke: #000000; stroke-width: 2; stroke-linejoin: miter"/>
   </g>
   <g id="patch_59">
    <path d="M 980.8175 870.9528 
L 989.1875 870.9528 
L 989.1875 858.909119 
L 980.8175 858.909119 
z
" clip-path="url(#pf1a11e18df)" style="fill: #f3f1e9; stroke: #000000; stroke-width: 2; stroke-linejoin: miter"/>
   </g>
   <g id="patch_60">
    <path d="M 997.5575 870.9528 
L 1005.9275 870.9528 
L 1005.9275 859.244586 
L 997.5575 859.244586 
z
" clip-path="url(#pf1a11e18df)" style="fill: #f3f1e9; stroke: #000000; stroke-width: 2; stroke-linejoin: miter"/>
   </g>
   <g id="patch_61">
    <path d="M 1014.2975 870.9528 
L 1022.6675 870.9528 
L 1022.6675 859.283039 
L 1014.2975 859.283039 
z
" clip-path="url(#pf1a11e18df)" style="fill: #f3f1e9; stroke: #000000; stroke-width: 2; stroke-linejoin: miter"/>
   </g>
   <g id="patch_62">
    <path d="M 1031.0375 870.9528 
L 1039.4075 870.9528 
L 1039.4075 859.330774 
L 1031.0375 859.330774 
z
" clip-path="url(#pf1a11e18df)" style="fill: #f3f1e9; stroke: #000000; stroke-width: 2; stroke-linejoin: miter"/>
   </g>
   <g id="patch_63">
    <path d="M 1047.7775 870.9528 
L 1056.1475 870.9528 
L 1056.1475 859.454088 
L 1047.7775 859.454088 
z
" clip-path="url(#pf1a11e18df)" style="fill: #f3f1e9; stroke: #000000; stroke-width: 2; stroke-linejoin: miter"/>
   </g>
   <g id="patch_64">
    <path d="M 1064.5175 870.9528 
L 1072.8875 870.9528 
L 1072.8875 859.741821 
L 1064.5175 859.741821 
z
" clip-path="url(#pf1a11e18df)" style="fill: #f3f1e9; stroke: #000000; stroke-width: 2; stroke-linejoin: miter"/>
   </g>
   <g id="patch_65">
    <path d="M 1081.2575 870.9528 
L 1089.6275 870.9528 
L 1089.6275 859.802152 
L 1081.2575 859.802152 
z
" clip-path="url(#pf1a11e18df)" style="fill: #f3f1e9; stroke: #000000; stroke-width: 2; stroke-linejoin: miter"/>
   </g>
   <g id="patch_66">
    <path d="M 1097.9975 870.9528 
L 1106.3675 870.9528 
L 1106.3675 860.085244 
L 1097.9975 860.085244 
z
" clip-path="url(#pf1a11e18df)" style="fill: #f3f1e9; stroke: #000000; stroke-width: 2; stroke-linejoin: miter"/>
   </g>
   <g id="patch_67">
    <path d="M 1114.7375 870.9528 
L 1123.1075 870.9528 
L 1123.1075 860.219829 
L 1114.7375 860.219829 
z
" clip-path="url(#pf1a11e18df)" style="fill: #f3f1e9; stroke: #000000; stroke-width: 2; stroke-linejoin: miter"/>
   </g>
   <g id="patch_68">
    <path d="M 1131.4775 870.9528 
L 1139.8475 870.9528 
L 1139.8475 860.228447 
L 1131.4775 860.228447 
z
" clip-path="url(#pf1a11e18df)" style="fill: #f3f1e9; stroke: #000000; stroke-width: 2; stroke-linejoin: miter"/>
   </g>
   <g id="patch_69">
    <path d="M 1148.2175 870.9528 
L 1156.5875 870.9528 
L 1156.5875 860.380933 
L 1148.2175 860.380933 
z
" clip-path="url(#pf1a11e18df)" style="fill: #f3f1e9; stroke: #000000; stroke-width: 2; stroke-linejoin: miter"/>
   </g>
   <g id="patch_70">
    <path d="M 1164.9575 870.9528 
L 1173.3275 870.9528 
L 1173.3275 860.382922 
L 1164.9575 860.382922 
z
" clip-path="url(#pf1a11e18df)" style="fill: #f3f1e9; stroke: #000000; stroke-width: 2; stroke-linejoin: miter"/>
   </g>
   <g id="patch_71">
    <path d="M 1181.6975 870.9528 
L 1190.0675 870.9528 
L 1190.0675 860.475076 
L 1181.6975 860.475076 
z
" clip-path="url(#pf1a11e18df)" style="fill: #f3f1e9; stroke: #000000; stroke-width: 2; stroke-linejoin: miter"/>
   </g>
   <g id="patch_72">
    <path d="M 1198.4375 870.9528 
L 1206.8075 870.9528 
L 1206.8075 860.735627 
L 1198.4375 860.735627 
z
" clip-path="url(#pf1a11e18df)" style="fill: #f3f1e9; stroke: #000000; stroke-width: 2; stroke-linejoin: miter"/>
   </g>
   <g id="patch_73">
    <path d="M 1215.1775 870.9528 
L 1223.5475 870.9528 
L 1223.5475 860.784024 
L 1215.1775 860.784024 
z
" clip-path="url(#pf1a11e18df)" style="fill: #f3f1e9; stroke: #000000; stroke-width: 2; stroke-linejoin: miter"/>
   </g>
   <g id="patch_74">
    <path d="M 1231.9175 870.9528 
L 1240.2875 870.9528 
L 1240.2875 860.861593 
L 1231.9175 860.861593 
z
" clip-path="url(#pf1a11e18df)" style="fill: #f3f1e9; stroke: #000000; stroke-width: 2; stroke-linejoin: miter"/>
   </g>
   <g id="patch_75">
    <path d="M 1248.6575 870.9528 
L 1257.0275 870.9528 
L 1257.0275 860.862919 
L 1248.6575 860.862919 
z
" clip-path="url(#pf1a11e18df)" style="fill: #f3f1e9; stroke: #000000; stroke-width: 2; stroke-linejoin: miter"/>
   </g>
   <g id="patch_76">
    <path d="M 1265.3975 870.9528 
L 1273.7675 870.9528 
L 1273.7675 861.205679 
L 1265.3975 861.205679 
z
" clip-path="url(#pf1a11e18df)" style="fill: #f3f1e9; stroke: #000000; stroke-width: 2; stroke-linejoin: miter"/>
   </g>
   <g id="patch_77">
    <path d="M 1282.1375 870.9528 
L 1290.5075 870.9528 
L 1290.5075 861.285236 
L 1282.1375 861.285236 
z
" clip-path="url(#pf1a11e18df)" style="fill: #f3f1e9; stroke: #000000; stroke-width: 2; stroke-linejoin: miter"/>
   </g>
   <g id="patch_78">
    <path d="M 1298.8775 870.9528 
L 1307.2475 870.9528 
L 1307.2475 861.29717 
L 1298.8775 861.29717 
z
" clip-path="url(#pf1a11e18df)" style="fill: #f3f1e9; stroke: #000000; stroke-width: 2; stroke-linejoin: miter"/>
   </g>
   <g id="patch_79">
    <path d="M 1315.6175 870.9528 
L 1323.9875 870.9528 
L 1323.9875 861.491423 
L 1315.6175 861.491423 
z
" clip-path="url(#pf1a11e18df)" style="fill: #f3f1e9; stroke: #000000; stroke-width: 2; stroke-linejoin: miter"/>
   </g>
   <g id="patch_80">
    <path d="M 1332.3575 870.9528 
L 1340.7275 870.9528 
L 1340.7275 861.568992 
L 1332.3575 861.568992 
z
" clip-path="url(#pf1a11e18df)" style="fill: #f3f1e9; stroke: #000000; stroke-width: 2; stroke-linejoin: miter"/>
   </g>
   <g id="patch_81">
    <path d="M 1349.0975 870.9528 
L 1357.4675 870.9528 
L 1357.4675 861.630649 
L 1349.0975 861.630649 
z
" clip-path="url(#pf1a11e18df)" style="fill: #f3f1e9; stroke: #000000; stroke-width: 2; stroke-linejoin: miter"/>
   </g>
   <g id="patch_82">
    <path d="M 1365.8375 870.9528 
L 1374.2075 870.9528 
L 1374.2075 861.94689 
L 1365.8375 861.94689 
z
" clip-path="url(#pf1a11e18df)" style="fill: #f3f1e9; stroke: #000000; stroke-width: 2; stroke-linejoin: miter"/>
   </g>
   <g id="patch_83">
    <path d="M 1382.5775 870.9528 
L 1390.9475 870.9528 
L 1390.9475 861.972083 
L 1382.5775 861.972083 
z
" clip-path="url(#pf1a11e18df)" style="fill: #f3f1e9; stroke: #000000; stroke-width: 2; stroke-linejoin: miter"/>
   </g>
   <g id="patch_84">
    <path d="M 1399.3175 870.9528 
L 1407.6875 870.9528 
L 1407.6875 861.990646 
L 1399.3175 861.990646 
z
" clip-path="url(#pf1a11e18df)" style="fill: #f3f1e9; stroke: #000000; stroke-width: 2; stroke-linejoin: miter"/>
   </g>
   <g id="patch_85">
    <path d="M 1416.0575 870.9528 
L 1424.4275 870.9528 
L 1424.4275 862.005895 
L 1416.0575 862.005895 
z
" clip-path="url(#pf1a11e18df)" style="fill: #f3f1e9; stroke: #000000; stroke-width: 2; stroke-linejoin: miter"/>
   </g>
   <g id="patch_86">
    <path d="M 1432.7975 870.9528 
L 1441.1675 870.9528 
L 1441.1675 862.032414 
L 1432.7975 862.032414 
z
" clip-path="url(#pf1a11e18df)" style="fill: #f3f1e9; stroke: #000000; stroke-width: 2; stroke-linejoin: miter"/>
   </g>
   <g id="patch_87">
    <path d="M 1449.5375 870.9528 
L 1457.9075 870.9528 
L 1457.9075 862.123905 
L 1449.5375 862.123905 
z
" clip-path="url(#pf1a11e18df)" style="fill: #f3f1e9; stroke: #000000; stroke-width: 2; stroke-linejoin: miter"/>
   </g>
   <g id="patch_88">
    <path d="M 1466.2775 870.9528 
L 1474.6475 870.9528 
L 1474.6475 862.25849 
L 1466.2775 862.25849 
z
" clip-path="url(#pf1a11e18df)" style="fill: #f3f1e9; stroke: #000000; stroke-width: 2; stroke-linejoin: miter"/>
   </g>
   <g id="patch_89">
    <path d="M 1483.0175 870.9528 
L 1491.3875 870.9528 
L 1491.3875 862.491859 
L 1483.0175 862.491859 
z
" clip-path="url(#pf1a11e18df)" style="fill: #f3f1e9; stroke: #000000; stroke-width: 2; stroke-linejoin: miter"/>
   </g>
   <g id="patch_90">
    <path d="M 1499.7575 870.9528 
L 1508.1275 870.9528 
L 1508.1275 862.544234 
L 1499.7575 862.544234 
z
" clip-path="url(#pf1a11e18df)" style="fill: #f3f1e9; stroke: #000000; stroke-width: 2; stroke-linejoin: miter"/>
   </g>
   <g id="patch_91">
    <path d="M 1516.4975 870.9528 
L 1524.8675 870.9528 
L 1524.8675 862.710642 
L 1516.4975 862.710642 
z
" clip-path="url(#pf1a11e18df)" style="fill: #f3f1e9; stroke: #000000; stroke-width: 2; stroke-linejoin: miter"/>
   </g>
   <g id="patch_92">
    <path d="M 1533.2375 870.9528 
L 1541.6075 870.9528 
L 1541.6075 862.729205 
L 1533.2375 862.729205 
z
" clip-path="url(#pf1a11e18df)" style="fill: #f3f1e9; stroke: #000000; stroke-width: 2; stroke-linejoin: miter"/>
   </g>
   <g id="patch_93">
    <path d="M 1549.9775 870.9528 
L 1558.3475 870.9528 
L 1558.3475 862.784232 
L 1549.9775 862.784232 
z
" clip-path="url(#pf1a11e18df)" style="fill: #f3f1e9; stroke: #000000; stroke-width: 2; stroke-linejoin: miter"/>
   </g>
   <g id="patch_94">
    <path d="M 1566.7175 870.9528 
L 1575.0875 870.9528 
L 1575.0875 862.802133 
L 1566.7175 862.802133 
z
" clip-path="url(#pf1a11e18df)" style="fill: #f3f1e9; stroke: #000000; stroke-width: 2; stroke-linejoin: miter"/>
   </g>
   <g id="patch_95">
    <path d="M 1583.4575 870.9528 
L 1591.8275 870.9528 
L 1591.8275 862.887657 
L 1583.4575 862.887657 
z
" clip-path="url(#pf1a11e18df)" style="fill: #f3f1e9; stroke: #000000; stroke-width: 2; stroke-linejoin: miter"/>
   </g>
   <g id="patch_96">
    <path d="M 1600.1975 870.9528 
L 1608.5675 870.9528 
L 1608.5675 862.945336 
L 1600.1975 862.945336 
z
" clip-path="url(#pf1a11e18df)" style="fill: #f3f1e9; stroke: #000000; stroke-width: 2; stroke-linejoin: miter"/>
   </g>
   <g id="patch_97">
    <path d="M 1616.9375 870.9528 
L 1625.3075 870.9528 
L 1625.3075 863.1018 
L 1616.9375 863.1018 
z
" clip-path="url(#pf1a11e18df)" style="fill: #f3f1e9; stroke: #000000; stroke-width: 2; stroke-linejoin: miter"/>
   </g>
   <g id="patch_98">
    <path d="M 1633.6775 870.9528 
L 1642.0475 870.9528 
L 1642.0475 863.292738 
L 1633.6775 863.292738 
z
" clip-path="url(#pf1a11e18df)" style="fill: #f3f1e9; stroke: #000000; stroke-width: 2; stroke-linejoin: miter"/>
   </g>
   <g id="patch_99">
    <path d="M 1650.4175 870.9528 
L 1658.7875 870.9528 
L 1658.7875 863.681906 
L 1650.4175 863.681906 
z
" clip-path="url(#pf1a11e18df)" style="fill: #f3f1e9; stroke: #000000; stroke-width: 2; stroke-linejoin: miter"/>
   </g>
   <g id="patch_100">
    <path d="M 1667.1575 870.9528 
L 1675.5275 870.9528 
L 1675.5275 863.768757 
L 1667.1575 863.768757 
z
" clip-path="url(#pf1a11e18df)" style="fill: #f3f1e9; stroke: #000000; stroke-width: 2; stroke-linejoin: miter"/>
   </g>
   <g id="patch_101">
    <path d="M 1683.8975 870.9528 
L 1692.2675 870.9528 
L 1692.2675 863.917264 
L 1683.8975 863.917264 
z
" clip-path="url(#pf1a11e18df)" style="fill: #f3f1e9; stroke: #000000; stroke-width: 2; stroke-linejoin: miter"/>
   </g>
   <g id="patch_102">
    <path d="M 1700.6375 870.9528 
L 1709.0075 870.9528 
L 1709.0075 863.93649 
L 1700.6375 863.93649 
z
" clip-path="url(#pf1a11e18df)" style="fill: #f3f1e9; stroke: #000000; stroke-width: 2; stroke-linejoin: miter"/>
   </g>
   <g id="patch_103">
    <path d="M 1717.3775 870.9528 
L 1725.7475 870.9528 
L 1725.7475 864.110191 
L 1717.3775 864.110191 
z
" clip-path="url(#pf1a11e18df)" style="fill: #f3f1e9; stroke: #000000; stroke-width: 2; stroke-linejoin: miter"/>
   </g>
   <g id="patch_104">
    <path d="M 1734.1175 870.9528 
L 1742.4875 870.9528 
L 1742.4875 864.193726 
L 1734.1175 864.193726 
z
" clip-path="url(#pf1a11e18df)" style="fill: #f3f1e9; stroke: #000000; stroke-width: 2; stroke-linejoin: miter"/>
   </g>
   <g id="patch_105">
    <path d="M 1750.8575 870.9528 
L 1759.2275 870.9528 
L 1759.2275 864.300466 
L 1750.8575 864.300466 
z
" clip-path="url(#pf1a11e18df)" style="fill: #f3f1e9; stroke: #000000; stroke-width: 2; stroke-linejoin: miter"/>
   </g>
   <g id="patch_106">
    <path d="M 1767.5975 870.9528 
L 1775.9675 870.9528 
L 1775.9675 864.321018 
L 1767.5975 864.321018 
z
" clip-path="url(#pf1a11e18df)" style="fill: #f3f1e9; stroke: #000000; stroke-width: 2; stroke-linejoin: miter"/>
   </g>
   <g id="patch_107">
    <path d="M 1784.3375 870.9528 
L 1792.7075 870.9528 
L 1792.7075 864.326322 
L 1784.3375 864.326322 
z
" clip-path="url(#pf1a11e18df)" style="fill: #f3f1e9; stroke: #000000; stroke-width: 2; stroke-linejoin: miter"/>
   </g>
   <g id="line2d_85">
    <path d="M 1102.1825 870.9528 
L 1102.1825 538.3128 
" clip-path="url(#pf1a11e18df)" style="fill: none; stroke: #fa824c; stroke-width: 6; stroke-linecap: round"/>
   </g>
   <g id="line2d_86">
    <path d="M 1252.8425 870.9528 
L 1252.8425 538.3128 
" clip-path="url(#pf1a11e18df)" style="fill: none; stroke: #00bdbf; stroke-width: 2; stroke-linecap: round"/>
   </g>
   <g id="line2d_87">
    <path d="M 1051.9625 870.9528 
L 1051.9625 538.3128 
" clip-path="url(#pf1a11e18df)" style="fill: none; stroke: #00bdbf; stroke-width: 2; stroke-linecap: round"/>
   </g>
   <g id="line2d_88">
    <path d="M 231.7025 870.9528 
L 231.7025 538.3128 
" clip-path="url(#pf1a11e18df)" style="fill: none; stroke: #00bdbf; stroke-width: 2; stroke-linecap: round"/>
   </g>
   <g id="line2d_89">
    <path d="M 1269.5825 870.9528 
L 1269.5825 538.3128 
" clip-path="url(#pf1a11e18df)" style="fill: none; stroke: #00bdbf; stroke-width: 2; stroke-linecap: round"/>
   </g>
   <g id="line2d_90">
    <path d="M 482.8025 870.9528 
L 482.8025 538.3128 
" clip-path="url(#pf1a11e18df)" style="fill: none; stroke: #00bdbf; stroke-width: 2; stroke-linecap: round"/>
   </g>
   <g id="line2d_91">
    <path d="M 683.6825 870.9528 
L 683.6825 538.3128 
" clip-path="url(#pf1a11e18df)" style="fill: none; stroke: #00bdbf; stroke-width: 2; stroke-linecap: round"/>
   </g>
   <g id="line2d_92">
    <path d="M 901.3025 870.9528 
L 901.3025 538.3128 
" clip-path="url(#pf1a11e18df)" style="fill: none; stroke: #00bdbf; stroke-width: 2; stroke-linecap: round"/>
   </g>
   <g id="patch_108">
    <path d="M 122.8925 870.9528 
L 122.8925 538.3128 
" style="fill: none; stroke: #cccccc; stroke-width: 2.5; stroke-linejoin: miter; stroke-linecap: square"/>
   </g>
   <g id="patch_109">
    <path d="M 1796.8925 870.9528 
L 1796.8925 538.3128 
" style="fill: none; stroke: #cccccc; stroke-width: 2.5; stroke-linejoin: miter; stroke-linecap: square"/>
   </g>
   <g id="patch_110">
    <path d="M 122.8925 870.9528 
L 1796.8925 870.9528 
" style="fill: none; stroke: #cccccc; stroke-width: 2.5; stroke-linejoin: miter; stroke-linecap: square"/>
   </g>
   <g id="patch_111">
    <path d="M 122.8925 538.3128 
L 1796.8925 538.3128 
" style="fill: none; stroke: #cccccc; stroke-width: 2.5; stroke-linejoin: miter; stroke-linecap: square"/>
   </g>
   <g id="text_25">
    <!-- Most active 100 accounts -->
    <g style="fill: #262626" transform="translate(812.785313 525.66) scale(0.26 -0.26)">
     <defs>
      <path id="FiraSans-Regular-4d" d="M 4582 0 
L 3994 0 
L 3840 1990 
Q 3744 3162 3731 3789 
L 2778 499 
L 2208 499 
L 1203 3795 
Q 1203 2995 1120 1946 
L 973 0 
L 397 0 
L 762 4410 
L 1581 4410 
L 2509 1203 
L 3392 4410 
L 4218 4410 
L 4582 0 
z
" transform="scale(0.015625)"/>
     </defs>
     <use xlink:href="#FiraSans-Regular-4d"/>
     <use xlink:href="#FiraSans-Regular-6f" transform="translate(77.799988 0)"/>
     <use xlink:href="#FiraSans-Regular-73" transform="translate(136.199982 0)"/>
     <use xlink:href="#FiraSans-Regular-74" transform="translate(182.899979 0)"/>
     <use xlink:href="#FiraSans-Regular-20" transform="translate(218.999969 0)"/>
     <use xlink:href="#FiraSans-Regular-61" transform="translate(245.499954 0)"/>
     <use xlink:href="#FiraSans-Regular-63" transform="translate(299.899948 0)"/>
     <use xlink:href="#FiraSans-Regular-74" transform="translate(347.699936 0)"/>
     <use xlink:href="#FiraSans-Regular-69" transform="translate(383.799927 0)"/>
     <use xlink:href="#FiraSans-Regular-76" transform="translate(411.999924 0)"/>
     <use xlink:href="#FiraSans-Regular-65" transform="translate(461.199921 0)"/>
     <use xlink:href="#FiraSans-Regular-20" transform="translate(515.699905 0)"/>
     <use xlink:href="#FiraSans-Regular-31" transform="translate(542.19989 0)"/>
     <use xlink:href="#FiraSans-Regular-30" transform="translate(585.499878 0)"/>
     <use xlink:href="#FiraSans-Regular-30" transform="translate(641.299866 0)"/>
     <use xlink:href="#FiraSans-Regular-20" transform="translate(697.099854 0)"/>
     <use xlink:href="#FiraSans-Regular-61" transform="translate(723.599838 0)"/>
     <use xlink:href="#FiraSans-Regular-63" transform="translate(777.999832 0)"/>
     <use xlink:href="#FiraSans-Regular-63" transform="translate(825.79982 0)"/>
     <use xlink:href="#FiraSans-Regular-6f" transform="translate(873.599808 0)"/>
     <use xlink:href="#FiraSans-Regular-75" transform="translate(931.999802 0)"/>
     <use xlink:href="#FiraSans-Regular-6e" transform="translate(990.199799 0)"/>
     <use xlink:href="#FiraSans-Regular-74" transform="translate(1048.799789 0)"/>
     <use xlink:href="#FiraSans-Regular-73" transform="translate(1084.89978 0)"/>
    </g>
   </g>
  </g>
 </g>
 <defs>
  <clipPath id="p7802ff0d97">
   <rect x="122.8925" y="39.3528" width="1674" height="332.64"/>
  </clipPath>
  <clipPath id="pf1a11e18df">
   <rect x="122.8925" y="538.3128" width="1674" height="332.64"/>
  </clipPath>
 </defs>
</svg>
