<?xml version="1.0" encoding="utf-8" standalone="no"?>
<!DOCTYPE svg PUBLIC "-//W3C//DTD SVG 1.1//EN"
  "http://www.w3.org/Graphics/SVG/1.1/DTD/svg11.dtd">
<svg xmlns:xlink="http://www.w3.org/1999/xlink" width="1189.2875pt" height="724.12pt" viewBox="0 0 1189.2875 724.12" xmlns="http://www.w3.org/2000/svg" version="1.1">
 <metadata>
  <rdf:RDF xmlns:dc="http://purl.org/dc/elements/1.1/" xmlns:cc="http://creativecommons.org/ns#" xmlns:rdf="http://www.w3.org/1999/02/22-rdf-syntax-ns#">
   <cc:Work>
    <dc:type rdf:resource="http://purl.org/dc/dcmitype/StillImage"/>
    <dc:date>2025-03-01T00:24:06.004324</dc:date>
    <dc:format>image/svg+xml</dc:format>
    <dc:creator>
     <cc:Agent>
      <dc:title>Matplotlib v3.10.1, https://matplotlib.org/</dc:title>
     </cc:Agent>
    </dc:creator>
   </cc:Work>
  </rdf:RDF>
 </metadata>
 <defs>
  <style type="text/css">*{stroke-linejoin: round; stroke-linecap: butt}</style>
 </defs>
 <g id="figure_1">
  <g id="patch_1">
   <path d="M -0 724.12 
L 1189.2875 724.12 
L 1189.2875 0 
L -0 0 
z
" style="fill: #ffffff"/>
  </g>
  <g id="axes_1">
   <g id="patch_2">
    <path d="M 66.0875 561.6 
L 1182.0875 561.6 
L 1182.0875 7.2 
L 66.0875 7.2 
z
" style="fill: #ffffff"/>
   </g>
   <g id="line2d_1">
    <path d="M 190.0875 561.6 
L 190.0875 7.2 
" clip-path="url(#p65569f495b)" style="fill: none; stroke: #00bdbf; stroke-width: 2; stroke-linecap: round"/>
   </g>
   <g id="line2d_2">
    <path d="M 296.373214 561.6 
L 296.373214 7.2 
" clip-path="url(#p65569f495b)" style="fill: none; stroke: #00bdbf; stroke-width: 2; stroke-linecap: round"/>
   </g>
   <g id="line2d_3">
    <path d="M 243.230357 561.6 
L 243.230357 7.2 
" clip-path="url(#p65569f495b)" style="fill: none; stroke: #00bdbf; stroke-width: 2; stroke-linecap: round"/>
   </g>
   <g id="line2d_4">
    <path d="M 314.0875 561.6 
L 314.0875 7.2 
" clip-path="url(#p65569f495b)" style="fill: none; stroke: #00bdbf; stroke-width: 2; stroke-linecap: round"/>
   </g>
   <g id="line2d_5">
    <path d="M 172.373214 561.6 
L 172.373214 7.2 
" clip-path="url(#p65569f495b)" style="fill: none; stroke: #00bdbf; stroke-width: 2; stroke-linecap: round"/>
   </g>
   <g id="line2d_6">
    <path d="M 83.801786 561.6 
L 83.801786 7.2 
" clip-path="url(#p65569f495b)" style="fill: none; stroke: #00bdbf; stroke-width: 2; stroke-linecap: round"/>
   </g>
   <g id="line2d_7">
    <path d="M 225.516071 561.6 
L 225.516071 7.2 
" clip-path="url(#p65569f495b)" style="fill: none; stroke: #00bdbf; stroke-width: 2; stroke-linecap: round"/>
   </g>
   <g id="line2d_8">
    <path d="M 331.801786 561.6 
L 331.801786 7.2 
" clip-path="url(#p65569f495b)" style="fill: none; stroke: #00bdbf; stroke-width: 2; stroke-linecap: round"/>
   </g>
   <g id="line2d_9">
    <path d="M 331.801786 561.6 
L 331.801786 7.2 
" clip-path="url(#p65569f495b)" style="fill: none; stroke: #00bdbf; stroke-width: 2; stroke-linecap: round"/>
   </g>
   <g id="line2d_10">
    <path d="M 101.516071 561.6 
L 101.516071 7.2 
" clip-path="url(#p65569f495b)" style="fill: none; stroke: #00bdbf; stroke-width: 2; stroke-linecap: round"/>
   </g>
   <g id="line2d_11">
    <path d="M 207.801786 561.6 
L 207.801786 7.2 
" clip-path="url(#p65569f495b)" style="fill: none; stroke: #00bdbf; stroke-width: 2; stroke-linecap: round"/>
   </g>
   <g id="line2d_12">
    <path d="M 225.516071 561.6 
L 225.516071 7.2 
" clip-path="url(#p65569f495b)" style="fill: none; stroke: #00bdbf; stroke-width: 2; stroke-linecap: round"/>
   </g>
   <g id="line2d_13">
    <path d="M 703.801786 561.6 
L 703.801786 7.2 
" clip-path="url(#p65569f495b)" style="fill: none; stroke: #00bdbf; stroke-width: 2; stroke-linecap: round"/>
   </g>
   <g id="line2d_14">
    <path d="M 172.373214 561.6 
L 172.373214 7.2 
" clip-path="url(#p65569f495b)" style="fill: none; stroke: #00bdbf; stroke-width: 2; stroke-linecap: round"/>
   </g>
   <g id="line2d_15">
    <path d="M 597.516071 561.6 
L 597.516071 7.2 
" clip-path="url(#p65569f495b)" style="fill: none; stroke: #00bdbf; stroke-width: 2; stroke-linecap: round"/>
   </g>
   <g id="line2d_16">
    <path d="M 190.0875 561.6 
L 190.0875 7.2 
" clip-path="url(#p65569f495b)" style="fill: none; stroke: #00bdbf; stroke-width: 2; stroke-linecap: round"/>
   </g>
   <g id="line2d_17">
    <path d="M 136.944643 561.6 
L 136.944643 7.2 
" clip-path="url(#p65569f495b)" style="fill: none; stroke: #00bdbf; stroke-width: 2; stroke-linecap: round"/>
   </g>
   <g id="line2d_18">
    <path d="M 1111.230357 561.6 
L 1111.230357 7.2 
" clip-path="url(#p65569f495b)" style="fill: none; stroke: #00bdbf; stroke-width: 2; stroke-linecap: round"/>
   </g>
   <g id="line2d_19">
    <path d="M 1182.0875 561.6 
L 1182.0875 7.2 
" clip-path="url(#p65569f495b)" style="fill: none; stroke: #00bdbf; stroke-width: 2; stroke-linecap: round"/>
   </g>
   <g id="line2d_20">
    <path d="M 402.658929 561.6 
L 402.658929 7.2 
" clip-path="url(#p65569f495b)" style="fill: none; stroke: #00bdbf; stroke-width: 2; stroke-linecap: round"/>
   </g>
   <g id="line2d_21">
    <path d="M 225.516071 561.6 
L 225.516071 7.2 
" clip-path="url(#p65569f495b)" style="fill: none; stroke: #00bdbf; stroke-width: 2; stroke-linecap: round"/>
   </g>
   <g id="line2d_22">
    <path d="M 349.516071 561.6 
L 349.516071 7.2 
" clip-path="url(#p65569f495b)" style="fill: none; stroke: #00bdbf; stroke-width: 2; stroke-linecap: round"/>
   </g>
   <g id="line2d_23">
    <path d="M 136.944643 561.6 
L 136.944643 7.2 
" clip-path="url(#p65569f495b)" style="fill: none; stroke: #00bdbf; stroke-width: 2; stroke-linecap: round"/>
   </g>
   <g id="line2d_24">
    <path d="M 455.801786 561.6 
L 455.801786 7.2 
" clip-path="url(#p65569f495b)" style="fill: none; stroke: #00bdbf; stroke-width: 2; stroke-linecap: round"/>
   </g>
   <g id="line2d_25">
    <path d="M 367.230357 561.6 
L 367.230357 7.2 
" clip-path="url(#p65569f495b)" style="fill: none; stroke: #00bdbf; stroke-width: 2; stroke-linecap: round"/>
   </g>
   <g id="line2d_26">
    <path d="M 243.230357 561.6 
L 243.230357 7.2 
" clip-path="url(#p65569f495b)" style="fill: none; stroke: #00bdbf; stroke-width: 2; stroke-linecap: round"/>
   </g>
   <g id="line2d_27">
    <path d="M 243.230357 561.6 
L 243.230357 7.2 
" clip-path="url(#p65569f495b)" style="fill: none; stroke: #00bdbf; stroke-width: 2; stroke-linecap: round"/>
   </g>
   <g id="line2d_28">
    <path d="M 491.230357 561.6 
L 491.230357 7.2 
" clip-path="url(#p65569f495b)" style="fill: none; stroke: #00bdbf; stroke-width: 2; stroke-linecap: round"/>
   </g>
   <g id="line2d_29">
    <path d="M 331.801786 561.6 
L 331.801786 7.2 
" clip-path="url(#p65569f495b)" style="fill: none; stroke: #00bdbf; stroke-width: 2; stroke-linecap: round"/>
   </g>
   <g id="line2d_30">
    <path d="M 260.944643 561.6 
L 260.944643 7.2 
" clip-path="url(#p65569f495b)" style="fill: none; stroke: #00bdbf; stroke-width: 2; stroke-linecap: round"/>
   </g>
   <g id="line2d_31">
    <path d="M 898.658929 561.6 
L 898.658929 7.2 
" clip-path="url(#p65569f495b)" style="fill: none; stroke: #00bdbf; stroke-width: 2; stroke-linecap: round"/>
   </g>
   <g id="line2d_32">
    <path d="M 331.801786 561.6 
L 331.801786 7.2 
" clip-path="url(#p65569f495b)" style="fill: none; stroke: #00bdbf; stroke-width: 2; stroke-linecap: round"/>
   </g>
   <g id="line2d_33">
    <path d="M 314.0875 561.6 
L 314.0875 7.2 
" clip-path="url(#p65569f495b)" style="fill: none; stroke: #00bdbf; stroke-width: 2; stroke-linecap: round"/>
   </g>
   <g id="line2d_34">
    <path d="M 508.944643 561.6 
L 508.944643 7.2 
" clip-path="url(#p65569f495b)" style="fill: none; stroke: #00bdbf; stroke-width: 2; stroke-linecap: round"/>
   </g>
   <g id="line2d_35">
    <path d="M 83.801786 561.6 
L 83.801786 7.2 
" clip-path="url(#p65569f495b)" style="fill: none; stroke: #00bdbf; stroke-width: 2; stroke-linecap: round"/>
   </g>
   <g id="line2d_36">
    <path d="M 384.944643 561.6 
L 384.944643 7.2 
" clip-path="url(#p65569f495b)" style="fill: none; stroke: #00bdbf; stroke-width: 2; stroke-linecap: round"/>
   </g>
   <g id="line2d_37">
    <path d="M 438.0875 561.6 
L 438.0875 7.2 
" clip-path="url(#p65569f495b)" style="fill: none; stroke: #00bdbf; stroke-width: 2; stroke-linecap: round"/>
   </g>
   <g id="line2d_38">
    <path d="M 154.658929 561.6 
L 154.658929 7.2 
" clip-path="url(#p65569f495b)" style="fill: none; stroke: #00bdbf; stroke-width: 2; stroke-linecap: round"/>
   </g>
   <g id="line2d_39">
    <path d="M 438.0875 561.6 
L 438.0875 7.2 
" clip-path="url(#p65569f495b)" style="fill: none; stroke: #00bdbf; stroke-width: 2; stroke-linecap: round"/>
   </g>
   <g id="line2d_40">
    <path d="M 278.658929 561.6 
L 278.658929 7.2 
" clip-path="url(#p65569f495b)" style="fill: none; stroke: #00bdbf; stroke-width: 2; stroke-linecap: round"/>
   </g>
   <g id="line2d_41">
    <path d="M 402.658929 561.6 
L 402.658929 7.2 
" clip-path="url(#p65569f495b)" style="fill: none; stroke: #00bdbf; stroke-width: 2; stroke-linecap: round"/>
   </g>
   <g id="line2d_42">
    <path d="M 331.801786 561.6 
L 331.801786 7.2 
" clip-path="url(#p65569f495b)" style="fill: none; stroke: #00bdbf; stroke-width: 2; stroke-linecap: round"/>
   </g>
   <g id="line2d_43">
    <path d="M 579.801786 561.6 
L 579.801786 7.2 
" clip-path="url(#p65569f495b)" style="fill: none; stroke: #00bdbf; stroke-width: 2; stroke-linecap: round"/>
   </g>
   <g id="line2d_44">
    <path d="M 101.516071 561.6 
L 101.516071 7.2 
" clip-path="url(#p65569f495b)" style="fill: none; stroke: #00bdbf; stroke-width: 2; stroke-linecap: round"/>
   </g>
   <g id="line2d_45">
    <path d="M 260.944643 561.6 
L 260.944643 7.2 
" clip-path="url(#p65569f495b)" style="fill: none; stroke: #00bdbf; stroke-width: 2; stroke-linecap: round"/>
   </g>
   <g id="line2d_46">
    <path d="M 331.801786 561.6 
L 331.801786 7.2 
" clip-path="url(#p65569f495b)" style="fill: none; stroke: #00bdbf; stroke-width: 2; stroke-linecap: round"/>
   </g>
   <g id="line2d_47">
    <path d="M 172.373214 561.6 
L 172.373214 7.2 
" clip-path="url(#p65569f495b)" style="fill: none; stroke: #00bdbf; stroke-width: 2; stroke-linecap: round"/>
   </g>
   <g id="line2d_48">
    <path d="M 172.373214 561.6 
L 172.373214 7.2 
" clip-path="url(#p65569f495b)" style="fill: none; stroke: #00bdbf; stroke-width: 2; stroke-linecap: round"/>
   </g>
   <g id="line2d_49">
    <path d="M 296.373214 561.6 
L 296.373214 7.2 
" clip-path="url(#p65569f495b)" style="fill: none; stroke: #00bdbf; stroke-width: 2; stroke-linecap: round"/>
   </g>
   <g id="line2d_50">
    <path d="M 243.230357 561.6 
L 243.230357 7.2 
" clip-path="url(#p65569f495b)" style="fill: none; stroke: #00bdbf; stroke-width: 2; stroke-linecap: round"/>
   </g>
   <g id="line2d_51">
    <path d="M 1040.373214 561.6 
L 1040.373214 7.2 
" clip-path="url(#p65569f495b)" style="fill: none; stroke: #00bdbf; stroke-width: 2; stroke-linecap: round"/>
   </g>
   <g id="line2d_52">
    <path d="M 190.0875 561.6 
L 190.0875 7.2 
" clip-path="url(#p65569f495b)" style="fill: none; stroke: #00bdbf; stroke-width: 2; stroke-linecap: round"/>
   </g>
   <g id="line2d_53">
    <path d="M 367.230357 561.6 
L 367.230357 7.2 
" clip-path="url(#p65569f495b)" style="fill: none; stroke: #00bdbf; stroke-width: 2; stroke-linecap: round"/>
   </g>
   <g id="line2d_54">
    <path d="M 402.658929 561.6 
L 402.658929 7.2 
" clip-path="url(#p65569f495b)" style="fill: none; stroke: #00bdbf; stroke-width: 2; stroke-linecap: round"/>
   </g>
   <g id="line2d_55">
    <path d="M 420.373214 561.6 
L 420.373214 7.2 
" clip-path="url(#p65569f495b)" style="fill: none; stroke: #00bdbf; stroke-width: 2; stroke-linecap: round"/>
   </g>
   <g id="line2d_56">
    <path d="M 225.516071 561.6 
L 225.516071 7.2 
" clip-path="url(#p65569f495b)" style="fill: none; stroke: #00bdbf; stroke-width: 2; stroke-linecap: round"/>
   </g>
   <g id="line2d_57">
    <path d="M 101.516071 561.6 
L 101.516071 7.2 
" clip-path="url(#p65569f495b)" style="fill: none; stroke: #00bdbf; stroke-width: 2; stroke-linecap: round"/>
   </g>
   <g id="line2d_58">
    <path d="M 438.0875 561.6 
L 438.0875 7.2 
" clip-path="url(#p65569f495b)" style="fill: none; stroke: #00bdbf; stroke-width: 2; stroke-linecap: round"/>
   </g>
   <g id="line2d_59">
    <path d="M 1093.516071 561.6 
L 1093.516071 7.2 
" clip-path="url(#p65569f495b)" style="fill: none; stroke: #00bdbf; stroke-width: 2; stroke-linecap: round"/>
   </g>
   <g id="line2d_60">
    <path d="M 278.658929 561.6 
L 278.658929 7.2 
" clip-path="url(#p65569f495b)" style="fill: none; stroke: #00bdbf; stroke-width: 2; stroke-linecap: round"/>
   </g>
   <g id="line2d_61">
    <path d="M 810.0875 561.6 
L 810.0875 7.2 
" clip-path="url(#p65569f495b)" style="fill: none; stroke: #00bdbf; stroke-width: 2; stroke-linecap: round"/>
   </g>
   <g id="line2d_62">
    <path d="M 792.373214 561.6 
L 792.373214 7.2 
" clip-path="url(#p65569f495b)" style="fill: none; stroke: #00bdbf; stroke-width: 2; stroke-linecap: round"/>
   </g>
   <g id="matplotlib.axis_1">
    <g id="xtick_1">
     <g id="text_1">
      <!-- 2008 -->
      <g style="fill: #262626" transform="translate(130.878304 593.6) scale(0.22 -0.22)">
       <defs>
        <path id="FiraSans-Regular-32" d="M 1459 4346 
Q 1843 4346 2134 4192 
Q 2426 4038 2586 3772 
Q 2746 3507 2746 3174 
Q 2746 2784 2570 2425 
Q 2394 2067 2029 1651 
Q 1664 1235 922 493 
L 2848 493 
L 2778 0 
L 250 0 
L 250 467 
Q 1107 1357 1465 1769 
Q 1824 2182 1977 2489 
Q 2131 2797 2131 3149 
Q 2131 3482 1939 3670 
Q 1747 3859 1427 3859 
Q 1165 3859 966 3750 
Q 768 3642 544 3392 
L 160 3699 
Q 422 4026 742 4186 
Q 1062 4346 1459 4346 
z
" transform="scale(0.015625)"/>
        <path id="FiraSans-Regular-30" d="M 1786 4346 
Q 2496 4346 2857 3779 
Q 3219 3213 3219 2138 
Q 3219 1062 2857 492 
Q 2496 -77 1786 -77 
Q 1075 -77 713 492 
Q 352 1062 352 2138 
Q 352 3213 713 3779 
Q 1075 4346 1786 4346 
z
M 1786 3878 
Q 1370 3878 1168 3468 
Q 966 3059 966 2138 
Q 966 1216 1168 803 
Q 1370 390 1786 390 
Q 2195 390 2400 803 
Q 2605 1216 2605 2138 
Q 2605 3053 2400 3465 
Q 2195 3878 1786 3878 
z
" transform="scale(0.015625)"/>
        <path id="FiraSans-Regular-38" d="M 2336 2298 
Q 3238 1933 3238 1146 
Q 3238 794 3049 515 
Q 2861 237 2521 80 
Q 2182 -77 1754 -77 
Q 1318 -77 985 76 
Q 653 230 470 505 
Q 288 781 288 1133 
Q 288 1530 502 1798 
Q 717 2067 1133 2246 
Q 794 2419 630 2665 
Q 467 2912 467 3245 
Q 467 3590 649 3840 
Q 832 4090 1129 4218 
Q 1427 4346 1766 4346 
Q 2099 4346 2396 4224 
Q 2694 4102 2880 3856 
Q 3066 3610 3066 3264 
Q 3066 2944 2886 2713 
Q 2707 2483 2336 2298 
z
M 1766 3904 
Q 1434 3904 1238 3731 
Q 1043 3558 1043 3238 
Q 1043 2931 1232 2771 
Q 1421 2611 1837 2477 
L 1946 2438 
Q 2234 2605 2362 2790 
Q 2490 2976 2490 3245 
Q 2490 3546 2301 3725 
Q 2112 3904 1766 3904 
z
M 1760 390 
Q 2157 390 2390 595 
Q 2624 800 2624 1139 
Q 2624 1370 2534 1526 
Q 2445 1683 2246 1801 
Q 2048 1920 1690 2042 
L 1530 2099 
Q 1210 1946 1056 1712 
Q 902 1478 902 1133 
Q 902 781 1132 585 
Q 1363 390 1760 390 
z
" transform="scale(0.015625)"/>
       </defs>
       <use xlink:href="#FiraSans-Regular-32"/>
       <use xlink:href="#FiraSans-Regular-30" transform="translate(49.499985 0)"/>
       <use xlink:href="#FiraSans-Regular-30" transform="translate(105.299973 0)"/>
       <use xlink:href="#FiraSans-Regular-38" transform="translate(161.09996 0)"/>
      </g>
     </g>
    </g>
    <g id="xtick_2">
     <g id="text_2">
      <!-- 2010 -->
      <g style="fill: #262626" transform="translate(273.890246 593.6) scale(0.22 -0.22)">
       <defs>
        <path id="FiraSans-Regular-31" d="M 2067 4282 
L 2067 0 
L 1478 0 
L 1478 3654 
L 480 3046 
L 224 3462 
L 1549 4282 
L 2067 4282 
z
" transform="scale(0.015625)"/>
       </defs>
       <use xlink:href="#FiraSans-Regular-32"/>
       <use xlink:href="#FiraSans-Regular-30" transform="translate(49.499985 0)"/>
       <use xlink:href="#FiraSans-Regular-31" transform="translate(105.299973 0)"/>
       <use xlink:href="#FiraSans-Regular-30" transform="translate(148.59996 0)"/>
      </g>
     </g>
    </g>
    <g id="xtick_3">
     <g id="text_3">
      <!-- 2012 -->
      <g style="fill: #262626" transform="translate(416.297188 593.6) scale(0.22 -0.22)">
       <use xlink:href="#FiraSans-Regular-32"/>
       <use xlink:href="#FiraSans-Regular-30" transform="translate(49.499985 0)"/>
       <use xlink:href="#FiraSans-Regular-31" transform="translate(105.299973 0)"/>
       <use xlink:href="#FiraSans-Regular-32" transform="translate(148.59996 0)"/>
      </g>
     </g>
    </g>
    <g id="xtick_4">
     <g id="text_4">
      <!-- 2014 -->
      <g style="fill: #262626" transform="translate(557.604129 593.6) scale(0.22 -0.22)">
       <defs>
        <path id="FiraSans-Regular-34" d="M 3213 1523 
L 3213 1056 
L 2656 1056 
L 2656 0 
L 2086 0 
L 2086 1056 
L 256 1056 
L 256 1478 
L 1542 4346 
L 2035 4141 
L 877 1523 
L 2093 1523 
L 2144 2675 
L 2656 2675 
L 2656 1523 
L 3213 1523 
z
" transform="scale(0.015625)"/>
       </defs>
       <use xlink:href="#FiraSans-Regular-32"/>
       <use xlink:href="#FiraSans-Regular-30" transform="translate(49.499985 0)"/>
       <use xlink:href="#FiraSans-Regular-31" transform="translate(105.299973 0)"/>
       <use xlink:href="#FiraSans-Regular-34" transform="translate(148.59996 0)"/>
      </g>
     </g>
    </g>
    <g id="xtick_5">
     <g id="text_5">
      <!-- 2016 -->
      <g style="fill: #262626" transform="translate(699.308103 593.6) scale(0.22 -0.22)">
       <defs>
        <path id="FiraSans-Regular-36" d="M 1971 2816 
Q 2298 2816 2566 2662 
Q 2835 2509 2995 2201 
Q 3155 1894 3155 1453 
Q 3155 998 2972 649 
Q 2790 301 2480 112 
Q 2170 -77 1792 -77 
Q 1043 -77 697 476 
Q 352 1030 352 2010 
Q 352 2707 547 3235 
Q 742 3763 1107 4054 
Q 1472 4346 1971 4346 
Q 2458 4346 2854 4083 
L 2624 3693 
Q 2323 3878 1965 3878 
Q 1504 3878 1235 3436 
Q 966 2995 941 2253 
Q 1338 2816 1971 2816 
z
M 1792 390 
Q 2163 390 2361 672 
Q 2560 954 2560 1434 
Q 2560 2349 1869 2349 
Q 1587 2349 1350 2192 
Q 1114 2035 947 1760 
Q 966 1056 1168 723 
Q 1370 390 1792 390 
z
" transform="scale(0.015625)"/>
       </defs>
       <use xlink:href="#FiraSans-Regular-32"/>
       <use xlink:href="#FiraSans-Regular-30" transform="translate(49.499985 0)"/>
       <use xlink:href="#FiraSans-Regular-31" transform="translate(105.299973 0)"/>
       <use xlink:href="#FiraSans-Regular-36" transform="translate(148.59996 0)"/>
      </g>
     </g>
    </g>
    <g id="xtick_6">
     <g id="text_6">
      <!-- 2018 -->
      <g style="fill: #262626" transform="translate(840.824732 593.6) scale(0.22 -0.22)">
       <use xlink:href="#FiraSans-Regular-32"/>
       <use xlink:href="#FiraSans-Regular-30" transform="translate(49.499985 0)"/>
       <use xlink:href="#FiraSans-Regular-31" transform="translate(105.299973 0)"/>
       <use xlink:href="#FiraSans-Regular-38" transform="translate(148.59996 0)"/>
      </g>
     </g>
    </g>
    <g id="xtick_7">
     <g id="text_7">
      <!-- 2020 -->
      <g style="fill: #262626" transform="translate(981.77933 593.6) scale(0.22 -0.22)">
       <use xlink:href="#FiraSans-Regular-32"/>
       <use xlink:href="#FiraSans-Regular-30" transform="translate(49.499985 0)"/>
       <use xlink:href="#FiraSans-Regular-32" transform="translate(105.299973 0)"/>
       <use xlink:href="#FiraSans-Regular-30" transform="translate(154.799957 0)"/>
      </g>
     </g>
    </g>
    <g id="xtick_8">
     <g id="text_8">
      <!-- 2022 -->
      <g style="fill: #262626" transform="translate(1124.186272 593.6) scale(0.22 -0.22)">
       <use xlink:href="#FiraSans-Regular-32"/>
       <use xlink:href="#FiraSans-Regular-30" transform="translate(49.499985 0)"/>
       <use xlink:href="#FiraSans-Regular-32" transform="translate(105.299973 0)"/>
       <use xlink:href="#FiraSans-Regular-32" transform="translate(154.799957 0)"/>
      </g>
     </g>
    </g>
    <g id="xtick_9"/>
    <g id="xtick_10"/>
    <g id="xtick_11"/>
    <g id="xtick_12"/>
    <g id="xtick_13"/>
    <g id="xtick_14"/>
    <g id="xtick_15"/>
    <g id="xtick_16"/>
    <g id="text_9">
     <!-- Time -->
     <g style="fill: #262626" transform="translate(606.47875 614.285312) scale(0.16 -0.16)">
      <defs>
       <path id="FiraSans-Regular-54" d="M 3245 4410 
L 3181 3891 
L 1958 3891 
L 1958 0 
L 1350 0 
L 1350 3891 
L 96 3891 
L 96 4410 
L 3245 4410 
z
" transform="scale(0.015625)"/>
       <path id="FiraSans-Regular-69" d="M 1197 3373 
L 1197 0 
L 608 0 
L 608 3373 
L 1197 3373 
z
M 896 4992 
Q 1082 4992 1197 4877 
Q 1312 4762 1312 4589 
Q 1312 4416 1197 4304 
Q 1082 4192 896 4192 
Q 717 4192 601 4304 
Q 486 4416 486 4589 
Q 486 4762 601 4877 
Q 717 4992 896 4992 
z
" transform="scale(0.015625)"/>
       <path id="FiraSans-Regular-6d" d="M 3994 3450 
Q 4410 3450 4659 3171 
Q 4909 2893 4909 2419 
L 4909 0 
L 4320 0 
L 4320 2336 
Q 4320 2989 3846 2989 
Q 3597 2989 3424 2845 
Q 3251 2701 3053 2394 
L 3053 0 
L 2464 0 
L 2464 2336 
Q 2464 2989 1990 2989 
Q 1734 2989 1561 2841 
Q 1389 2694 1197 2394 
L 1197 0 
L 608 0 
L 608 3373 
L 1114 3373 
L 1165 2880 
Q 1542 3450 2138 3450 
Q 2451 3450 2672 3290 
Q 2893 3130 2989 2842 
Q 3187 3136 3427 3293 
Q 3667 3450 3994 3450 
z
" transform="scale(0.015625)"/>
       <path id="FiraSans-Regular-65" d="M 3155 1786 
Q 3155 1638 3142 1485 
L 992 1485 
Q 1030 928 1273 665 
Q 1517 403 1901 403 
Q 2144 403 2349 473 
Q 2554 544 2778 698 
L 3034 346 
Q 2496 -77 1856 -77 
Q 1152 -77 758 384 
Q 365 845 365 1651 
Q 365 2176 534 2582 
Q 704 2989 1021 3219 
Q 1338 3450 1766 3450 
Q 2438 3450 2796 3008 
Q 3155 2566 3155 1786 
z
M 2573 1958 
Q 2573 2458 2374 2720 
Q 2176 2982 1779 2982 
Q 1056 2982 992 1920 
L 2573 1920 
L 2573 1958 
z
" transform="scale(0.015625)"/>
      </defs>
      <use xlink:href="#FiraSans-Regular-54"/>
      <use xlink:href="#FiraSans-Regular-69" transform="translate(51.699997 0)"/>
      <use xlink:href="#FiraSans-Regular-6d" transform="translate(79.899994 0)"/>
      <use xlink:href="#FiraSans-Regular-65" transform="translate(165.599976 0)"/>
     </g>
    </g>
   </g>
   <g id="matplotlib.axis_2">
    <g id="ytick_1">
     <g id="text_10">
      <!-- 0 -->
      <g style="fill: #262626" transform="translate(38.312187 544.65) scale(0.22 -0.22)">
       <use xlink:href="#FiraSans-Regular-30"/>
      </g>
     </g>
    </g>
    <g id="ytick_2">
     <g id="text_11">
      <!-- 5 -->
      <g style="fill: #262626" transform="translate(39.566875 480.034615) scale(0.22 -0.22)">
       <defs>
        <path id="FiraSans-Regular-35" d="M 2688 3821 
L 1018 3821 
L 1018 2560 
Q 1344 2726 1702 2726 
Q 2253 2726 2585 2364 
Q 2918 2003 2918 1370 
Q 2918 947 2732 617 
Q 2547 288 2211 105 
Q 1875 -77 1434 -77 
Q 1043 -77 736 60 
Q 429 198 166 467 
L 512 806 
Q 717 602 934 502 
Q 1152 403 1427 403 
Q 1837 403 2070 659 
Q 2304 915 2304 1382 
Q 2304 1850 2093 2061 
Q 1882 2272 1523 2272 
Q 1357 2272 1216 2237 
Q 1075 2202 915 2125 
L 454 2125 
L 454 4282 
L 2771 4282 
L 2688 3821 
z
" transform="scale(0.015625)"/>
       </defs>
       <use xlink:href="#FiraSans-Regular-35"/>
      </g>
     </g>
    </g>
    <g id="ytick_3">
     <g id="text_12">
      <!-- 10 -->
      <g style="fill: #262626" transform="translate(28.786875 415.419231) scale(0.22 -0.22)">
       <use xlink:href="#FiraSans-Regular-31"/>
       <use xlink:href="#FiraSans-Regular-30" transform="translate(43.299988 0)"/>
      </g>
     </g>
    </g>
    <g id="ytick_4">
     <g id="text_13">
      <!-- 15 -->
      <g style="fill: #262626" transform="translate(30.041562 350.803846) scale(0.22 -0.22)">
       <use xlink:href="#FiraSans-Regular-31"/>
       <use xlink:href="#FiraSans-Regular-35" transform="translate(43.299988 0)"/>
      </g>
     </g>
    </g>
    <g id="ytick_5">
     <g id="text_14">
      <!-- 20 -->
      <g style="fill: #262626" transform="translate(27.422187 286.188462) scale(0.22 -0.22)">
       <use xlink:href="#FiraSans-Regular-32"/>
       <use xlink:href="#FiraSans-Regular-30" transform="translate(49.499985 0)"/>
      </g>
     </g>
    </g>
    <g id="ytick_6">
     <g id="text_15">
      <!-- 25 -->
      <g style="fill: #262626" transform="translate(28.676875 221.573077) scale(0.22 -0.22)">
       <use xlink:href="#FiraSans-Regular-32"/>
       <use xlink:href="#FiraSans-Regular-35" transform="translate(49.499985 0)"/>
      </g>
     </g>
    </g>
    <g id="ytick_7">
     <g id="text_16">
      <!-- 30 -->
      <g style="fill: #262626" transform="translate(27.332812 156.957692) scale(0.22 -0.22)">
       <defs>
        <path id="FiraSans-Regular-33" d="M 1440 4346 
Q 1837 4346 2121 4198 
Q 2406 4051 2556 3801 
Q 2707 3552 2707 3258 
Q 2707 2867 2480 2614 
Q 2253 2362 1875 2272 
Q 2304 2234 2573 1965 
Q 2842 1696 2842 1235 
Q 2842 864 2662 563 
Q 2483 262 2150 92 
Q 1818 -77 1382 -77 
Q 992 -77 665 67 
Q 339 211 96 499 
L 448 826 
Q 659 608 880 505 
Q 1101 403 1363 403 
Q 1766 403 1996 630 
Q 2227 858 2227 1242 
Q 2227 1664 2009 1837 
Q 1792 2010 1376 2010 
L 1056 2010 
L 1126 2464 
L 1344 2464 
Q 1677 2464 1897 2662 
Q 2118 2861 2118 3219 
Q 2118 3520 1926 3696 
Q 1734 3872 1408 3872 
Q 1158 3872 950 3782 
Q 742 3693 525 3488 
L 218 3840 
Q 762 4346 1440 4346 
z
" transform="scale(0.015625)"/>
       </defs>
       <use xlink:href="#FiraSans-Regular-33"/>
       <use xlink:href="#FiraSans-Regular-30" transform="translate(49.899994 0)"/>
      </g>
     </g>
    </g>
    <g id="ytick_8">
     <g id="text_17">
      <!-- 35 -->
      <g style="fill: #262626" transform="translate(28.5875 92.342308) scale(0.22 -0.22)">
       <use xlink:href="#FiraSans-Regular-33"/>
       <use xlink:href="#FiraSans-Regular-35" transform="translate(49.899994 0)"/>
      </g>
     </g>
    </g>
    <g id="ytick_9">
     <g id="text_18">
      <!-- 40 -->
      <g style="fill: #262626" transform="translate(26.6075 27.726923) scale(0.22 -0.22)">
       <use xlink:href="#FiraSans-Regular-34"/>
       <use xlink:href="#FiraSans-Regular-30" transform="translate(53.199997 0)"/>
      </g>
     </g>
    </g>
    <g id="text_19">
     <!-- Twitter accounts created -->
     <g style="fill: #262626" transform="translate(19.2 374.28625) rotate(-90) scale(0.16 -0.16)">
      <defs>
       <path id="FiraSans-Regular-77" d="M 4461 3373 
L 3693 0 
L 2893 0 
L 2304 2842 
L 1696 0 
L 915 0 
L 128 3373 
L 717 3373 
L 1325 410 
L 1990 3373 
L 2650 3373 
L 3283 410 
L 3898 3373 
L 4461 3373 
z
" transform="scale(0.015625)"/>
       <path id="FiraSans-Regular-74" d="M 2310 154 
Q 1978 -77 1555 -77 
Q 1126 -77 886 169 
Q 646 416 646 883 
L 646 2918 
L 58 2918 
L 58 3373 
L 646 3373 
L 646 4134 
L 1235 4205 
L 1235 3373 
L 2035 3373 
L 1971 2918 
L 1235 2918 
L 1235 909 
Q 1235 646 1328 528 
Q 1421 410 1638 410 
Q 1837 410 2086 544 
L 2310 154 
z
" transform="scale(0.015625)"/>
       <path id="FiraSans-Regular-72" d="M 2074 3450 
Q 2253 3450 2406 3411 
L 2298 2835 
Q 2144 2874 2003 2874 
Q 1690 2874 1498 2643 
Q 1306 2413 1197 1926 
L 1197 0 
L 608 0 
L 608 3373 
L 1114 3373 
L 1171 2688 
Q 1306 3066 1536 3258 
Q 1766 3450 2074 3450 
z
" transform="scale(0.015625)"/>
       <path id="FiraSans-Regular-20" transform="scale(0.015625)"/>
       <path id="FiraSans-Regular-61" d="M 2880 787 
Q 2880 582 2950 483 
Q 3021 384 3162 333 
L 3027 -77 
Q 2765 -45 2605 70 
Q 2445 186 2368 429 
Q 2029 -77 1363 -77 
Q 864 -77 576 204 
Q 288 486 288 941 
Q 288 1478 675 1766 
Q 1062 2054 1773 2054 
L 2291 2054 
L 2291 2304 
Q 2291 2662 2118 2816 
Q 1946 2970 1587 2970 
Q 1216 2970 678 2790 
L 531 3219 
Q 1158 3450 1696 3450 
Q 2291 3450 2585 3158 
Q 2880 2867 2880 2330 
L 2880 787 
z
M 1498 365 
Q 2003 365 2291 890 
L 2291 1664 
L 1850 1664 
Q 915 1664 915 973 
Q 915 672 1062 518 
Q 1210 365 1498 365 
z
" transform="scale(0.015625)"/>
       <path id="FiraSans-Regular-63" d="M 1837 3450 
Q 2138 3450 2387 3363 
Q 2637 3277 2867 3085 
L 2586 2714 
Q 2406 2842 2236 2902 
Q 2067 2963 1862 2963 
Q 1453 2963 1225 2636 
Q 998 2310 998 1670 
Q 998 1030 1222 726 
Q 1446 422 1862 422 
Q 2061 422 2227 483 
Q 2394 544 2598 678 
L 2867 294 
Q 2406 -77 1837 -77 
Q 1152 -77 758 384 
Q 365 845 365 1658 
Q 365 2195 544 2598 
Q 723 3002 1052 3226 
Q 1382 3450 1837 3450 
z
" transform="scale(0.015625)"/>
       <path id="FiraSans-Regular-6f" d="M 1875 3450 
Q 2586 3450 2979 2976 
Q 3373 2502 3373 1690 
Q 3373 1165 3193 765 
Q 3014 365 2675 144 
Q 2336 -77 1869 -77 
Q 1158 -77 761 396 
Q 365 870 365 1683 
Q 365 2208 544 2608 
Q 723 3008 1062 3229 
Q 1402 3450 1875 3450 
z
M 1875 2976 
Q 998 2976 998 1683 
Q 998 397 1869 397 
Q 2739 397 2739 1690 
Q 2739 2976 1875 2976 
z
" transform="scale(0.015625)"/>
       <path id="FiraSans-Regular-75" d="M 3117 0 
L 2611 0 
L 2566 525 
Q 2374 211 2124 67 
Q 1875 -77 1517 -77 
Q 1075 -77 825 192 
Q 576 461 576 954 
L 576 3373 
L 1165 3373 
L 1165 1018 
Q 1165 672 1286 528 
Q 1408 384 1683 384 
Q 2176 384 2528 966 
L 2528 3373 
L 3117 3373 
L 3117 0 
z
" transform="scale(0.015625)"/>
       <path id="FiraSans-Regular-6e" d="M 2195 3450 
Q 2656 3450 2915 3174 
Q 3174 2899 3174 2419 
L 3174 0 
L 2586 0 
L 2586 2336 
Q 2586 2694 2451 2841 
Q 2317 2989 2054 2989 
Q 1786 2989 1581 2835 
Q 1376 2682 1197 2394 
L 1197 0 
L 608 0 
L 608 3373 
L 1114 3373 
L 1165 2874 
Q 1344 3142 1609 3296 
Q 1875 3450 2195 3450 
z
" transform="scale(0.015625)"/>
       <path id="FiraSans-Regular-73" d="M 1523 3450 
Q 1869 3450 2144 3354 
Q 2419 3258 2669 3066 
L 2419 2694 
Q 2189 2842 1981 2912 
Q 1773 2982 1542 2982 
Q 1254 2982 1088 2864 
Q 922 2746 922 2541 
Q 922 2336 1078 2221 
Q 1235 2106 1645 1997 
Q 2208 1856 2486 1613 
Q 2765 1370 2765 947 
Q 2765 448 2377 185 
Q 1990 -77 1434 -77 
Q 666 -77 160 365 
L 474 723 
Q 902 397 1421 397 
Q 1754 397 1949 534 
Q 2144 672 2144 909 
Q 2144 1082 2073 1187 
Q 2003 1293 1830 1373 
Q 1658 1453 1325 1542 
Q 787 1683 547 1920 
Q 307 2157 307 2522 
Q 307 2784 464 2998 
Q 621 3213 899 3331 
Q 1178 3450 1523 3450 
z
" transform="scale(0.015625)"/>
       <path id="FiraSans-Regular-64" d="M 3219 4730 
L 3219 0 
L 2701 0 
L 2643 467 
Q 2477 211 2227 67 
Q 1978 -77 1670 -77 
Q 1069 -77 733 396 
Q 397 870 397 1670 
Q 397 2189 557 2592 
Q 717 2995 1017 3222 
Q 1318 3450 1722 3450 
Q 2240 3450 2630 3034 
L 2630 4800 
L 3219 4730 
z
M 1798 390 
Q 2067 390 2259 515 
Q 2451 640 2630 890 
L 2630 2541 
Q 2464 2758 2275 2870 
Q 2086 2982 1850 2982 
Q 1459 2982 1244 2656 
Q 1030 2330 1030 1683 
Q 1030 1030 1228 710 
Q 1427 390 1798 390 
z
" transform="scale(0.015625)"/>
      </defs>
      <use xlink:href="#FiraSans-Regular-54"/>
      <use xlink:href="#FiraSans-Regular-77" transform="translate(51.699997 0)"/>
      <use xlink:href="#FiraSans-Regular-69" transform="translate(123.399979 0)"/>
      <use xlink:href="#FiraSans-Regular-74" transform="translate(151.599976 0)"/>
      <use xlink:href="#FiraSans-Regular-74" transform="translate(187.699966 0)"/>
      <use xlink:href="#FiraSans-Regular-65" transform="translate(223.799957 0)"/>
      <use xlink:href="#FiraSans-Regular-72" transform="translate(278.299942 0)"/>
      <use xlink:href="#FiraSans-Regular-20" transform="translate(316.899933 0)"/>
      <use xlink:href="#FiraSans-Regular-61" transform="translate(343.399918 0)"/>
      <use xlink:href="#FiraSans-Regular-63" transform="translate(397.799911 0)"/>
      <use xlink:href="#FiraSans-Regular-63" transform="translate(445.599899 0)"/>
      <use xlink:href="#FiraSans-Regular-6f" transform="translate(493.399887 0)"/>
      <use xlink:href="#FiraSans-Regular-75" transform="translate(551.799881 0)"/>
      <use xlink:href="#FiraSans-Regular-6e" transform="translate(609.999878 0)"/>
      <use xlink:href="#FiraSans-Regular-74" transform="translate(668.599869 0)"/>
      <use xlink:href="#FiraSans-Regular-73" transform="translate(704.69986 0)"/>
      <use xlink:href="#FiraSans-Regular-20" transform="translate(751.399857 0)"/>
      <use xlink:href="#FiraSans-Regular-63" transform="translate(777.899841 0)"/>
      <use xlink:href="#FiraSans-Regular-72" transform="translate(825.699829 0)"/>
      <use xlink:href="#FiraSans-Regular-65" transform="translate(864.29982 0)"/>
      <use xlink:href="#FiraSans-Regular-61" transform="translate(918.799805 0)"/>
      <use xlink:href="#FiraSans-Regular-74" transform="translate(973.199799 0)"/>
      <use xlink:href="#FiraSans-Regular-65" transform="translate(1009.299789 0)"/>
      <use xlink:href="#FiraSans-Regular-64" transform="translate(1063.799774 0)"/>
     </g>
    </g>
   </g>
   <g id="line2d_63">
    <path d="M 66.0875 536.4 
L 83.801786 510.553846 
L 101.516071 471.784615 
L 119.230357 497.630769 
L 136.944643 510.553846 
L 154.658929 471.784615 
L 172.373214 394.246154 
L 190.0875 420.092308 
L 207.801786 368.4 
L 225.516071 290.861538 
L 243.230357 109.938462 
L 260.944643 187.476923 
L 278.658929 200.4 
L 296.373214 277.938462 
L 314.0875 290.861538 
L 331.801786 174.553846 
L 349.516071 226.246154 
L 367.230357 277.938462 
L 384.944643 226.246154 
L 402.658929 226.246154 
L 420.373214 316.707692 
L 438.0875 148.707692 
L 455.801786 239.169231 
L 473.516071 290.861538 
L 491.230357 316.707692 
L 508.944643 84.092308 
L 526.658929 97.015385 
L 544.373214 239.169231 
L 562.0875 174.553846 
L 579.801786 187.476923 
L 597.516071 32.4 
L 615.230357 161.630769 
L 632.944643 187.476923 
L 650.658929 277.938462 
L 668.373214 174.553846 
L 686.0875 174.553846 
L 703.801786 265.015385 
L 721.516071 265.015385 
L 739.230357 226.246154 
L 756.944643 174.553846 
L 774.658929 290.861538 
L 792.373214 290.861538 
L 810.0875 355.476923 
L 827.801786 316.707692 
L 845.516071 265.015385 
L 863.230357 342.553846 
L 880.944643 303.784615 
L 898.658929 381.323077 
L 916.373214 394.246154 
L 934.0875 420.092308 
L 951.801786 445.938462 
L 969.516071 381.323077 
L 987.230357 445.938462 
L 1004.944643 394.246154 
L 1022.658929 484.707692 
L 1040.373214 433.015385 
L 1058.0875 471.784615 
L 1075.801786 523.476923 
L 1093.516071 445.938462 
L 1111.230357 497.630769 
L 1128.944643 497.630769 
L 1146.658929 484.707692 
L 1164.373214 510.553846 
L 1182.0875 510.553846 
" clip-path="url(#p65569f495b)" style="fill: none; stroke: #decf7a; stroke-width: 4; stroke-linecap: round"/>
   </g>
   <g id="line2d_64">
    <path d="M 66.0875 536.4 
L 83.801786 510.553846 
L 101.516071 510.553846 
L 119.230357 497.630769 
L 136.944643 510.553846 
L 154.658929 523.476923 
L 172.373214 510.553846 
L 190.0875 510.553846 
L 207.801786 497.630769 
L 225.516071 497.630769 
L 243.230357 484.707692 
L 260.944643 484.707692 
L 278.658929 445.938462 
L 296.373214 368.4 
L 314.0875 407.169231 
L 331.801786 433.015385 
L 349.516071 484.707692 
L 367.230357 355.476923 
L 384.944643 303.784615 
L 402.658929 471.784615 
L 420.373214 355.476923 
L 438.0875 355.476923 
L 455.801786 368.4 
L 473.516071 368.4 
L 491.230357 368.4 
L 508.944643 239.169231 
L 526.658929 200.4 
L 544.373214 135.784615 
L 562.0875 187.476923 
L 579.801786 187.476923 
L 597.516071 135.784615 
L 615.230357 252.092308 
L 632.944643 148.707692 
L 650.658929 84.092308 
L 668.373214 148.707692 
L 686.0875 277.938462 
L 703.801786 252.092308 
L 721.516071 265.015385 
L 739.230357 213.323077 
L 756.944643 407.169231 
L 774.658929 381.323077 
L 792.373214 368.4 
L 810.0875 433.015385 
L 827.801786 407.169231 
L 845.516071 342.553846 
L 863.230357 471.784615 
L 880.944643 510.553846 
L 898.658929 407.169231 
L 916.373214 458.861538 
L 934.0875 445.938462 
L 951.801786 471.784615 
L 969.516071 510.553846 
L 987.230357 510.553846 
L 1004.944643 497.630769 
L 1022.658929 510.553846 
L 1040.373214 523.476923 
L 1058.0875 484.707692 
L 1075.801786 484.707692 
L 1093.516071 484.707692 
L 1111.230357 510.553846 
L 1128.944643 536.4 
L 1146.658929 536.4 
L 1164.373214 523.476923 
L 1182.0875 510.553846 
" clip-path="url(#p65569f495b)" style="fill: none; stroke: #dcd0fc; stroke-width: 4; stroke-linecap: round"/>
   </g>
   <g id="line2d_65">
    <path d="M 66.0875 523.476923 
L 83.801786 510.553846 
L 101.516071 523.476923 
L 119.230357 536.4 
L 136.944643 536.4 
L 154.658929 484.707692 
L 172.373214 510.553846 
L 190.0875 510.553846 
L 207.801786 484.707692 
L 225.516071 484.707692 
L 243.230357 394.246154 
L 260.944643 458.861538 
L 278.658929 458.861538 
L 296.373214 510.553846 
L 314.0875 497.630769 
L 331.801786 536.4 
L 349.516071 471.784615 
L 367.230357 497.630769 
L 384.944643 445.938462 
L 402.658929 420.092308 
L 420.373214 445.938462 
L 438.0875 381.323077 
L 455.801786 355.476923 
L 473.516071 394.246154 
L 491.230357 484.707692 
L 508.944643 316.707692 
L 526.658929 394.246154 
L 544.373214 407.169231 
L 562.0875 407.169231 
L 579.801786 316.707692 
L 597.516071 342.553846 
L 615.230357 342.553846 
L 632.944643 407.169231 
L 650.658929 368.4 
L 668.373214 342.553846 
L 686.0875 394.246154 
L 703.801786 355.476923 
L 721.516071 290.861538 
L 739.230357 433.015385 
L 756.944643 484.707692 
L 774.658929 433.015385 
L 792.373214 407.169231 
L 810.0875 420.092308 
L 827.801786 458.861538 
L 845.516071 420.092308 
L 863.230357 407.169231 
L 880.944643 445.938462 
L 898.658929 497.630769 
L 916.373214 510.553846 
L 934.0875 484.707692 
L 951.801786 510.553846 
L 969.516071 497.630769 
L 987.230357 497.630769 
L 1004.944643 497.630769 
L 1022.658929 497.630769 
L 1040.373214 536.4 
L 1058.0875 536.4 
L 1075.801786 510.553846 
L 1093.516071 536.4 
L 1111.230357 510.553846 
L 1128.944643 510.553846 
L 1146.658929 536.4 
L 1164.373214 536.4 
L 1182.0875 536.4 
" clip-path="url(#p65569f495b)" style="fill: none; stroke: #6fedce; stroke-width: 4; stroke-linecap: round"/>
   </g>
   <g id="line2d_66">
    <path d="M 66.0875 536.4 
L 83.801786 536.4 
L 101.516071 536.4 
L 119.230357 536.4 
L 136.944643 510.553846 
L 154.658929 523.476923 
L 172.373214 523.476923 
L 190.0875 523.476923 
L 207.801786 523.476923 
L 225.516071 471.784615 
L 243.230357 497.630769 
L 260.944643 497.630769 
L 278.658929 510.553846 
L 296.373214 484.707692 
L 314.0875 484.707692 
L 331.801786 523.476923 
L 349.516071 433.015385 
L 367.230357 471.784615 
L 384.944643 471.784615 
L 402.658929 445.938462 
L 420.373214 458.861538 
L 438.0875 394.246154 
L 455.801786 420.092308 
L 473.516071 471.784615 
L 491.230357 407.169231 
L 508.944643 407.169231 
L 526.658929 484.707692 
L 544.373214 458.861538 
L 562.0875 394.246154 
L 579.801786 342.553846 
L 597.516071 355.476923 
L 615.230357 458.861538 
L 632.944643 342.553846 
L 650.658929 368.4 
L 668.373214 407.169231 
L 686.0875 368.4 
L 703.801786 342.553846 
L 721.516071 329.630769 
L 739.230357 445.938462 
L 756.944643 433.015385 
L 774.658929 420.092308 
L 792.373214 458.861538 
L 810.0875 458.861538 
L 827.801786 458.861538 
L 845.516071 445.938462 
L 863.230357 484.707692 
L 880.944643 497.630769 
L 898.658929 510.553846 
L 916.373214 381.323077 
L 934.0875 484.707692 
L 951.801786 497.630769 
L 969.516071 510.553846 
L 987.230357 536.4 
L 1004.944643 471.784615 
L 1022.658929 523.476923 
L 1040.373214 497.630769 
L 1058.0875 497.630769 
L 1075.801786 471.784615 
L 1093.516071 510.553846 
L 1111.230357 523.476923 
L 1128.944643 510.553846 
L 1146.658929 536.4 
L 1164.373214 536.4 
L 1182.0875 523.476923 
" clip-path="url(#p65569f495b)" style="fill: none; stroke: #ffb6a6; stroke-width: 4; stroke-linecap: round"/>
   </g>
   <g id="line2d_67">
    <path d="M 66.0875 536.4 
L 83.801786 536.4 
L 101.516071 536.4 
L 119.230357 536.4 
L 136.944643 536.4 
L 154.658929 536.4 
L 172.373214 536.4 
L 190.0875 536.4 
L 207.801786 523.476923 
L 225.516071 484.707692 
L 243.230357 536.4 
L 260.944643 536.4 
L 278.658929 536.4 
L 296.373214 471.784615 
L 314.0875 523.476923 
L 331.801786 523.476923 
L 349.516071 536.4 
L 367.230357 523.476923 
L 384.944643 523.476923 
L 402.658929 497.630769 
L 420.373214 510.553846 
L 438.0875 523.476923 
L 455.801786 523.476923 
L 473.516071 497.630769 
L 491.230357 497.630769 
L 508.944643 407.169231 
L 526.658929 407.169231 
L 544.373214 445.938462 
L 562.0875 445.938462 
L 579.801786 381.323077 
L 597.516071 420.092308 
L 615.230357 381.323077 
L 632.944643 433.015385 
L 650.658929 471.784615 
L 668.373214 420.092308 
L 686.0875 458.861538 
L 703.801786 497.630769 
L 721.516071 420.092308 
L 739.230357 420.092308 
L 756.944643 510.553846 
L 774.658929 471.784615 
L 792.373214 407.169231 
L 810.0875 471.784615 
L 827.801786 458.861538 
L 845.516071 445.938462 
L 863.230357 471.784615 
L 880.944643 484.707692 
L 898.658929 471.784615 
L 916.373214 510.553846 
L 934.0875 407.169231 
L 951.801786 471.784615 
L 969.516071 407.169231 
L 987.230357 510.553846 
L 1004.944643 368.4 
L 1022.658929 510.553846 
L 1040.373214 510.553846 
L 1058.0875 523.476923 
L 1075.801786 523.476923 
L 1093.516071 536.4 
L 1111.230357 484.707692 
L 1128.944643 484.707692 
L 1146.658929 471.784615 
L 1164.373214 484.707692 
L 1182.0875 484.707692 
" clip-path="url(#p65569f495b)" style="fill: none; stroke: #ffbcd9; stroke-width: 4; stroke-linecap: round"/>
   </g>
   <g id="line2d_68">
    <path d="M 66.0875 536.4 
L 83.801786 510.553846 
L 101.516071 536.4 
L 119.230357 536.4 
L 136.944643 536.4 
L 154.658929 536.4 
L 172.373214 536.4 
L 190.0875 536.4 
L 207.801786 510.553846 
L 225.516071 536.4 
L 243.230357 523.476923 
L 260.944643 523.476923 
L 278.658929 523.476923 
L 296.373214 497.630769 
L 314.0875 523.476923 
L 331.801786 523.476923 
L 349.516071 497.630769 
L 367.230357 484.707692 
L 384.944643 523.476923 
L 402.658929 536.4 
L 420.373214 510.553846 
L 438.0875 523.476923 
L 455.801786 510.553846 
L 473.516071 510.553846 
L 491.230357 484.707692 
L 508.944643 523.476923 
L 526.658929 523.476923 
L 544.373214 484.707692 
L 562.0875 536.4 
L 579.801786 484.707692 
L 597.516071 484.707692 
L 615.230357 510.553846 
L 632.944643 510.553846 
L 650.658929 523.476923 
L 668.373214 523.476923 
L 686.0875 523.476923 
L 703.801786 523.476923 
L 721.516071 510.553846 
L 739.230357 523.476923 
L 756.944643 523.476923 
L 774.658929 536.4 
L 792.373214 536.4 
L 810.0875 510.553846 
L 827.801786 510.553846 
L 845.516071 523.476923 
L 863.230357 536.4 
L 880.944643 536.4 
L 898.658929 536.4 
L 916.373214 510.553846 
L 934.0875 510.553846 
L 951.801786 523.476923 
L 969.516071 536.4 
L 987.230357 536.4 
L 1004.944643 536.4 
L 1022.658929 536.4 
L 1040.373214 536.4 
L 1058.0875 536.4 
L 1075.801786 523.476923 
L 1093.516071 536.4 
L 1111.230357 510.553846 
L 1128.944643 536.4 
L 1146.658929 536.4 
L 1164.373214 536.4 
L 1182.0875 536.4 
" clip-path="url(#p65569f495b)" style="fill: none; stroke: #94e1f0; stroke-width: 4; stroke-linecap: round"/>
   </g>
   <g id="line2d_69">
    <path d="M 154.658929 561.6 
L 154.658929 7.2 
" clip-path="url(#p65569f495b)" style="fill: none; stroke: #fa824c; stroke-width: 4; stroke-linecap: round"/>
   </g>
   <g id="patch_3">
    <path d="M 66.0875 561.6 
L 66.0875 7.2 
" style="fill: none; stroke: #cccccc; stroke-width: 2.5; stroke-linejoin: miter; stroke-linecap: square"/>
   </g>
   <g id="patch_4">
    <path d="M 1182.0875 561.6 
L 1182.0875 7.2 
" style="fill: none; stroke: #cccccc; stroke-width: 2.5; stroke-linejoin: miter; stroke-linecap: square"/>
   </g>
   <g id="patch_5">
    <path d="M 66.0875 561.6 
L 1182.0875 561.6 
" style="fill: none; stroke: #cccccc; stroke-width: 2.5; stroke-linejoin: miter; stroke-linecap: square"/>
   </g>
   <g id="patch_6">
    <path d="M 66.0875 7.2 
L 1182.0875 7.2 
" style="fill: none; stroke: #cccccc; stroke-width: 2.5; stroke-linejoin: miter; stroke-linecap: square"/>
   </g>
   <g id="legend_1">
    <g id="patch_7">
     <path d="M 218.178906 716.92 
L 1029.996094 716.92 
Q 1034.396094 716.92 1034.396094 712.52 
L 1034.396094 682.534688 
Q 1034.396094 678.134687 1029.996094 678.134687 
L 218.178906 678.134687 
Q 213.778906 678.134687 213.778906 682.534688 
L 213.778906 712.52 
Q 213.778906 716.92 218.178906 716.92 
z
" style="fill: #ffffff; opacity: 0.8; stroke: #cccccc; stroke-width: 2; stroke-linejoin: miter"/>
    </g>
    <g id="line2d_70">
     <path d="M 222.578906 695.734687 
L 244.578906 695.734687 
L 266.578906 695.734687 
" style="fill: none; stroke: #decf7a; stroke-width: 4; stroke-linecap: round"/>
    </g>
    <g id="text_20">
     <!-- C01 -->
     <g style="fill: #262626" transform="translate(284.178906 703.434687) scale(0.22 -0.22)">
      <defs>
       <path id="FiraSans-Regular-43" d="M 2182 4486 
Q 2579 4486 2851 4384 
Q 3123 4282 3405 4051 
L 3072 3661 
Q 2669 3987 2221 3987 
Q 1670 3987 1334 3564 
Q 998 3142 998 2208 
Q 998 1299 1331 867 
Q 1664 435 2214 435 
Q 2496 435 2707 531 
Q 2918 627 3155 800 
L 3456 416 
Q 3251 205 2931 64 
Q 2611 -77 2195 -77 
Q 1658 -77 1238 188 
Q 819 454 585 969 
Q 352 1485 352 2208 
Q 352 2931 595 3446 
Q 838 3962 1254 4224 
Q 1670 4486 2182 4486 
z
" transform="scale(0.015625)"/>
      </defs>
      <use xlink:href="#FiraSans-Regular-43"/>
      <use xlink:href="#FiraSans-Regular-30" transform="translate(55.999985 0)"/>
      <use xlink:href="#FiraSans-Regular-31" transform="translate(111.799973 0)"/>
     </g>
    </g>
    <g id="line2d_71">
     <path d="M 362.299531 695.734687 
L 384.299531 695.734687 
L 406.299531 695.734687 
" style="fill: none; stroke: #dcd0fc; stroke-width: 4; stroke-linecap: round"/>
    </g>
    <g id="text_21">
     <!-- C02 -->
     <g style="fill: #262626" transform="translate(423.899531 703.434687) scale(0.22 -0.22)">
      <use xlink:href="#FiraSans-Regular-43"/>
      <use xlink:href="#FiraSans-Regular-30" transform="translate(55.999985 0)"/>
      <use xlink:href="#FiraSans-Regular-32" transform="translate(111.799973 0)"/>
     </g>
    </g>
    <g id="line2d_72">
     <path d="M 503.384844 695.734687 
L 525.384844 695.734687 
L 547.384844 695.734687 
" style="fill: none; stroke: #6fedce; stroke-width: 4; stroke-linecap: round"/>
    </g>
    <g id="text_22">
     <!-- C03 -->
     <g style="fill: #262626" transform="translate(564.984844 703.434687) scale(0.22 -0.22)">
      <use xlink:href="#FiraSans-Regular-43"/>
      <use xlink:href="#FiraSans-Regular-30" transform="translate(55.999985 0)"/>
      <use xlink:href="#FiraSans-Regular-33" transform="translate(111.799973 0)"/>
     </g>
    </g>
    <g id="line2d_73">
     <path d="M 644.559531 695.734687 
L 666.559531 695.734687 
L 688.559531 695.734687 
" style="fill: none; stroke: #ffb6a6; stroke-width: 4; stroke-linecap: round"/>
    </g>
    <g id="text_23">
     <!-- C04 -->
     <g style="fill: #262626" transform="translate(706.159531 703.434687) scale(0.22 -0.22)">
      <use xlink:href="#FiraSans-Regular-43"/>
      <use xlink:href="#FiraSans-Regular-30" transform="translate(55.999985 0)"/>
      <use xlink:href="#FiraSans-Regular-34" transform="translate(111.799973 0)"/>
     </g>
    </g>
    <g id="line2d_74">
     <path d="M 786.459531 695.734687 
L 808.459531 695.734687 
L 830.459531 695.734687 
" style="fill: none; stroke: #ffbcd9; stroke-width: 4; stroke-linecap: round"/>
    </g>
    <g id="text_24">
     <!-- C05 -->
     <g style="fill: #262626" transform="translate(848.059531 703.434687) scale(0.22 -0.22)">
      <use xlink:href="#FiraSans-Regular-43"/>
      <use xlink:href="#FiraSans-Regular-30" transform="translate(55.999985 0)"/>
      <use xlink:href="#FiraSans-Regular-35" transform="translate(111.799973 0)"/>
     </g>
    </g>
    <g id="line2d_75">
     <path d="M 927.675469 695.734687 
L 949.675469 695.734687 
L 971.675469 695.734687 
" style="fill: none; stroke: #94e1f0; stroke-width: 4; stroke-linecap: round"/>
    </g>
    <g id="text_25">
     <!-- C06 -->
     <g style="fill: #262626" transform="translate(989.275469 703.434687) scale(0.22 -0.22)">
      <use xlink:href="#FiraSans-Regular-43"/>
      <use xlink:href="#FiraSans-Regular-30" transform="translate(55.999985 0)"/>
      <use xlink:href="#FiraSans-Regular-36" transform="translate(111.799973 0)"/>
     </g>
    </g>
   </g>
  </g>
 </g>
 <defs>
  <clipPath id="p65569f495b">
   <rect x="66.0875" y="7.2" width="1116" height="554.4"/>
  </clipPath>
 </defs>
</svg>
